%TF.GenerationSoftware,KiCad,Pcbnew,(5.1.9)-1*%
%TF.CreationDate,2021-05-10T20:34:24-02:30*%
%TF.ProjectId,beverageWarmer1,62657665-7261-4676-9557-61726d657231,rev?*%
%TF.SameCoordinates,Original*%
%TF.FileFunction,Copper,L4,Bot*%
%TF.FilePolarity,Positive*%
%FSLAX46Y46*%
G04 Gerber Fmt 4.6, Leading zero omitted, Abs format (unit mm)*
G04 Created by KiCad (PCBNEW (5.1.9)-1) date 2021-05-10 20:34:24*
%MOMM*%
%LPD*%
G01*
G04 APERTURE LIST*
%TA.AperFunction,ComponentPad*%
%ADD10C,0.800000*%
%TD*%
%TA.AperFunction,ComponentPad*%
%ADD11C,6.400000*%
%TD*%
%TA.AperFunction,ComponentPad*%
%ADD12O,1.400000X1.400000*%
%TD*%
%TA.AperFunction,ComponentPad*%
%ADD13C,1.400000*%
%TD*%
%TA.AperFunction,ViaPad*%
%ADD14C,0.800000*%
%TD*%
%TA.AperFunction,Conductor*%
%ADD15C,0.250000*%
%TD*%
G04 APERTURE END LIST*
D10*
%TO.P,REF\u002A\u002A,1*%
%TO.N,N/C*%
X185847056Y-150702944D03*
X184150000Y-150000000D03*
X182452944Y-150702944D03*
X181750000Y-152400000D03*
X182452944Y-154097056D03*
X184150000Y-154800000D03*
X185847056Y-154097056D03*
X186550000Y-152400000D03*
D11*
X184150000Y-152400000D03*
%TD*%
D10*
%TO.P,REF\u002A\u002A,1*%
%TO.N,N/C*%
X95677056Y-150702944D03*
X93980000Y-150000000D03*
X92282944Y-150702944D03*
X91580000Y-152400000D03*
X92282944Y-154097056D03*
X93980000Y-154800000D03*
X95677056Y-154097056D03*
X96380000Y-152400000D03*
D11*
X93980000Y-152400000D03*
%TD*%
%TO.P,REF\u002A\u002A,1*%
%TO.N,N/C*%
X95250000Y-31750000D03*
D10*
X97650000Y-31750000D03*
X96947056Y-33447056D03*
X95250000Y-34150000D03*
X93552944Y-33447056D03*
X92850000Y-31750000D03*
X93552944Y-30052944D03*
X95250000Y-29350000D03*
X96947056Y-30052944D03*
%TD*%
%TO.P,REF\u002A\u002A,1*%
%TO.N,N/C*%
X184577056Y-30052944D03*
X182880000Y-29350000D03*
X181182944Y-30052944D03*
X180480000Y-31750000D03*
X181182944Y-33447056D03*
X182880000Y-34150000D03*
X184577056Y-33447056D03*
X185280000Y-31750000D03*
D11*
X182880000Y-31750000D03*
%TD*%
D12*
%TO.P,TH401,2*%
%TO.N,Net-(R402-Pad1)*%
X119888000Y-143256000D03*
D13*
%TO.P,TH401,1*%
%TO.N,GND*%
X119888000Y-145796000D03*
%TD*%
D12*
%TO.P,TH400,2*%
%TO.N,Net-(R402-Pad1)*%
X139192000Y-75692000D03*
D13*
%TO.P,TH400,1*%
%TO.N,GND*%
X141732000Y-75692000D03*
%TD*%
D14*
%TO.N,GND*%
X99568000Y-150876000D03*
X100584000Y-150876000D03*
X100584000Y-142748000D03*
X99568000Y-142748000D03*
X102108000Y-138176000D03*
X100076000Y-139192000D03*
X141732000Y-77724000D03*
X113792000Y-93472000D03*
X147320000Y-93472000D03*
X179832000Y-93472000D03*
X102616000Y-43688000D03*
X136144000Y-43688000D03*
X168656000Y-43688000D03*
X121920000Y-145796000D03*
X180340000Y-134620000D03*
X180340000Y-136652000D03*
X180340000Y-135636000D03*
X187960000Y-138684000D03*
X187960000Y-140716000D03*
X187960000Y-139700000D03*
X187960000Y-144780000D03*
X187960000Y-145796000D03*
X187960000Y-146812000D03*
X98552000Y-127508000D03*
X99568000Y-127508000D03*
X100584000Y-127508000D03*
X90424000Y-142748000D03*
X91440000Y-142748000D03*
X92456000Y-142748000D03*
X97536000Y-135128000D03*
X181356000Y-48260000D03*
X181356000Y-53340000D03*
X181356000Y-50800000D03*
X120396000Y-132080000D03*
X123952000Y-137160000D03*
X133096000Y-146304000D03*
X112268000Y-147828000D03*
X137959000Y-132588000D03*
X138176000Y-137160000D03*
X147828000Y-137668000D03*
X151892000Y-137668000D03*
X166624000Y-153924000D03*
X151601000Y-148336000D03*
X147320000Y-148336000D03*
X146304000Y-154432000D03*
%TO.N,+12V*%
X99060000Y-135128000D03*
X100742990Y-135128000D03*
X93472000Y-135636000D03*
X95504000Y-135636000D03*
X94488000Y-135636000D03*
X167132000Y-133604000D03*
X165608000Y-133604000D03*
X164084000Y-133604000D03*
X159004000Y-134620000D03*
X116332000Y-133096000D03*
X102108000Y-150876000D03*
X102108000Y-151892000D03*
%TO.N,+5V*%
X147828000Y-135014500D03*
X132600819Y-135098665D03*
X100076000Y-138176000D03*
X133096000Y-140208000D03*
X159512000Y-146304000D03*
X146304000Y-148336000D03*
%TO.N,Net-(R402-Pad1)*%
X127508000Y-143256000D03*
%TD*%
D15*
%TO.N,Net-(R402-Pad1)*%
X127508000Y-143256000D02*
X137160000Y-143256000D01*
X139192000Y-141224000D02*
X139192000Y-75692000D01*
X137160000Y-143256000D02*
X139192000Y-141224000D01*
%TD*%
M02*
