%TF.GenerationSoftware,KiCad,Pcbnew,(5.1.8)-1*%
%TF.CreationDate,2022-01-18T09:11:41-03:30*%
%TF.ProjectId,beverageWarmer1,62657665-7261-4676-9557-61726d657231,rev?*%
%TF.SameCoordinates,Original*%
%TF.FileFunction,Copper,L4,Bot*%
%TF.FilePolarity,Positive*%
%FSLAX46Y46*%
G04 Gerber Fmt 4.6, Leading zero omitted, Abs format (unit mm)*
G04 Created by KiCad (PCBNEW (5.1.8)-1) date 2022-01-18 09:11:41*
%MOMM*%
%LPD*%
G01*
G04 APERTURE LIST*
%TA.AperFunction,ComponentPad*%
%ADD10C,0.800000*%
%TD*%
%TA.AperFunction,ComponentPad*%
%ADD11C,6.400000*%
%TD*%
%TA.AperFunction,ComponentPad*%
%ADD12O,1.500000X2.020000*%
%TD*%
%TA.AperFunction,ComponentPad*%
%ADD13R,1.000000X1.000000*%
%TD*%
%TA.AperFunction,ComponentPad*%
%ADD14O,1.000000X1.000000*%
%TD*%
%TA.AperFunction,ComponentPad*%
%ADD15O,2.020000X1.500000*%
%TD*%
%TA.AperFunction,ViaPad*%
%ADD16C,0.800000*%
%TD*%
%TA.AperFunction,Conductor*%
%ADD17C,0.250000*%
%TD*%
%TA.AperFunction,Conductor*%
%ADD18C,0.500000*%
%TD*%
G04 APERTURE END LIST*
D10*
%TO.P,REF\u002A\u002A,1*%
%TO.N,N/C*%
X185847056Y-150702944D03*
X184150000Y-150000000D03*
X182452944Y-150702944D03*
X181750000Y-152400000D03*
X182452944Y-154097056D03*
X184150000Y-154800000D03*
X185847056Y-154097056D03*
X186550000Y-152400000D03*
D11*
X184150000Y-152400000D03*
%TD*%
D10*
%TO.P,REF\u002A\u002A,1*%
%TO.N,N/C*%
X95677056Y-150702944D03*
X93980000Y-150000000D03*
X92282944Y-150702944D03*
X91580000Y-152400000D03*
X92282944Y-154097056D03*
X93980000Y-154800000D03*
X95677056Y-154097056D03*
X96380000Y-152400000D03*
D11*
X93980000Y-152400000D03*
%TD*%
%TO.P,REF\u002A\u002A,1*%
%TO.N,N/C*%
X95250000Y-31750000D03*
D10*
X97650000Y-31750000D03*
X96947056Y-33447056D03*
X95250000Y-34150000D03*
X93552944Y-33447056D03*
X92850000Y-31750000D03*
X93552944Y-30052944D03*
X95250000Y-29350000D03*
X96947056Y-30052944D03*
%TD*%
%TO.P,REF\u002A\u002A,1*%
%TO.N,N/C*%
X184577056Y-30052944D03*
X182880000Y-29350000D03*
X181182944Y-30052944D03*
X180480000Y-31750000D03*
X181182944Y-33447056D03*
X182880000Y-34150000D03*
X184577056Y-33447056D03*
X185280000Y-31750000D03*
D11*
X182880000Y-31750000D03*
%TD*%
%TO.P,C20,1*%
%TO.N,GND*%
%TA.AperFunction,SMDPad,CuDef*%
G36*
G01*
X127740600Y-140100600D02*
X128240600Y-140100600D01*
G75*
G02*
X128465600Y-140325600I0J-225000D01*
G01*
X128465600Y-140775600D01*
G75*
G02*
X128240600Y-141000600I-225000J0D01*
G01*
X127740600Y-141000600D01*
G75*
G02*
X127515600Y-140775600I0J225000D01*
G01*
X127515600Y-140325600D01*
G75*
G02*
X127740600Y-140100600I225000J0D01*
G01*
G37*
%TD.AperFunction*%
%TO.P,C20,2*%
%TO.N,/THERM_OUTPUT_FILT_AI*%
%TA.AperFunction,SMDPad,CuDef*%
G36*
G01*
X127740600Y-141650600D02*
X128240600Y-141650600D01*
G75*
G02*
X128465600Y-141875600I0J-225000D01*
G01*
X128465600Y-142325600D01*
G75*
G02*
X128240600Y-142550600I-225000J0D01*
G01*
X127740600Y-142550600D01*
G75*
G02*
X127515600Y-142325600I0J225000D01*
G01*
X127515600Y-141875600D01*
G75*
G02*
X127740600Y-141650600I225000J0D01*
G01*
G37*
%TD.AperFunction*%
%TD*%
%TO.P,POWER (12V),1*%
%TO.N,Net-(F1-Pad1)*%
%TA.AperFunction,ComponentPad*%
G36*
G01*
X105875520Y-147154360D02*
X105875520Y-148674360D01*
G75*
G02*
X105625520Y-148924360I-250000J0D01*
G01*
X104625520Y-148924360D01*
G75*
G02*
X104375520Y-148674360I0J250000D01*
G01*
X104375520Y-147154360D01*
G75*
G02*
X104625520Y-146904360I250000J0D01*
G01*
X105625520Y-146904360D01*
G75*
G02*
X105875520Y-147154360I0J-250000D01*
G01*
G37*
%TD.AperFunction*%
D12*
%TO.P,POWER (12V),2*%
%TO.N,GND*%
X102125520Y-147914360D03*
%TD*%
%TO.P,CAN CONN,2*%
%TO.N,/CAN_N*%
X167652440Y-147868640D03*
%TO.P,CAN CONN,1*%
%TO.N,/CAN_P*%
%TA.AperFunction,ComponentPad*%
G36*
G01*
X171402440Y-147108640D02*
X171402440Y-148628640D01*
G75*
G02*
X171152440Y-148878640I-250000J0D01*
G01*
X170152440Y-148878640D01*
G75*
G02*
X169902440Y-148628640I0J250000D01*
G01*
X169902440Y-147108640D01*
G75*
G02*
X170152440Y-146858640I250000J0D01*
G01*
X171152440Y-146858640D01*
G75*
G02*
X171402440Y-147108640I0J-250000D01*
G01*
G37*
%TD.AperFunction*%
%TD*%
D13*
%TO.P,SWD,1*%
%TO.N,/SWDIO*%
X137922000Y-138430000D03*
D14*
%TO.P,SWD,2*%
%TO.N,GND*%
X139192000Y-138430000D03*
%TO.P,SWD,3*%
%TO.N,/SWCLK*%
X137922000Y-137160000D03*
%TO.P,SWD,4*%
%TO.N,Net-(J3-Pad4)*%
X139192000Y-137160000D03*
%TO.P,SWD,5*%
%TO.N,Net-(D5-Pad1)*%
X137922000Y-135890000D03*
%TO.P,SWD,6*%
%TO.N,/~SW_RESET*%
X139192000Y-135890000D03*
%TD*%
%TO.P,THERMISTOR,1*%
%TO.N,Net-(J4-Pad1)*%
%TA.AperFunction,ComponentPad*%
G36*
G01*
X99423760Y-136736520D02*
X97903760Y-136736520D01*
G75*
G02*
X97653760Y-136486520I0J250000D01*
G01*
X97653760Y-135486520D01*
G75*
G02*
X97903760Y-135236520I250000J0D01*
G01*
X99423760Y-135236520D01*
G75*
G02*
X99673760Y-135486520I0J-250000D01*
G01*
X99673760Y-136486520D01*
G75*
G02*
X99423760Y-136736520I-250000J0D01*
G01*
G37*
%TD.AperFunction*%
D15*
%TO.P,THERMISTOR,2*%
%TO.N,GND*%
X98663760Y-132986520D03*
%TD*%
%TO.P,R27,1*%
%TO.N,/THERM_OUTPUT_FILT_AI*%
%TA.AperFunction,SMDPad,CuDef*%
G36*
G01*
X129840400Y-142565840D02*
X129290400Y-142565840D01*
G75*
G02*
X129090400Y-142365840I0J200000D01*
G01*
X129090400Y-141965840D01*
G75*
G02*
X129290400Y-141765840I200000J0D01*
G01*
X129840400Y-141765840D01*
G75*
G02*
X130040400Y-141965840I0J-200000D01*
G01*
X130040400Y-142365840D01*
G75*
G02*
X129840400Y-142565840I-200000J0D01*
G01*
G37*
%TD.AperFunction*%
%TO.P,R27,2*%
%TO.N,Net-(R26-Pad1)*%
%TA.AperFunction,SMDPad,CuDef*%
G36*
G01*
X129840400Y-140915840D02*
X129290400Y-140915840D01*
G75*
G02*
X129090400Y-140715840I0J200000D01*
G01*
X129090400Y-140315840D01*
G75*
G02*
X129290400Y-140115840I200000J0D01*
G01*
X129840400Y-140115840D01*
G75*
G02*
X130040400Y-140315840I0J-200000D01*
G01*
X130040400Y-140715840D01*
G75*
G02*
X129840400Y-140915840I-200000J0D01*
G01*
G37*
%TD.AperFunction*%
%TD*%
D16*
%TO.N,GND*%
X181356000Y-50800000D03*
X179832000Y-48260000D03*
X179832000Y-53340000D03*
X179832000Y-50800000D03*
X121412000Y-146558000D03*
X121412000Y-145542000D03*
X122428000Y-145542000D03*
X122428000Y-146558000D03*
X123444000Y-146558000D03*
X123444000Y-145542000D03*
X103124000Y-131064000D03*
X102108000Y-131064000D03*
X101092000Y-131064000D03*
X97028000Y-144526000D03*
X97028000Y-145796000D03*
X97028000Y-147066000D03*
X98298000Y-144526000D03*
X98298000Y-145796000D03*
X98298000Y-147066000D03*
X143764000Y-141986000D03*
X144780000Y-141986000D03*
X145796000Y-141986000D03*
X147320000Y-153670000D03*
X146304000Y-153670000D03*
X145288000Y-153670000D03*
X118651020Y-132615940D03*
X118110000Y-151638000D03*
X115570000Y-156210000D03*
X111252000Y-155194000D03*
X121920000Y-155956000D03*
X122936000Y-155956000D03*
X165608000Y-129794000D03*
X165608000Y-130810000D03*
X132588000Y-154686000D03*
X133858000Y-154686000D03*
X162566500Y-138931500D03*
X185420000Y-144526000D03*
X150114000Y-145008000D03*
X129794000Y-143764000D03*
X181356000Y-48260000D03*
X181356000Y-53340000D03*
X182880000Y-53340000D03*
X182880000Y-50800000D03*
X182880000Y-48260000D03*
X134366000Y-138684000D03*
X132588000Y-138684000D03*
X181051200Y-128676400D03*
X183616600Y-142163800D03*
X185166000Y-142163800D03*
X128493520Y-139217400D03*
X109491780Y-135201660D03*
%TO.N,+12V*%
X162560000Y-136652000D03*
X162560000Y-135382000D03*
X166116000Y-143256000D03*
X167132000Y-143256000D03*
X168148000Y-143256000D03*
X162560000Y-134112000D03*
%TO.N,+3V3*%
X145000000Y-136250000D03*
X122174000Y-148590000D03*
X150114000Y-146558000D03*
X124714000Y-136398000D03*
X125730000Y-136398000D03*
X126746000Y-136398000D03*
X124714000Y-137414000D03*
X125730000Y-137414000D03*
X126746000Y-137414000D03*
X117167660Y-130167380D03*
X140201500Y-141979500D03*
X142737840Y-150002240D03*
X104640380Y-138084560D03*
%TO.N,/~SW_RESET*%
X141732000Y-135890000D03*
X131063027Y-144980988D03*
%TO.N,/USER_SW*%
X131064000Y-143764000D03*
X131624128Y-148761152D03*
%TO.N,/THERM_OUTPUT_FILT_AI*%
X130545840Y-146725640D03*
%TO.N,Net-(Q1-Pad2)*%
X110490000Y-145542000D03*
X114300000Y-141732000D03*
%TO.N,/BUCK_PWM*%
X143256000Y-147320000D03*
X148590000Y-142240000D03*
%TO.N,Net-(R26-Pad1)*%
X116575840Y-132760720D03*
%TO.N,/BUCK_OUTPUT_AI*%
X125222000Y-144780000D03*
X184153482Y-143007471D03*
%TO.N,/THERM_OUTPUT_UNFILT_AI*%
X107340400Y-136652000D03*
X134924800Y-150063200D03*
%TD*%
D17*
%TO.N,GND*%
X127990600Y-139720320D02*
X128493520Y-139217400D01*
X127990600Y-140550600D02*
X127990600Y-139720320D01*
%TO.N,/~SW_RESET*%
X141732000Y-135890000D02*
X140462000Y-134620000D01*
X131789001Y-135672999D02*
X131789001Y-144255014D01*
X132842000Y-134620000D02*
X131789001Y-135672999D01*
X140462000Y-134620000D02*
X132842000Y-134620000D01*
X131789001Y-144255014D02*
X131063027Y-144980988D01*
%TO.N,/USER_SW*%
X131470400Y-148590000D02*
X131470400Y-148590000D01*
X131624128Y-146768340D02*
X131624128Y-148761152D01*
X131064000Y-143764000D02*
X129841894Y-144986106D01*
X129841894Y-144986106D02*
X131624128Y-146768340D01*
%TO.N,/THERM_OUTPUT_FILT_AI*%
X129500160Y-142100600D02*
X129565400Y-142165840D01*
X127990600Y-142100600D02*
X129500160Y-142100600D01*
X129565400Y-142165840D02*
X129565400Y-142514320D01*
X129565400Y-142165840D02*
X129565400Y-142580360D01*
X129565400Y-142580360D02*
X128996440Y-143149320D01*
X130545840Y-146725640D02*
X129600960Y-146725640D01*
X128996440Y-146121120D02*
X128996440Y-143149320D01*
X129600960Y-146725640D02*
X128996440Y-146121120D01*
D18*
%TO.N,Net-(Q1-Pad2)*%
X110490000Y-145542000D02*
X114300000Y-141732000D01*
D17*
%TO.N,/BUCK_PWM*%
X148336000Y-142240000D02*
X148590000Y-142240000D01*
X143256000Y-147320000D02*
X148336000Y-142240000D01*
%TO.N,Net-(R26-Pad1)*%
X129565400Y-140515840D02*
X129565400Y-138978640D01*
X129565400Y-138978640D02*
X128828800Y-138242040D01*
X128828800Y-138242040D02*
X122920760Y-138242040D01*
X117439440Y-132760720D02*
X116575840Y-132760720D01*
X122920760Y-138242040D02*
X117439440Y-132760720D01*
%TO.N,/BUCK_OUTPUT_AI*%
X171204953Y-155956000D02*
X184153482Y-143007471D01*
X129479040Y-155956000D02*
X171204953Y-155956000D01*
X125267720Y-151744680D02*
X129479040Y-155956000D01*
X125222000Y-148393002D02*
X125267720Y-148438722D01*
X125267720Y-148438722D02*
X125267720Y-151744680D01*
X125222000Y-144780000D02*
X125222000Y-148393002D01*
%TO.N,/THERM_OUTPUT_UNFILT_AI*%
X134924800Y-150063200D02*
X134924800Y-150063200D01*
X126014480Y-144378680D02*
X126014480Y-149423120D01*
X125633480Y-143997680D02*
X126014480Y-144378680D01*
X126654560Y-150063200D02*
X134924800Y-150063200D01*
X123611640Y-143997680D02*
X125633480Y-143997680D01*
X122229880Y-142615920D02*
X123611640Y-143997680D01*
X122229880Y-140187680D02*
X122229880Y-142615920D01*
X110490000Y-138938000D02*
X120980200Y-138938000D01*
X126014480Y-149423120D02*
X126654560Y-150063200D01*
X108675001Y-137123001D02*
X110490000Y-138938000D01*
X120980200Y-138938000D02*
X122229880Y-140187680D01*
X107811401Y-137123001D02*
X108675001Y-137123001D01*
X107340400Y-136652000D02*
X107811401Y-137123001D01*
%TD*%
M02*
