%TF.GenerationSoftware,KiCad,Pcbnew,(5.1.8)-1*%
%TF.CreationDate,2022-01-18T09:11:41-03:30*%
%TF.ProjectId,beverageWarmer1,62657665-7261-4676-9557-61726d657231,rev?*%
%TF.SameCoordinates,Original*%
%TF.FileFunction,Copper,L3,Inr*%
%TF.FilePolarity,Positive*%
%FSLAX46Y46*%
G04 Gerber Fmt 4.6, Leading zero omitted, Abs format (unit mm)*
G04 Created by KiCad (PCBNEW (5.1.8)-1) date 2022-01-18 09:11:41*
%MOMM*%
%LPD*%
G01*
G04 APERTURE LIST*
%TA.AperFunction,ComponentPad*%
%ADD10C,0.800000*%
%TD*%
%TA.AperFunction,ComponentPad*%
%ADD11C,6.400000*%
%TD*%
%TA.AperFunction,ComponentPad*%
%ADD12O,1.500000X2.020000*%
%TD*%
%TA.AperFunction,ComponentPad*%
%ADD13R,1.000000X1.000000*%
%TD*%
%TA.AperFunction,ComponentPad*%
%ADD14O,1.000000X1.000000*%
%TD*%
%TA.AperFunction,ComponentPad*%
%ADD15O,2.020000X1.500000*%
%TD*%
%TA.AperFunction,ViaPad*%
%ADD16C,0.800000*%
%TD*%
%TA.AperFunction,Conductor*%
%ADD17C,0.254000*%
%TD*%
%TA.AperFunction,Conductor*%
%ADD18C,0.100000*%
%TD*%
G04 APERTURE END LIST*
D10*
%TO.N,N/C*%
%TO.C,REF\u002A\u002A*%
X185847056Y-150702944D03*
X184150000Y-150000000D03*
X182452944Y-150702944D03*
X181750000Y-152400000D03*
X182452944Y-154097056D03*
X184150000Y-154800000D03*
X185847056Y-154097056D03*
X186550000Y-152400000D03*
D11*
X184150000Y-152400000D03*
%TD*%
D10*
%TO.N,N/C*%
%TO.C,REF\u002A\u002A*%
X95677056Y-150702944D03*
X93980000Y-150000000D03*
X92282944Y-150702944D03*
X91580000Y-152400000D03*
X92282944Y-154097056D03*
X93980000Y-154800000D03*
X95677056Y-154097056D03*
X96380000Y-152400000D03*
D11*
X93980000Y-152400000D03*
%TD*%
%TO.N,N/C*%
%TO.C,REF\u002A\u002A*%
X95250000Y-31750000D03*
D10*
X97650000Y-31750000D03*
X96947056Y-33447056D03*
X95250000Y-34150000D03*
X93552944Y-33447056D03*
X92850000Y-31750000D03*
X93552944Y-30052944D03*
X95250000Y-29350000D03*
X96947056Y-30052944D03*
%TD*%
%TO.N,N/C*%
%TO.C,REF\u002A\u002A*%
X184577056Y-30052944D03*
X182880000Y-29350000D03*
X181182944Y-30052944D03*
X180480000Y-31750000D03*
X181182944Y-33447056D03*
X182880000Y-34150000D03*
X184577056Y-33447056D03*
X185280000Y-31750000D03*
D11*
X182880000Y-31750000D03*
%TD*%
%TO.N,Net-(F1-Pad1)*%
%TO.C,POWER (12V)*%
%TA.AperFunction,ComponentPad*%
G36*
G01*
X105875520Y-147154360D02*
X105875520Y-148674360D01*
G75*
G02*
X105625520Y-148924360I-250000J0D01*
G01*
X104625520Y-148924360D01*
G75*
G02*
X104375520Y-148674360I0J250000D01*
G01*
X104375520Y-147154360D01*
G75*
G02*
X104625520Y-146904360I250000J0D01*
G01*
X105625520Y-146904360D01*
G75*
G02*
X105875520Y-147154360I0J-250000D01*
G01*
G37*
%TD.AperFunction*%
D12*
%TO.N,GND*%
X102125520Y-147914360D03*
%TD*%
%TO.N,/CAN_N*%
%TO.C,CAN CONN*%
X167652440Y-147868640D03*
%TO.N,/CAN_P*%
%TA.AperFunction,ComponentPad*%
G36*
G01*
X171402440Y-147108640D02*
X171402440Y-148628640D01*
G75*
G02*
X171152440Y-148878640I-250000J0D01*
G01*
X170152440Y-148878640D01*
G75*
G02*
X169902440Y-148628640I0J250000D01*
G01*
X169902440Y-147108640D01*
G75*
G02*
X170152440Y-146858640I250000J0D01*
G01*
X171152440Y-146858640D01*
G75*
G02*
X171402440Y-147108640I0J-250000D01*
G01*
G37*
%TD.AperFunction*%
%TD*%
D13*
%TO.N,/SWDIO*%
%TO.C,SWD*%
X137922000Y-138430000D03*
D14*
%TO.N,GND*%
X139192000Y-138430000D03*
%TO.N,/SWCLK*%
X137922000Y-137160000D03*
%TO.N,Net-(J3-Pad4)*%
X139192000Y-137160000D03*
%TO.N,Net-(D5-Pad1)*%
X137922000Y-135890000D03*
%TO.N,/~SW_RESET*%
X139192000Y-135890000D03*
%TD*%
%TO.N,Net-(J4-Pad1)*%
%TO.C,THERMISTOR*%
%TA.AperFunction,ComponentPad*%
G36*
G01*
X99423760Y-136736520D02*
X97903760Y-136736520D01*
G75*
G02*
X97653760Y-136486520I0J250000D01*
G01*
X97653760Y-135486520D01*
G75*
G02*
X97903760Y-135236520I250000J0D01*
G01*
X99423760Y-135236520D01*
G75*
G02*
X99673760Y-135486520I0J-250000D01*
G01*
X99673760Y-136486520D01*
G75*
G02*
X99423760Y-136736520I-250000J0D01*
G01*
G37*
%TD.AperFunction*%
D15*
%TO.N,GND*%
X98663760Y-132986520D03*
%TD*%
D16*
%TO.N,GND*%
X181356000Y-50800000D03*
X179832000Y-48260000D03*
X179832000Y-53340000D03*
X179832000Y-50800000D03*
X121412000Y-146558000D03*
X121412000Y-145542000D03*
X122428000Y-145542000D03*
X122428000Y-146558000D03*
X123444000Y-146558000D03*
X123444000Y-145542000D03*
X103124000Y-131064000D03*
X102108000Y-131064000D03*
X101092000Y-131064000D03*
X97028000Y-144526000D03*
X97028000Y-145796000D03*
X97028000Y-147066000D03*
X98298000Y-144526000D03*
X98298000Y-145796000D03*
X98298000Y-147066000D03*
X143764000Y-141986000D03*
X144780000Y-141986000D03*
X145796000Y-141986000D03*
X147320000Y-153670000D03*
X146304000Y-153670000D03*
X145288000Y-153670000D03*
X118651020Y-132615940D03*
X118110000Y-151638000D03*
X115570000Y-156210000D03*
X111252000Y-155194000D03*
X121920000Y-155956000D03*
X122936000Y-155956000D03*
X165608000Y-129794000D03*
X165608000Y-130810000D03*
X132588000Y-154686000D03*
X133858000Y-154686000D03*
X162566500Y-138931500D03*
X185420000Y-144526000D03*
X150114000Y-145008000D03*
X129794000Y-143764000D03*
X181356000Y-48260000D03*
X181356000Y-53340000D03*
X182880000Y-53340000D03*
X182880000Y-50800000D03*
X182880000Y-48260000D03*
X134366000Y-138684000D03*
X132588000Y-138684000D03*
X181051200Y-128676400D03*
X183616600Y-142163800D03*
X185166000Y-142163800D03*
X128493520Y-139217400D03*
X109491780Y-135201660D03*
%TO.N,+12V*%
X162560000Y-136652000D03*
X162560000Y-135382000D03*
X166116000Y-143256000D03*
X167132000Y-143256000D03*
X168148000Y-143256000D03*
X162560000Y-134112000D03*
%TO.N,+3V3*%
X145000000Y-136250000D03*
X122174000Y-148590000D03*
X150114000Y-146558000D03*
X124714000Y-136398000D03*
X125730000Y-136398000D03*
X126746000Y-136398000D03*
X124714000Y-137414000D03*
X125730000Y-137414000D03*
X126746000Y-137414000D03*
X117167660Y-130167380D03*
X140201500Y-141979500D03*
X142737840Y-150002240D03*
X104640380Y-138084560D03*
%TO.N,/~SW_RESET*%
X141732000Y-135890000D03*
X131063027Y-144980988D03*
%TO.N,/USER_SW*%
X131064000Y-143764000D03*
X131624128Y-148761152D03*
%TO.N,/THERM_OUTPUT_FILT_AI*%
X130545840Y-146725640D03*
%TO.N,Net-(Q1-Pad2)*%
X110490000Y-145542000D03*
X114300000Y-141732000D03*
%TO.N,/BUCK_PWM*%
X143256000Y-147320000D03*
X148590000Y-142240000D03*
%TO.N,Net-(R26-Pad1)*%
X116575840Y-132760720D03*
%TO.N,/BUCK_OUTPUT_AI*%
X125222000Y-144780000D03*
X184153482Y-143007471D03*
%TO.N,/THERM_OUTPUT_UNFILT_AI*%
X107340400Y-136652000D03*
X134924800Y-150063200D03*
%TD*%
D17*
%TO.N,+3V3*%
X118026180Y-131788661D02*
X117991246Y-131812003D01*
X117847083Y-131956166D01*
X117733815Y-132125684D01*
X117655794Y-132314042D01*
X117616020Y-132514001D01*
X117616020Y-132717879D01*
X117655794Y-132917838D01*
X117733815Y-133106196D01*
X117847083Y-133275714D01*
X117991246Y-133419877D01*
X118026180Y-133443219D01*
X118026180Y-136116060D01*
X118028620Y-136140836D01*
X118035847Y-136164661D01*
X118047583Y-136186617D01*
X118063377Y-136205863D01*
X118082623Y-136221657D01*
X118104579Y-136233393D01*
X118128404Y-136240620D01*
X118154097Y-136243057D01*
X136808190Y-136108319D01*
X136830617Y-136221067D01*
X136916176Y-136427624D01*
X136981241Y-136525000D01*
X136916176Y-136622376D01*
X136830617Y-136828933D01*
X136787000Y-137048212D01*
X136787000Y-137271788D01*
X136830617Y-137491067D01*
X136876888Y-137602774D01*
X136832498Y-137685820D01*
X136796188Y-137805518D01*
X136783928Y-137930000D01*
X136783928Y-138930000D01*
X136796188Y-139054482D01*
X136832498Y-139174180D01*
X136891463Y-139284494D01*
X136970815Y-139381185D01*
X137067506Y-139460537D01*
X137177820Y-139519502D01*
X137297518Y-139555812D01*
X137422000Y-139568072D01*
X138422000Y-139568072D01*
X138546482Y-139555812D01*
X138666180Y-139519502D01*
X138749226Y-139475112D01*
X138860933Y-139521383D01*
X139080212Y-139565000D01*
X139303788Y-139565000D01*
X139523067Y-139521383D01*
X139729624Y-139435824D01*
X139915520Y-139311612D01*
X140073612Y-139153520D01*
X140197824Y-138967624D01*
X140283383Y-138761067D01*
X140327000Y-138541788D01*
X140327000Y-138318212D01*
X140283383Y-138098933D01*
X140197824Y-137892376D01*
X140132759Y-137795000D01*
X140197824Y-137697624D01*
X140283383Y-137491067D01*
X140327000Y-137271788D01*
X140327000Y-137048212D01*
X140283383Y-136828933D01*
X140197824Y-136622376D01*
X140132759Y-136525000D01*
X140197824Y-136427624D01*
X140283383Y-136221067D01*
X140310842Y-136083020D01*
X140714537Y-136080104D01*
X140736774Y-136191898D01*
X140814795Y-136380256D01*
X140928063Y-136549774D01*
X141072226Y-136693937D01*
X141241744Y-136807205D01*
X141430102Y-136885226D01*
X141630061Y-136925000D01*
X141833939Y-136925000D01*
X142033898Y-136885226D01*
X142222256Y-136807205D01*
X142391774Y-136693937D01*
X142535937Y-136549774D01*
X142649205Y-136380256D01*
X142727226Y-136191898D01*
X142752391Y-136065385D01*
X158115000Y-135954421D01*
X158115000Y-155956283D01*
X123971000Y-156032497D01*
X123971000Y-155854061D01*
X123931226Y-155654102D01*
X123853205Y-155465744D01*
X123739937Y-155296226D01*
X123595774Y-155152063D01*
X123426256Y-155038795D01*
X123237898Y-154960774D01*
X123037939Y-154921000D01*
X122834061Y-154921000D01*
X122634102Y-154960774D01*
X122445744Y-155038795D01*
X122428000Y-155050651D01*
X122410256Y-155038795D01*
X122221898Y-154960774D01*
X122021939Y-154921000D01*
X121818061Y-154921000D01*
X121618102Y-154960774D01*
X121429744Y-155038795D01*
X121260226Y-155152063D01*
X121116063Y-155296226D01*
X121002795Y-155465744D01*
X120924774Y-155654102D01*
X120885000Y-155854061D01*
X120885000Y-156039386D01*
X116593245Y-156048966D01*
X116565226Y-155908102D01*
X116487205Y-155719744D01*
X116373937Y-155550226D01*
X116229774Y-155406063D01*
X116060256Y-155292795D01*
X115871898Y-155214774D01*
X115671939Y-155175000D01*
X115468061Y-155175000D01*
X115268102Y-155214774D01*
X115079744Y-155292795D01*
X114910226Y-155406063D01*
X114766063Y-155550226D01*
X114652795Y-155719744D01*
X114574774Y-155908102D01*
X114545846Y-156053536D01*
X111819456Y-156059621D01*
X111911774Y-155997937D01*
X112055937Y-155853774D01*
X112169205Y-155684256D01*
X112247226Y-155495898D01*
X112287000Y-155295939D01*
X112287000Y-155092061D01*
X112247226Y-154892102D01*
X112169205Y-154703744D01*
X112089236Y-154584061D01*
X131553000Y-154584061D01*
X131553000Y-154787939D01*
X131592774Y-154987898D01*
X131670795Y-155176256D01*
X131784063Y-155345774D01*
X131928226Y-155489937D01*
X132097744Y-155603205D01*
X132286102Y-155681226D01*
X132486061Y-155721000D01*
X132689939Y-155721000D01*
X132889898Y-155681226D01*
X133078256Y-155603205D01*
X133223000Y-155506490D01*
X133367744Y-155603205D01*
X133556102Y-155681226D01*
X133756061Y-155721000D01*
X133959939Y-155721000D01*
X134159898Y-155681226D01*
X134348256Y-155603205D01*
X134517774Y-155489937D01*
X134661937Y-155345774D01*
X134775205Y-155176256D01*
X134853226Y-154987898D01*
X134893000Y-154787939D01*
X134893000Y-154584061D01*
X134853226Y-154384102D01*
X134775205Y-154195744D01*
X134661937Y-154026226D01*
X134517774Y-153882063D01*
X134348256Y-153768795D01*
X134159898Y-153690774D01*
X133959939Y-153651000D01*
X133756061Y-153651000D01*
X133556102Y-153690774D01*
X133367744Y-153768795D01*
X133223000Y-153865510D01*
X133078256Y-153768795D01*
X132889898Y-153690774D01*
X132689939Y-153651000D01*
X132486061Y-153651000D01*
X132286102Y-153690774D01*
X132097744Y-153768795D01*
X131928226Y-153882063D01*
X131784063Y-154026226D01*
X131670795Y-154195744D01*
X131592774Y-154384102D01*
X131553000Y-154584061D01*
X112089236Y-154584061D01*
X112055937Y-154534226D01*
X111911774Y-154390063D01*
X111742256Y-154276795D01*
X111553898Y-154198774D01*
X111353939Y-154159000D01*
X111150061Y-154159000D01*
X110950102Y-154198774D01*
X110761744Y-154276795D01*
X110592226Y-154390063D01*
X110448063Y-154534226D01*
X110334795Y-154703744D01*
X110256774Y-154892102D01*
X110217000Y-155092061D01*
X110217000Y-155295939D01*
X110256774Y-155495898D01*
X110334795Y-155684256D01*
X110448063Y-155853774D01*
X110592226Y-155997937D01*
X110688322Y-156062146D01*
X101473133Y-156082716D01*
X101477384Y-152024081D01*
X101490520Y-152024081D01*
X101490520Y-152444639D01*
X101572567Y-152857116D01*
X101733508Y-153245662D01*
X101967157Y-153595343D01*
X102264537Y-153892723D01*
X102614218Y-154126372D01*
X103002764Y-154287313D01*
X103415241Y-154369360D01*
X103835799Y-154369360D01*
X104248276Y-154287313D01*
X104636822Y-154126372D01*
X104986503Y-153892723D01*
X105283883Y-153595343D01*
X105302112Y-153568061D01*
X144253000Y-153568061D01*
X144253000Y-153771939D01*
X144292774Y-153971898D01*
X144370795Y-154160256D01*
X144484063Y-154329774D01*
X144628226Y-154473937D01*
X144797744Y-154587205D01*
X144986102Y-154665226D01*
X145186061Y-154705000D01*
X145389939Y-154705000D01*
X145589898Y-154665226D01*
X145778256Y-154587205D01*
X145796000Y-154575349D01*
X145813744Y-154587205D01*
X146002102Y-154665226D01*
X146202061Y-154705000D01*
X146405939Y-154705000D01*
X146605898Y-154665226D01*
X146794256Y-154587205D01*
X146812000Y-154575349D01*
X146829744Y-154587205D01*
X147018102Y-154665226D01*
X147218061Y-154705000D01*
X147421939Y-154705000D01*
X147621898Y-154665226D01*
X147810256Y-154587205D01*
X147979774Y-154473937D01*
X148123937Y-154329774D01*
X148237205Y-154160256D01*
X148315226Y-153971898D01*
X148355000Y-153771939D01*
X148355000Y-153568061D01*
X148315226Y-153368102D01*
X148237205Y-153179744D01*
X148123937Y-153010226D01*
X147979774Y-152866063D01*
X147810256Y-152752795D01*
X147621898Y-152674774D01*
X147421939Y-152635000D01*
X147218061Y-152635000D01*
X147018102Y-152674774D01*
X146829744Y-152752795D01*
X146812000Y-152764651D01*
X146794256Y-152752795D01*
X146605898Y-152674774D01*
X146405939Y-152635000D01*
X146202061Y-152635000D01*
X146002102Y-152674774D01*
X145813744Y-152752795D01*
X145796000Y-152764651D01*
X145778256Y-152752795D01*
X145589898Y-152674774D01*
X145389939Y-152635000D01*
X145186061Y-152635000D01*
X144986102Y-152674774D01*
X144797744Y-152752795D01*
X144628226Y-152866063D01*
X144484063Y-153010226D01*
X144370795Y-153179744D01*
X144292774Y-153368102D01*
X144253000Y-153568061D01*
X105302112Y-153568061D01*
X105517532Y-153245662D01*
X105678473Y-152857116D01*
X105760520Y-152444639D01*
X105760520Y-152024081D01*
X105678473Y-151611604D01*
X105647183Y-151536061D01*
X117075000Y-151536061D01*
X117075000Y-151739939D01*
X117114774Y-151939898D01*
X117192795Y-152128256D01*
X117306063Y-152297774D01*
X117450226Y-152441937D01*
X117619744Y-152555205D01*
X117808102Y-152633226D01*
X118008061Y-152673000D01*
X118211939Y-152673000D01*
X118411898Y-152633226D01*
X118600256Y-152555205D01*
X118769774Y-152441937D01*
X118913937Y-152297774D01*
X119027205Y-152128256D01*
X119105226Y-151939898D01*
X119145000Y-151739939D01*
X119145000Y-151536061D01*
X119105226Y-151336102D01*
X119027205Y-151147744D01*
X118913937Y-150978226D01*
X118769774Y-150834063D01*
X118600256Y-150720795D01*
X118411898Y-150642774D01*
X118211939Y-150603000D01*
X118008061Y-150603000D01*
X117808102Y-150642774D01*
X117619744Y-150720795D01*
X117450226Y-150834063D01*
X117306063Y-150978226D01*
X117192795Y-151147744D01*
X117114774Y-151336102D01*
X117075000Y-151536061D01*
X105647183Y-151536061D01*
X105517532Y-151223058D01*
X105283883Y-150873377D01*
X104986503Y-150575997D01*
X104636822Y-150342348D01*
X104248276Y-150181407D01*
X103835799Y-150099360D01*
X103415241Y-150099360D01*
X103002764Y-150181407D01*
X102614218Y-150342348D01*
X102264537Y-150575997D01*
X101967157Y-150873377D01*
X101733508Y-151223058D01*
X101572567Y-151611604D01*
X101490520Y-152024081D01*
X101477384Y-152024081D01*
X101479544Y-149961261D01*
X133889800Y-149961261D01*
X133889800Y-150165139D01*
X133929574Y-150365098D01*
X134007595Y-150553456D01*
X134120863Y-150722974D01*
X134265026Y-150867137D01*
X134434544Y-150980405D01*
X134622902Y-151058426D01*
X134822861Y-151098200D01*
X135026739Y-151098200D01*
X135226698Y-151058426D01*
X135415056Y-150980405D01*
X135584574Y-150867137D01*
X135728737Y-150722974D01*
X135842005Y-150553456D01*
X135920026Y-150365098D01*
X135959800Y-150165139D01*
X135959800Y-149961261D01*
X135920026Y-149761302D01*
X135842005Y-149572944D01*
X135728737Y-149403426D01*
X135584574Y-149259263D01*
X135415056Y-149145995D01*
X135226698Y-149067974D01*
X135026739Y-149028200D01*
X134822861Y-149028200D01*
X134622902Y-149067974D01*
X134434544Y-149145995D01*
X134265026Y-149259263D01*
X134120863Y-149403426D01*
X134007595Y-149572944D01*
X133929574Y-149761302D01*
X133889800Y-149961261D01*
X101479544Y-149961261D01*
X101480133Y-149399828D01*
X101592939Y-149460124D01*
X101854013Y-149539320D01*
X102125520Y-149566061D01*
X102397026Y-149539320D01*
X102658100Y-149460124D01*
X102898707Y-149331517D01*
X103109600Y-149158441D01*
X103282677Y-148947548D01*
X103411284Y-148706941D01*
X103490480Y-148445867D01*
X103510520Y-148242397D01*
X103510520Y-147586324D01*
X103490480Y-147382854D01*
X103421168Y-147154360D01*
X103737448Y-147154360D01*
X103737448Y-148674360D01*
X103754512Y-148847614D01*
X103805048Y-149014210D01*
X103887115Y-149167746D01*
X103997558Y-149302322D01*
X104132134Y-149412765D01*
X104285670Y-149494832D01*
X104452266Y-149545368D01*
X104625520Y-149562432D01*
X105625520Y-149562432D01*
X105798774Y-149545368D01*
X105965370Y-149494832D01*
X106118906Y-149412765D01*
X106253482Y-149302322D01*
X106363925Y-149167746D01*
X106445992Y-149014210D01*
X106496528Y-148847614D01*
X106513592Y-148674360D01*
X106513592Y-148659213D01*
X130589128Y-148659213D01*
X130589128Y-148863091D01*
X130628902Y-149063050D01*
X130706923Y-149251408D01*
X130820191Y-149420926D01*
X130964354Y-149565089D01*
X131133872Y-149678357D01*
X131322230Y-149756378D01*
X131522189Y-149796152D01*
X131726067Y-149796152D01*
X131926026Y-149756378D01*
X132114384Y-149678357D01*
X132283902Y-149565089D01*
X132428065Y-149420926D01*
X132541333Y-149251408D01*
X132619354Y-149063050D01*
X132659128Y-148863091D01*
X132659128Y-148659213D01*
X132619354Y-148459254D01*
X132541333Y-148270896D01*
X132428065Y-148101378D01*
X132283902Y-147957215D01*
X132114384Y-147843947D01*
X131926026Y-147765926D01*
X131726067Y-147726152D01*
X131522189Y-147726152D01*
X131322230Y-147765926D01*
X131133872Y-147843947D01*
X130964354Y-147957215D01*
X130820191Y-148101378D01*
X130706923Y-148270896D01*
X130628902Y-148459254D01*
X130589128Y-148659213D01*
X106513592Y-148659213D01*
X106513592Y-147154360D01*
X106496528Y-146981106D01*
X106445992Y-146814510D01*
X106363925Y-146660974D01*
X106253482Y-146526398D01*
X106118906Y-146415955D01*
X105965370Y-146333888D01*
X105798774Y-146283352D01*
X105625520Y-146266288D01*
X104625520Y-146266288D01*
X104452266Y-146283352D01*
X104285670Y-146333888D01*
X104132134Y-146415955D01*
X103997558Y-146526398D01*
X103887115Y-146660974D01*
X103805048Y-146814510D01*
X103754512Y-146981106D01*
X103737448Y-147154360D01*
X103421168Y-147154360D01*
X103411284Y-147121779D01*
X103282677Y-146881172D01*
X103109601Y-146670279D01*
X102898708Y-146497203D01*
X102658101Y-146368596D01*
X102397027Y-146289400D01*
X102125520Y-146262659D01*
X101854014Y-146289400D01*
X101592940Y-146368596D01*
X101483246Y-146427228D01*
X101484279Y-145440061D01*
X109455000Y-145440061D01*
X109455000Y-145643939D01*
X109494774Y-145843898D01*
X109572795Y-146032256D01*
X109686063Y-146201774D01*
X109830226Y-146345937D01*
X109999744Y-146459205D01*
X110188102Y-146537226D01*
X110388061Y-146577000D01*
X110591939Y-146577000D01*
X110791898Y-146537226D01*
X110980256Y-146459205D01*
X111149774Y-146345937D01*
X111293937Y-146201774D01*
X111407205Y-146032256D01*
X111485226Y-145843898D01*
X111525000Y-145643939D01*
X111525000Y-145440061D01*
X120377000Y-145440061D01*
X120377000Y-145643939D01*
X120416774Y-145843898D01*
X120494795Y-146032256D01*
X120506651Y-146050000D01*
X120494795Y-146067744D01*
X120416774Y-146256102D01*
X120377000Y-146456061D01*
X120377000Y-146659939D01*
X120416774Y-146859898D01*
X120494795Y-147048256D01*
X120608063Y-147217774D01*
X120752226Y-147361937D01*
X120921744Y-147475205D01*
X121110102Y-147553226D01*
X121310061Y-147593000D01*
X121513939Y-147593000D01*
X121713898Y-147553226D01*
X121902256Y-147475205D01*
X121920000Y-147463349D01*
X121937744Y-147475205D01*
X122126102Y-147553226D01*
X122326061Y-147593000D01*
X122529939Y-147593000D01*
X122729898Y-147553226D01*
X122918256Y-147475205D01*
X122936000Y-147463349D01*
X122953744Y-147475205D01*
X123142102Y-147553226D01*
X123342061Y-147593000D01*
X123545939Y-147593000D01*
X123745898Y-147553226D01*
X123934256Y-147475205D01*
X124103774Y-147361937D01*
X124247937Y-147217774D01*
X124361205Y-147048256D01*
X124439226Y-146859898D01*
X124479000Y-146659939D01*
X124479000Y-146456061D01*
X124439226Y-146256102D01*
X124361205Y-146067744D01*
X124349349Y-146050000D01*
X124361205Y-146032256D01*
X124439226Y-145843898D01*
X124479000Y-145643939D01*
X124479000Y-145500711D01*
X124562226Y-145583937D01*
X124731744Y-145697205D01*
X124920102Y-145775226D01*
X125120061Y-145815000D01*
X125323939Y-145815000D01*
X125523898Y-145775226D01*
X125712256Y-145697205D01*
X125881774Y-145583937D01*
X126025937Y-145439774D01*
X126139205Y-145270256D01*
X126217226Y-145081898D01*
X126257000Y-144881939D01*
X126257000Y-144678061D01*
X126217226Y-144478102D01*
X126139205Y-144289744D01*
X126025937Y-144120226D01*
X125881774Y-143976063D01*
X125712256Y-143862795D01*
X125523898Y-143784774D01*
X125323939Y-143745000D01*
X125120061Y-143745000D01*
X124920102Y-143784774D01*
X124731744Y-143862795D01*
X124562226Y-143976063D01*
X124418063Y-144120226D01*
X124304795Y-144289744D01*
X124226774Y-144478102D01*
X124187000Y-144678061D01*
X124187000Y-144821289D01*
X124103774Y-144738063D01*
X123934256Y-144624795D01*
X123745898Y-144546774D01*
X123545939Y-144507000D01*
X123342061Y-144507000D01*
X123142102Y-144546774D01*
X122953744Y-144624795D01*
X122936000Y-144636651D01*
X122918256Y-144624795D01*
X122729898Y-144546774D01*
X122529939Y-144507000D01*
X122326061Y-144507000D01*
X122126102Y-144546774D01*
X121937744Y-144624795D01*
X121920000Y-144636651D01*
X121902256Y-144624795D01*
X121713898Y-144546774D01*
X121513939Y-144507000D01*
X121310061Y-144507000D01*
X121110102Y-144546774D01*
X120921744Y-144624795D01*
X120752226Y-144738063D01*
X120608063Y-144882226D01*
X120494795Y-145051744D01*
X120416774Y-145240102D01*
X120377000Y-145440061D01*
X111525000Y-145440061D01*
X111485226Y-145240102D01*
X111407205Y-145051744D01*
X111293937Y-144882226D01*
X111149774Y-144738063D01*
X110980256Y-144624795D01*
X110791898Y-144546774D01*
X110591939Y-144507000D01*
X110388061Y-144507000D01*
X110188102Y-144546774D01*
X109999744Y-144624795D01*
X109830226Y-144738063D01*
X109686063Y-144882226D01*
X109572795Y-145051744D01*
X109494774Y-145240102D01*
X109455000Y-145440061D01*
X101484279Y-145440061D01*
X101486141Y-143662061D01*
X128759000Y-143662061D01*
X128759000Y-143865939D01*
X128798774Y-144065898D01*
X128876795Y-144254256D01*
X128990063Y-144423774D01*
X129134226Y-144567937D01*
X129303744Y-144681205D01*
X129492102Y-144759226D01*
X129692061Y-144799000D01*
X129895939Y-144799000D01*
X130050047Y-144768346D01*
X130028027Y-144879049D01*
X130028027Y-145082927D01*
X130067801Y-145282886D01*
X130145822Y-145471244D01*
X130259090Y-145640762D01*
X130331355Y-145713027D01*
X130243942Y-145730414D01*
X130055584Y-145808435D01*
X129886066Y-145921703D01*
X129741903Y-146065866D01*
X129628635Y-146235384D01*
X129550614Y-146423742D01*
X129510840Y-146623701D01*
X129510840Y-146827579D01*
X129550614Y-147027538D01*
X129628635Y-147215896D01*
X129741903Y-147385414D01*
X129886066Y-147529577D01*
X130055584Y-147642845D01*
X130243942Y-147720866D01*
X130443901Y-147760640D01*
X130647779Y-147760640D01*
X130847738Y-147720866D01*
X131036096Y-147642845D01*
X131205614Y-147529577D01*
X131349777Y-147385414D01*
X131461598Y-147218061D01*
X142221000Y-147218061D01*
X142221000Y-147421939D01*
X142260774Y-147621898D01*
X142338795Y-147810256D01*
X142452063Y-147979774D01*
X142596226Y-148123937D01*
X142765744Y-148237205D01*
X142954102Y-148315226D01*
X143154061Y-148355000D01*
X143357939Y-148355000D01*
X143557898Y-148315226D01*
X143746256Y-148237205D01*
X143915774Y-148123937D01*
X144059937Y-147979774D01*
X144173205Y-147810256D01*
X144251226Y-147621898D01*
X144291000Y-147421939D01*
X144291000Y-147218061D01*
X144251226Y-147018102D01*
X144173205Y-146829744D01*
X144059937Y-146660226D01*
X143915774Y-146516063D01*
X143746256Y-146402795D01*
X143557898Y-146324774D01*
X143357939Y-146285000D01*
X143154061Y-146285000D01*
X142954102Y-146324774D01*
X142765744Y-146402795D01*
X142596226Y-146516063D01*
X142452063Y-146660226D01*
X142338795Y-146829744D01*
X142260774Y-147018102D01*
X142221000Y-147218061D01*
X131461598Y-147218061D01*
X131463045Y-147215896D01*
X131541066Y-147027538D01*
X131580840Y-146827579D01*
X131580840Y-146623701D01*
X131541066Y-146423742D01*
X131463045Y-146235384D01*
X131349777Y-146065866D01*
X131277512Y-145993601D01*
X131364925Y-145976214D01*
X131553283Y-145898193D01*
X131722801Y-145784925D01*
X131866964Y-145640762D01*
X131980232Y-145471244D01*
X132058253Y-145282886D01*
X132098027Y-145082927D01*
X132098027Y-144906061D01*
X149079000Y-144906061D01*
X149079000Y-145109939D01*
X149118774Y-145309898D01*
X149196795Y-145498256D01*
X149310063Y-145667774D01*
X149454226Y-145811937D01*
X149623744Y-145925205D01*
X149812102Y-146003226D01*
X150012061Y-146043000D01*
X150215939Y-146043000D01*
X150415898Y-146003226D01*
X150604256Y-145925205D01*
X150773774Y-145811937D01*
X150917937Y-145667774D01*
X151031205Y-145498256D01*
X151109226Y-145309898D01*
X151149000Y-145109939D01*
X151149000Y-144906061D01*
X151109226Y-144706102D01*
X151031205Y-144517744D01*
X150917937Y-144348226D01*
X150773774Y-144204063D01*
X150604256Y-144090795D01*
X150415898Y-144012774D01*
X150215939Y-143973000D01*
X150012061Y-143973000D01*
X149812102Y-144012774D01*
X149623744Y-144090795D01*
X149454226Y-144204063D01*
X149310063Y-144348226D01*
X149196795Y-144517744D01*
X149118774Y-144706102D01*
X149079000Y-144906061D01*
X132098027Y-144906061D01*
X132098027Y-144879049D01*
X132058253Y-144679090D01*
X131980232Y-144490732D01*
X131901715Y-144373222D01*
X131981205Y-144254256D01*
X132059226Y-144065898D01*
X132099000Y-143865939D01*
X132099000Y-143662061D01*
X132059226Y-143462102D01*
X131981205Y-143273744D01*
X131867937Y-143104226D01*
X131723774Y-142960063D01*
X131554256Y-142846795D01*
X131365898Y-142768774D01*
X131165939Y-142729000D01*
X130962061Y-142729000D01*
X130762102Y-142768774D01*
X130573744Y-142846795D01*
X130429000Y-142943510D01*
X130284256Y-142846795D01*
X130095898Y-142768774D01*
X129895939Y-142729000D01*
X129692061Y-142729000D01*
X129492102Y-142768774D01*
X129303744Y-142846795D01*
X129134226Y-142960063D01*
X128990063Y-143104226D01*
X128876795Y-143273744D01*
X128798774Y-143462102D01*
X128759000Y-143662061D01*
X101486141Y-143662061D01*
X101488269Y-141630061D01*
X113265000Y-141630061D01*
X113265000Y-141833939D01*
X113304774Y-142033898D01*
X113382795Y-142222256D01*
X113496063Y-142391774D01*
X113640226Y-142535937D01*
X113809744Y-142649205D01*
X113998102Y-142727226D01*
X114198061Y-142767000D01*
X114401939Y-142767000D01*
X114601898Y-142727226D01*
X114790256Y-142649205D01*
X114959774Y-142535937D01*
X115103937Y-142391774D01*
X115217205Y-142222256D01*
X115295226Y-142033898D01*
X115325030Y-141884061D01*
X142729000Y-141884061D01*
X142729000Y-142087939D01*
X142768774Y-142287898D01*
X142846795Y-142476256D01*
X142960063Y-142645774D01*
X143104226Y-142789937D01*
X143273744Y-142903205D01*
X143462102Y-142981226D01*
X143662061Y-143021000D01*
X143865939Y-143021000D01*
X144065898Y-142981226D01*
X144254256Y-142903205D01*
X144272000Y-142891349D01*
X144289744Y-142903205D01*
X144478102Y-142981226D01*
X144678061Y-143021000D01*
X144881939Y-143021000D01*
X145081898Y-142981226D01*
X145270256Y-142903205D01*
X145288000Y-142891349D01*
X145305744Y-142903205D01*
X145494102Y-142981226D01*
X145694061Y-143021000D01*
X145897939Y-143021000D01*
X146097898Y-142981226D01*
X146286256Y-142903205D01*
X146455774Y-142789937D01*
X146599937Y-142645774D01*
X146713205Y-142476256D01*
X146791226Y-142287898D01*
X146821030Y-142138061D01*
X147555000Y-142138061D01*
X147555000Y-142341939D01*
X147594774Y-142541898D01*
X147672795Y-142730256D01*
X147786063Y-142899774D01*
X147930226Y-143043937D01*
X148099744Y-143157205D01*
X148288102Y-143235226D01*
X148488061Y-143275000D01*
X148691939Y-143275000D01*
X148891898Y-143235226D01*
X149080256Y-143157205D01*
X149249774Y-143043937D01*
X149393937Y-142899774D01*
X149507205Y-142730256D01*
X149585226Y-142541898D01*
X149625000Y-142341939D01*
X149625000Y-142138061D01*
X149585226Y-141938102D01*
X149507205Y-141749744D01*
X149393937Y-141580226D01*
X149249774Y-141436063D01*
X149080256Y-141322795D01*
X148891898Y-141244774D01*
X148691939Y-141205000D01*
X148488061Y-141205000D01*
X148288102Y-141244774D01*
X148099744Y-141322795D01*
X147930226Y-141436063D01*
X147786063Y-141580226D01*
X147672795Y-141749744D01*
X147594774Y-141938102D01*
X147555000Y-142138061D01*
X146821030Y-142138061D01*
X146831000Y-142087939D01*
X146831000Y-141884061D01*
X146791226Y-141684102D01*
X146713205Y-141495744D01*
X146599937Y-141326226D01*
X146455774Y-141182063D01*
X146286256Y-141068795D01*
X146097898Y-140990774D01*
X145897939Y-140951000D01*
X145694061Y-140951000D01*
X145494102Y-140990774D01*
X145305744Y-141068795D01*
X145288000Y-141080651D01*
X145270256Y-141068795D01*
X145081898Y-140990774D01*
X144881939Y-140951000D01*
X144678061Y-140951000D01*
X144478102Y-140990774D01*
X144289744Y-141068795D01*
X144272000Y-141080651D01*
X144254256Y-141068795D01*
X144065898Y-140990774D01*
X143865939Y-140951000D01*
X143662061Y-140951000D01*
X143462102Y-140990774D01*
X143273744Y-141068795D01*
X143104226Y-141182063D01*
X142960063Y-141326226D01*
X142846795Y-141495744D01*
X142768774Y-141684102D01*
X142729000Y-141884061D01*
X115325030Y-141884061D01*
X115335000Y-141833939D01*
X115335000Y-141630061D01*
X115295226Y-141430102D01*
X115217205Y-141241744D01*
X115103937Y-141072226D01*
X114959774Y-140928063D01*
X114790256Y-140814795D01*
X114601898Y-140736774D01*
X114401939Y-140697000D01*
X114198061Y-140697000D01*
X113998102Y-140736774D01*
X113809744Y-140814795D01*
X113640226Y-140928063D01*
X113496063Y-141072226D01*
X113382795Y-141241744D01*
X113304774Y-141430102D01*
X113265000Y-141630061D01*
X101488269Y-141630061D01*
X101490903Y-139115461D01*
X127458520Y-139115461D01*
X127458520Y-139319339D01*
X127498294Y-139519298D01*
X127576315Y-139707656D01*
X127689583Y-139877174D01*
X127833746Y-140021337D01*
X128003264Y-140134605D01*
X128191622Y-140212626D01*
X128391581Y-140252400D01*
X128595459Y-140252400D01*
X128795418Y-140212626D01*
X128983776Y-140134605D01*
X129153294Y-140021337D01*
X129297457Y-139877174D01*
X129410725Y-139707656D01*
X129488746Y-139519298D01*
X129528520Y-139319339D01*
X129528520Y-139115461D01*
X129488746Y-138915502D01*
X129410725Y-138727144D01*
X129313784Y-138582061D01*
X131553000Y-138582061D01*
X131553000Y-138785939D01*
X131592774Y-138985898D01*
X131670795Y-139174256D01*
X131784063Y-139343774D01*
X131928226Y-139487937D01*
X132097744Y-139601205D01*
X132286102Y-139679226D01*
X132486061Y-139719000D01*
X132689939Y-139719000D01*
X132889898Y-139679226D01*
X133078256Y-139601205D01*
X133247774Y-139487937D01*
X133391937Y-139343774D01*
X133477000Y-139216468D01*
X133562063Y-139343774D01*
X133706226Y-139487937D01*
X133875744Y-139601205D01*
X134064102Y-139679226D01*
X134264061Y-139719000D01*
X134467939Y-139719000D01*
X134667898Y-139679226D01*
X134856256Y-139601205D01*
X135025774Y-139487937D01*
X135169937Y-139343774D01*
X135283205Y-139174256D01*
X135361226Y-138985898D01*
X135401000Y-138785939D01*
X135401000Y-138582061D01*
X135361226Y-138382102D01*
X135283205Y-138193744D01*
X135169937Y-138024226D01*
X135025774Y-137880063D01*
X134856256Y-137766795D01*
X134667898Y-137688774D01*
X134467939Y-137649000D01*
X134264061Y-137649000D01*
X134064102Y-137688774D01*
X133875744Y-137766795D01*
X133706226Y-137880063D01*
X133562063Y-138024226D01*
X133477000Y-138151532D01*
X133391937Y-138024226D01*
X133247774Y-137880063D01*
X133078256Y-137766795D01*
X132889898Y-137688774D01*
X132689939Y-137649000D01*
X132486061Y-137649000D01*
X132286102Y-137688774D01*
X132097744Y-137766795D01*
X131928226Y-137880063D01*
X131784063Y-138024226D01*
X131670795Y-138193744D01*
X131592774Y-138382102D01*
X131553000Y-138582061D01*
X129313784Y-138582061D01*
X129297457Y-138557626D01*
X129153294Y-138413463D01*
X128983776Y-138300195D01*
X128795418Y-138222174D01*
X128595459Y-138182400D01*
X128391581Y-138182400D01*
X128191622Y-138222174D01*
X128003264Y-138300195D01*
X127833746Y-138413463D01*
X127689583Y-138557626D01*
X127576315Y-138727144D01*
X127498294Y-138915502D01*
X127458520Y-139115461D01*
X101490903Y-139115461D01*
X101493591Y-136550061D01*
X106305400Y-136550061D01*
X106305400Y-136753939D01*
X106345174Y-136953898D01*
X106423195Y-137142256D01*
X106536463Y-137311774D01*
X106680626Y-137455937D01*
X106850144Y-137569205D01*
X107038502Y-137647226D01*
X107238461Y-137687000D01*
X107442339Y-137687000D01*
X107642298Y-137647226D01*
X107830656Y-137569205D01*
X108000174Y-137455937D01*
X108144337Y-137311774D01*
X108257605Y-137142256D01*
X108335626Y-136953898D01*
X108375400Y-136753939D01*
X108375400Y-136550061D01*
X108335626Y-136350102D01*
X108257605Y-136161744D01*
X108144337Y-135992226D01*
X108000174Y-135848063D01*
X107830656Y-135734795D01*
X107642298Y-135656774D01*
X107442339Y-135617000D01*
X107238461Y-135617000D01*
X107038502Y-135656774D01*
X106850144Y-135734795D01*
X106680626Y-135848063D01*
X106536463Y-135992226D01*
X106423195Y-136161744D01*
X106345174Y-136350102D01*
X106305400Y-136550061D01*
X101493591Y-136550061D01*
X101495110Y-135099721D01*
X108456780Y-135099721D01*
X108456780Y-135303599D01*
X108496554Y-135503558D01*
X108574575Y-135691916D01*
X108687843Y-135861434D01*
X108832006Y-136005597D01*
X109001524Y-136118865D01*
X109189882Y-136196886D01*
X109389841Y-136236660D01*
X109593719Y-136236660D01*
X109793678Y-136196886D01*
X109982036Y-136118865D01*
X110151554Y-136005597D01*
X110295717Y-135861434D01*
X110408985Y-135691916D01*
X110487006Y-135503558D01*
X110526780Y-135303599D01*
X110526780Y-135099721D01*
X110487006Y-134899762D01*
X110408985Y-134711404D01*
X110295717Y-134541886D01*
X110151554Y-134397723D01*
X109982036Y-134284455D01*
X109793678Y-134206434D01*
X109593719Y-134166660D01*
X109389841Y-134166660D01*
X109189882Y-134206434D01*
X109001524Y-134284455D01*
X108832006Y-134397723D01*
X108687843Y-134541886D01*
X108574575Y-134711404D01*
X108496554Y-134899762D01*
X108456780Y-135099721D01*
X101495110Y-135099721D01*
X101497667Y-132658781D01*
X115540840Y-132658781D01*
X115540840Y-132862659D01*
X115580614Y-133062618D01*
X115658635Y-133250976D01*
X115771903Y-133420494D01*
X115916066Y-133564657D01*
X116085584Y-133677925D01*
X116273942Y-133755946D01*
X116473901Y-133795720D01*
X116677779Y-133795720D01*
X116877738Y-133755946D01*
X117066096Y-133677925D01*
X117235614Y-133564657D01*
X117379777Y-133420494D01*
X117493045Y-133250976D01*
X117571066Y-133062618D01*
X117610840Y-132862659D01*
X117610840Y-132658781D01*
X117571066Y-132458822D01*
X117493045Y-132270464D01*
X117379777Y-132100946D01*
X117235614Y-131956783D01*
X117066096Y-131843515D01*
X116877738Y-131765494D01*
X116677779Y-131725720D01*
X116473901Y-131725720D01*
X116273942Y-131765494D01*
X116085584Y-131843515D01*
X115916066Y-131956783D01*
X115771903Y-132100946D01*
X115658635Y-132270464D01*
X115580614Y-132458822D01*
X115540840Y-132658781D01*
X101497667Y-132658781D01*
X101498341Y-132015964D01*
X101582256Y-131981205D01*
X101600000Y-131969349D01*
X101617744Y-131981205D01*
X101806102Y-132059226D01*
X102006061Y-132099000D01*
X102209939Y-132099000D01*
X102409898Y-132059226D01*
X102598256Y-131981205D01*
X102616000Y-131969349D01*
X102633744Y-131981205D01*
X102822102Y-132059226D01*
X103022061Y-132099000D01*
X103225939Y-132099000D01*
X103425898Y-132059226D01*
X103614256Y-131981205D01*
X103783774Y-131867937D01*
X103927937Y-131723774D01*
X104041205Y-131554256D01*
X104119226Y-131365898D01*
X104159000Y-131165939D01*
X104159000Y-130962061D01*
X104119226Y-130762102D01*
X104041205Y-130573744D01*
X103927937Y-130404226D01*
X103783774Y-130260063D01*
X103614256Y-130146795D01*
X103425898Y-130068774D01*
X103225939Y-130029000D01*
X103022061Y-130029000D01*
X102822102Y-130068774D01*
X102633744Y-130146795D01*
X102616000Y-130158651D01*
X102598256Y-130146795D01*
X102409898Y-130068774D01*
X102209939Y-130029000D01*
X102006061Y-130029000D01*
X101806102Y-130068774D01*
X101617744Y-130146795D01*
X101600000Y-130158651D01*
X101582256Y-130146795D01*
X101500334Y-130112862D01*
X101500807Y-129661747D01*
X118026180Y-129639233D01*
X118026180Y-131788661D01*
%TA.AperFunction,Conductor*%
D18*
G36*
X118026180Y-131788661D02*
G01*
X117991246Y-131812003D01*
X117847083Y-131956166D01*
X117733815Y-132125684D01*
X117655794Y-132314042D01*
X117616020Y-132514001D01*
X117616020Y-132717879D01*
X117655794Y-132917838D01*
X117733815Y-133106196D01*
X117847083Y-133275714D01*
X117991246Y-133419877D01*
X118026180Y-133443219D01*
X118026180Y-136116060D01*
X118028620Y-136140836D01*
X118035847Y-136164661D01*
X118047583Y-136186617D01*
X118063377Y-136205863D01*
X118082623Y-136221657D01*
X118104579Y-136233393D01*
X118128404Y-136240620D01*
X118154097Y-136243057D01*
X136808190Y-136108319D01*
X136830617Y-136221067D01*
X136916176Y-136427624D01*
X136981241Y-136525000D01*
X136916176Y-136622376D01*
X136830617Y-136828933D01*
X136787000Y-137048212D01*
X136787000Y-137271788D01*
X136830617Y-137491067D01*
X136876888Y-137602774D01*
X136832498Y-137685820D01*
X136796188Y-137805518D01*
X136783928Y-137930000D01*
X136783928Y-138930000D01*
X136796188Y-139054482D01*
X136832498Y-139174180D01*
X136891463Y-139284494D01*
X136970815Y-139381185D01*
X137067506Y-139460537D01*
X137177820Y-139519502D01*
X137297518Y-139555812D01*
X137422000Y-139568072D01*
X138422000Y-139568072D01*
X138546482Y-139555812D01*
X138666180Y-139519502D01*
X138749226Y-139475112D01*
X138860933Y-139521383D01*
X139080212Y-139565000D01*
X139303788Y-139565000D01*
X139523067Y-139521383D01*
X139729624Y-139435824D01*
X139915520Y-139311612D01*
X140073612Y-139153520D01*
X140197824Y-138967624D01*
X140283383Y-138761067D01*
X140327000Y-138541788D01*
X140327000Y-138318212D01*
X140283383Y-138098933D01*
X140197824Y-137892376D01*
X140132759Y-137795000D01*
X140197824Y-137697624D01*
X140283383Y-137491067D01*
X140327000Y-137271788D01*
X140327000Y-137048212D01*
X140283383Y-136828933D01*
X140197824Y-136622376D01*
X140132759Y-136525000D01*
X140197824Y-136427624D01*
X140283383Y-136221067D01*
X140310842Y-136083020D01*
X140714537Y-136080104D01*
X140736774Y-136191898D01*
X140814795Y-136380256D01*
X140928063Y-136549774D01*
X141072226Y-136693937D01*
X141241744Y-136807205D01*
X141430102Y-136885226D01*
X141630061Y-136925000D01*
X141833939Y-136925000D01*
X142033898Y-136885226D01*
X142222256Y-136807205D01*
X142391774Y-136693937D01*
X142535937Y-136549774D01*
X142649205Y-136380256D01*
X142727226Y-136191898D01*
X142752391Y-136065385D01*
X158115000Y-135954421D01*
X158115000Y-155956283D01*
X123971000Y-156032497D01*
X123971000Y-155854061D01*
X123931226Y-155654102D01*
X123853205Y-155465744D01*
X123739937Y-155296226D01*
X123595774Y-155152063D01*
X123426256Y-155038795D01*
X123237898Y-154960774D01*
X123037939Y-154921000D01*
X122834061Y-154921000D01*
X122634102Y-154960774D01*
X122445744Y-155038795D01*
X122428000Y-155050651D01*
X122410256Y-155038795D01*
X122221898Y-154960774D01*
X122021939Y-154921000D01*
X121818061Y-154921000D01*
X121618102Y-154960774D01*
X121429744Y-155038795D01*
X121260226Y-155152063D01*
X121116063Y-155296226D01*
X121002795Y-155465744D01*
X120924774Y-155654102D01*
X120885000Y-155854061D01*
X120885000Y-156039386D01*
X116593245Y-156048966D01*
X116565226Y-155908102D01*
X116487205Y-155719744D01*
X116373937Y-155550226D01*
X116229774Y-155406063D01*
X116060256Y-155292795D01*
X115871898Y-155214774D01*
X115671939Y-155175000D01*
X115468061Y-155175000D01*
X115268102Y-155214774D01*
X115079744Y-155292795D01*
X114910226Y-155406063D01*
X114766063Y-155550226D01*
X114652795Y-155719744D01*
X114574774Y-155908102D01*
X114545846Y-156053536D01*
X111819456Y-156059621D01*
X111911774Y-155997937D01*
X112055937Y-155853774D01*
X112169205Y-155684256D01*
X112247226Y-155495898D01*
X112287000Y-155295939D01*
X112287000Y-155092061D01*
X112247226Y-154892102D01*
X112169205Y-154703744D01*
X112089236Y-154584061D01*
X131553000Y-154584061D01*
X131553000Y-154787939D01*
X131592774Y-154987898D01*
X131670795Y-155176256D01*
X131784063Y-155345774D01*
X131928226Y-155489937D01*
X132097744Y-155603205D01*
X132286102Y-155681226D01*
X132486061Y-155721000D01*
X132689939Y-155721000D01*
X132889898Y-155681226D01*
X133078256Y-155603205D01*
X133223000Y-155506490D01*
X133367744Y-155603205D01*
X133556102Y-155681226D01*
X133756061Y-155721000D01*
X133959939Y-155721000D01*
X134159898Y-155681226D01*
X134348256Y-155603205D01*
X134517774Y-155489937D01*
X134661937Y-155345774D01*
X134775205Y-155176256D01*
X134853226Y-154987898D01*
X134893000Y-154787939D01*
X134893000Y-154584061D01*
X134853226Y-154384102D01*
X134775205Y-154195744D01*
X134661937Y-154026226D01*
X134517774Y-153882063D01*
X134348256Y-153768795D01*
X134159898Y-153690774D01*
X133959939Y-153651000D01*
X133756061Y-153651000D01*
X133556102Y-153690774D01*
X133367744Y-153768795D01*
X133223000Y-153865510D01*
X133078256Y-153768795D01*
X132889898Y-153690774D01*
X132689939Y-153651000D01*
X132486061Y-153651000D01*
X132286102Y-153690774D01*
X132097744Y-153768795D01*
X131928226Y-153882063D01*
X131784063Y-154026226D01*
X131670795Y-154195744D01*
X131592774Y-154384102D01*
X131553000Y-154584061D01*
X112089236Y-154584061D01*
X112055937Y-154534226D01*
X111911774Y-154390063D01*
X111742256Y-154276795D01*
X111553898Y-154198774D01*
X111353939Y-154159000D01*
X111150061Y-154159000D01*
X110950102Y-154198774D01*
X110761744Y-154276795D01*
X110592226Y-154390063D01*
X110448063Y-154534226D01*
X110334795Y-154703744D01*
X110256774Y-154892102D01*
X110217000Y-155092061D01*
X110217000Y-155295939D01*
X110256774Y-155495898D01*
X110334795Y-155684256D01*
X110448063Y-155853774D01*
X110592226Y-155997937D01*
X110688322Y-156062146D01*
X101473133Y-156082716D01*
X101477384Y-152024081D01*
X101490520Y-152024081D01*
X101490520Y-152444639D01*
X101572567Y-152857116D01*
X101733508Y-153245662D01*
X101967157Y-153595343D01*
X102264537Y-153892723D01*
X102614218Y-154126372D01*
X103002764Y-154287313D01*
X103415241Y-154369360D01*
X103835799Y-154369360D01*
X104248276Y-154287313D01*
X104636822Y-154126372D01*
X104986503Y-153892723D01*
X105283883Y-153595343D01*
X105302112Y-153568061D01*
X144253000Y-153568061D01*
X144253000Y-153771939D01*
X144292774Y-153971898D01*
X144370795Y-154160256D01*
X144484063Y-154329774D01*
X144628226Y-154473937D01*
X144797744Y-154587205D01*
X144986102Y-154665226D01*
X145186061Y-154705000D01*
X145389939Y-154705000D01*
X145589898Y-154665226D01*
X145778256Y-154587205D01*
X145796000Y-154575349D01*
X145813744Y-154587205D01*
X146002102Y-154665226D01*
X146202061Y-154705000D01*
X146405939Y-154705000D01*
X146605898Y-154665226D01*
X146794256Y-154587205D01*
X146812000Y-154575349D01*
X146829744Y-154587205D01*
X147018102Y-154665226D01*
X147218061Y-154705000D01*
X147421939Y-154705000D01*
X147621898Y-154665226D01*
X147810256Y-154587205D01*
X147979774Y-154473937D01*
X148123937Y-154329774D01*
X148237205Y-154160256D01*
X148315226Y-153971898D01*
X148355000Y-153771939D01*
X148355000Y-153568061D01*
X148315226Y-153368102D01*
X148237205Y-153179744D01*
X148123937Y-153010226D01*
X147979774Y-152866063D01*
X147810256Y-152752795D01*
X147621898Y-152674774D01*
X147421939Y-152635000D01*
X147218061Y-152635000D01*
X147018102Y-152674774D01*
X146829744Y-152752795D01*
X146812000Y-152764651D01*
X146794256Y-152752795D01*
X146605898Y-152674774D01*
X146405939Y-152635000D01*
X146202061Y-152635000D01*
X146002102Y-152674774D01*
X145813744Y-152752795D01*
X145796000Y-152764651D01*
X145778256Y-152752795D01*
X145589898Y-152674774D01*
X145389939Y-152635000D01*
X145186061Y-152635000D01*
X144986102Y-152674774D01*
X144797744Y-152752795D01*
X144628226Y-152866063D01*
X144484063Y-153010226D01*
X144370795Y-153179744D01*
X144292774Y-153368102D01*
X144253000Y-153568061D01*
X105302112Y-153568061D01*
X105517532Y-153245662D01*
X105678473Y-152857116D01*
X105760520Y-152444639D01*
X105760520Y-152024081D01*
X105678473Y-151611604D01*
X105647183Y-151536061D01*
X117075000Y-151536061D01*
X117075000Y-151739939D01*
X117114774Y-151939898D01*
X117192795Y-152128256D01*
X117306063Y-152297774D01*
X117450226Y-152441937D01*
X117619744Y-152555205D01*
X117808102Y-152633226D01*
X118008061Y-152673000D01*
X118211939Y-152673000D01*
X118411898Y-152633226D01*
X118600256Y-152555205D01*
X118769774Y-152441937D01*
X118913937Y-152297774D01*
X119027205Y-152128256D01*
X119105226Y-151939898D01*
X119145000Y-151739939D01*
X119145000Y-151536061D01*
X119105226Y-151336102D01*
X119027205Y-151147744D01*
X118913937Y-150978226D01*
X118769774Y-150834063D01*
X118600256Y-150720795D01*
X118411898Y-150642774D01*
X118211939Y-150603000D01*
X118008061Y-150603000D01*
X117808102Y-150642774D01*
X117619744Y-150720795D01*
X117450226Y-150834063D01*
X117306063Y-150978226D01*
X117192795Y-151147744D01*
X117114774Y-151336102D01*
X117075000Y-151536061D01*
X105647183Y-151536061D01*
X105517532Y-151223058D01*
X105283883Y-150873377D01*
X104986503Y-150575997D01*
X104636822Y-150342348D01*
X104248276Y-150181407D01*
X103835799Y-150099360D01*
X103415241Y-150099360D01*
X103002764Y-150181407D01*
X102614218Y-150342348D01*
X102264537Y-150575997D01*
X101967157Y-150873377D01*
X101733508Y-151223058D01*
X101572567Y-151611604D01*
X101490520Y-152024081D01*
X101477384Y-152024081D01*
X101479544Y-149961261D01*
X133889800Y-149961261D01*
X133889800Y-150165139D01*
X133929574Y-150365098D01*
X134007595Y-150553456D01*
X134120863Y-150722974D01*
X134265026Y-150867137D01*
X134434544Y-150980405D01*
X134622902Y-151058426D01*
X134822861Y-151098200D01*
X135026739Y-151098200D01*
X135226698Y-151058426D01*
X135415056Y-150980405D01*
X135584574Y-150867137D01*
X135728737Y-150722974D01*
X135842005Y-150553456D01*
X135920026Y-150365098D01*
X135959800Y-150165139D01*
X135959800Y-149961261D01*
X135920026Y-149761302D01*
X135842005Y-149572944D01*
X135728737Y-149403426D01*
X135584574Y-149259263D01*
X135415056Y-149145995D01*
X135226698Y-149067974D01*
X135026739Y-149028200D01*
X134822861Y-149028200D01*
X134622902Y-149067974D01*
X134434544Y-149145995D01*
X134265026Y-149259263D01*
X134120863Y-149403426D01*
X134007595Y-149572944D01*
X133929574Y-149761302D01*
X133889800Y-149961261D01*
X101479544Y-149961261D01*
X101480133Y-149399828D01*
X101592939Y-149460124D01*
X101854013Y-149539320D01*
X102125520Y-149566061D01*
X102397026Y-149539320D01*
X102658100Y-149460124D01*
X102898707Y-149331517D01*
X103109600Y-149158441D01*
X103282677Y-148947548D01*
X103411284Y-148706941D01*
X103490480Y-148445867D01*
X103510520Y-148242397D01*
X103510520Y-147586324D01*
X103490480Y-147382854D01*
X103421168Y-147154360D01*
X103737448Y-147154360D01*
X103737448Y-148674360D01*
X103754512Y-148847614D01*
X103805048Y-149014210D01*
X103887115Y-149167746D01*
X103997558Y-149302322D01*
X104132134Y-149412765D01*
X104285670Y-149494832D01*
X104452266Y-149545368D01*
X104625520Y-149562432D01*
X105625520Y-149562432D01*
X105798774Y-149545368D01*
X105965370Y-149494832D01*
X106118906Y-149412765D01*
X106253482Y-149302322D01*
X106363925Y-149167746D01*
X106445992Y-149014210D01*
X106496528Y-148847614D01*
X106513592Y-148674360D01*
X106513592Y-148659213D01*
X130589128Y-148659213D01*
X130589128Y-148863091D01*
X130628902Y-149063050D01*
X130706923Y-149251408D01*
X130820191Y-149420926D01*
X130964354Y-149565089D01*
X131133872Y-149678357D01*
X131322230Y-149756378D01*
X131522189Y-149796152D01*
X131726067Y-149796152D01*
X131926026Y-149756378D01*
X132114384Y-149678357D01*
X132283902Y-149565089D01*
X132428065Y-149420926D01*
X132541333Y-149251408D01*
X132619354Y-149063050D01*
X132659128Y-148863091D01*
X132659128Y-148659213D01*
X132619354Y-148459254D01*
X132541333Y-148270896D01*
X132428065Y-148101378D01*
X132283902Y-147957215D01*
X132114384Y-147843947D01*
X131926026Y-147765926D01*
X131726067Y-147726152D01*
X131522189Y-147726152D01*
X131322230Y-147765926D01*
X131133872Y-147843947D01*
X130964354Y-147957215D01*
X130820191Y-148101378D01*
X130706923Y-148270896D01*
X130628902Y-148459254D01*
X130589128Y-148659213D01*
X106513592Y-148659213D01*
X106513592Y-147154360D01*
X106496528Y-146981106D01*
X106445992Y-146814510D01*
X106363925Y-146660974D01*
X106253482Y-146526398D01*
X106118906Y-146415955D01*
X105965370Y-146333888D01*
X105798774Y-146283352D01*
X105625520Y-146266288D01*
X104625520Y-146266288D01*
X104452266Y-146283352D01*
X104285670Y-146333888D01*
X104132134Y-146415955D01*
X103997558Y-146526398D01*
X103887115Y-146660974D01*
X103805048Y-146814510D01*
X103754512Y-146981106D01*
X103737448Y-147154360D01*
X103421168Y-147154360D01*
X103411284Y-147121779D01*
X103282677Y-146881172D01*
X103109601Y-146670279D01*
X102898708Y-146497203D01*
X102658101Y-146368596D01*
X102397027Y-146289400D01*
X102125520Y-146262659D01*
X101854014Y-146289400D01*
X101592940Y-146368596D01*
X101483246Y-146427228D01*
X101484279Y-145440061D01*
X109455000Y-145440061D01*
X109455000Y-145643939D01*
X109494774Y-145843898D01*
X109572795Y-146032256D01*
X109686063Y-146201774D01*
X109830226Y-146345937D01*
X109999744Y-146459205D01*
X110188102Y-146537226D01*
X110388061Y-146577000D01*
X110591939Y-146577000D01*
X110791898Y-146537226D01*
X110980256Y-146459205D01*
X111149774Y-146345937D01*
X111293937Y-146201774D01*
X111407205Y-146032256D01*
X111485226Y-145843898D01*
X111525000Y-145643939D01*
X111525000Y-145440061D01*
X120377000Y-145440061D01*
X120377000Y-145643939D01*
X120416774Y-145843898D01*
X120494795Y-146032256D01*
X120506651Y-146050000D01*
X120494795Y-146067744D01*
X120416774Y-146256102D01*
X120377000Y-146456061D01*
X120377000Y-146659939D01*
X120416774Y-146859898D01*
X120494795Y-147048256D01*
X120608063Y-147217774D01*
X120752226Y-147361937D01*
X120921744Y-147475205D01*
X121110102Y-147553226D01*
X121310061Y-147593000D01*
X121513939Y-147593000D01*
X121713898Y-147553226D01*
X121902256Y-147475205D01*
X121920000Y-147463349D01*
X121937744Y-147475205D01*
X122126102Y-147553226D01*
X122326061Y-147593000D01*
X122529939Y-147593000D01*
X122729898Y-147553226D01*
X122918256Y-147475205D01*
X122936000Y-147463349D01*
X122953744Y-147475205D01*
X123142102Y-147553226D01*
X123342061Y-147593000D01*
X123545939Y-147593000D01*
X123745898Y-147553226D01*
X123934256Y-147475205D01*
X124103774Y-147361937D01*
X124247937Y-147217774D01*
X124361205Y-147048256D01*
X124439226Y-146859898D01*
X124479000Y-146659939D01*
X124479000Y-146456061D01*
X124439226Y-146256102D01*
X124361205Y-146067744D01*
X124349349Y-146050000D01*
X124361205Y-146032256D01*
X124439226Y-145843898D01*
X124479000Y-145643939D01*
X124479000Y-145500711D01*
X124562226Y-145583937D01*
X124731744Y-145697205D01*
X124920102Y-145775226D01*
X125120061Y-145815000D01*
X125323939Y-145815000D01*
X125523898Y-145775226D01*
X125712256Y-145697205D01*
X125881774Y-145583937D01*
X126025937Y-145439774D01*
X126139205Y-145270256D01*
X126217226Y-145081898D01*
X126257000Y-144881939D01*
X126257000Y-144678061D01*
X126217226Y-144478102D01*
X126139205Y-144289744D01*
X126025937Y-144120226D01*
X125881774Y-143976063D01*
X125712256Y-143862795D01*
X125523898Y-143784774D01*
X125323939Y-143745000D01*
X125120061Y-143745000D01*
X124920102Y-143784774D01*
X124731744Y-143862795D01*
X124562226Y-143976063D01*
X124418063Y-144120226D01*
X124304795Y-144289744D01*
X124226774Y-144478102D01*
X124187000Y-144678061D01*
X124187000Y-144821289D01*
X124103774Y-144738063D01*
X123934256Y-144624795D01*
X123745898Y-144546774D01*
X123545939Y-144507000D01*
X123342061Y-144507000D01*
X123142102Y-144546774D01*
X122953744Y-144624795D01*
X122936000Y-144636651D01*
X122918256Y-144624795D01*
X122729898Y-144546774D01*
X122529939Y-144507000D01*
X122326061Y-144507000D01*
X122126102Y-144546774D01*
X121937744Y-144624795D01*
X121920000Y-144636651D01*
X121902256Y-144624795D01*
X121713898Y-144546774D01*
X121513939Y-144507000D01*
X121310061Y-144507000D01*
X121110102Y-144546774D01*
X120921744Y-144624795D01*
X120752226Y-144738063D01*
X120608063Y-144882226D01*
X120494795Y-145051744D01*
X120416774Y-145240102D01*
X120377000Y-145440061D01*
X111525000Y-145440061D01*
X111485226Y-145240102D01*
X111407205Y-145051744D01*
X111293937Y-144882226D01*
X111149774Y-144738063D01*
X110980256Y-144624795D01*
X110791898Y-144546774D01*
X110591939Y-144507000D01*
X110388061Y-144507000D01*
X110188102Y-144546774D01*
X109999744Y-144624795D01*
X109830226Y-144738063D01*
X109686063Y-144882226D01*
X109572795Y-145051744D01*
X109494774Y-145240102D01*
X109455000Y-145440061D01*
X101484279Y-145440061D01*
X101486141Y-143662061D01*
X128759000Y-143662061D01*
X128759000Y-143865939D01*
X128798774Y-144065898D01*
X128876795Y-144254256D01*
X128990063Y-144423774D01*
X129134226Y-144567937D01*
X129303744Y-144681205D01*
X129492102Y-144759226D01*
X129692061Y-144799000D01*
X129895939Y-144799000D01*
X130050047Y-144768346D01*
X130028027Y-144879049D01*
X130028027Y-145082927D01*
X130067801Y-145282886D01*
X130145822Y-145471244D01*
X130259090Y-145640762D01*
X130331355Y-145713027D01*
X130243942Y-145730414D01*
X130055584Y-145808435D01*
X129886066Y-145921703D01*
X129741903Y-146065866D01*
X129628635Y-146235384D01*
X129550614Y-146423742D01*
X129510840Y-146623701D01*
X129510840Y-146827579D01*
X129550614Y-147027538D01*
X129628635Y-147215896D01*
X129741903Y-147385414D01*
X129886066Y-147529577D01*
X130055584Y-147642845D01*
X130243942Y-147720866D01*
X130443901Y-147760640D01*
X130647779Y-147760640D01*
X130847738Y-147720866D01*
X131036096Y-147642845D01*
X131205614Y-147529577D01*
X131349777Y-147385414D01*
X131461598Y-147218061D01*
X142221000Y-147218061D01*
X142221000Y-147421939D01*
X142260774Y-147621898D01*
X142338795Y-147810256D01*
X142452063Y-147979774D01*
X142596226Y-148123937D01*
X142765744Y-148237205D01*
X142954102Y-148315226D01*
X143154061Y-148355000D01*
X143357939Y-148355000D01*
X143557898Y-148315226D01*
X143746256Y-148237205D01*
X143915774Y-148123937D01*
X144059937Y-147979774D01*
X144173205Y-147810256D01*
X144251226Y-147621898D01*
X144291000Y-147421939D01*
X144291000Y-147218061D01*
X144251226Y-147018102D01*
X144173205Y-146829744D01*
X144059937Y-146660226D01*
X143915774Y-146516063D01*
X143746256Y-146402795D01*
X143557898Y-146324774D01*
X143357939Y-146285000D01*
X143154061Y-146285000D01*
X142954102Y-146324774D01*
X142765744Y-146402795D01*
X142596226Y-146516063D01*
X142452063Y-146660226D01*
X142338795Y-146829744D01*
X142260774Y-147018102D01*
X142221000Y-147218061D01*
X131461598Y-147218061D01*
X131463045Y-147215896D01*
X131541066Y-147027538D01*
X131580840Y-146827579D01*
X131580840Y-146623701D01*
X131541066Y-146423742D01*
X131463045Y-146235384D01*
X131349777Y-146065866D01*
X131277512Y-145993601D01*
X131364925Y-145976214D01*
X131553283Y-145898193D01*
X131722801Y-145784925D01*
X131866964Y-145640762D01*
X131980232Y-145471244D01*
X132058253Y-145282886D01*
X132098027Y-145082927D01*
X132098027Y-144906061D01*
X149079000Y-144906061D01*
X149079000Y-145109939D01*
X149118774Y-145309898D01*
X149196795Y-145498256D01*
X149310063Y-145667774D01*
X149454226Y-145811937D01*
X149623744Y-145925205D01*
X149812102Y-146003226D01*
X150012061Y-146043000D01*
X150215939Y-146043000D01*
X150415898Y-146003226D01*
X150604256Y-145925205D01*
X150773774Y-145811937D01*
X150917937Y-145667774D01*
X151031205Y-145498256D01*
X151109226Y-145309898D01*
X151149000Y-145109939D01*
X151149000Y-144906061D01*
X151109226Y-144706102D01*
X151031205Y-144517744D01*
X150917937Y-144348226D01*
X150773774Y-144204063D01*
X150604256Y-144090795D01*
X150415898Y-144012774D01*
X150215939Y-143973000D01*
X150012061Y-143973000D01*
X149812102Y-144012774D01*
X149623744Y-144090795D01*
X149454226Y-144204063D01*
X149310063Y-144348226D01*
X149196795Y-144517744D01*
X149118774Y-144706102D01*
X149079000Y-144906061D01*
X132098027Y-144906061D01*
X132098027Y-144879049D01*
X132058253Y-144679090D01*
X131980232Y-144490732D01*
X131901715Y-144373222D01*
X131981205Y-144254256D01*
X132059226Y-144065898D01*
X132099000Y-143865939D01*
X132099000Y-143662061D01*
X132059226Y-143462102D01*
X131981205Y-143273744D01*
X131867937Y-143104226D01*
X131723774Y-142960063D01*
X131554256Y-142846795D01*
X131365898Y-142768774D01*
X131165939Y-142729000D01*
X130962061Y-142729000D01*
X130762102Y-142768774D01*
X130573744Y-142846795D01*
X130429000Y-142943510D01*
X130284256Y-142846795D01*
X130095898Y-142768774D01*
X129895939Y-142729000D01*
X129692061Y-142729000D01*
X129492102Y-142768774D01*
X129303744Y-142846795D01*
X129134226Y-142960063D01*
X128990063Y-143104226D01*
X128876795Y-143273744D01*
X128798774Y-143462102D01*
X128759000Y-143662061D01*
X101486141Y-143662061D01*
X101488269Y-141630061D01*
X113265000Y-141630061D01*
X113265000Y-141833939D01*
X113304774Y-142033898D01*
X113382795Y-142222256D01*
X113496063Y-142391774D01*
X113640226Y-142535937D01*
X113809744Y-142649205D01*
X113998102Y-142727226D01*
X114198061Y-142767000D01*
X114401939Y-142767000D01*
X114601898Y-142727226D01*
X114790256Y-142649205D01*
X114959774Y-142535937D01*
X115103937Y-142391774D01*
X115217205Y-142222256D01*
X115295226Y-142033898D01*
X115325030Y-141884061D01*
X142729000Y-141884061D01*
X142729000Y-142087939D01*
X142768774Y-142287898D01*
X142846795Y-142476256D01*
X142960063Y-142645774D01*
X143104226Y-142789937D01*
X143273744Y-142903205D01*
X143462102Y-142981226D01*
X143662061Y-143021000D01*
X143865939Y-143021000D01*
X144065898Y-142981226D01*
X144254256Y-142903205D01*
X144272000Y-142891349D01*
X144289744Y-142903205D01*
X144478102Y-142981226D01*
X144678061Y-143021000D01*
X144881939Y-143021000D01*
X145081898Y-142981226D01*
X145270256Y-142903205D01*
X145288000Y-142891349D01*
X145305744Y-142903205D01*
X145494102Y-142981226D01*
X145694061Y-143021000D01*
X145897939Y-143021000D01*
X146097898Y-142981226D01*
X146286256Y-142903205D01*
X146455774Y-142789937D01*
X146599937Y-142645774D01*
X146713205Y-142476256D01*
X146791226Y-142287898D01*
X146821030Y-142138061D01*
X147555000Y-142138061D01*
X147555000Y-142341939D01*
X147594774Y-142541898D01*
X147672795Y-142730256D01*
X147786063Y-142899774D01*
X147930226Y-143043937D01*
X148099744Y-143157205D01*
X148288102Y-143235226D01*
X148488061Y-143275000D01*
X148691939Y-143275000D01*
X148891898Y-143235226D01*
X149080256Y-143157205D01*
X149249774Y-143043937D01*
X149393937Y-142899774D01*
X149507205Y-142730256D01*
X149585226Y-142541898D01*
X149625000Y-142341939D01*
X149625000Y-142138061D01*
X149585226Y-141938102D01*
X149507205Y-141749744D01*
X149393937Y-141580226D01*
X149249774Y-141436063D01*
X149080256Y-141322795D01*
X148891898Y-141244774D01*
X148691939Y-141205000D01*
X148488061Y-141205000D01*
X148288102Y-141244774D01*
X148099744Y-141322795D01*
X147930226Y-141436063D01*
X147786063Y-141580226D01*
X147672795Y-141749744D01*
X147594774Y-141938102D01*
X147555000Y-142138061D01*
X146821030Y-142138061D01*
X146831000Y-142087939D01*
X146831000Y-141884061D01*
X146791226Y-141684102D01*
X146713205Y-141495744D01*
X146599937Y-141326226D01*
X146455774Y-141182063D01*
X146286256Y-141068795D01*
X146097898Y-140990774D01*
X145897939Y-140951000D01*
X145694061Y-140951000D01*
X145494102Y-140990774D01*
X145305744Y-141068795D01*
X145288000Y-141080651D01*
X145270256Y-141068795D01*
X145081898Y-140990774D01*
X144881939Y-140951000D01*
X144678061Y-140951000D01*
X144478102Y-140990774D01*
X144289744Y-141068795D01*
X144272000Y-141080651D01*
X144254256Y-141068795D01*
X144065898Y-140990774D01*
X143865939Y-140951000D01*
X143662061Y-140951000D01*
X143462102Y-140990774D01*
X143273744Y-141068795D01*
X143104226Y-141182063D01*
X142960063Y-141326226D01*
X142846795Y-141495744D01*
X142768774Y-141684102D01*
X142729000Y-141884061D01*
X115325030Y-141884061D01*
X115335000Y-141833939D01*
X115335000Y-141630061D01*
X115295226Y-141430102D01*
X115217205Y-141241744D01*
X115103937Y-141072226D01*
X114959774Y-140928063D01*
X114790256Y-140814795D01*
X114601898Y-140736774D01*
X114401939Y-140697000D01*
X114198061Y-140697000D01*
X113998102Y-140736774D01*
X113809744Y-140814795D01*
X113640226Y-140928063D01*
X113496063Y-141072226D01*
X113382795Y-141241744D01*
X113304774Y-141430102D01*
X113265000Y-141630061D01*
X101488269Y-141630061D01*
X101490903Y-139115461D01*
X127458520Y-139115461D01*
X127458520Y-139319339D01*
X127498294Y-139519298D01*
X127576315Y-139707656D01*
X127689583Y-139877174D01*
X127833746Y-140021337D01*
X128003264Y-140134605D01*
X128191622Y-140212626D01*
X128391581Y-140252400D01*
X128595459Y-140252400D01*
X128795418Y-140212626D01*
X128983776Y-140134605D01*
X129153294Y-140021337D01*
X129297457Y-139877174D01*
X129410725Y-139707656D01*
X129488746Y-139519298D01*
X129528520Y-139319339D01*
X129528520Y-139115461D01*
X129488746Y-138915502D01*
X129410725Y-138727144D01*
X129313784Y-138582061D01*
X131553000Y-138582061D01*
X131553000Y-138785939D01*
X131592774Y-138985898D01*
X131670795Y-139174256D01*
X131784063Y-139343774D01*
X131928226Y-139487937D01*
X132097744Y-139601205D01*
X132286102Y-139679226D01*
X132486061Y-139719000D01*
X132689939Y-139719000D01*
X132889898Y-139679226D01*
X133078256Y-139601205D01*
X133247774Y-139487937D01*
X133391937Y-139343774D01*
X133477000Y-139216468D01*
X133562063Y-139343774D01*
X133706226Y-139487937D01*
X133875744Y-139601205D01*
X134064102Y-139679226D01*
X134264061Y-139719000D01*
X134467939Y-139719000D01*
X134667898Y-139679226D01*
X134856256Y-139601205D01*
X135025774Y-139487937D01*
X135169937Y-139343774D01*
X135283205Y-139174256D01*
X135361226Y-138985898D01*
X135401000Y-138785939D01*
X135401000Y-138582061D01*
X135361226Y-138382102D01*
X135283205Y-138193744D01*
X135169937Y-138024226D01*
X135025774Y-137880063D01*
X134856256Y-137766795D01*
X134667898Y-137688774D01*
X134467939Y-137649000D01*
X134264061Y-137649000D01*
X134064102Y-137688774D01*
X133875744Y-137766795D01*
X133706226Y-137880063D01*
X133562063Y-138024226D01*
X133477000Y-138151532D01*
X133391937Y-138024226D01*
X133247774Y-137880063D01*
X133078256Y-137766795D01*
X132889898Y-137688774D01*
X132689939Y-137649000D01*
X132486061Y-137649000D01*
X132286102Y-137688774D01*
X132097744Y-137766795D01*
X131928226Y-137880063D01*
X131784063Y-138024226D01*
X131670795Y-138193744D01*
X131592774Y-138382102D01*
X131553000Y-138582061D01*
X129313784Y-138582061D01*
X129297457Y-138557626D01*
X129153294Y-138413463D01*
X128983776Y-138300195D01*
X128795418Y-138222174D01*
X128595459Y-138182400D01*
X128391581Y-138182400D01*
X128191622Y-138222174D01*
X128003264Y-138300195D01*
X127833746Y-138413463D01*
X127689583Y-138557626D01*
X127576315Y-138727144D01*
X127498294Y-138915502D01*
X127458520Y-139115461D01*
X101490903Y-139115461D01*
X101493591Y-136550061D01*
X106305400Y-136550061D01*
X106305400Y-136753939D01*
X106345174Y-136953898D01*
X106423195Y-137142256D01*
X106536463Y-137311774D01*
X106680626Y-137455937D01*
X106850144Y-137569205D01*
X107038502Y-137647226D01*
X107238461Y-137687000D01*
X107442339Y-137687000D01*
X107642298Y-137647226D01*
X107830656Y-137569205D01*
X108000174Y-137455937D01*
X108144337Y-137311774D01*
X108257605Y-137142256D01*
X108335626Y-136953898D01*
X108375400Y-136753939D01*
X108375400Y-136550061D01*
X108335626Y-136350102D01*
X108257605Y-136161744D01*
X108144337Y-135992226D01*
X108000174Y-135848063D01*
X107830656Y-135734795D01*
X107642298Y-135656774D01*
X107442339Y-135617000D01*
X107238461Y-135617000D01*
X107038502Y-135656774D01*
X106850144Y-135734795D01*
X106680626Y-135848063D01*
X106536463Y-135992226D01*
X106423195Y-136161744D01*
X106345174Y-136350102D01*
X106305400Y-136550061D01*
X101493591Y-136550061D01*
X101495110Y-135099721D01*
X108456780Y-135099721D01*
X108456780Y-135303599D01*
X108496554Y-135503558D01*
X108574575Y-135691916D01*
X108687843Y-135861434D01*
X108832006Y-136005597D01*
X109001524Y-136118865D01*
X109189882Y-136196886D01*
X109389841Y-136236660D01*
X109593719Y-136236660D01*
X109793678Y-136196886D01*
X109982036Y-136118865D01*
X110151554Y-136005597D01*
X110295717Y-135861434D01*
X110408985Y-135691916D01*
X110487006Y-135503558D01*
X110526780Y-135303599D01*
X110526780Y-135099721D01*
X110487006Y-134899762D01*
X110408985Y-134711404D01*
X110295717Y-134541886D01*
X110151554Y-134397723D01*
X109982036Y-134284455D01*
X109793678Y-134206434D01*
X109593719Y-134166660D01*
X109389841Y-134166660D01*
X109189882Y-134206434D01*
X109001524Y-134284455D01*
X108832006Y-134397723D01*
X108687843Y-134541886D01*
X108574575Y-134711404D01*
X108496554Y-134899762D01*
X108456780Y-135099721D01*
X101495110Y-135099721D01*
X101497667Y-132658781D01*
X115540840Y-132658781D01*
X115540840Y-132862659D01*
X115580614Y-133062618D01*
X115658635Y-133250976D01*
X115771903Y-133420494D01*
X115916066Y-133564657D01*
X116085584Y-133677925D01*
X116273942Y-133755946D01*
X116473901Y-133795720D01*
X116677779Y-133795720D01*
X116877738Y-133755946D01*
X117066096Y-133677925D01*
X117235614Y-133564657D01*
X117379777Y-133420494D01*
X117493045Y-133250976D01*
X117571066Y-133062618D01*
X117610840Y-132862659D01*
X117610840Y-132658781D01*
X117571066Y-132458822D01*
X117493045Y-132270464D01*
X117379777Y-132100946D01*
X117235614Y-131956783D01*
X117066096Y-131843515D01*
X116877738Y-131765494D01*
X116677779Y-131725720D01*
X116473901Y-131725720D01*
X116273942Y-131765494D01*
X116085584Y-131843515D01*
X115916066Y-131956783D01*
X115771903Y-132100946D01*
X115658635Y-132270464D01*
X115580614Y-132458822D01*
X115540840Y-132658781D01*
X101497667Y-132658781D01*
X101498341Y-132015964D01*
X101582256Y-131981205D01*
X101600000Y-131969349D01*
X101617744Y-131981205D01*
X101806102Y-132059226D01*
X102006061Y-132099000D01*
X102209939Y-132099000D01*
X102409898Y-132059226D01*
X102598256Y-131981205D01*
X102616000Y-131969349D01*
X102633744Y-131981205D01*
X102822102Y-132059226D01*
X103022061Y-132099000D01*
X103225939Y-132099000D01*
X103425898Y-132059226D01*
X103614256Y-131981205D01*
X103783774Y-131867937D01*
X103927937Y-131723774D01*
X104041205Y-131554256D01*
X104119226Y-131365898D01*
X104159000Y-131165939D01*
X104159000Y-130962061D01*
X104119226Y-130762102D01*
X104041205Y-130573744D01*
X103927937Y-130404226D01*
X103783774Y-130260063D01*
X103614256Y-130146795D01*
X103425898Y-130068774D01*
X103225939Y-130029000D01*
X103022061Y-130029000D01*
X102822102Y-130068774D01*
X102633744Y-130146795D01*
X102616000Y-130158651D01*
X102598256Y-130146795D01*
X102409898Y-130068774D01*
X102209939Y-130029000D01*
X102006061Y-130029000D01*
X101806102Y-130068774D01*
X101617744Y-130146795D01*
X101600000Y-130158651D01*
X101582256Y-130146795D01*
X101500334Y-130112862D01*
X101500807Y-129661747D01*
X118026180Y-129639233D01*
X118026180Y-131788661D01*
G37*
%TD.AperFunction*%
%TD*%
D17*
%TO.N,+12V*%
X164612774Y-131111898D02*
X164690795Y-131300256D01*
X164804063Y-131469774D01*
X164948226Y-131613937D01*
X165117744Y-131727205D01*
X165306102Y-131805226D01*
X165506061Y-131845000D01*
X165709939Y-131845000D01*
X165909898Y-131805226D01*
X166098256Y-131727205D01*
X166267774Y-131613937D01*
X166411937Y-131469774D01*
X166525205Y-131300256D01*
X166603226Y-131111898D01*
X166638015Y-130937000D01*
X169291000Y-130937000D01*
X169291000Y-144399000D01*
X161671000Y-144399000D01*
X161671000Y-139454240D01*
X161762563Y-139591274D01*
X161906726Y-139735437D01*
X162076244Y-139848705D01*
X162264602Y-139926726D01*
X162464561Y-139966500D01*
X162668439Y-139966500D01*
X162868398Y-139926726D01*
X163056756Y-139848705D01*
X163226274Y-139735437D01*
X163370437Y-139591274D01*
X163483705Y-139421756D01*
X163561726Y-139233398D01*
X163601500Y-139033439D01*
X163601500Y-138829561D01*
X163561726Y-138629602D01*
X163483705Y-138441244D01*
X163370437Y-138271726D01*
X163226274Y-138127563D01*
X163056756Y-138014295D01*
X162868398Y-137936274D01*
X162668439Y-137896500D01*
X162464561Y-137896500D01*
X162264602Y-137936274D01*
X162076244Y-138014295D01*
X161906726Y-138127563D01*
X161762563Y-138271726D01*
X161671000Y-138408760D01*
X161671000Y-130937000D01*
X164577985Y-130937000D01*
X164612774Y-131111898D01*
%TA.AperFunction,Conductor*%
D18*
G36*
X164612774Y-131111898D02*
G01*
X164690795Y-131300256D01*
X164804063Y-131469774D01*
X164948226Y-131613937D01*
X165117744Y-131727205D01*
X165306102Y-131805226D01*
X165506061Y-131845000D01*
X165709939Y-131845000D01*
X165909898Y-131805226D01*
X166098256Y-131727205D01*
X166267774Y-131613937D01*
X166411937Y-131469774D01*
X166525205Y-131300256D01*
X166603226Y-131111898D01*
X166638015Y-130937000D01*
X169291000Y-130937000D01*
X169291000Y-144399000D01*
X161671000Y-144399000D01*
X161671000Y-139454240D01*
X161762563Y-139591274D01*
X161906726Y-139735437D01*
X162076244Y-139848705D01*
X162264602Y-139926726D01*
X162464561Y-139966500D01*
X162668439Y-139966500D01*
X162868398Y-139926726D01*
X163056756Y-139848705D01*
X163226274Y-139735437D01*
X163370437Y-139591274D01*
X163483705Y-139421756D01*
X163561726Y-139233398D01*
X163601500Y-139033439D01*
X163601500Y-138829561D01*
X163561726Y-138629602D01*
X163483705Y-138441244D01*
X163370437Y-138271726D01*
X163226274Y-138127563D01*
X163056756Y-138014295D01*
X162868398Y-137936274D01*
X162668439Y-137896500D01*
X162464561Y-137896500D01*
X162264602Y-137936274D01*
X162076244Y-138014295D01*
X161906726Y-138127563D01*
X161762563Y-138271726D01*
X161671000Y-138408760D01*
X161671000Y-130937000D01*
X164577985Y-130937000D01*
X164612774Y-131111898D01*
G37*
%TD.AperFunction*%
%TD*%
M02*
