%TF.GenerationSoftware,KiCad,Pcbnew,(5.1.8)-1*%
%TF.CreationDate,2022-01-18T09:11:41-03:30*%
%TF.ProjectId,beverageWarmer1,62657665-7261-4676-9557-61726d657231,rev?*%
%TF.SameCoordinates,Original*%
%TF.FileFunction,Copper,L2,Inr*%
%TF.FilePolarity,Positive*%
%FSLAX46Y46*%
G04 Gerber Fmt 4.6, Leading zero omitted, Abs format (unit mm)*
G04 Created by KiCad (PCBNEW (5.1.8)-1) date 2022-01-18 09:11:41*
%MOMM*%
%LPD*%
G01*
G04 APERTURE LIST*
%TA.AperFunction,ComponentPad*%
%ADD10C,0.800000*%
%TD*%
%TA.AperFunction,ComponentPad*%
%ADD11C,6.400000*%
%TD*%
%TA.AperFunction,ComponentPad*%
%ADD12O,1.500000X2.020000*%
%TD*%
%TA.AperFunction,ComponentPad*%
%ADD13R,1.000000X1.000000*%
%TD*%
%TA.AperFunction,ComponentPad*%
%ADD14O,1.000000X1.000000*%
%TD*%
%TA.AperFunction,ComponentPad*%
%ADD15O,2.020000X1.500000*%
%TD*%
%TA.AperFunction,ViaPad*%
%ADD16C,0.800000*%
%TD*%
%TA.AperFunction,Conductor*%
%ADD17C,0.254000*%
%TD*%
%TA.AperFunction,Conductor*%
%ADD18C,0.100000*%
%TD*%
G04 APERTURE END LIST*
D10*
%TO.N,N/C*%
%TO.C,REF\u002A\u002A*%
X185847056Y-150702944D03*
X184150000Y-150000000D03*
X182452944Y-150702944D03*
X181750000Y-152400000D03*
X182452944Y-154097056D03*
X184150000Y-154800000D03*
X185847056Y-154097056D03*
X186550000Y-152400000D03*
D11*
X184150000Y-152400000D03*
%TD*%
D10*
%TO.N,N/C*%
%TO.C,REF\u002A\u002A*%
X95677056Y-150702944D03*
X93980000Y-150000000D03*
X92282944Y-150702944D03*
X91580000Y-152400000D03*
X92282944Y-154097056D03*
X93980000Y-154800000D03*
X95677056Y-154097056D03*
X96380000Y-152400000D03*
D11*
X93980000Y-152400000D03*
%TD*%
%TO.N,N/C*%
%TO.C,REF\u002A\u002A*%
X95250000Y-31750000D03*
D10*
X97650000Y-31750000D03*
X96947056Y-33447056D03*
X95250000Y-34150000D03*
X93552944Y-33447056D03*
X92850000Y-31750000D03*
X93552944Y-30052944D03*
X95250000Y-29350000D03*
X96947056Y-30052944D03*
%TD*%
%TO.N,N/C*%
%TO.C,REF\u002A\u002A*%
X184577056Y-30052944D03*
X182880000Y-29350000D03*
X181182944Y-30052944D03*
X180480000Y-31750000D03*
X181182944Y-33447056D03*
X182880000Y-34150000D03*
X184577056Y-33447056D03*
X185280000Y-31750000D03*
D11*
X182880000Y-31750000D03*
%TD*%
%TO.N,Net-(F1-Pad1)*%
%TO.C,POWER (12V)*%
%TA.AperFunction,ComponentPad*%
G36*
G01*
X105875520Y-147154360D02*
X105875520Y-148674360D01*
G75*
G02*
X105625520Y-148924360I-250000J0D01*
G01*
X104625520Y-148924360D01*
G75*
G02*
X104375520Y-148674360I0J250000D01*
G01*
X104375520Y-147154360D01*
G75*
G02*
X104625520Y-146904360I250000J0D01*
G01*
X105625520Y-146904360D01*
G75*
G02*
X105875520Y-147154360I0J-250000D01*
G01*
G37*
%TD.AperFunction*%
D12*
%TO.N,GND*%
X102125520Y-147914360D03*
%TD*%
%TO.N,/CAN_N*%
%TO.C,CAN CONN*%
X167652440Y-147868640D03*
%TO.N,/CAN_P*%
%TA.AperFunction,ComponentPad*%
G36*
G01*
X171402440Y-147108640D02*
X171402440Y-148628640D01*
G75*
G02*
X171152440Y-148878640I-250000J0D01*
G01*
X170152440Y-148878640D01*
G75*
G02*
X169902440Y-148628640I0J250000D01*
G01*
X169902440Y-147108640D01*
G75*
G02*
X170152440Y-146858640I250000J0D01*
G01*
X171152440Y-146858640D01*
G75*
G02*
X171402440Y-147108640I0J-250000D01*
G01*
G37*
%TD.AperFunction*%
%TD*%
D13*
%TO.N,/SWDIO*%
%TO.C,SWD*%
X137922000Y-138430000D03*
D14*
%TO.N,GND*%
X139192000Y-138430000D03*
%TO.N,/SWCLK*%
X137922000Y-137160000D03*
%TO.N,Net-(J3-Pad4)*%
X139192000Y-137160000D03*
%TO.N,Net-(D5-Pad1)*%
X137922000Y-135890000D03*
%TO.N,/~SW_RESET*%
X139192000Y-135890000D03*
%TD*%
%TO.N,Net-(J4-Pad1)*%
%TO.C,THERMISTOR*%
%TA.AperFunction,ComponentPad*%
G36*
G01*
X99423760Y-136736520D02*
X97903760Y-136736520D01*
G75*
G02*
X97653760Y-136486520I0J250000D01*
G01*
X97653760Y-135486520D01*
G75*
G02*
X97903760Y-135236520I250000J0D01*
G01*
X99423760Y-135236520D01*
G75*
G02*
X99673760Y-135486520I0J-250000D01*
G01*
X99673760Y-136486520D01*
G75*
G02*
X99423760Y-136736520I-250000J0D01*
G01*
G37*
%TD.AperFunction*%
D15*
%TO.N,GND*%
X98663760Y-132986520D03*
%TD*%
D16*
%TO.N,GND*%
X181356000Y-50800000D03*
X179832000Y-48260000D03*
X179832000Y-53340000D03*
X179832000Y-50800000D03*
X121412000Y-146558000D03*
X121412000Y-145542000D03*
X122428000Y-145542000D03*
X122428000Y-146558000D03*
X123444000Y-146558000D03*
X123444000Y-145542000D03*
X103124000Y-131064000D03*
X102108000Y-131064000D03*
X101092000Y-131064000D03*
X97028000Y-144526000D03*
X97028000Y-145796000D03*
X97028000Y-147066000D03*
X98298000Y-144526000D03*
X98298000Y-145796000D03*
X98298000Y-147066000D03*
X143764000Y-141986000D03*
X144780000Y-141986000D03*
X145796000Y-141986000D03*
X147320000Y-153670000D03*
X146304000Y-153670000D03*
X145288000Y-153670000D03*
X118651020Y-132615940D03*
X118110000Y-151638000D03*
X115570000Y-156210000D03*
X111252000Y-155194000D03*
X121920000Y-155956000D03*
X122936000Y-155956000D03*
X165608000Y-129794000D03*
X165608000Y-130810000D03*
X132588000Y-154686000D03*
X133858000Y-154686000D03*
X162566500Y-138931500D03*
X185420000Y-144526000D03*
X150114000Y-145008000D03*
X129794000Y-143764000D03*
X181356000Y-48260000D03*
X181356000Y-53340000D03*
X182880000Y-53340000D03*
X182880000Y-50800000D03*
X182880000Y-48260000D03*
X134366000Y-138684000D03*
X132588000Y-138684000D03*
X181051200Y-128676400D03*
X183616600Y-142163800D03*
X185166000Y-142163800D03*
X128493520Y-139217400D03*
X109491780Y-135201660D03*
%TO.N,+12V*%
X162560000Y-136652000D03*
X162560000Y-135382000D03*
X166116000Y-143256000D03*
X167132000Y-143256000D03*
X168148000Y-143256000D03*
X162560000Y-134112000D03*
%TO.N,+3V3*%
X145000000Y-136250000D03*
X122174000Y-148590000D03*
X150114000Y-146558000D03*
X124714000Y-136398000D03*
X125730000Y-136398000D03*
X126746000Y-136398000D03*
X124714000Y-137414000D03*
X125730000Y-137414000D03*
X126746000Y-137414000D03*
X117167660Y-130167380D03*
X140201500Y-141979500D03*
X142737840Y-150002240D03*
X104640380Y-138084560D03*
%TO.N,/~SW_RESET*%
X141732000Y-135890000D03*
X131063027Y-144980988D03*
%TO.N,/USER_SW*%
X131064000Y-143764000D03*
X131624128Y-148761152D03*
%TO.N,/THERM_OUTPUT_FILT_AI*%
X130545840Y-146725640D03*
%TO.N,Net-(Q1-Pad2)*%
X110490000Y-145542000D03*
X114300000Y-141732000D03*
%TO.N,/BUCK_PWM*%
X143256000Y-147320000D03*
X148590000Y-142240000D03*
%TO.N,Net-(R26-Pad1)*%
X116575840Y-132760720D03*
%TO.N,/BUCK_OUTPUT_AI*%
X125222000Y-144780000D03*
X184153482Y-143007471D03*
%TO.N,/THERM_OUTPUT_UNFILT_AI*%
X107340400Y-136652000D03*
X134924800Y-150063200D03*
%TD*%
D17*
%TO.N,GND*%
X181063446Y-28351467D02*
X180435330Y-28771161D01*
X179901161Y-29305330D01*
X179481467Y-29933446D01*
X179192377Y-30631372D01*
X179045000Y-31372285D01*
X179045000Y-32127715D01*
X179192377Y-32868628D01*
X179481467Y-33566554D01*
X179901161Y-34194670D01*
X180435330Y-34728839D01*
X181063446Y-35148533D01*
X181761372Y-35437623D01*
X182502285Y-35585000D01*
X183257715Y-35585000D01*
X183998628Y-35437623D01*
X184696554Y-35148533D01*
X185324670Y-34728839D01*
X185858839Y-34194670D01*
X186278533Y-33566554D01*
X186567623Y-32868628D01*
X186715000Y-32127715D01*
X186715000Y-31372285D01*
X186567623Y-30631372D01*
X186278533Y-29933446D01*
X185858839Y-29305330D01*
X185324670Y-28771161D01*
X184696554Y-28351467D01*
X184623000Y-28321000D01*
X186817000Y-28321000D01*
X186817000Y-149643491D01*
X186594670Y-149421161D01*
X185966554Y-149001467D01*
X185268628Y-148712377D01*
X184527715Y-148565000D01*
X183772285Y-148565000D01*
X183031372Y-148712377D01*
X182333446Y-149001467D01*
X181705330Y-149421161D01*
X181171161Y-149955330D01*
X180751467Y-150583446D01*
X180462377Y-151281372D01*
X180315000Y-152022285D01*
X180315000Y-152777715D01*
X180462377Y-153518628D01*
X180751467Y-154216554D01*
X181171161Y-154844670D01*
X181705330Y-155378839D01*
X182333446Y-155798533D01*
X183031372Y-156087623D01*
X183772285Y-156235000D01*
X184527715Y-156235000D01*
X185268628Y-156087623D01*
X185966554Y-155798533D01*
X186594670Y-155378839D01*
X186817000Y-155156509D01*
X186817000Y-155470686D01*
X186783782Y-155501392D01*
X186178748Y-155883141D01*
X185514278Y-156148238D01*
X184799828Y-156290350D01*
X184386726Y-156312000D01*
X94010256Y-156312000D01*
X93267604Y-156243759D01*
X92579061Y-156049571D01*
X92075000Y-155800996D01*
X92075000Y-155739435D01*
X92163446Y-155798533D01*
X92861372Y-156087623D01*
X93602285Y-156235000D01*
X94357715Y-156235000D01*
X95098628Y-156087623D01*
X95796554Y-155798533D01*
X96424670Y-155378839D01*
X96958839Y-154844670D01*
X97378533Y-154216554D01*
X97667623Y-153518628D01*
X97815000Y-152777715D01*
X97815000Y-152024081D01*
X101490520Y-152024081D01*
X101490520Y-152444639D01*
X101572567Y-152857116D01*
X101733508Y-153245662D01*
X101967157Y-153595343D01*
X102264537Y-153892723D01*
X102614218Y-154126372D01*
X103002764Y-154287313D01*
X103415241Y-154369360D01*
X103835799Y-154369360D01*
X104248276Y-154287313D01*
X104636822Y-154126372D01*
X104986503Y-153892723D01*
X105283883Y-153595343D01*
X105517532Y-153245662D01*
X105678473Y-152857116D01*
X105760520Y-152444639D01*
X105760520Y-152024081D01*
X105751426Y-151978361D01*
X167017440Y-151978361D01*
X167017440Y-152398919D01*
X167099487Y-152811396D01*
X167260428Y-153199942D01*
X167494077Y-153549623D01*
X167791457Y-153847003D01*
X168141138Y-154080652D01*
X168529684Y-154241593D01*
X168942161Y-154323640D01*
X169362719Y-154323640D01*
X169775196Y-154241593D01*
X170163742Y-154080652D01*
X170513423Y-153847003D01*
X170810803Y-153549623D01*
X171044452Y-153199942D01*
X171205393Y-152811396D01*
X171287440Y-152398919D01*
X171287440Y-151978361D01*
X171205393Y-151565884D01*
X171044452Y-151177338D01*
X170810803Y-150827657D01*
X170513423Y-150530277D01*
X170163742Y-150296628D01*
X169775196Y-150135687D01*
X169362719Y-150053640D01*
X168942161Y-150053640D01*
X168529684Y-150135687D01*
X168141138Y-150296628D01*
X167791457Y-150530277D01*
X167494077Y-150827657D01*
X167260428Y-151177338D01*
X167099487Y-151565884D01*
X167017440Y-151978361D01*
X105751426Y-151978361D01*
X105678473Y-151611604D01*
X105517532Y-151223058D01*
X105283883Y-150873377D01*
X104986503Y-150575997D01*
X104636822Y-150342348D01*
X104248276Y-150181407D01*
X103835799Y-150099360D01*
X103415241Y-150099360D01*
X103002764Y-150181407D01*
X102614218Y-150342348D01*
X102264537Y-150575997D01*
X101967157Y-150873377D01*
X101733508Y-151223058D01*
X101572567Y-151611604D01*
X101490520Y-152024081D01*
X97815000Y-152024081D01*
X97815000Y-152022285D01*
X97667623Y-151281372D01*
X97378533Y-150583446D01*
X96962802Y-149961261D01*
X133889800Y-149961261D01*
X133889800Y-150165139D01*
X133929574Y-150365098D01*
X134007595Y-150553456D01*
X134120863Y-150722974D01*
X134265026Y-150867137D01*
X134434544Y-150980405D01*
X134622902Y-151058426D01*
X134822861Y-151098200D01*
X135026739Y-151098200D01*
X135226698Y-151058426D01*
X135415056Y-150980405D01*
X135584574Y-150867137D01*
X135728737Y-150722974D01*
X135842005Y-150553456D01*
X135920026Y-150365098D01*
X135959800Y-150165139D01*
X135959800Y-149961261D01*
X135947675Y-149900301D01*
X141702840Y-149900301D01*
X141702840Y-150104179D01*
X141742614Y-150304138D01*
X141820635Y-150492496D01*
X141933903Y-150662014D01*
X142078066Y-150806177D01*
X142247584Y-150919445D01*
X142435942Y-150997466D01*
X142635901Y-151037240D01*
X142839779Y-151037240D01*
X143039738Y-150997466D01*
X143228096Y-150919445D01*
X143397614Y-150806177D01*
X143541777Y-150662014D01*
X143655045Y-150492496D01*
X143733066Y-150304138D01*
X143772840Y-150104179D01*
X143772840Y-149900301D01*
X143733066Y-149700342D01*
X143655045Y-149511984D01*
X143541777Y-149342466D01*
X143397614Y-149198303D01*
X143228096Y-149085035D01*
X143039738Y-149007014D01*
X142839779Y-148967240D01*
X142635901Y-148967240D01*
X142435942Y-149007014D01*
X142247584Y-149085035D01*
X142078066Y-149198303D01*
X141933903Y-149342466D01*
X141820635Y-149511984D01*
X141742614Y-149700342D01*
X141702840Y-149900301D01*
X135947675Y-149900301D01*
X135920026Y-149761302D01*
X135842005Y-149572944D01*
X135728737Y-149403426D01*
X135584574Y-149259263D01*
X135415056Y-149145995D01*
X135226698Y-149067974D01*
X135026739Y-149028200D01*
X134822861Y-149028200D01*
X134622902Y-149067974D01*
X134434544Y-149145995D01*
X134265026Y-149259263D01*
X134120863Y-149403426D01*
X134007595Y-149572944D01*
X133929574Y-149761302D01*
X133889800Y-149961261D01*
X96962802Y-149961261D01*
X96958839Y-149955330D01*
X96424670Y-149421161D01*
X95796554Y-149001467D01*
X95098628Y-148712377D01*
X94357715Y-148565000D01*
X93602285Y-148565000D01*
X92861372Y-148712377D01*
X92163446Y-149001467D01*
X92075000Y-149060565D01*
X92075000Y-148041360D01*
X100740520Y-148041360D01*
X100740520Y-148301360D01*
X100791909Y-148569120D01*
X100894548Y-148821709D01*
X101044492Y-149049421D01*
X101235980Y-149243505D01*
X101461652Y-149396502D01*
X101712836Y-149502533D01*
X101784335Y-149516678D01*
X101998520Y-149394016D01*
X101998520Y-148041360D01*
X102252520Y-148041360D01*
X102252520Y-149394016D01*
X102466705Y-149516678D01*
X102538204Y-149502533D01*
X102789388Y-149396502D01*
X103015060Y-149243505D01*
X103206548Y-149049421D01*
X103356492Y-148821709D01*
X103459131Y-148569120D01*
X103510520Y-148301360D01*
X103510520Y-148041360D01*
X102252520Y-148041360D01*
X101998520Y-148041360D01*
X100740520Y-148041360D01*
X92075000Y-148041360D01*
X92075000Y-147527360D01*
X100740520Y-147527360D01*
X100740520Y-147787360D01*
X101998520Y-147787360D01*
X101998520Y-146434704D01*
X102252520Y-146434704D01*
X102252520Y-147787360D01*
X103510520Y-147787360D01*
X103510520Y-147527360D01*
X103459131Y-147259600D01*
X103416367Y-147154360D01*
X103737448Y-147154360D01*
X103737448Y-148674360D01*
X103754512Y-148847614D01*
X103805048Y-149014210D01*
X103887115Y-149167746D01*
X103997558Y-149302322D01*
X104132134Y-149412765D01*
X104285670Y-149494832D01*
X104452266Y-149545368D01*
X104625520Y-149562432D01*
X105625520Y-149562432D01*
X105798774Y-149545368D01*
X105965370Y-149494832D01*
X106118906Y-149412765D01*
X106253482Y-149302322D01*
X106363925Y-149167746D01*
X106445992Y-149014210D01*
X106496528Y-148847614D01*
X106513592Y-148674360D01*
X106513592Y-148488061D01*
X121139000Y-148488061D01*
X121139000Y-148691939D01*
X121178774Y-148891898D01*
X121256795Y-149080256D01*
X121370063Y-149249774D01*
X121514226Y-149393937D01*
X121683744Y-149507205D01*
X121872102Y-149585226D01*
X122072061Y-149625000D01*
X122275939Y-149625000D01*
X122475898Y-149585226D01*
X122664256Y-149507205D01*
X122833774Y-149393937D01*
X122977937Y-149249774D01*
X123091205Y-149080256D01*
X123169226Y-148891898D01*
X123209000Y-148691939D01*
X123209000Y-148659213D01*
X130589128Y-148659213D01*
X130589128Y-148863091D01*
X130628902Y-149063050D01*
X130706923Y-149251408D01*
X130820191Y-149420926D01*
X130964354Y-149565089D01*
X131133872Y-149678357D01*
X131322230Y-149756378D01*
X131522189Y-149796152D01*
X131726067Y-149796152D01*
X131926026Y-149756378D01*
X132114384Y-149678357D01*
X132283902Y-149565089D01*
X132428065Y-149420926D01*
X132541333Y-149251408D01*
X132619354Y-149063050D01*
X132659128Y-148863091D01*
X132659128Y-148659213D01*
X132619354Y-148459254D01*
X132541333Y-148270896D01*
X132428065Y-148101378D01*
X132283902Y-147957215D01*
X132114384Y-147843947D01*
X131926026Y-147765926D01*
X131726067Y-147726152D01*
X131522189Y-147726152D01*
X131322230Y-147765926D01*
X131133872Y-147843947D01*
X130964354Y-147957215D01*
X130820191Y-148101378D01*
X130706923Y-148270896D01*
X130628902Y-148459254D01*
X130589128Y-148659213D01*
X123209000Y-148659213D01*
X123209000Y-148488061D01*
X123169226Y-148288102D01*
X123091205Y-148099744D01*
X122977937Y-147930226D01*
X122833774Y-147786063D01*
X122664256Y-147672795D01*
X122475898Y-147594774D01*
X122275939Y-147555000D01*
X122072061Y-147555000D01*
X121872102Y-147594774D01*
X121683744Y-147672795D01*
X121514226Y-147786063D01*
X121370063Y-147930226D01*
X121256795Y-148099744D01*
X121178774Y-148288102D01*
X121139000Y-148488061D01*
X106513592Y-148488061D01*
X106513592Y-147154360D01*
X106496528Y-146981106D01*
X106445992Y-146814510D01*
X106363925Y-146660974D01*
X106333337Y-146623701D01*
X129510840Y-146623701D01*
X129510840Y-146827579D01*
X129550614Y-147027538D01*
X129628635Y-147215896D01*
X129741903Y-147385414D01*
X129886066Y-147529577D01*
X130055584Y-147642845D01*
X130243942Y-147720866D01*
X130443901Y-147760640D01*
X130647779Y-147760640D01*
X130847738Y-147720866D01*
X131036096Y-147642845D01*
X131205614Y-147529577D01*
X131349777Y-147385414D01*
X131461598Y-147218061D01*
X142221000Y-147218061D01*
X142221000Y-147421939D01*
X142260774Y-147621898D01*
X142338795Y-147810256D01*
X142452063Y-147979774D01*
X142596226Y-148123937D01*
X142765744Y-148237205D01*
X142954102Y-148315226D01*
X143154061Y-148355000D01*
X143357939Y-148355000D01*
X143557898Y-148315226D01*
X143746256Y-148237205D01*
X143915774Y-148123937D01*
X144059937Y-147979774D01*
X144173205Y-147810256D01*
X144251226Y-147621898D01*
X144291000Y-147421939D01*
X144291000Y-147218061D01*
X144251226Y-147018102D01*
X144173205Y-146829744D01*
X144059937Y-146660226D01*
X143915774Y-146516063D01*
X143825975Y-146456061D01*
X149079000Y-146456061D01*
X149079000Y-146659939D01*
X149118774Y-146859898D01*
X149196795Y-147048256D01*
X149310063Y-147217774D01*
X149454226Y-147361937D01*
X149623744Y-147475205D01*
X149812102Y-147553226D01*
X150012061Y-147593000D01*
X150215939Y-147593000D01*
X150415898Y-147553226D01*
X150446372Y-147540603D01*
X166267440Y-147540603D01*
X166267440Y-148196676D01*
X166287480Y-148400146D01*
X166366676Y-148661220D01*
X166495283Y-148901827D01*
X166668359Y-149112720D01*
X166879252Y-149285797D01*
X167119859Y-149414404D01*
X167380933Y-149493600D01*
X167652440Y-149520341D01*
X167923946Y-149493600D01*
X168185020Y-149414404D01*
X168425627Y-149285797D01*
X168636520Y-149112721D01*
X168809597Y-148901828D01*
X168938204Y-148661221D01*
X169017400Y-148400147D01*
X169037440Y-148196677D01*
X169037440Y-147540604D01*
X169017400Y-147337134D01*
X168948088Y-147108640D01*
X169264368Y-147108640D01*
X169264368Y-148628640D01*
X169281432Y-148801894D01*
X169331968Y-148968490D01*
X169414035Y-149122026D01*
X169524478Y-149256602D01*
X169659054Y-149367045D01*
X169812590Y-149449112D01*
X169979186Y-149499648D01*
X170152440Y-149516712D01*
X171152440Y-149516712D01*
X171325694Y-149499648D01*
X171492290Y-149449112D01*
X171645826Y-149367045D01*
X171780402Y-149256602D01*
X171890845Y-149122026D01*
X171972912Y-148968490D01*
X172023448Y-148801894D01*
X172040512Y-148628640D01*
X172040512Y-147108640D01*
X172023448Y-146935386D01*
X171972912Y-146768790D01*
X171890845Y-146615254D01*
X171780402Y-146480678D01*
X171645826Y-146370235D01*
X171492290Y-146288168D01*
X171325694Y-146237632D01*
X171152440Y-146220568D01*
X170152440Y-146220568D01*
X169979186Y-146237632D01*
X169812590Y-146288168D01*
X169659054Y-146370235D01*
X169524478Y-146480678D01*
X169414035Y-146615254D01*
X169331968Y-146768790D01*
X169281432Y-146935386D01*
X169264368Y-147108640D01*
X168948088Y-147108640D01*
X168938204Y-147076059D01*
X168809597Y-146835452D01*
X168636521Y-146624559D01*
X168425628Y-146451483D01*
X168185021Y-146322876D01*
X167923947Y-146243680D01*
X167652440Y-146216939D01*
X167380934Y-146243680D01*
X167119860Y-146322876D01*
X166879253Y-146451483D01*
X166668360Y-146624559D01*
X166495283Y-146835452D01*
X166366676Y-147076059D01*
X166287480Y-147337133D01*
X166267440Y-147540603D01*
X150446372Y-147540603D01*
X150604256Y-147475205D01*
X150773774Y-147361937D01*
X150917937Y-147217774D01*
X151031205Y-147048256D01*
X151109226Y-146859898D01*
X151149000Y-146659939D01*
X151149000Y-146456061D01*
X151109226Y-146256102D01*
X151031205Y-146067744D01*
X150917937Y-145898226D01*
X150773774Y-145754063D01*
X150604256Y-145640795D01*
X150415898Y-145562774D01*
X150215939Y-145523000D01*
X150012061Y-145523000D01*
X149812102Y-145562774D01*
X149623744Y-145640795D01*
X149454226Y-145754063D01*
X149310063Y-145898226D01*
X149196795Y-146067744D01*
X149118774Y-146256102D01*
X149079000Y-146456061D01*
X143825975Y-146456061D01*
X143746256Y-146402795D01*
X143557898Y-146324774D01*
X143357939Y-146285000D01*
X143154061Y-146285000D01*
X142954102Y-146324774D01*
X142765744Y-146402795D01*
X142596226Y-146516063D01*
X142452063Y-146660226D01*
X142338795Y-146829744D01*
X142260774Y-147018102D01*
X142221000Y-147218061D01*
X131461598Y-147218061D01*
X131463045Y-147215896D01*
X131541066Y-147027538D01*
X131580840Y-146827579D01*
X131580840Y-146623701D01*
X131541066Y-146423742D01*
X131463045Y-146235384D01*
X131349777Y-146065866D01*
X131277512Y-145993601D01*
X131364925Y-145976214D01*
X131553283Y-145898193D01*
X131722801Y-145784925D01*
X131866964Y-145640762D01*
X131980232Y-145471244D01*
X132058253Y-145282886D01*
X132098027Y-145082927D01*
X132098027Y-144879049D01*
X132058253Y-144679090D01*
X131980232Y-144490732D01*
X131901715Y-144373222D01*
X131981205Y-144254256D01*
X132059226Y-144065898D01*
X132099000Y-143865939D01*
X132099000Y-143662061D01*
X132059226Y-143462102D01*
X131981205Y-143273744D01*
X131867937Y-143104226D01*
X131723774Y-142960063D01*
X131554256Y-142846795D01*
X131365898Y-142768774D01*
X131165939Y-142729000D01*
X130962061Y-142729000D01*
X130762102Y-142768774D01*
X130573744Y-142846795D01*
X130404226Y-142960063D01*
X130260063Y-143104226D01*
X130146795Y-143273744D01*
X130068774Y-143462102D01*
X130029000Y-143662061D01*
X130029000Y-143865939D01*
X130068774Y-144065898D01*
X130146795Y-144254256D01*
X130225312Y-144371766D01*
X130145822Y-144490732D01*
X130067801Y-144679090D01*
X130028027Y-144879049D01*
X130028027Y-145082927D01*
X130067801Y-145282886D01*
X130145822Y-145471244D01*
X130259090Y-145640762D01*
X130331355Y-145713027D01*
X130243942Y-145730414D01*
X130055584Y-145808435D01*
X129886066Y-145921703D01*
X129741903Y-146065866D01*
X129628635Y-146235384D01*
X129550614Y-146423742D01*
X129510840Y-146623701D01*
X106333337Y-146623701D01*
X106253482Y-146526398D01*
X106118906Y-146415955D01*
X105965370Y-146333888D01*
X105798774Y-146283352D01*
X105625520Y-146266288D01*
X104625520Y-146266288D01*
X104452266Y-146283352D01*
X104285670Y-146333888D01*
X104132134Y-146415955D01*
X103997558Y-146526398D01*
X103887115Y-146660974D01*
X103805048Y-146814510D01*
X103754512Y-146981106D01*
X103737448Y-147154360D01*
X103416367Y-147154360D01*
X103356492Y-147007011D01*
X103206548Y-146779299D01*
X103015060Y-146585215D01*
X102789388Y-146432218D01*
X102538204Y-146326187D01*
X102466705Y-146312042D01*
X102252520Y-146434704D01*
X101998520Y-146434704D01*
X101784335Y-146312042D01*
X101712836Y-146326187D01*
X101461652Y-146432218D01*
X101235980Y-146585215D01*
X101044492Y-146779299D01*
X100894548Y-147007011D01*
X100791909Y-147259600D01*
X100740520Y-147527360D01*
X92075000Y-147527360D01*
X92075000Y-145440061D01*
X109455000Y-145440061D01*
X109455000Y-145643939D01*
X109494774Y-145843898D01*
X109572795Y-146032256D01*
X109686063Y-146201774D01*
X109830226Y-146345937D01*
X109999744Y-146459205D01*
X110188102Y-146537226D01*
X110388061Y-146577000D01*
X110591939Y-146577000D01*
X110791898Y-146537226D01*
X110980256Y-146459205D01*
X111149774Y-146345937D01*
X111293937Y-146201774D01*
X111407205Y-146032256D01*
X111485226Y-145843898D01*
X111525000Y-145643939D01*
X111525000Y-145440061D01*
X111485226Y-145240102D01*
X111407205Y-145051744D01*
X111293937Y-144882226D01*
X111149774Y-144738063D01*
X111059975Y-144678061D01*
X124187000Y-144678061D01*
X124187000Y-144881939D01*
X124226774Y-145081898D01*
X124304795Y-145270256D01*
X124418063Y-145439774D01*
X124562226Y-145583937D01*
X124731744Y-145697205D01*
X124920102Y-145775226D01*
X125120061Y-145815000D01*
X125323939Y-145815000D01*
X125523898Y-145775226D01*
X125712256Y-145697205D01*
X125881774Y-145583937D01*
X126025937Y-145439774D01*
X126139205Y-145270256D01*
X126217226Y-145081898D01*
X126257000Y-144881939D01*
X126257000Y-144678061D01*
X126217226Y-144478102D01*
X126139205Y-144289744D01*
X126025937Y-144120226D01*
X125881774Y-143976063D01*
X125712256Y-143862795D01*
X125523898Y-143784774D01*
X125323939Y-143745000D01*
X125120061Y-143745000D01*
X124920102Y-143784774D01*
X124731744Y-143862795D01*
X124562226Y-143976063D01*
X124418063Y-144120226D01*
X124304795Y-144289744D01*
X124226774Y-144478102D01*
X124187000Y-144678061D01*
X111059975Y-144678061D01*
X110980256Y-144624795D01*
X110791898Y-144546774D01*
X110591939Y-144507000D01*
X110388061Y-144507000D01*
X110188102Y-144546774D01*
X109999744Y-144624795D01*
X109830226Y-144738063D01*
X109686063Y-144882226D01*
X109572795Y-145051744D01*
X109494774Y-145240102D01*
X109455000Y-145440061D01*
X92075000Y-145440061D01*
X92075000Y-141630061D01*
X113265000Y-141630061D01*
X113265000Y-141833939D01*
X113304774Y-142033898D01*
X113382795Y-142222256D01*
X113496063Y-142391774D01*
X113640226Y-142535937D01*
X113809744Y-142649205D01*
X113998102Y-142727226D01*
X114198061Y-142767000D01*
X114401939Y-142767000D01*
X114601898Y-142727226D01*
X114790256Y-142649205D01*
X114959774Y-142535937D01*
X115103937Y-142391774D01*
X115217205Y-142222256D01*
X115295226Y-142033898D01*
X115326323Y-141877561D01*
X139166500Y-141877561D01*
X139166500Y-142081439D01*
X139206274Y-142281398D01*
X139284295Y-142469756D01*
X139397563Y-142639274D01*
X139541726Y-142783437D01*
X139711244Y-142896705D01*
X139899602Y-142974726D01*
X140099561Y-143014500D01*
X140303439Y-143014500D01*
X140503398Y-142974726D01*
X140691756Y-142896705D01*
X140861274Y-142783437D01*
X141005437Y-142639274D01*
X141118705Y-142469756D01*
X141196726Y-142281398D01*
X141225237Y-142138061D01*
X147555000Y-142138061D01*
X147555000Y-142341939D01*
X147594774Y-142541898D01*
X147672795Y-142730256D01*
X147786063Y-142899774D01*
X147930226Y-143043937D01*
X148099744Y-143157205D01*
X148288102Y-143235226D01*
X148488061Y-143275000D01*
X148691939Y-143275000D01*
X148891898Y-143235226D01*
X149080256Y-143157205D01*
X149084961Y-143154061D01*
X165081000Y-143154061D01*
X165081000Y-143357939D01*
X165120774Y-143557898D01*
X165198795Y-143746256D01*
X165312063Y-143915774D01*
X165456226Y-144059937D01*
X165625744Y-144173205D01*
X165814102Y-144251226D01*
X166014061Y-144291000D01*
X166217939Y-144291000D01*
X166417898Y-144251226D01*
X166606256Y-144173205D01*
X166624000Y-144161349D01*
X166641744Y-144173205D01*
X166830102Y-144251226D01*
X167030061Y-144291000D01*
X167233939Y-144291000D01*
X167433898Y-144251226D01*
X167622256Y-144173205D01*
X167640000Y-144161349D01*
X167657744Y-144173205D01*
X167846102Y-144251226D01*
X168046061Y-144291000D01*
X168249939Y-144291000D01*
X168449898Y-144251226D01*
X168638256Y-144173205D01*
X168807774Y-144059937D01*
X168951937Y-143915774D01*
X169065205Y-143746256D01*
X169143226Y-143557898D01*
X169183000Y-143357939D01*
X169183000Y-143154061D01*
X169143226Y-142954102D01*
X169123108Y-142905532D01*
X183118482Y-142905532D01*
X183118482Y-143109410D01*
X183158256Y-143309369D01*
X183236277Y-143497727D01*
X183349545Y-143667245D01*
X183493708Y-143811408D01*
X183663226Y-143924676D01*
X183851584Y-144002697D01*
X184051543Y-144042471D01*
X184255421Y-144042471D01*
X184455380Y-144002697D01*
X184643738Y-143924676D01*
X184813256Y-143811408D01*
X184957419Y-143667245D01*
X185070687Y-143497727D01*
X185148708Y-143309369D01*
X185188482Y-143109410D01*
X185188482Y-142905532D01*
X185148708Y-142705573D01*
X185070687Y-142517215D01*
X184957419Y-142347697D01*
X184813256Y-142203534D01*
X184643738Y-142090266D01*
X184455380Y-142012245D01*
X184255421Y-141972471D01*
X184051543Y-141972471D01*
X183851584Y-142012245D01*
X183663226Y-142090266D01*
X183493708Y-142203534D01*
X183349545Y-142347697D01*
X183236277Y-142517215D01*
X183158256Y-142705573D01*
X183118482Y-142905532D01*
X169123108Y-142905532D01*
X169065205Y-142765744D01*
X168951937Y-142596226D01*
X168807774Y-142452063D01*
X168638256Y-142338795D01*
X168449898Y-142260774D01*
X168249939Y-142221000D01*
X168046061Y-142221000D01*
X167846102Y-142260774D01*
X167657744Y-142338795D01*
X167640000Y-142350651D01*
X167622256Y-142338795D01*
X167433898Y-142260774D01*
X167233939Y-142221000D01*
X167030061Y-142221000D01*
X166830102Y-142260774D01*
X166641744Y-142338795D01*
X166624000Y-142350651D01*
X166606256Y-142338795D01*
X166417898Y-142260774D01*
X166217939Y-142221000D01*
X166014061Y-142221000D01*
X165814102Y-142260774D01*
X165625744Y-142338795D01*
X165456226Y-142452063D01*
X165312063Y-142596226D01*
X165198795Y-142765744D01*
X165120774Y-142954102D01*
X165081000Y-143154061D01*
X149084961Y-143154061D01*
X149249774Y-143043937D01*
X149393937Y-142899774D01*
X149507205Y-142730256D01*
X149585226Y-142541898D01*
X149625000Y-142341939D01*
X149625000Y-142138061D01*
X149585226Y-141938102D01*
X149507205Y-141749744D01*
X149393937Y-141580226D01*
X149249774Y-141436063D01*
X149080256Y-141322795D01*
X148891898Y-141244774D01*
X148691939Y-141205000D01*
X148488061Y-141205000D01*
X148288102Y-141244774D01*
X148099744Y-141322795D01*
X147930226Y-141436063D01*
X147786063Y-141580226D01*
X147672795Y-141749744D01*
X147594774Y-141938102D01*
X147555000Y-142138061D01*
X141225237Y-142138061D01*
X141236500Y-142081439D01*
X141236500Y-141877561D01*
X141196726Y-141677602D01*
X141118705Y-141489244D01*
X141005437Y-141319726D01*
X140861274Y-141175563D01*
X140691756Y-141062295D01*
X140503398Y-140984274D01*
X140303439Y-140944500D01*
X140099561Y-140944500D01*
X139899602Y-140984274D01*
X139711244Y-141062295D01*
X139541726Y-141175563D01*
X139397563Y-141319726D01*
X139284295Y-141489244D01*
X139206274Y-141677602D01*
X139166500Y-141877561D01*
X115326323Y-141877561D01*
X115335000Y-141833939D01*
X115335000Y-141630061D01*
X115295226Y-141430102D01*
X115217205Y-141241744D01*
X115103937Y-141072226D01*
X114959774Y-140928063D01*
X114790256Y-140814795D01*
X114601898Y-140736774D01*
X114401939Y-140697000D01*
X114198061Y-140697000D01*
X113998102Y-140736774D01*
X113809744Y-140814795D01*
X113640226Y-140928063D01*
X113496063Y-141072226D01*
X113382795Y-141241744D01*
X113304774Y-141430102D01*
X113265000Y-141630061D01*
X92075000Y-141630061D01*
X92075000Y-137982621D01*
X103605380Y-137982621D01*
X103605380Y-138186499D01*
X103645154Y-138386458D01*
X103723175Y-138574816D01*
X103836443Y-138744334D01*
X103980606Y-138888497D01*
X104150124Y-139001765D01*
X104338482Y-139079786D01*
X104538441Y-139119560D01*
X104742319Y-139119560D01*
X104942278Y-139079786D01*
X105130636Y-139001765D01*
X105300154Y-138888497D01*
X105444317Y-138744334D01*
X105557585Y-138574816D01*
X105635606Y-138386458D01*
X105675380Y-138186499D01*
X105675380Y-137982621D01*
X105635606Y-137782662D01*
X105557585Y-137594304D01*
X105444317Y-137424786D01*
X105300154Y-137280623D01*
X105130636Y-137167355D01*
X104942278Y-137089334D01*
X104742319Y-137049560D01*
X104538441Y-137049560D01*
X104338482Y-137089334D01*
X104150124Y-137167355D01*
X103980606Y-137280623D01*
X103836443Y-137424786D01*
X103723175Y-137594304D01*
X103645154Y-137782662D01*
X103605380Y-137982621D01*
X92075000Y-137982621D01*
X92075000Y-134276241D01*
X92208760Y-134276241D01*
X92208760Y-134696799D01*
X92290807Y-135109276D01*
X92451748Y-135497822D01*
X92685397Y-135847503D01*
X92982777Y-136144883D01*
X93332458Y-136378532D01*
X93721004Y-136539473D01*
X94133481Y-136621520D01*
X94554039Y-136621520D01*
X94966516Y-136539473D01*
X95355062Y-136378532D01*
X95704743Y-136144883D01*
X96002123Y-135847503D01*
X96235772Y-135497822D01*
X96240453Y-135486520D01*
X97015688Y-135486520D01*
X97015688Y-136486520D01*
X97032752Y-136659774D01*
X97083288Y-136826370D01*
X97165355Y-136979906D01*
X97275798Y-137114482D01*
X97410374Y-137224925D01*
X97563910Y-137306992D01*
X97730506Y-137357528D01*
X97903760Y-137374592D01*
X99423760Y-137374592D01*
X99597014Y-137357528D01*
X99763610Y-137306992D01*
X99917146Y-137224925D01*
X100051722Y-137114482D01*
X100162165Y-136979906D01*
X100244232Y-136826370D01*
X100294768Y-136659774D01*
X100305573Y-136550061D01*
X106305400Y-136550061D01*
X106305400Y-136753939D01*
X106345174Y-136953898D01*
X106423195Y-137142256D01*
X106536463Y-137311774D01*
X106680626Y-137455937D01*
X106850144Y-137569205D01*
X107038502Y-137647226D01*
X107238461Y-137687000D01*
X107442339Y-137687000D01*
X107642298Y-137647226D01*
X107830656Y-137569205D01*
X108000174Y-137455937D01*
X108144337Y-137311774D01*
X108257605Y-137142256D01*
X108335626Y-136953898D01*
X108375400Y-136753939D01*
X108375400Y-136550061D01*
X108335626Y-136350102D01*
X108313242Y-136296061D01*
X123679000Y-136296061D01*
X123679000Y-136499939D01*
X123718774Y-136699898D01*
X123796795Y-136888256D01*
X123808651Y-136906000D01*
X123796795Y-136923744D01*
X123718774Y-137112102D01*
X123679000Y-137312061D01*
X123679000Y-137515939D01*
X123718774Y-137715898D01*
X123796795Y-137904256D01*
X123910063Y-138073774D01*
X124054226Y-138217937D01*
X124223744Y-138331205D01*
X124412102Y-138409226D01*
X124612061Y-138449000D01*
X124815939Y-138449000D01*
X125015898Y-138409226D01*
X125204256Y-138331205D01*
X125222000Y-138319349D01*
X125239744Y-138331205D01*
X125428102Y-138409226D01*
X125628061Y-138449000D01*
X125831939Y-138449000D01*
X126031898Y-138409226D01*
X126220256Y-138331205D01*
X126238000Y-138319349D01*
X126255744Y-138331205D01*
X126444102Y-138409226D01*
X126644061Y-138449000D01*
X126847939Y-138449000D01*
X127047898Y-138409226D01*
X127236256Y-138331205D01*
X127405774Y-138217937D01*
X127549937Y-138073774D01*
X127646003Y-137930000D01*
X136783928Y-137930000D01*
X136783928Y-138930000D01*
X136796188Y-139054482D01*
X136832498Y-139174180D01*
X136891463Y-139284494D01*
X136970815Y-139381185D01*
X137067506Y-139460537D01*
X137177820Y-139519502D01*
X137297518Y-139555812D01*
X137422000Y-139568072D01*
X138422000Y-139568072D01*
X138546482Y-139555812D01*
X138666180Y-139519502D01*
X138754894Y-139472082D01*
X138890124Y-139524126D01*
X139065000Y-139399129D01*
X139065000Y-138557000D01*
X139319000Y-138557000D01*
X139319000Y-139399129D01*
X139493876Y-139524126D01*
X139701529Y-139444210D01*
X139889601Y-139325318D01*
X140050865Y-139172020D01*
X140179123Y-138990206D01*
X140269446Y-138786864D01*
X140286119Y-138731874D01*
X140159954Y-138557000D01*
X139319000Y-138557000D01*
X139065000Y-138557000D01*
X139060072Y-138557000D01*
X139060072Y-138303000D01*
X139065000Y-138303000D01*
X139065000Y-138291974D01*
X139080212Y-138295000D01*
X139303788Y-138295000D01*
X139319000Y-138291974D01*
X139319000Y-138303000D01*
X140159954Y-138303000D01*
X140286119Y-138128126D01*
X140269446Y-138073136D01*
X140179123Y-137869794D01*
X140129647Y-137799658D01*
X140197824Y-137697624D01*
X140283383Y-137491067D01*
X140327000Y-137271788D01*
X140327000Y-137048212D01*
X140283383Y-136828933D01*
X140197824Y-136622376D01*
X140132759Y-136525000D01*
X140197824Y-136427624D01*
X140283383Y-136221067D01*
X140327000Y-136001788D01*
X140327000Y-135788061D01*
X140697000Y-135788061D01*
X140697000Y-135991939D01*
X140736774Y-136191898D01*
X140814795Y-136380256D01*
X140928063Y-136549774D01*
X141072226Y-136693937D01*
X141241744Y-136807205D01*
X141430102Y-136885226D01*
X141630061Y-136925000D01*
X141833939Y-136925000D01*
X142033898Y-136885226D01*
X142222256Y-136807205D01*
X142391774Y-136693937D01*
X142535937Y-136549774D01*
X142649205Y-136380256D01*
X142727226Y-136191898D01*
X142735945Y-136148061D01*
X143965000Y-136148061D01*
X143965000Y-136351939D01*
X144004774Y-136551898D01*
X144082795Y-136740256D01*
X144196063Y-136909774D01*
X144340226Y-137053937D01*
X144509744Y-137167205D01*
X144698102Y-137245226D01*
X144898061Y-137285000D01*
X145101939Y-137285000D01*
X145301898Y-137245226D01*
X145490256Y-137167205D01*
X145659774Y-137053937D01*
X145803937Y-136909774D01*
X145917205Y-136740256D01*
X145995226Y-136551898D01*
X146035000Y-136351939D01*
X146035000Y-136148061D01*
X145995226Y-135948102D01*
X145917205Y-135759744D01*
X145803937Y-135590226D01*
X145659774Y-135446063D01*
X145490256Y-135332795D01*
X145301898Y-135254774D01*
X145101939Y-135215000D01*
X144898061Y-135215000D01*
X144698102Y-135254774D01*
X144509744Y-135332795D01*
X144340226Y-135446063D01*
X144196063Y-135590226D01*
X144082795Y-135759744D01*
X144004774Y-135948102D01*
X143965000Y-136148061D01*
X142735945Y-136148061D01*
X142767000Y-135991939D01*
X142767000Y-135788061D01*
X142727226Y-135588102D01*
X142649205Y-135399744D01*
X142535937Y-135230226D01*
X142391774Y-135086063D01*
X142222256Y-134972795D01*
X142033898Y-134894774D01*
X141833939Y-134855000D01*
X141630061Y-134855000D01*
X141430102Y-134894774D01*
X141241744Y-134972795D01*
X141072226Y-135086063D01*
X140928063Y-135230226D01*
X140814795Y-135399744D01*
X140736774Y-135588102D01*
X140697000Y-135788061D01*
X140327000Y-135788061D01*
X140327000Y-135778212D01*
X140283383Y-135558933D01*
X140197824Y-135352376D01*
X140073612Y-135166480D01*
X139915520Y-135008388D01*
X139729624Y-134884176D01*
X139523067Y-134798617D01*
X139303788Y-134755000D01*
X139080212Y-134755000D01*
X138860933Y-134798617D01*
X138654376Y-134884176D01*
X138557000Y-134949241D01*
X138459624Y-134884176D01*
X138253067Y-134798617D01*
X138033788Y-134755000D01*
X137810212Y-134755000D01*
X137590933Y-134798617D01*
X137384376Y-134884176D01*
X137198480Y-135008388D01*
X137040388Y-135166480D01*
X136916176Y-135352376D01*
X136830617Y-135558933D01*
X136787000Y-135778212D01*
X136787000Y-136001788D01*
X136830617Y-136221067D01*
X136916176Y-136427624D01*
X136981241Y-136525000D01*
X136916176Y-136622376D01*
X136830617Y-136828933D01*
X136787000Y-137048212D01*
X136787000Y-137271788D01*
X136830617Y-137491067D01*
X136876888Y-137602774D01*
X136832498Y-137685820D01*
X136796188Y-137805518D01*
X136783928Y-137930000D01*
X127646003Y-137930000D01*
X127663205Y-137904256D01*
X127741226Y-137715898D01*
X127781000Y-137515939D01*
X127781000Y-137312061D01*
X127741226Y-137112102D01*
X127663205Y-136923744D01*
X127651349Y-136906000D01*
X127663205Y-136888256D01*
X127741226Y-136699898D01*
X127781000Y-136499939D01*
X127781000Y-136296061D01*
X127741226Y-136096102D01*
X127663205Y-135907744D01*
X127549937Y-135738226D01*
X127405774Y-135594063D01*
X127236256Y-135480795D01*
X127047898Y-135402774D01*
X126847939Y-135363000D01*
X126644061Y-135363000D01*
X126444102Y-135402774D01*
X126255744Y-135480795D01*
X126238000Y-135492651D01*
X126220256Y-135480795D01*
X126031898Y-135402774D01*
X125831939Y-135363000D01*
X125628061Y-135363000D01*
X125428102Y-135402774D01*
X125239744Y-135480795D01*
X125222000Y-135492651D01*
X125204256Y-135480795D01*
X125015898Y-135402774D01*
X124815939Y-135363000D01*
X124612061Y-135363000D01*
X124412102Y-135402774D01*
X124223744Y-135480795D01*
X124054226Y-135594063D01*
X123910063Y-135738226D01*
X123796795Y-135907744D01*
X123718774Y-136096102D01*
X123679000Y-136296061D01*
X108313242Y-136296061D01*
X108257605Y-136161744D01*
X108144337Y-135992226D01*
X108000174Y-135848063D01*
X107830656Y-135734795D01*
X107642298Y-135656774D01*
X107442339Y-135617000D01*
X107238461Y-135617000D01*
X107038502Y-135656774D01*
X106850144Y-135734795D01*
X106680626Y-135848063D01*
X106536463Y-135992226D01*
X106423195Y-136161744D01*
X106345174Y-136350102D01*
X106305400Y-136550061D01*
X100305573Y-136550061D01*
X100311832Y-136486520D01*
X100311832Y-135486520D01*
X100294768Y-135313266D01*
X100244232Y-135146670D01*
X100162165Y-134993134D01*
X100051722Y-134858558D01*
X99917146Y-134748115D01*
X99763610Y-134666048D01*
X99597014Y-134615512D01*
X99423760Y-134598448D01*
X97903760Y-134598448D01*
X97730506Y-134615512D01*
X97563910Y-134666048D01*
X97410374Y-134748115D01*
X97275798Y-134858558D01*
X97165355Y-134993134D01*
X97083288Y-135146670D01*
X97032752Y-135313266D01*
X97015688Y-135486520D01*
X96240453Y-135486520D01*
X96396713Y-135109276D01*
X96478760Y-134696799D01*
X96478760Y-134276241D01*
X96396713Y-133863764D01*
X96235772Y-133475218D01*
X96137208Y-133327705D01*
X97061442Y-133327705D01*
X97075587Y-133399204D01*
X97181618Y-133650388D01*
X97334615Y-133876060D01*
X97528699Y-134067548D01*
X97756411Y-134217492D01*
X98009000Y-134320131D01*
X98276760Y-134371520D01*
X98536760Y-134371520D01*
X98536760Y-133113520D01*
X98790760Y-133113520D01*
X98790760Y-134371520D01*
X99050760Y-134371520D01*
X99318520Y-134320131D01*
X99571109Y-134217492D01*
X99798821Y-134067548D01*
X99857087Y-134010061D01*
X161525000Y-134010061D01*
X161525000Y-134213939D01*
X161564774Y-134413898D01*
X161642795Y-134602256D01*
X161739510Y-134747000D01*
X161642795Y-134891744D01*
X161564774Y-135080102D01*
X161525000Y-135280061D01*
X161525000Y-135483939D01*
X161564774Y-135683898D01*
X161642795Y-135872256D01*
X161739510Y-136017000D01*
X161642795Y-136161744D01*
X161564774Y-136350102D01*
X161525000Y-136550061D01*
X161525000Y-136753939D01*
X161564774Y-136953898D01*
X161642795Y-137142256D01*
X161756063Y-137311774D01*
X161900226Y-137455937D01*
X162069744Y-137569205D01*
X162258102Y-137647226D01*
X162458061Y-137687000D01*
X162661939Y-137687000D01*
X162861898Y-137647226D01*
X163050256Y-137569205D01*
X163219774Y-137455937D01*
X163363937Y-137311774D01*
X163477205Y-137142256D01*
X163555226Y-136953898D01*
X163595000Y-136753939D01*
X163595000Y-136550061D01*
X163555226Y-136350102D01*
X163477205Y-136161744D01*
X163380490Y-136017000D01*
X163477205Y-135872256D01*
X163555226Y-135683898D01*
X163595000Y-135483939D01*
X163595000Y-135280061D01*
X163555226Y-135080102D01*
X163477205Y-134891744D01*
X163380490Y-134747000D01*
X163477205Y-134602256D01*
X163555226Y-134413898D01*
X163595000Y-134213939D01*
X163595000Y-134010061D01*
X163555226Y-133810102D01*
X163477205Y-133621744D01*
X163363937Y-133452226D01*
X163219774Y-133308063D01*
X163050256Y-133194795D01*
X162861898Y-133116774D01*
X162661939Y-133077000D01*
X162458061Y-133077000D01*
X162258102Y-133116774D01*
X162069744Y-133194795D01*
X161900226Y-133308063D01*
X161756063Y-133452226D01*
X161642795Y-133621744D01*
X161564774Y-133810102D01*
X161525000Y-134010061D01*
X99857087Y-134010061D01*
X99992905Y-133876060D01*
X100145902Y-133650388D01*
X100251933Y-133399204D01*
X100266078Y-133327705D01*
X100143416Y-133113520D01*
X98790760Y-133113520D01*
X98536760Y-133113520D01*
X97184104Y-133113520D01*
X97061442Y-133327705D01*
X96137208Y-133327705D01*
X96002123Y-133125537D01*
X95704743Y-132828157D01*
X95431131Y-132645335D01*
X97061442Y-132645335D01*
X97184104Y-132859520D01*
X98536760Y-132859520D01*
X98536760Y-131601520D01*
X98790760Y-131601520D01*
X98790760Y-132859520D01*
X100143416Y-132859520D01*
X100258377Y-132658781D01*
X115540840Y-132658781D01*
X115540840Y-132862659D01*
X115580614Y-133062618D01*
X115658635Y-133250976D01*
X115771903Y-133420494D01*
X115916066Y-133564657D01*
X116085584Y-133677925D01*
X116273942Y-133755946D01*
X116473901Y-133795720D01*
X116677779Y-133795720D01*
X116877738Y-133755946D01*
X117066096Y-133677925D01*
X117235614Y-133564657D01*
X117379777Y-133420494D01*
X117493045Y-133250976D01*
X117571066Y-133062618D01*
X117610840Y-132862659D01*
X117610840Y-132658781D01*
X117571066Y-132458822D01*
X117493045Y-132270464D01*
X117379777Y-132100946D01*
X117235614Y-131956783D01*
X117066096Y-131843515D01*
X116877738Y-131765494D01*
X116677779Y-131725720D01*
X116473901Y-131725720D01*
X116273942Y-131765494D01*
X116085584Y-131843515D01*
X115916066Y-131956783D01*
X115771903Y-132100946D01*
X115658635Y-132270464D01*
X115580614Y-132458822D01*
X115540840Y-132658781D01*
X100258377Y-132658781D01*
X100266078Y-132645335D01*
X100251933Y-132573836D01*
X100145902Y-132322652D01*
X99992905Y-132096980D01*
X99798821Y-131905492D01*
X99571109Y-131755548D01*
X99318520Y-131652909D01*
X99050760Y-131601520D01*
X98790760Y-131601520D01*
X98536760Y-131601520D01*
X98276760Y-131601520D01*
X98009000Y-131652909D01*
X97756411Y-131755548D01*
X97528699Y-131905492D01*
X97334615Y-132096980D01*
X97181618Y-132322652D01*
X97075587Y-132573836D01*
X97061442Y-132645335D01*
X95431131Y-132645335D01*
X95355062Y-132594508D01*
X94966516Y-132433567D01*
X94554039Y-132351520D01*
X94133481Y-132351520D01*
X93721004Y-132433567D01*
X93332458Y-132594508D01*
X92982777Y-132828157D01*
X92685397Y-133125537D01*
X92451748Y-133475218D01*
X92290807Y-133863764D01*
X92208760Y-134276241D01*
X92075000Y-134276241D01*
X92075000Y-130065441D01*
X116132660Y-130065441D01*
X116132660Y-130269319D01*
X116172434Y-130469278D01*
X116250455Y-130657636D01*
X116363723Y-130827154D01*
X116507886Y-130971317D01*
X116677404Y-131084585D01*
X116865762Y-131162606D01*
X117065721Y-131202380D01*
X117269599Y-131202380D01*
X117469558Y-131162606D01*
X117657916Y-131084585D01*
X117827434Y-130971317D01*
X117971597Y-130827154D01*
X118084865Y-130657636D01*
X118162886Y-130469278D01*
X118202660Y-130269319D01*
X118202660Y-130065441D01*
X118162886Y-129865482D01*
X118084865Y-129677124D01*
X117993242Y-129540000D01*
X169545000Y-129540000D01*
X169545000Y-142748000D01*
X169547440Y-142772776D01*
X169554667Y-142796601D01*
X169566403Y-142818557D01*
X169582197Y-142837803D01*
X169601443Y-142853597D01*
X169623399Y-142865333D01*
X169647224Y-142872560D01*
X169672000Y-142875000D01*
X182880000Y-142875000D01*
X182904776Y-142872560D01*
X182928601Y-142865333D01*
X182950557Y-142853597D01*
X182969803Y-142837803D01*
X182985597Y-142818557D01*
X182997333Y-142796601D01*
X183004560Y-142772776D01*
X183007000Y-142748000D01*
X183007000Y-129540000D01*
X183004560Y-129515224D01*
X182997333Y-129491399D01*
X182985597Y-129469443D01*
X182969803Y-129450197D01*
X182950557Y-129434403D01*
X182928601Y-129422667D01*
X182904776Y-129415440D01*
X182880000Y-129413000D01*
X169672000Y-129413000D01*
X169647224Y-129415440D01*
X169623399Y-129422667D01*
X169601443Y-129434403D01*
X169582197Y-129450197D01*
X169566403Y-129469443D01*
X169554667Y-129491399D01*
X169547440Y-129515224D01*
X169545000Y-129540000D01*
X117993242Y-129540000D01*
X117971597Y-129507606D01*
X117827434Y-129363443D01*
X117657916Y-129250175D01*
X117469558Y-129172154D01*
X117269599Y-129132380D01*
X117065721Y-129132380D01*
X116865762Y-129172154D01*
X116677404Y-129250175D01*
X116507886Y-129363443D01*
X116363723Y-129507606D01*
X116250455Y-129677124D01*
X116172434Y-129865482D01*
X116132660Y-130065441D01*
X92075000Y-130065441D01*
X92075000Y-125732308D01*
X96876004Y-125732308D01*
X96876066Y-125750040D01*
X96878979Y-125778720D01*
X96878778Y-125807550D01*
X96879678Y-125816721D01*
X96931495Y-126309727D01*
X96943522Y-126368320D01*
X96954732Y-126427084D01*
X96957395Y-126435906D01*
X97103984Y-126909458D01*
X97127158Y-126964584D01*
X97149573Y-127020066D01*
X97153900Y-127028202D01*
X97389677Y-127464262D01*
X97423110Y-127513829D01*
X97455881Y-127563908D01*
X97461706Y-127571049D01*
X97777690Y-127953009D01*
X97820107Y-127995131D01*
X97861989Y-128037900D01*
X97869090Y-128043773D01*
X98253246Y-128357084D01*
X98303073Y-128390188D01*
X98352428Y-128423983D01*
X98360531Y-128428364D01*
X98360539Y-128428368D01*
X98798230Y-128661092D01*
X98853536Y-128683888D01*
X98908517Y-128707453D01*
X98917320Y-128710178D01*
X99391885Y-128853457D01*
X99450558Y-128865074D01*
X99509075Y-128877513D01*
X99518240Y-128878476D01*
X100011595Y-128926850D01*
X100011598Y-128926850D01*
X100043581Y-128930000D01*
X133890419Y-128930000D01*
X133919746Y-128927112D01*
X133935550Y-128927222D01*
X133944721Y-128926322D01*
X134437727Y-128874505D01*
X134496320Y-128862478D01*
X134555084Y-128851268D01*
X134563906Y-128848605D01*
X135037458Y-128702016D01*
X135092584Y-128678842D01*
X135148066Y-128656427D01*
X135156202Y-128652100D01*
X135592262Y-128416323D01*
X135641829Y-128382890D01*
X135691908Y-128350119D01*
X135699049Y-128344294D01*
X136081009Y-128028310D01*
X136123131Y-127985893D01*
X136165900Y-127944011D01*
X136171773Y-127936910D01*
X136485084Y-127552754D01*
X136518188Y-127502927D01*
X136551983Y-127453572D01*
X136556364Y-127445469D01*
X136556368Y-127445461D01*
X136789092Y-127007770D01*
X136811888Y-126952464D01*
X136835453Y-126897483D01*
X136838178Y-126888680D01*
X136981457Y-126414115D01*
X136993074Y-126355442D01*
X137005513Y-126296925D01*
X137006476Y-126287760D01*
X137054850Y-125794405D01*
X137054850Y-125765573D01*
X137057964Y-125736907D01*
X137057979Y-125732308D01*
X141326004Y-125732308D01*
X141326066Y-125750040D01*
X141328979Y-125778720D01*
X141328778Y-125807550D01*
X141329678Y-125816721D01*
X141381495Y-126309727D01*
X141393522Y-126368320D01*
X141404732Y-126427084D01*
X141407395Y-126435906D01*
X141553984Y-126909458D01*
X141577158Y-126964584D01*
X141599573Y-127020066D01*
X141603900Y-127028202D01*
X141839677Y-127464262D01*
X141873110Y-127513829D01*
X141905881Y-127563908D01*
X141911706Y-127571049D01*
X142227690Y-127953009D01*
X142270107Y-127995131D01*
X142311989Y-128037900D01*
X142319090Y-128043773D01*
X142703246Y-128357084D01*
X142753073Y-128390188D01*
X142802428Y-128423983D01*
X142810531Y-128428364D01*
X142810539Y-128428368D01*
X143248230Y-128661092D01*
X143303536Y-128683888D01*
X143358517Y-128707453D01*
X143367320Y-128710178D01*
X143841885Y-128853457D01*
X143900558Y-128865074D01*
X143959075Y-128877513D01*
X143968240Y-128878476D01*
X144461595Y-128926850D01*
X144461598Y-128926850D01*
X144493581Y-128930000D01*
X178340419Y-128930000D01*
X178369746Y-128927112D01*
X178385550Y-128927222D01*
X178394721Y-128926322D01*
X178887727Y-128874505D01*
X178946320Y-128862478D01*
X179005084Y-128851268D01*
X179013906Y-128848605D01*
X179487458Y-128702016D01*
X179542584Y-128678842D01*
X179598066Y-128656427D01*
X179606202Y-128652100D01*
X180042262Y-128416323D01*
X180091829Y-128382890D01*
X180141908Y-128350119D01*
X180149049Y-128344294D01*
X180531009Y-128028310D01*
X180573131Y-127985893D01*
X180615900Y-127944011D01*
X180621773Y-127936910D01*
X180935084Y-127552754D01*
X180968188Y-127502927D01*
X181001983Y-127453572D01*
X181006364Y-127445469D01*
X181006368Y-127445461D01*
X181239092Y-127007770D01*
X181261888Y-126952464D01*
X181285453Y-126897483D01*
X181288178Y-126888680D01*
X181431457Y-126414115D01*
X181443074Y-126355442D01*
X181455513Y-126296925D01*
X181456476Y-126287760D01*
X181504850Y-125794405D01*
X181504850Y-125765573D01*
X181507964Y-125736907D01*
X181507996Y-125727692D01*
X181507934Y-125709960D01*
X181505021Y-125681280D01*
X181505222Y-125652451D01*
X181504322Y-125643280D01*
X181452505Y-125150273D01*
X181440490Y-125091742D01*
X181429269Y-125032917D01*
X181426605Y-125024095D01*
X181280016Y-124550542D01*
X181256847Y-124495427D01*
X181234427Y-124439934D01*
X181230100Y-124431798D01*
X180994323Y-123995738D01*
X180960890Y-123946171D01*
X180928119Y-123896092D01*
X180922294Y-123888951D01*
X180606310Y-123506991D01*
X180563874Y-123464850D01*
X180522011Y-123422101D01*
X180514911Y-123416227D01*
X180130754Y-123102917D01*
X180080946Y-123069824D01*
X180031572Y-123036017D01*
X180023466Y-123031634D01*
X179585770Y-122798908D01*
X179530488Y-122776122D01*
X179475483Y-122752547D01*
X179466680Y-122749822D01*
X178992116Y-122606543D01*
X178933428Y-122594923D01*
X178874925Y-122582487D01*
X178865760Y-122581524D01*
X178372405Y-122533150D01*
X178372402Y-122533150D01*
X178340419Y-122530000D01*
X144493581Y-122530000D01*
X144464254Y-122532888D01*
X144448451Y-122532778D01*
X144439280Y-122533678D01*
X143946273Y-122585495D01*
X143887742Y-122597510D01*
X143828917Y-122608731D01*
X143820095Y-122611395D01*
X143346542Y-122757984D01*
X143291427Y-122781153D01*
X143235934Y-122803573D01*
X143227798Y-122807900D01*
X142791738Y-123043677D01*
X142742171Y-123077110D01*
X142692092Y-123109881D01*
X142684951Y-123115706D01*
X142302991Y-123431690D01*
X142260850Y-123474126D01*
X142218101Y-123515989D01*
X142212227Y-123523089D01*
X141898917Y-123907246D01*
X141865824Y-123957054D01*
X141832017Y-124006428D01*
X141827634Y-124014534D01*
X141594908Y-124452230D01*
X141572122Y-124507512D01*
X141548547Y-124562517D01*
X141545822Y-124571320D01*
X141402543Y-125045884D01*
X141390923Y-125104572D01*
X141378487Y-125163075D01*
X141377524Y-125172240D01*
X141329150Y-125665595D01*
X141329150Y-125694427D01*
X141326036Y-125723093D01*
X141326004Y-125732308D01*
X137057979Y-125732308D01*
X137057996Y-125727692D01*
X137057934Y-125709960D01*
X137055021Y-125681280D01*
X137055222Y-125652451D01*
X137054322Y-125643280D01*
X137002505Y-125150273D01*
X136990490Y-125091742D01*
X136979269Y-125032917D01*
X136976605Y-125024095D01*
X136830016Y-124550542D01*
X136806847Y-124495427D01*
X136784427Y-124439934D01*
X136780100Y-124431798D01*
X136544323Y-123995738D01*
X136510890Y-123946171D01*
X136478119Y-123896092D01*
X136472294Y-123888951D01*
X136156310Y-123506991D01*
X136113874Y-123464850D01*
X136072011Y-123422101D01*
X136064911Y-123416227D01*
X135680754Y-123102917D01*
X135630946Y-123069824D01*
X135581572Y-123036017D01*
X135573466Y-123031634D01*
X135135770Y-122798908D01*
X135080488Y-122776122D01*
X135025483Y-122752547D01*
X135016680Y-122749822D01*
X134542116Y-122606543D01*
X134483428Y-122594923D01*
X134424925Y-122582487D01*
X134415760Y-122581524D01*
X133922405Y-122533150D01*
X133922402Y-122533150D01*
X133890419Y-122530000D01*
X100043581Y-122530000D01*
X100014254Y-122532888D01*
X99998451Y-122532778D01*
X99989280Y-122533678D01*
X99496273Y-122585495D01*
X99437742Y-122597510D01*
X99378917Y-122608731D01*
X99370095Y-122611395D01*
X98896542Y-122757984D01*
X98841427Y-122781153D01*
X98785934Y-122803573D01*
X98777798Y-122807900D01*
X98341738Y-123043677D01*
X98292171Y-123077110D01*
X98242092Y-123109881D01*
X98234951Y-123115706D01*
X97852991Y-123431690D01*
X97810850Y-123474126D01*
X97768101Y-123515989D01*
X97762227Y-123523089D01*
X97448917Y-123907246D01*
X97415824Y-123957054D01*
X97382017Y-124006428D01*
X97377634Y-124014534D01*
X97144908Y-124452230D01*
X97122122Y-124507512D01*
X97098547Y-124562517D01*
X97095822Y-124571320D01*
X96952543Y-125045884D01*
X96940923Y-125104572D01*
X96928487Y-125163075D01*
X96927524Y-125172240D01*
X96879150Y-125665595D01*
X96879150Y-125694427D01*
X96876036Y-125723093D01*
X96876004Y-125732308D01*
X92075000Y-125732308D01*
X92075000Y-33901095D01*
X92271161Y-34194670D01*
X92805330Y-34728839D01*
X93433446Y-35148533D01*
X94131372Y-35437623D01*
X94872285Y-35585000D01*
X95627715Y-35585000D01*
X96368628Y-35437623D01*
X97066554Y-35148533D01*
X97694670Y-34728839D01*
X98228839Y-34194670D01*
X98648533Y-33566554D01*
X98937623Y-32868628D01*
X99085000Y-32127715D01*
X99085000Y-31372285D01*
X98937623Y-30631372D01*
X98648533Y-29933446D01*
X98228839Y-29305330D01*
X97694670Y-28771161D01*
X97066554Y-28351467D01*
X96993000Y-28321000D01*
X181137000Y-28321000D01*
X181063446Y-28351467D01*
%TA.AperFunction,Conductor*%
D18*
G36*
X181063446Y-28351467D02*
G01*
X180435330Y-28771161D01*
X179901161Y-29305330D01*
X179481467Y-29933446D01*
X179192377Y-30631372D01*
X179045000Y-31372285D01*
X179045000Y-32127715D01*
X179192377Y-32868628D01*
X179481467Y-33566554D01*
X179901161Y-34194670D01*
X180435330Y-34728839D01*
X181063446Y-35148533D01*
X181761372Y-35437623D01*
X182502285Y-35585000D01*
X183257715Y-35585000D01*
X183998628Y-35437623D01*
X184696554Y-35148533D01*
X185324670Y-34728839D01*
X185858839Y-34194670D01*
X186278533Y-33566554D01*
X186567623Y-32868628D01*
X186715000Y-32127715D01*
X186715000Y-31372285D01*
X186567623Y-30631372D01*
X186278533Y-29933446D01*
X185858839Y-29305330D01*
X185324670Y-28771161D01*
X184696554Y-28351467D01*
X184623000Y-28321000D01*
X186817000Y-28321000D01*
X186817000Y-149643491D01*
X186594670Y-149421161D01*
X185966554Y-149001467D01*
X185268628Y-148712377D01*
X184527715Y-148565000D01*
X183772285Y-148565000D01*
X183031372Y-148712377D01*
X182333446Y-149001467D01*
X181705330Y-149421161D01*
X181171161Y-149955330D01*
X180751467Y-150583446D01*
X180462377Y-151281372D01*
X180315000Y-152022285D01*
X180315000Y-152777715D01*
X180462377Y-153518628D01*
X180751467Y-154216554D01*
X181171161Y-154844670D01*
X181705330Y-155378839D01*
X182333446Y-155798533D01*
X183031372Y-156087623D01*
X183772285Y-156235000D01*
X184527715Y-156235000D01*
X185268628Y-156087623D01*
X185966554Y-155798533D01*
X186594670Y-155378839D01*
X186817000Y-155156509D01*
X186817000Y-155470686D01*
X186783782Y-155501392D01*
X186178748Y-155883141D01*
X185514278Y-156148238D01*
X184799828Y-156290350D01*
X184386726Y-156312000D01*
X94010256Y-156312000D01*
X93267604Y-156243759D01*
X92579061Y-156049571D01*
X92075000Y-155800996D01*
X92075000Y-155739435D01*
X92163446Y-155798533D01*
X92861372Y-156087623D01*
X93602285Y-156235000D01*
X94357715Y-156235000D01*
X95098628Y-156087623D01*
X95796554Y-155798533D01*
X96424670Y-155378839D01*
X96958839Y-154844670D01*
X97378533Y-154216554D01*
X97667623Y-153518628D01*
X97815000Y-152777715D01*
X97815000Y-152024081D01*
X101490520Y-152024081D01*
X101490520Y-152444639D01*
X101572567Y-152857116D01*
X101733508Y-153245662D01*
X101967157Y-153595343D01*
X102264537Y-153892723D01*
X102614218Y-154126372D01*
X103002764Y-154287313D01*
X103415241Y-154369360D01*
X103835799Y-154369360D01*
X104248276Y-154287313D01*
X104636822Y-154126372D01*
X104986503Y-153892723D01*
X105283883Y-153595343D01*
X105517532Y-153245662D01*
X105678473Y-152857116D01*
X105760520Y-152444639D01*
X105760520Y-152024081D01*
X105751426Y-151978361D01*
X167017440Y-151978361D01*
X167017440Y-152398919D01*
X167099487Y-152811396D01*
X167260428Y-153199942D01*
X167494077Y-153549623D01*
X167791457Y-153847003D01*
X168141138Y-154080652D01*
X168529684Y-154241593D01*
X168942161Y-154323640D01*
X169362719Y-154323640D01*
X169775196Y-154241593D01*
X170163742Y-154080652D01*
X170513423Y-153847003D01*
X170810803Y-153549623D01*
X171044452Y-153199942D01*
X171205393Y-152811396D01*
X171287440Y-152398919D01*
X171287440Y-151978361D01*
X171205393Y-151565884D01*
X171044452Y-151177338D01*
X170810803Y-150827657D01*
X170513423Y-150530277D01*
X170163742Y-150296628D01*
X169775196Y-150135687D01*
X169362719Y-150053640D01*
X168942161Y-150053640D01*
X168529684Y-150135687D01*
X168141138Y-150296628D01*
X167791457Y-150530277D01*
X167494077Y-150827657D01*
X167260428Y-151177338D01*
X167099487Y-151565884D01*
X167017440Y-151978361D01*
X105751426Y-151978361D01*
X105678473Y-151611604D01*
X105517532Y-151223058D01*
X105283883Y-150873377D01*
X104986503Y-150575997D01*
X104636822Y-150342348D01*
X104248276Y-150181407D01*
X103835799Y-150099360D01*
X103415241Y-150099360D01*
X103002764Y-150181407D01*
X102614218Y-150342348D01*
X102264537Y-150575997D01*
X101967157Y-150873377D01*
X101733508Y-151223058D01*
X101572567Y-151611604D01*
X101490520Y-152024081D01*
X97815000Y-152024081D01*
X97815000Y-152022285D01*
X97667623Y-151281372D01*
X97378533Y-150583446D01*
X96962802Y-149961261D01*
X133889800Y-149961261D01*
X133889800Y-150165139D01*
X133929574Y-150365098D01*
X134007595Y-150553456D01*
X134120863Y-150722974D01*
X134265026Y-150867137D01*
X134434544Y-150980405D01*
X134622902Y-151058426D01*
X134822861Y-151098200D01*
X135026739Y-151098200D01*
X135226698Y-151058426D01*
X135415056Y-150980405D01*
X135584574Y-150867137D01*
X135728737Y-150722974D01*
X135842005Y-150553456D01*
X135920026Y-150365098D01*
X135959800Y-150165139D01*
X135959800Y-149961261D01*
X135947675Y-149900301D01*
X141702840Y-149900301D01*
X141702840Y-150104179D01*
X141742614Y-150304138D01*
X141820635Y-150492496D01*
X141933903Y-150662014D01*
X142078066Y-150806177D01*
X142247584Y-150919445D01*
X142435942Y-150997466D01*
X142635901Y-151037240D01*
X142839779Y-151037240D01*
X143039738Y-150997466D01*
X143228096Y-150919445D01*
X143397614Y-150806177D01*
X143541777Y-150662014D01*
X143655045Y-150492496D01*
X143733066Y-150304138D01*
X143772840Y-150104179D01*
X143772840Y-149900301D01*
X143733066Y-149700342D01*
X143655045Y-149511984D01*
X143541777Y-149342466D01*
X143397614Y-149198303D01*
X143228096Y-149085035D01*
X143039738Y-149007014D01*
X142839779Y-148967240D01*
X142635901Y-148967240D01*
X142435942Y-149007014D01*
X142247584Y-149085035D01*
X142078066Y-149198303D01*
X141933903Y-149342466D01*
X141820635Y-149511984D01*
X141742614Y-149700342D01*
X141702840Y-149900301D01*
X135947675Y-149900301D01*
X135920026Y-149761302D01*
X135842005Y-149572944D01*
X135728737Y-149403426D01*
X135584574Y-149259263D01*
X135415056Y-149145995D01*
X135226698Y-149067974D01*
X135026739Y-149028200D01*
X134822861Y-149028200D01*
X134622902Y-149067974D01*
X134434544Y-149145995D01*
X134265026Y-149259263D01*
X134120863Y-149403426D01*
X134007595Y-149572944D01*
X133929574Y-149761302D01*
X133889800Y-149961261D01*
X96962802Y-149961261D01*
X96958839Y-149955330D01*
X96424670Y-149421161D01*
X95796554Y-149001467D01*
X95098628Y-148712377D01*
X94357715Y-148565000D01*
X93602285Y-148565000D01*
X92861372Y-148712377D01*
X92163446Y-149001467D01*
X92075000Y-149060565D01*
X92075000Y-148041360D01*
X100740520Y-148041360D01*
X100740520Y-148301360D01*
X100791909Y-148569120D01*
X100894548Y-148821709D01*
X101044492Y-149049421D01*
X101235980Y-149243505D01*
X101461652Y-149396502D01*
X101712836Y-149502533D01*
X101784335Y-149516678D01*
X101998520Y-149394016D01*
X101998520Y-148041360D01*
X102252520Y-148041360D01*
X102252520Y-149394016D01*
X102466705Y-149516678D01*
X102538204Y-149502533D01*
X102789388Y-149396502D01*
X103015060Y-149243505D01*
X103206548Y-149049421D01*
X103356492Y-148821709D01*
X103459131Y-148569120D01*
X103510520Y-148301360D01*
X103510520Y-148041360D01*
X102252520Y-148041360D01*
X101998520Y-148041360D01*
X100740520Y-148041360D01*
X92075000Y-148041360D01*
X92075000Y-147527360D01*
X100740520Y-147527360D01*
X100740520Y-147787360D01*
X101998520Y-147787360D01*
X101998520Y-146434704D01*
X102252520Y-146434704D01*
X102252520Y-147787360D01*
X103510520Y-147787360D01*
X103510520Y-147527360D01*
X103459131Y-147259600D01*
X103416367Y-147154360D01*
X103737448Y-147154360D01*
X103737448Y-148674360D01*
X103754512Y-148847614D01*
X103805048Y-149014210D01*
X103887115Y-149167746D01*
X103997558Y-149302322D01*
X104132134Y-149412765D01*
X104285670Y-149494832D01*
X104452266Y-149545368D01*
X104625520Y-149562432D01*
X105625520Y-149562432D01*
X105798774Y-149545368D01*
X105965370Y-149494832D01*
X106118906Y-149412765D01*
X106253482Y-149302322D01*
X106363925Y-149167746D01*
X106445992Y-149014210D01*
X106496528Y-148847614D01*
X106513592Y-148674360D01*
X106513592Y-148488061D01*
X121139000Y-148488061D01*
X121139000Y-148691939D01*
X121178774Y-148891898D01*
X121256795Y-149080256D01*
X121370063Y-149249774D01*
X121514226Y-149393937D01*
X121683744Y-149507205D01*
X121872102Y-149585226D01*
X122072061Y-149625000D01*
X122275939Y-149625000D01*
X122475898Y-149585226D01*
X122664256Y-149507205D01*
X122833774Y-149393937D01*
X122977937Y-149249774D01*
X123091205Y-149080256D01*
X123169226Y-148891898D01*
X123209000Y-148691939D01*
X123209000Y-148659213D01*
X130589128Y-148659213D01*
X130589128Y-148863091D01*
X130628902Y-149063050D01*
X130706923Y-149251408D01*
X130820191Y-149420926D01*
X130964354Y-149565089D01*
X131133872Y-149678357D01*
X131322230Y-149756378D01*
X131522189Y-149796152D01*
X131726067Y-149796152D01*
X131926026Y-149756378D01*
X132114384Y-149678357D01*
X132283902Y-149565089D01*
X132428065Y-149420926D01*
X132541333Y-149251408D01*
X132619354Y-149063050D01*
X132659128Y-148863091D01*
X132659128Y-148659213D01*
X132619354Y-148459254D01*
X132541333Y-148270896D01*
X132428065Y-148101378D01*
X132283902Y-147957215D01*
X132114384Y-147843947D01*
X131926026Y-147765926D01*
X131726067Y-147726152D01*
X131522189Y-147726152D01*
X131322230Y-147765926D01*
X131133872Y-147843947D01*
X130964354Y-147957215D01*
X130820191Y-148101378D01*
X130706923Y-148270896D01*
X130628902Y-148459254D01*
X130589128Y-148659213D01*
X123209000Y-148659213D01*
X123209000Y-148488061D01*
X123169226Y-148288102D01*
X123091205Y-148099744D01*
X122977937Y-147930226D01*
X122833774Y-147786063D01*
X122664256Y-147672795D01*
X122475898Y-147594774D01*
X122275939Y-147555000D01*
X122072061Y-147555000D01*
X121872102Y-147594774D01*
X121683744Y-147672795D01*
X121514226Y-147786063D01*
X121370063Y-147930226D01*
X121256795Y-148099744D01*
X121178774Y-148288102D01*
X121139000Y-148488061D01*
X106513592Y-148488061D01*
X106513592Y-147154360D01*
X106496528Y-146981106D01*
X106445992Y-146814510D01*
X106363925Y-146660974D01*
X106333337Y-146623701D01*
X129510840Y-146623701D01*
X129510840Y-146827579D01*
X129550614Y-147027538D01*
X129628635Y-147215896D01*
X129741903Y-147385414D01*
X129886066Y-147529577D01*
X130055584Y-147642845D01*
X130243942Y-147720866D01*
X130443901Y-147760640D01*
X130647779Y-147760640D01*
X130847738Y-147720866D01*
X131036096Y-147642845D01*
X131205614Y-147529577D01*
X131349777Y-147385414D01*
X131461598Y-147218061D01*
X142221000Y-147218061D01*
X142221000Y-147421939D01*
X142260774Y-147621898D01*
X142338795Y-147810256D01*
X142452063Y-147979774D01*
X142596226Y-148123937D01*
X142765744Y-148237205D01*
X142954102Y-148315226D01*
X143154061Y-148355000D01*
X143357939Y-148355000D01*
X143557898Y-148315226D01*
X143746256Y-148237205D01*
X143915774Y-148123937D01*
X144059937Y-147979774D01*
X144173205Y-147810256D01*
X144251226Y-147621898D01*
X144291000Y-147421939D01*
X144291000Y-147218061D01*
X144251226Y-147018102D01*
X144173205Y-146829744D01*
X144059937Y-146660226D01*
X143915774Y-146516063D01*
X143825975Y-146456061D01*
X149079000Y-146456061D01*
X149079000Y-146659939D01*
X149118774Y-146859898D01*
X149196795Y-147048256D01*
X149310063Y-147217774D01*
X149454226Y-147361937D01*
X149623744Y-147475205D01*
X149812102Y-147553226D01*
X150012061Y-147593000D01*
X150215939Y-147593000D01*
X150415898Y-147553226D01*
X150446372Y-147540603D01*
X166267440Y-147540603D01*
X166267440Y-148196676D01*
X166287480Y-148400146D01*
X166366676Y-148661220D01*
X166495283Y-148901827D01*
X166668359Y-149112720D01*
X166879252Y-149285797D01*
X167119859Y-149414404D01*
X167380933Y-149493600D01*
X167652440Y-149520341D01*
X167923946Y-149493600D01*
X168185020Y-149414404D01*
X168425627Y-149285797D01*
X168636520Y-149112721D01*
X168809597Y-148901828D01*
X168938204Y-148661221D01*
X169017400Y-148400147D01*
X169037440Y-148196677D01*
X169037440Y-147540604D01*
X169017400Y-147337134D01*
X168948088Y-147108640D01*
X169264368Y-147108640D01*
X169264368Y-148628640D01*
X169281432Y-148801894D01*
X169331968Y-148968490D01*
X169414035Y-149122026D01*
X169524478Y-149256602D01*
X169659054Y-149367045D01*
X169812590Y-149449112D01*
X169979186Y-149499648D01*
X170152440Y-149516712D01*
X171152440Y-149516712D01*
X171325694Y-149499648D01*
X171492290Y-149449112D01*
X171645826Y-149367045D01*
X171780402Y-149256602D01*
X171890845Y-149122026D01*
X171972912Y-148968490D01*
X172023448Y-148801894D01*
X172040512Y-148628640D01*
X172040512Y-147108640D01*
X172023448Y-146935386D01*
X171972912Y-146768790D01*
X171890845Y-146615254D01*
X171780402Y-146480678D01*
X171645826Y-146370235D01*
X171492290Y-146288168D01*
X171325694Y-146237632D01*
X171152440Y-146220568D01*
X170152440Y-146220568D01*
X169979186Y-146237632D01*
X169812590Y-146288168D01*
X169659054Y-146370235D01*
X169524478Y-146480678D01*
X169414035Y-146615254D01*
X169331968Y-146768790D01*
X169281432Y-146935386D01*
X169264368Y-147108640D01*
X168948088Y-147108640D01*
X168938204Y-147076059D01*
X168809597Y-146835452D01*
X168636521Y-146624559D01*
X168425628Y-146451483D01*
X168185021Y-146322876D01*
X167923947Y-146243680D01*
X167652440Y-146216939D01*
X167380934Y-146243680D01*
X167119860Y-146322876D01*
X166879253Y-146451483D01*
X166668360Y-146624559D01*
X166495283Y-146835452D01*
X166366676Y-147076059D01*
X166287480Y-147337133D01*
X166267440Y-147540603D01*
X150446372Y-147540603D01*
X150604256Y-147475205D01*
X150773774Y-147361937D01*
X150917937Y-147217774D01*
X151031205Y-147048256D01*
X151109226Y-146859898D01*
X151149000Y-146659939D01*
X151149000Y-146456061D01*
X151109226Y-146256102D01*
X151031205Y-146067744D01*
X150917937Y-145898226D01*
X150773774Y-145754063D01*
X150604256Y-145640795D01*
X150415898Y-145562774D01*
X150215939Y-145523000D01*
X150012061Y-145523000D01*
X149812102Y-145562774D01*
X149623744Y-145640795D01*
X149454226Y-145754063D01*
X149310063Y-145898226D01*
X149196795Y-146067744D01*
X149118774Y-146256102D01*
X149079000Y-146456061D01*
X143825975Y-146456061D01*
X143746256Y-146402795D01*
X143557898Y-146324774D01*
X143357939Y-146285000D01*
X143154061Y-146285000D01*
X142954102Y-146324774D01*
X142765744Y-146402795D01*
X142596226Y-146516063D01*
X142452063Y-146660226D01*
X142338795Y-146829744D01*
X142260774Y-147018102D01*
X142221000Y-147218061D01*
X131461598Y-147218061D01*
X131463045Y-147215896D01*
X131541066Y-147027538D01*
X131580840Y-146827579D01*
X131580840Y-146623701D01*
X131541066Y-146423742D01*
X131463045Y-146235384D01*
X131349777Y-146065866D01*
X131277512Y-145993601D01*
X131364925Y-145976214D01*
X131553283Y-145898193D01*
X131722801Y-145784925D01*
X131866964Y-145640762D01*
X131980232Y-145471244D01*
X132058253Y-145282886D01*
X132098027Y-145082927D01*
X132098027Y-144879049D01*
X132058253Y-144679090D01*
X131980232Y-144490732D01*
X131901715Y-144373222D01*
X131981205Y-144254256D01*
X132059226Y-144065898D01*
X132099000Y-143865939D01*
X132099000Y-143662061D01*
X132059226Y-143462102D01*
X131981205Y-143273744D01*
X131867937Y-143104226D01*
X131723774Y-142960063D01*
X131554256Y-142846795D01*
X131365898Y-142768774D01*
X131165939Y-142729000D01*
X130962061Y-142729000D01*
X130762102Y-142768774D01*
X130573744Y-142846795D01*
X130404226Y-142960063D01*
X130260063Y-143104226D01*
X130146795Y-143273744D01*
X130068774Y-143462102D01*
X130029000Y-143662061D01*
X130029000Y-143865939D01*
X130068774Y-144065898D01*
X130146795Y-144254256D01*
X130225312Y-144371766D01*
X130145822Y-144490732D01*
X130067801Y-144679090D01*
X130028027Y-144879049D01*
X130028027Y-145082927D01*
X130067801Y-145282886D01*
X130145822Y-145471244D01*
X130259090Y-145640762D01*
X130331355Y-145713027D01*
X130243942Y-145730414D01*
X130055584Y-145808435D01*
X129886066Y-145921703D01*
X129741903Y-146065866D01*
X129628635Y-146235384D01*
X129550614Y-146423742D01*
X129510840Y-146623701D01*
X106333337Y-146623701D01*
X106253482Y-146526398D01*
X106118906Y-146415955D01*
X105965370Y-146333888D01*
X105798774Y-146283352D01*
X105625520Y-146266288D01*
X104625520Y-146266288D01*
X104452266Y-146283352D01*
X104285670Y-146333888D01*
X104132134Y-146415955D01*
X103997558Y-146526398D01*
X103887115Y-146660974D01*
X103805048Y-146814510D01*
X103754512Y-146981106D01*
X103737448Y-147154360D01*
X103416367Y-147154360D01*
X103356492Y-147007011D01*
X103206548Y-146779299D01*
X103015060Y-146585215D01*
X102789388Y-146432218D01*
X102538204Y-146326187D01*
X102466705Y-146312042D01*
X102252520Y-146434704D01*
X101998520Y-146434704D01*
X101784335Y-146312042D01*
X101712836Y-146326187D01*
X101461652Y-146432218D01*
X101235980Y-146585215D01*
X101044492Y-146779299D01*
X100894548Y-147007011D01*
X100791909Y-147259600D01*
X100740520Y-147527360D01*
X92075000Y-147527360D01*
X92075000Y-145440061D01*
X109455000Y-145440061D01*
X109455000Y-145643939D01*
X109494774Y-145843898D01*
X109572795Y-146032256D01*
X109686063Y-146201774D01*
X109830226Y-146345937D01*
X109999744Y-146459205D01*
X110188102Y-146537226D01*
X110388061Y-146577000D01*
X110591939Y-146577000D01*
X110791898Y-146537226D01*
X110980256Y-146459205D01*
X111149774Y-146345937D01*
X111293937Y-146201774D01*
X111407205Y-146032256D01*
X111485226Y-145843898D01*
X111525000Y-145643939D01*
X111525000Y-145440061D01*
X111485226Y-145240102D01*
X111407205Y-145051744D01*
X111293937Y-144882226D01*
X111149774Y-144738063D01*
X111059975Y-144678061D01*
X124187000Y-144678061D01*
X124187000Y-144881939D01*
X124226774Y-145081898D01*
X124304795Y-145270256D01*
X124418063Y-145439774D01*
X124562226Y-145583937D01*
X124731744Y-145697205D01*
X124920102Y-145775226D01*
X125120061Y-145815000D01*
X125323939Y-145815000D01*
X125523898Y-145775226D01*
X125712256Y-145697205D01*
X125881774Y-145583937D01*
X126025937Y-145439774D01*
X126139205Y-145270256D01*
X126217226Y-145081898D01*
X126257000Y-144881939D01*
X126257000Y-144678061D01*
X126217226Y-144478102D01*
X126139205Y-144289744D01*
X126025937Y-144120226D01*
X125881774Y-143976063D01*
X125712256Y-143862795D01*
X125523898Y-143784774D01*
X125323939Y-143745000D01*
X125120061Y-143745000D01*
X124920102Y-143784774D01*
X124731744Y-143862795D01*
X124562226Y-143976063D01*
X124418063Y-144120226D01*
X124304795Y-144289744D01*
X124226774Y-144478102D01*
X124187000Y-144678061D01*
X111059975Y-144678061D01*
X110980256Y-144624795D01*
X110791898Y-144546774D01*
X110591939Y-144507000D01*
X110388061Y-144507000D01*
X110188102Y-144546774D01*
X109999744Y-144624795D01*
X109830226Y-144738063D01*
X109686063Y-144882226D01*
X109572795Y-145051744D01*
X109494774Y-145240102D01*
X109455000Y-145440061D01*
X92075000Y-145440061D01*
X92075000Y-141630061D01*
X113265000Y-141630061D01*
X113265000Y-141833939D01*
X113304774Y-142033898D01*
X113382795Y-142222256D01*
X113496063Y-142391774D01*
X113640226Y-142535937D01*
X113809744Y-142649205D01*
X113998102Y-142727226D01*
X114198061Y-142767000D01*
X114401939Y-142767000D01*
X114601898Y-142727226D01*
X114790256Y-142649205D01*
X114959774Y-142535937D01*
X115103937Y-142391774D01*
X115217205Y-142222256D01*
X115295226Y-142033898D01*
X115326323Y-141877561D01*
X139166500Y-141877561D01*
X139166500Y-142081439D01*
X139206274Y-142281398D01*
X139284295Y-142469756D01*
X139397563Y-142639274D01*
X139541726Y-142783437D01*
X139711244Y-142896705D01*
X139899602Y-142974726D01*
X140099561Y-143014500D01*
X140303439Y-143014500D01*
X140503398Y-142974726D01*
X140691756Y-142896705D01*
X140861274Y-142783437D01*
X141005437Y-142639274D01*
X141118705Y-142469756D01*
X141196726Y-142281398D01*
X141225237Y-142138061D01*
X147555000Y-142138061D01*
X147555000Y-142341939D01*
X147594774Y-142541898D01*
X147672795Y-142730256D01*
X147786063Y-142899774D01*
X147930226Y-143043937D01*
X148099744Y-143157205D01*
X148288102Y-143235226D01*
X148488061Y-143275000D01*
X148691939Y-143275000D01*
X148891898Y-143235226D01*
X149080256Y-143157205D01*
X149084961Y-143154061D01*
X165081000Y-143154061D01*
X165081000Y-143357939D01*
X165120774Y-143557898D01*
X165198795Y-143746256D01*
X165312063Y-143915774D01*
X165456226Y-144059937D01*
X165625744Y-144173205D01*
X165814102Y-144251226D01*
X166014061Y-144291000D01*
X166217939Y-144291000D01*
X166417898Y-144251226D01*
X166606256Y-144173205D01*
X166624000Y-144161349D01*
X166641744Y-144173205D01*
X166830102Y-144251226D01*
X167030061Y-144291000D01*
X167233939Y-144291000D01*
X167433898Y-144251226D01*
X167622256Y-144173205D01*
X167640000Y-144161349D01*
X167657744Y-144173205D01*
X167846102Y-144251226D01*
X168046061Y-144291000D01*
X168249939Y-144291000D01*
X168449898Y-144251226D01*
X168638256Y-144173205D01*
X168807774Y-144059937D01*
X168951937Y-143915774D01*
X169065205Y-143746256D01*
X169143226Y-143557898D01*
X169183000Y-143357939D01*
X169183000Y-143154061D01*
X169143226Y-142954102D01*
X169123108Y-142905532D01*
X183118482Y-142905532D01*
X183118482Y-143109410D01*
X183158256Y-143309369D01*
X183236277Y-143497727D01*
X183349545Y-143667245D01*
X183493708Y-143811408D01*
X183663226Y-143924676D01*
X183851584Y-144002697D01*
X184051543Y-144042471D01*
X184255421Y-144042471D01*
X184455380Y-144002697D01*
X184643738Y-143924676D01*
X184813256Y-143811408D01*
X184957419Y-143667245D01*
X185070687Y-143497727D01*
X185148708Y-143309369D01*
X185188482Y-143109410D01*
X185188482Y-142905532D01*
X185148708Y-142705573D01*
X185070687Y-142517215D01*
X184957419Y-142347697D01*
X184813256Y-142203534D01*
X184643738Y-142090266D01*
X184455380Y-142012245D01*
X184255421Y-141972471D01*
X184051543Y-141972471D01*
X183851584Y-142012245D01*
X183663226Y-142090266D01*
X183493708Y-142203534D01*
X183349545Y-142347697D01*
X183236277Y-142517215D01*
X183158256Y-142705573D01*
X183118482Y-142905532D01*
X169123108Y-142905532D01*
X169065205Y-142765744D01*
X168951937Y-142596226D01*
X168807774Y-142452063D01*
X168638256Y-142338795D01*
X168449898Y-142260774D01*
X168249939Y-142221000D01*
X168046061Y-142221000D01*
X167846102Y-142260774D01*
X167657744Y-142338795D01*
X167640000Y-142350651D01*
X167622256Y-142338795D01*
X167433898Y-142260774D01*
X167233939Y-142221000D01*
X167030061Y-142221000D01*
X166830102Y-142260774D01*
X166641744Y-142338795D01*
X166624000Y-142350651D01*
X166606256Y-142338795D01*
X166417898Y-142260774D01*
X166217939Y-142221000D01*
X166014061Y-142221000D01*
X165814102Y-142260774D01*
X165625744Y-142338795D01*
X165456226Y-142452063D01*
X165312063Y-142596226D01*
X165198795Y-142765744D01*
X165120774Y-142954102D01*
X165081000Y-143154061D01*
X149084961Y-143154061D01*
X149249774Y-143043937D01*
X149393937Y-142899774D01*
X149507205Y-142730256D01*
X149585226Y-142541898D01*
X149625000Y-142341939D01*
X149625000Y-142138061D01*
X149585226Y-141938102D01*
X149507205Y-141749744D01*
X149393937Y-141580226D01*
X149249774Y-141436063D01*
X149080256Y-141322795D01*
X148891898Y-141244774D01*
X148691939Y-141205000D01*
X148488061Y-141205000D01*
X148288102Y-141244774D01*
X148099744Y-141322795D01*
X147930226Y-141436063D01*
X147786063Y-141580226D01*
X147672795Y-141749744D01*
X147594774Y-141938102D01*
X147555000Y-142138061D01*
X141225237Y-142138061D01*
X141236500Y-142081439D01*
X141236500Y-141877561D01*
X141196726Y-141677602D01*
X141118705Y-141489244D01*
X141005437Y-141319726D01*
X140861274Y-141175563D01*
X140691756Y-141062295D01*
X140503398Y-140984274D01*
X140303439Y-140944500D01*
X140099561Y-140944500D01*
X139899602Y-140984274D01*
X139711244Y-141062295D01*
X139541726Y-141175563D01*
X139397563Y-141319726D01*
X139284295Y-141489244D01*
X139206274Y-141677602D01*
X139166500Y-141877561D01*
X115326323Y-141877561D01*
X115335000Y-141833939D01*
X115335000Y-141630061D01*
X115295226Y-141430102D01*
X115217205Y-141241744D01*
X115103937Y-141072226D01*
X114959774Y-140928063D01*
X114790256Y-140814795D01*
X114601898Y-140736774D01*
X114401939Y-140697000D01*
X114198061Y-140697000D01*
X113998102Y-140736774D01*
X113809744Y-140814795D01*
X113640226Y-140928063D01*
X113496063Y-141072226D01*
X113382795Y-141241744D01*
X113304774Y-141430102D01*
X113265000Y-141630061D01*
X92075000Y-141630061D01*
X92075000Y-137982621D01*
X103605380Y-137982621D01*
X103605380Y-138186499D01*
X103645154Y-138386458D01*
X103723175Y-138574816D01*
X103836443Y-138744334D01*
X103980606Y-138888497D01*
X104150124Y-139001765D01*
X104338482Y-139079786D01*
X104538441Y-139119560D01*
X104742319Y-139119560D01*
X104942278Y-139079786D01*
X105130636Y-139001765D01*
X105300154Y-138888497D01*
X105444317Y-138744334D01*
X105557585Y-138574816D01*
X105635606Y-138386458D01*
X105675380Y-138186499D01*
X105675380Y-137982621D01*
X105635606Y-137782662D01*
X105557585Y-137594304D01*
X105444317Y-137424786D01*
X105300154Y-137280623D01*
X105130636Y-137167355D01*
X104942278Y-137089334D01*
X104742319Y-137049560D01*
X104538441Y-137049560D01*
X104338482Y-137089334D01*
X104150124Y-137167355D01*
X103980606Y-137280623D01*
X103836443Y-137424786D01*
X103723175Y-137594304D01*
X103645154Y-137782662D01*
X103605380Y-137982621D01*
X92075000Y-137982621D01*
X92075000Y-134276241D01*
X92208760Y-134276241D01*
X92208760Y-134696799D01*
X92290807Y-135109276D01*
X92451748Y-135497822D01*
X92685397Y-135847503D01*
X92982777Y-136144883D01*
X93332458Y-136378532D01*
X93721004Y-136539473D01*
X94133481Y-136621520D01*
X94554039Y-136621520D01*
X94966516Y-136539473D01*
X95355062Y-136378532D01*
X95704743Y-136144883D01*
X96002123Y-135847503D01*
X96235772Y-135497822D01*
X96240453Y-135486520D01*
X97015688Y-135486520D01*
X97015688Y-136486520D01*
X97032752Y-136659774D01*
X97083288Y-136826370D01*
X97165355Y-136979906D01*
X97275798Y-137114482D01*
X97410374Y-137224925D01*
X97563910Y-137306992D01*
X97730506Y-137357528D01*
X97903760Y-137374592D01*
X99423760Y-137374592D01*
X99597014Y-137357528D01*
X99763610Y-137306992D01*
X99917146Y-137224925D01*
X100051722Y-137114482D01*
X100162165Y-136979906D01*
X100244232Y-136826370D01*
X100294768Y-136659774D01*
X100305573Y-136550061D01*
X106305400Y-136550061D01*
X106305400Y-136753939D01*
X106345174Y-136953898D01*
X106423195Y-137142256D01*
X106536463Y-137311774D01*
X106680626Y-137455937D01*
X106850144Y-137569205D01*
X107038502Y-137647226D01*
X107238461Y-137687000D01*
X107442339Y-137687000D01*
X107642298Y-137647226D01*
X107830656Y-137569205D01*
X108000174Y-137455937D01*
X108144337Y-137311774D01*
X108257605Y-137142256D01*
X108335626Y-136953898D01*
X108375400Y-136753939D01*
X108375400Y-136550061D01*
X108335626Y-136350102D01*
X108313242Y-136296061D01*
X123679000Y-136296061D01*
X123679000Y-136499939D01*
X123718774Y-136699898D01*
X123796795Y-136888256D01*
X123808651Y-136906000D01*
X123796795Y-136923744D01*
X123718774Y-137112102D01*
X123679000Y-137312061D01*
X123679000Y-137515939D01*
X123718774Y-137715898D01*
X123796795Y-137904256D01*
X123910063Y-138073774D01*
X124054226Y-138217937D01*
X124223744Y-138331205D01*
X124412102Y-138409226D01*
X124612061Y-138449000D01*
X124815939Y-138449000D01*
X125015898Y-138409226D01*
X125204256Y-138331205D01*
X125222000Y-138319349D01*
X125239744Y-138331205D01*
X125428102Y-138409226D01*
X125628061Y-138449000D01*
X125831939Y-138449000D01*
X126031898Y-138409226D01*
X126220256Y-138331205D01*
X126238000Y-138319349D01*
X126255744Y-138331205D01*
X126444102Y-138409226D01*
X126644061Y-138449000D01*
X126847939Y-138449000D01*
X127047898Y-138409226D01*
X127236256Y-138331205D01*
X127405774Y-138217937D01*
X127549937Y-138073774D01*
X127646003Y-137930000D01*
X136783928Y-137930000D01*
X136783928Y-138930000D01*
X136796188Y-139054482D01*
X136832498Y-139174180D01*
X136891463Y-139284494D01*
X136970815Y-139381185D01*
X137067506Y-139460537D01*
X137177820Y-139519502D01*
X137297518Y-139555812D01*
X137422000Y-139568072D01*
X138422000Y-139568072D01*
X138546482Y-139555812D01*
X138666180Y-139519502D01*
X138754894Y-139472082D01*
X138890124Y-139524126D01*
X139065000Y-139399129D01*
X139065000Y-138557000D01*
X139319000Y-138557000D01*
X139319000Y-139399129D01*
X139493876Y-139524126D01*
X139701529Y-139444210D01*
X139889601Y-139325318D01*
X140050865Y-139172020D01*
X140179123Y-138990206D01*
X140269446Y-138786864D01*
X140286119Y-138731874D01*
X140159954Y-138557000D01*
X139319000Y-138557000D01*
X139065000Y-138557000D01*
X139060072Y-138557000D01*
X139060072Y-138303000D01*
X139065000Y-138303000D01*
X139065000Y-138291974D01*
X139080212Y-138295000D01*
X139303788Y-138295000D01*
X139319000Y-138291974D01*
X139319000Y-138303000D01*
X140159954Y-138303000D01*
X140286119Y-138128126D01*
X140269446Y-138073136D01*
X140179123Y-137869794D01*
X140129647Y-137799658D01*
X140197824Y-137697624D01*
X140283383Y-137491067D01*
X140327000Y-137271788D01*
X140327000Y-137048212D01*
X140283383Y-136828933D01*
X140197824Y-136622376D01*
X140132759Y-136525000D01*
X140197824Y-136427624D01*
X140283383Y-136221067D01*
X140327000Y-136001788D01*
X140327000Y-135788061D01*
X140697000Y-135788061D01*
X140697000Y-135991939D01*
X140736774Y-136191898D01*
X140814795Y-136380256D01*
X140928063Y-136549774D01*
X141072226Y-136693937D01*
X141241744Y-136807205D01*
X141430102Y-136885226D01*
X141630061Y-136925000D01*
X141833939Y-136925000D01*
X142033898Y-136885226D01*
X142222256Y-136807205D01*
X142391774Y-136693937D01*
X142535937Y-136549774D01*
X142649205Y-136380256D01*
X142727226Y-136191898D01*
X142735945Y-136148061D01*
X143965000Y-136148061D01*
X143965000Y-136351939D01*
X144004774Y-136551898D01*
X144082795Y-136740256D01*
X144196063Y-136909774D01*
X144340226Y-137053937D01*
X144509744Y-137167205D01*
X144698102Y-137245226D01*
X144898061Y-137285000D01*
X145101939Y-137285000D01*
X145301898Y-137245226D01*
X145490256Y-137167205D01*
X145659774Y-137053937D01*
X145803937Y-136909774D01*
X145917205Y-136740256D01*
X145995226Y-136551898D01*
X146035000Y-136351939D01*
X146035000Y-136148061D01*
X145995226Y-135948102D01*
X145917205Y-135759744D01*
X145803937Y-135590226D01*
X145659774Y-135446063D01*
X145490256Y-135332795D01*
X145301898Y-135254774D01*
X145101939Y-135215000D01*
X144898061Y-135215000D01*
X144698102Y-135254774D01*
X144509744Y-135332795D01*
X144340226Y-135446063D01*
X144196063Y-135590226D01*
X144082795Y-135759744D01*
X144004774Y-135948102D01*
X143965000Y-136148061D01*
X142735945Y-136148061D01*
X142767000Y-135991939D01*
X142767000Y-135788061D01*
X142727226Y-135588102D01*
X142649205Y-135399744D01*
X142535937Y-135230226D01*
X142391774Y-135086063D01*
X142222256Y-134972795D01*
X142033898Y-134894774D01*
X141833939Y-134855000D01*
X141630061Y-134855000D01*
X141430102Y-134894774D01*
X141241744Y-134972795D01*
X141072226Y-135086063D01*
X140928063Y-135230226D01*
X140814795Y-135399744D01*
X140736774Y-135588102D01*
X140697000Y-135788061D01*
X140327000Y-135788061D01*
X140327000Y-135778212D01*
X140283383Y-135558933D01*
X140197824Y-135352376D01*
X140073612Y-135166480D01*
X139915520Y-135008388D01*
X139729624Y-134884176D01*
X139523067Y-134798617D01*
X139303788Y-134755000D01*
X139080212Y-134755000D01*
X138860933Y-134798617D01*
X138654376Y-134884176D01*
X138557000Y-134949241D01*
X138459624Y-134884176D01*
X138253067Y-134798617D01*
X138033788Y-134755000D01*
X137810212Y-134755000D01*
X137590933Y-134798617D01*
X137384376Y-134884176D01*
X137198480Y-135008388D01*
X137040388Y-135166480D01*
X136916176Y-135352376D01*
X136830617Y-135558933D01*
X136787000Y-135778212D01*
X136787000Y-136001788D01*
X136830617Y-136221067D01*
X136916176Y-136427624D01*
X136981241Y-136525000D01*
X136916176Y-136622376D01*
X136830617Y-136828933D01*
X136787000Y-137048212D01*
X136787000Y-137271788D01*
X136830617Y-137491067D01*
X136876888Y-137602774D01*
X136832498Y-137685820D01*
X136796188Y-137805518D01*
X136783928Y-137930000D01*
X127646003Y-137930000D01*
X127663205Y-137904256D01*
X127741226Y-137715898D01*
X127781000Y-137515939D01*
X127781000Y-137312061D01*
X127741226Y-137112102D01*
X127663205Y-136923744D01*
X127651349Y-136906000D01*
X127663205Y-136888256D01*
X127741226Y-136699898D01*
X127781000Y-136499939D01*
X127781000Y-136296061D01*
X127741226Y-136096102D01*
X127663205Y-135907744D01*
X127549937Y-135738226D01*
X127405774Y-135594063D01*
X127236256Y-135480795D01*
X127047898Y-135402774D01*
X126847939Y-135363000D01*
X126644061Y-135363000D01*
X126444102Y-135402774D01*
X126255744Y-135480795D01*
X126238000Y-135492651D01*
X126220256Y-135480795D01*
X126031898Y-135402774D01*
X125831939Y-135363000D01*
X125628061Y-135363000D01*
X125428102Y-135402774D01*
X125239744Y-135480795D01*
X125222000Y-135492651D01*
X125204256Y-135480795D01*
X125015898Y-135402774D01*
X124815939Y-135363000D01*
X124612061Y-135363000D01*
X124412102Y-135402774D01*
X124223744Y-135480795D01*
X124054226Y-135594063D01*
X123910063Y-135738226D01*
X123796795Y-135907744D01*
X123718774Y-136096102D01*
X123679000Y-136296061D01*
X108313242Y-136296061D01*
X108257605Y-136161744D01*
X108144337Y-135992226D01*
X108000174Y-135848063D01*
X107830656Y-135734795D01*
X107642298Y-135656774D01*
X107442339Y-135617000D01*
X107238461Y-135617000D01*
X107038502Y-135656774D01*
X106850144Y-135734795D01*
X106680626Y-135848063D01*
X106536463Y-135992226D01*
X106423195Y-136161744D01*
X106345174Y-136350102D01*
X106305400Y-136550061D01*
X100305573Y-136550061D01*
X100311832Y-136486520D01*
X100311832Y-135486520D01*
X100294768Y-135313266D01*
X100244232Y-135146670D01*
X100162165Y-134993134D01*
X100051722Y-134858558D01*
X99917146Y-134748115D01*
X99763610Y-134666048D01*
X99597014Y-134615512D01*
X99423760Y-134598448D01*
X97903760Y-134598448D01*
X97730506Y-134615512D01*
X97563910Y-134666048D01*
X97410374Y-134748115D01*
X97275798Y-134858558D01*
X97165355Y-134993134D01*
X97083288Y-135146670D01*
X97032752Y-135313266D01*
X97015688Y-135486520D01*
X96240453Y-135486520D01*
X96396713Y-135109276D01*
X96478760Y-134696799D01*
X96478760Y-134276241D01*
X96396713Y-133863764D01*
X96235772Y-133475218D01*
X96137208Y-133327705D01*
X97061442Y-133327705D01*
X97075587Y-133399204D01*
X97181618Y-133650388D01*
X97334615Y-133876060D01*
X97528699Y-134067548D01*
X97756411Y-134217492D01*
X98009000Y-134320131D01*
X98276760Y-134371520D01*
X98536760Y-134371520D01*
X98536760Y-133113520D01*
X98790760Y-133113520D01*
X98790760Y-134371520D01*
X99050760Y-134371520D01*
X99318520Y-134320131D01*
X99571109Y-134217492D01*
X99798821Y-134067548D01*
X99857087Y-134010061D01*
X161525000Y-134010061D01*
X161525000Y-134213939D01*
X161564774Y-134413898D01*
X161642795Y-134602256D01*
X161739510Y-134747000D01*
X161642795Y-134891744D01*
X161564774Y-135080102D01*
X161525000Y-135280061D01*
X161525000Y-135483939D01*
X161564774Y-135683898D01*
X161642795Y-135872256D01*
X161739510Y-136017000D01*
X161642795Y-136161744D01*
X161564774Y-136350102D01*
X161525000Y-136550061D01*
X161525000Y-136753939D01*
X161564774Y-136953898D01*
X161642795Y-137142256D01*
X161756063Y-137311774D01*
X161900226Y-137455937D01*
X162069744Y-137569205D01*
X162258102Y-137647226D01*
X162458061Y-137687000D01*
X162661939Y-137687000D01*
X162861898Y-137647226D01*
X163050256Y-137569205D01*
X163219774Y-137455937D01*
X163363937Y-137311774D01*
X163477205Y-137142256D01*
X163555226Y-136953898D01*
X163595000Y-136753939D01*
X163595000Y-136550061D01*
X163555226Y-136350102D01*
X163477205Y-136161744D01*
X163380490Y-136017000D01*
X163477205Y-135872256D01*
X163555226Y-135683898D01*
X163595000Y-135483939D01*
X163595000Y-135280061D01*
X163555226Y-135080102D01*
X163477205Y-134891744D01*
X163380490Y-134747000D01*
X163477205Y-134602256D01*
X163555226Y-134413898D01*
X163595000Y-134213939D01*
X163595000Y-134010061D01*
X163555226Y-133810102D01*
X163477205Y-133621744D01*
X163363937Y-133452226D01*
X163219774Y-133308063D01*
X163050256Y-133194795D01*
X162861898Y-133116774D01*
X162661939Y-133077000D01*
X162458061Y-133077000D01*
X162258102Y-133116774D01*
X162069744Y-133194795D01*
X161900226Y-133308063D01*
X161756063Y-133452226D01*
X161642795Y-133621744D01*
X161564774Y-133810102D01*
X161525000Y-134010061D01*
X99857087Y-134010061D01*
X99992905Y-133876060D01*
X100145902Y-133650388D01*
X100251933Y-133399204D01*
X100266078Y-133327705D01*
X100143416Y-133113520D01*
X98790760Y-133113520D01*
X98536760Y-133113520D01*
X97184104Y-133113520D01*
X97061442Y-133327705D01*
X96137208Y-133327705D01*
X96002123Y-133125537D01*
X95704743Y-132828157D01*
X95431131Y-132645335D01*
X97061442Y-132645335D01*
X97184104Y-132859520D01*
X98536760Y-132859520D01*
X98536760Y-131601520D01*
X98790760Y-131601520D01*
X98790760Y-132859520D01*
X100143416Y-132859520D01*
X100258377Y-132658781D01*
X115540840Y-132658781D01*
X115540840Y-132862659D01*
X115580614Y-133062618D01*
X115658635Y-133250976D01*
X115771903Y-133420494D01*
X115916066Y-133564657D01*
X116085584Y-133677925D01*
X116273942Y-133755946D01*
X116473901Y-133795720D01*
X116677779Y-133795720D01*
X116877738Y-133755946D01*
X117066096Y-133677925D01*
X117235614Y-133564657D01*
X117379777Y-133420494D01*
X117493045Y-133250976D01*
X117571066Y-133062618D01*
X117610840Y-132862659D01*
X117610840Y-132658781D01*
X117571066Y-132458822D01*
X117493045Y-132270464D01*
X117379777Y-132100946D01*
X117235614Y-131956783D01*
X117066096Y-131843515D01*
X116877738Y-131765494D01*
X116677779Y-131725720D01*
X116473901Y-131725720D01*
X116273942Y-131765494D01*
X116085584Y-131843515D01*
X115916066Y-131956783D01*
X115771903Y-132100946D01*
X115658635Y-132270464D01*
X115580614Y-132458822D01*
X115540840Y-132658781D01*
X100258377Y-132658781D01*
X100266078Y-132645335D01*
X100251933Y-132573836D01*
X100145902Y-132322652D01*
X99992905Y-132096980D01*
X99798821Y-131905492D01*
X99571109Y-131755548D01*
X99318520Y-131652909D01*
X99050760Y-131601520D01*
X98790760Y-131601520D01*
X98536760Y-131601520D01*
X98276760Y-131601520D01*
X98009000Y-131652909D01*
X97756411Y-131755548D01*
X97528699Y-131905492D01*
X97334615Y-132096980D01*
X97181618Y-132322652D01*
X97075587Y-132573836D01*
X97061442Y-132645335D01*
X95431131Y-132645335D01*
X95355062Y-132594508D01*
X94966516Y-132433567D01*
X94554039Y-132351520D01*
X94133481Y-132351520D01*
X93721004Y-132433567D01*
X93332458Y-132594508D01*
X92982777Y-132828157D01*
X92685397Y-133125537D01*
X92451748Y-133475218D01*
X92290807Y-133863764D01*
X92208760Y-134276241D01*
X92075000Y-134276241D01*
X92075000Y-130065441D01*
X116132660Y-130065441D01*
X116132660Y-130269319D01*
X116172434Y-130469278D01*
X116250455Y-130657636D01*
X116363723Y-130827154D01*
X116507886Y-130971317D01*
X116677404Y-131084585D01*
X116865762Y-131162606D01*
X117065721Y-131202380D01*
X117269599Y-131202380D01*
X117469558Y-131162606D01*
X117657916Y-131084585D01*
X117827434Y-130971317D01*
X117971597Y-130827154D01*
X118084865Y-130657636D01*
X118162886Y-130469278D01*
X118202660Y-130269319D01*
X118202660Y-130065441D01*
X118162886Y-129865482D01*
X118084865Y-129677124D01*
X117993242Y-129540000D01*
X169545000Y-129540000D01*
X169545000Y-142748000D01*
X169547440Y-142772776D01*
X169554667Y-142796601D01*
X169566403Y-142818557D01*
X169582197Y-142837803D01*
X169601443Y-142853597D01*
X169623399Y-142865333D01*
X169647224Y-142872560D01*
X169672000Y-142875000D01*
X182880000Y-142875000D01*
X182904776Y-142872560D01*
X182928601Y-142865333D01*
X182950557Y-142853597D01*
X182969803Y-142837803D01*
X182985597Y-142818557D01*
X182997333Y-142796601D01*
X183004560Y-142772776D01*
X183007000Y-142748000D01*
X183007000Y-129540000D01*
X183004560Y-129515224D01*
X182997333Y-129491399D01*
X182985597Y-129469443D01*
X182969803Y-129450197D01*
X182950557Y-129434403D01*
X182928601Y-129422667D01*
X182904776Y-129415440D01*
X182880000Y-129413000D01*
X169672000Y-129413000D01*
X169647224Y-129415440D01*
X169623399Y-129422667D01*
X169601443Y-129434403D01*
X169582197Y-129450197D01*
X169566403Y-129469443D01*
X169554667Y-129491399D01*
X169547440Y-129515224D01*
X169545000Y-129540000D01*
X117993242Y-129540000D01*
X117971597Y-129507606D01*
X117827434Y-129363443D01*
X117657916Y-129250175D01*
X117469558Y-129172154D01*
X117269599Y-129132380D01*
X117065721Y-129132380D01*
X116865762Y-129172154D01*
X116677404Y-129250175D01*
X116507886Y-129363443D01*
X116363723Y-129507606D01*
X116250455Y-129677124D01*
X116172434Y-129865482D01*
X116132660Y-130065441D01*
X92075000Y-130065441D01*
X92075000Y-125732308D01*
X96876004Y-125732308D01*
X96876066Y-125750040D01*
X96878979Y-125778720D01*
X96878778Y-125807550D01*
X96879678Y-125816721D01*
X96931495Y-126309727D01*
X96943522Y-126368320D01*
X96954732Y-126427084D01*
X96957395Y-126435906D01*
X97103984Y-126909458D01*
X97127158Y-126964584D01*
X97149573Y-127020066D01*
X97153900Y-127028202D01*
X97389677Y-127464262D01*
X97423110Y-127513829D01*
X97455881Y-127563908D01*
X97461706Y-127571049D01*
X97777690Y-127953009D01*
X97820107Y-127995131D01*
X97861989Y-128037900D01*
X97869090Y-128043773D01*
X98253246Y-128357084D01*
X98303073Y-128390188D01*
X98352428Y-128423983D01*
X98360531Y-128428364D01*
X98360539Y-128428368D01*
X98798230Y-128661092D01*
X98853536Y-128683888D01*
X98908517Y-128707453D01*
X98917320Y-128710178D01*
X99391885Y-128853457D01*
X99450558Y-128865074D01*
X99509075Y-128877513D01*
X99518240Y-128878476D01*
X100011595Y-128926850D01*
X100011598Y-128926850D01*
X100043581Y-128930000D01*
X133890419Y-128930000D01*
X133919746Y-128927112D01*
X133935550Y-128927222D01*
X133944721Y-128926322D01*
X134437727Y-128874505D01*
X134496320Y-128862478D01*
X134555084Y-128851268D01*
X134563906Y-128848605D01*
X135037458Y-128702016D01*
X135092584Y-128678842D01*
X135148066Y-128656427D01*
X135156202Y-128652100D01*
X135592262Y-128416323D01*
X135641829Y-128382890D01*
X135691908Y-128350119D01*
X135699049Y-128344294D01*
X136081009Y-128028310D01*
X136123131Y-127985893D01*
X136165900Y-127944011D01*
X136171773Y-127936910D01*
X136485084Y-127552754D01*
X136518188Y-127502927D01*
X136551983Y-127453572D01*
X136556364Y-127445469D01*
X136556368Y-127445461D01*
X136789092Y-127007770D01*
X136811888Y-126952464D01*
X136835453Y-126897483D01*
X136838178Y-126888680D01*
X136981457Y-126414115D01*
X136993074Y-126355442D01*
X137005513Y-126296925D01*
X137006476Y-126287760D01*
X137054850Y-125794405D01*
X137054850Y-125765573D01*
X137057964Y-125736907D01*
X137057979Y-125732308D01*
X141326004Y-125732308D01*
X141326066Y-125750040D01*
X141328979Y-125778720D01*
X141328778Y-125807550D01*
X141329678Y-125816721D01*
X141381495Y-126309727D01*
X141393522Y-126368320D01*
X141404732Y-126427084D01*
X141407395Y-126435906D01*
X141553984Y-126909458D01*
X141577158Y-126964584D01*
X141599573Y-127020066D01*
X141603900Y-127028202D01*
X141839677Y-127464262D01*
X141873110Y-127513829D01*
X141905881Y-127563908D01*
X141911706Y-127571049D01*
X142227690Y-127953009D01*
X142270107Y-127995131D01*
X142311989Y-128037900D01*
X142319090Y-128043773D01*
X142703246Y-128357084D01*
X142753073Y-128390188D01*
X142802428Y-128423983D01*
X142810531Y-128428364D01*
X142810539Y-128428368D01*
X143248230Y-128661092D01*
X143303536Y-128683888D01*
X143358517Y-128707453D01*
X143367320Y-128710178D01*
X143841885Y-128853457D01*
X143900558Y-128865074D01*
X143959075Y-128877513D01*
X143968240Y-128878476D01*
X144461595Y-128926850D01*
X144461598Y-128926850D01*
X144493581Y-128930000D01*
X178340419Y-128930000D01*
X178369746Y-128927112D01*
X178385550Y-128927222D01*
X178394721Y-128926322D01*
X178887727Y-128874505D01*
X178946320Y-128862478D01*
X179005084Y-128851268D01*
X179013906Y-128848605D01*
X179487458Y-128702016D01*
X179542584Y-128678842D01*
X179598066Y-128656427D01*
X179606202Y-128652100D01*
X180042262Y-128416323D01*
X180091829Y-128382890D01*
X180141908Y-128350119D01*
X180149049Y-128344294D01*
X180531009Y-128028310D01*
X180573131Y-127985893D01*
X180615900Y-127944011D01*
X180621773Y-127936910D01*
X180935084Y-127552754D01*
X180968188Y-127502927D01*
X181001983Y-127453572D01*
X181006364Y-127445469D01*
X181006368Y-127445461D01*
X181239092Y-127007770D01*
X181261888Y-126952464D01*
X181285453Y-126897483D01*
X181288178Y-126888680D01*
X181431457Y-126414115D01*
X181443074Y-126355442D01*
X181455513Y-126296925D01*
X181456476Y-126287760D01*
X181504850Y-125794405D01*
X181504850Y-125765573D01*
X181507964Y-125736907D01*
X181507996Y-125727692D01*
X181507934Y-125709960D01*
X181505021Y-125681280D01*
X181505222Y-125652451D01*
X181504322Y-125643280D01*
X181452505Y-125150273D01*
X181440490Y-125091742D01*
X181429269Y-125032917D01*
X181426605Y-125024095D01*
X181280016Y-124550542D01*
X181256847Y-124495427D01*
X181234427Y-124439934D01*
X181230100Y-124431798D01*
X180994323Y-123995738D01*
X180960890Y-123946171D01*
X180928119Y-123896092D01*
X180922294Y-123888951D01*
X180606310Y-123506991D01*
X180563874Y-123464850D01*
X180522011Y-123422101D01*
X180514911Y-123416227D01*
X180130754Y-123102917D01*
X180080946Y-123069824D01*
X180031572Y-123036017D01*
X180023466Y-123031634D01*
X179585770Y-122798908D01*
X179530488Y-122776122D01*
X179475483Y-122752547D01*
X179466680Y-122749822D01*
X178992116Y-122606543D01*
X178933428Y-122594923D01*
X178874925Y-122582487D01*
X178865760Y-122581524D01*
X178372405Y-122533150D01*
X178372402Y-122533150D01*
X178340419Y-122530000D01*
X144493581Y-122530000D01*
X144464254Y-122532888D01*
X144448451Y-122532778D01*
X144439280Y-122533678D01*
X143946273Y-122585495D01*
X143887742Y-122597510D01*
X143828917Y-122608731D01*
X143820095Y-122611395D01*
X143346542Y-122757984D01*
X143291427Y-122781153D01*
X143235934Y-122803573D01*
X143227798Y-122807900D01*
X142791738Y-123043677D01*
X142742171Y-123077110D01*
X142692092Y-123109881D01*
X142684951Y-123115706D01*
X142302991Y-123431690D01*
X142260850Y-123474126D01*
X142218101Y-123515989D01*
X142212227Y-123523089D01*
X141898917Y-123907246D01*
X141865824Y-123957054D01*
X141832017Y-124006428D01*
X141827634Y-124014534D01*
X141594908Y-124452230D01*
X141572122Y-124507512D01*
X141548547Y-124562517D01*
X141545822Y-124571320D01*
X141402543Y-125045884D01*
X141390923Y-125104572D01*
X141378487Y-125163075D01*
X141377524Y-125172240D01*
X141329150Y-125665595D01*
X141329150Y-125694427D01*
X141326036Y-125723093D01*
X141326004Y-125732308D01*
X137057979Y-125732308D01*
X137057996Y-125727692D01*
X137057934Y-125709960D01*
X137055021Y-125681280D01*
X137055222Y-125652451D01*
X137054322Y-125643280D01*
X137002505Y-125150273D01*
X136990490Y-125091742D01*
X136979269Y-125032917D01*
X136976605Y-125024095D01*
X136830016Y-124550542D01*
X136806847Y-124495427D01*
X136784427Y-124439934D01*
X136780100Y-124431798D01*
X136544323Y-123995738D01*
X136510890Y-123946171D01*
X136478119Y-123896092D01*
X136472294Y-123888951D01*
X136156310Y-123506991D01*
X136113874Y-123464850D01*
X136072011Y-123422101D01*
X136064911Y-123416227D01*
X135680754Y-123102917D01*
X135630946Y-123069824D01*
X135581572Y-123036017D01*
X135573466Y-123031634D01*
X135135770Y-122798908D01*
X135080488Y-122776122D01*
X135025483Y-122752547D01*
X135016680Y-122749822D01*
X134542116Y-122606543D01*
X134483428Y-122594923D01*
X134424925Y-122582487D01*
X134415760Y-122581524D01*
X133922405Y-122533150D01*
X133922402Y-122533150D01*
X133890419Y-122530000D01*
X100043581Y-122530000D01*
X100014254Y-122532888D01*
X99998451Y-122532778D01*
X99989280Y-122533678D01*
X99496273Y-122585495D01*
X99437742Y-122597510D01*
X99378917Y-122608731D01*
X99370095Y-122611395D01*
X98896542Y-122757984D01*
X98841427Y-122781153D01*
X98785934Y-122803573D01*
X98777798Y-122807900D01*
X98341738Y-123043677D01*
X98292171Y-123077110D01*
X98242092Y-123109881D01*
X98234951Y-123115706D01*
X97852991Y-123431690D01*
X97810850Y-123474126D01*
X97768101Y-123515989D01*
X97762227Y-123523089D01*
X97448917Y-123907246D01*
X97415824Y-123957054D01*
X97382017Y-124006428D01*
X97377634Y-124014534D01*
X97144908Y-124452230D01*
X97122122Y-124507512D01*
X97098547Y-124562517D01*
X97095822Y-124571320D01*
X96952543Y-125045884D01*
X96940923Y-125104572D01*
X96928487Y-125163075D01*
X96927524Y-125172240D01*
X96879150Y-125665595D01*
X96879150Y-125694427D01*
X96876036Y-125723093D01*
X96876004Y-125732308D01*
X92075000Y-125732308D01*
X92075000Y-33901095D01*
X92271161Y-34194670D01*
X92805330Y-34728839D01*
X93433446Y-35148533D01*
X94131372Y-35437623D01*
X94872285Y-35585000D01*
X95627715Y-35585000D01*
X96368628Y-35437623D01*
X97066554Y-35148533D01*
X97694670Y-34728839D01*
X98228839Y-34194670D01*
X98648533Y-33566554D01*
X98937623Y-32868628D01*
X99085000Y-32127715D01*
X99085000Y-31372285D01*
X98937623Y-30631372D01*
X98648533Y-29933446D01*
X98228839Y-29305330D01*
X97694670Y-28771161D01*
X97066554Y-28351467D01*
X96993000Y-28321000D01*
X181137000Y-28321000D01*
X181063446Y-28351467D01*
G37*
%TD.AperFunction*%
%TD*%
M02*
