%TF.GenerationSoftware,KiCad,Pcbnew,(5.1.8)-1*%
%TF.CreationDate,2022-01-18T09:11:41-03:30*%
%TF.ProjectId,beverageWarmer1,62657665-7261-4676-9557-61726d657231,rev?*%
%TF.SameCoordinates,Original*%
%TF.FileFunction,Soldermask,Top*%
%TF.FilePolarity,Negative*%
%FSLAX46Y46*%
G04 Gerber Fmt 4.6, Leading zero omitted, Abs format (unit mm)*
G04 Created by KiCad (PCBNEW (5.1.8)-1) date 2022-01-18 09:11:41*
%MOMM*%
%LPD*%
G01*
G04 APERTURE LIST*
%ADD10C,0.100000*%
%ADD11C,0.800000*%
%ADD12C,6.400000*%
%ADD13R,1.400000X1.300000*%
%ADD14R,0.900000X1.200000*%
%ADD15R,1.300000X1.400000*%
%ADD16C,3.000000*%
%ADD17O,1.500000X2.020000*%
%ADD18R,1.000000X1.000000*%
%ADD19O,1.000000X1.000000*%
%ADD20O,2.020000X1.500000*%
%ADD21R,2.900000X5.400000*%
%ADD22R,0.406400X0.304800*%
%ADD23R,0.431800X0.304800*%
%ADD24R,0.304800X0.406400*%
%ADD25R,0.304800X0.431800*%
%ADD26R,3.900000X5.500000*%
%ADD27R,1.700000X0.900000*%
%ADD28C,1.000000*%
%ADD29R,4.100000X4.100000*%
%ADD30R,0.650000X0.350000*%
%ADD31R,1.550000X2.400000*%
%ADD32R,0.650000X1.060000*%
%ADD33R,1.060000X0.650000*%
G04 APERTURE END LIST*
D10*
%TO.C,Q1*%
G36*
X115265098Y-138065510D02*
G01*
X117474901Y-138064621D01*
X117474901Y-138369421D01*
X117068501Y-138369421D01*
X117068501Y-138714607D01*
X117474901Y-138714607D01*
X117474901Y-139019407D01*
X117068501Y-139019407D01*
X117068501Y-139364593D01*
X117474901Y-139364593D01*
X117474901Y-139669393D01*
X117068501Y-139669393D01*
X117068501Y-140014579D01*
X117474901Y-140014579D01*
X117475000Y-140319379D01*
X115265098Y-140318490D01*
X115265098Y-138065510D01*
G37*
X115265098Y-138065510D02*
X117474901Y-138064621D01*
X117474901Y-138369421D01*
X117068501Y-138369421D01*
X117068501Y-138714607D01*
X117474901Y-138714607D01*
X117474901Y-139019407D01*
X117068501Y-139019407D01*
X117068501Y-139364593D01*
X117474901Y-139364593D01*
X117474901Y-139669393D01*
X117068501Y-139669393D01*
X117068501Y-140014579D01*
X117474901Y-140014579D01*
X117475000Y-140319379D01*
X115265098Y-140318490D01*
X115265098Y-138065510D01*
%TO.C,Q4*%
G36*
X164481510Y-136702902D02*
G01*
X164480621Y-134493099D01*
X164785421Y-134493099D01*
X164785421Y-134899499D01*
X165130607Y-134899499D01*
X165130607Y-134493099D01*
X165435407Y-134493099D01*
X165435407Y-134899499D01*
X165780593Y-134899499D01*
X165780593Y-134493099D01*
X166085393Y-134493099D01*
X166085393Y-134899499D01*
X166430579Y-134899499D01*
X166430579Y-134493099D01*
X166735379Y-134493000D01*
X166734490Y-136702902D01*
X164481510Y-136702902D01*
G37*
X164481510Y-136702902D02*
X164480621Y-134493099D01*
X164785421Y-134493099D01*
X164785421Y-134899499D01*
X165130607Y-134899499D01*
X165130607Y-134493099D01*
X165435407Y-134493099D01*
X165435407Y-134899499D01*
X165780593Y-134899499D01*
X165780593Y-134493099D01*
X166085393Y-134493099D01*
X166085393Y-134899499D01*
X166430579Y-134899499D01*
X166430579Y-134493099D01*
X166735379Y-134493000D01*
X166734490Y-136702902D01*
X164481510Y-136702902D01*
%TD*%
%TO.C,U3*%
G36*
G01*
X108818000Y-130325000D02*
X108818000Y-130025000D01*
G75*
G02*
X108968000Y-129875000I150000J0D01*
G01*
X110618000Y-129875000D01*
G75*
G02*
X110768000Y-130025000I0J-150000D01*
G01*
X110768000Y-130325000D01*
G75*
G02*
X110618000Y-130475000I-150000J0D01*
G01*
X108968000Y-130475000D01*
G75*
G02*
X108818000Y-130325000I0J150000D01*
G01*
G37*
G36*
G01*
X108818000Y-131595000D02*
X108818000Y-131295000D01*
G75*
G02*
X108968000Y-131145000I150000J0D01*
G01*
X110618000Y-131145000D01*
G75*
G02*
X110768000Y-131295000I0J-150000D01*
G01*
X110768000Y-131595000D01*
G75*
G02*
X110618000Y-131745000I-150000J0D01*
G01*
X108968000Y-131745000D01*
G75*
G02*
X108818000Y-131595000I0J150000D01*
G01*
G37*
G36*
G01*
X108818000Y-132865000D02*
X108818000Y-132565000D01*
G75*
G02*
X108968000Y-132415000I150000J0D01*
G01*
X110618000Y-132415000D01*
G75*
G02*
X110768000Y-132565000I0J-150000D01*
G01*
X110768000Y-132865000D01*
G75*
G02*
X110618000Y-133015000I-150000J0D01*
G01*
X108968000Y-133015000D01*
G75*
G02*
X108818000Y-132865000I0J150000D01*
G01*
G37*
G36*
G01*
X108818000Y-134135000D02*
X108818000Y-133835000D01*
G75*
G02*
X108968000Y-133685000I150000J0D01*
G01*
X110618000Y-133685000D01*
G75*
G02*
X110768000Y-133835000I0J-150000D01*
G01*
X110768000Y-134135000D01*
G75*
G02*
X110618000Y-134285000I-150000J0D01*
G01*
X108968000Y-134285000D01*
G75*
G02*
X108818000Y-134135000I0J150000D01*
G01*
G37*
G36*
G01*
X113768000Y-134135000D02*
X113768000Y-133835000D01*
G75*
G02*
X113918000Y-133685000I150000J0D01*
G01*
X115568000Y-133685000D01*
G75*
G02*
X115718000Y-133835000I0J-150000D01*
G01*
X115718000Y-134135000D01*
G75*
G02*
X115568000Y-134285000I-150000J0D01*
G01*
X113918000Y-134285000D01*
G75*
G02*
X113768000Y-134135000I0J150000D01*
G01*
G37*
G36*
G01*
X113768000Y-132865000D02*
X113768000Y-132565000D01*
G75*
G02*
X113918000Y-132415000I150000J0D01*
G01*
X115568000Y-132415000D01*
G75*
G02*
X115718000Y-132565000I0J-150000D01*
G01*
X115718000Y-132865000D01*
G75*
G02*
X115568000Y-133015000I-150000J0D01*
G01*
X113918000Y-133015000D01*
G75*
G02*
X113768000Y-132865000I0J150000D01*
G01*
G37*
G36*
G01*
X113768000Y-131595000D02*
X113768000Y-131295000D01*
G75*
G02*
X113918000Y-131145000I150000J0D01*
G01*
X115568000Y-131145000D01*
G75*
G02*
X115718000Y-131295000I0J-150000D01*
G01*
X115718000Y-131595000D01*
G75*
G02*
X115568000Y-131745000I-150000J0D01*
G01*
X113918000Y-131745000D01*
G75*
G02*
X113768000Y-131595000I0J150000D01*
G01*
G37*
G36*
G01*
X113768000Y-130325000D02*
X113768000Y-130025000D01*
G75*
G02*
X113918000Y-129875000I150000J0D01*
G01*
X115568000Y-129875000D01*
G75*
G02*
X115718000Y-130025000I0J-150000D01*
G01*
X115718000Y-130325000D01*
G75*
G02*
X115568000Y-130475000I-150000J0D01*
G01*
X113918000Y-130475000D01*
G75*
G02*
X113768000Y-130325000I0J150000D01*
G01*
G37*
%TD*%
%TO.C,R9*%
G36*
G01*
X145091999Y-148585500D02*
X145992001Y-148585500D01*
G75*
G02*
X146242000Y-148835499I0J-249999D01*
G01*
X146242000Y-149360501D01*
G75*
G02*
X145992001Y-149610500I-249999J0D01*
G01*
X145091999Y-149610500D01*
G75*
G02*
X144842000Y-149360501I0J249999D01*
G01*
X144842000Y-148835499D01*
G75*
G02*
X145091999Y-148585500I249999J0D01*
G01*
G37*
G36*
G01*
X145091999Y-146760500D02*
X145992001Y-146760500D01*
G75*
G02*
X146242000Y-147010499I0J-249999D01*
G01*
X146242000Y-147535501D01*
G75*
G02*
X145992001Y-147785500I-249999J0D01*
G01*
X145091999Y-147785500D01*
G75*
G02*
X144842000Y-147535501I0J249999D01*
G01*
X144842000Y-147010499D01*
G75*
G02*
X145091999Y-146760500I249999J0D01*
G01*
G37*
%TD*%
%TO.C,R8*%
G36*
G01*
X147123999Y-148585500D02*
X148024001Y-148585500D01*
G75*
G02*
X148274000Y-148835499I0J-249999D01*
G01*
X148274000Y-149360501D01*
G75*
G02*
X148024001Y-149610500I-249999J0D01*
G01*
X147123999Y-149610500D01*
G75*
G02*
X146874000Y-149360501I0J249999D01*
G01*
X146874000Y-148835499D01*
G75*
G02*
X147123999Y-148585500I249999J0D01*
G01*
G37*
G36*
G01*
X147123999Y-146760500D02*
X148024001Y-146760500D01*
G75*
G02*
X148274000Y-147010499I0J-249999D01*
G01*
X148274000Y-147535501D01*
G75*
G02*
X148024001Y-147785500I-249999J0D01*
G01*
X147123999Y-147785500D01*
G75*
G02*
X146874000Y-147535501I0J249999D01*
G01*
X146874000Y-147010499D01*
G75*
G02*
X147123999Y-146760500I249999J0D01*
G01*
G37*
%TD*%
D11*
%TO.C,REF\u002A\u002A*%
X185847056Y-150702944D03*
X184150000Y-150000000D03*
X182452944Y-150702944D03*
X181750000Y-152400000D03*
X182452944Y-154097056D03*
X184150000Y-154800000D03*
X185847056Y-154097056D03*
X186550000Y-152400000D03*
D12*
X184150000Y-152400000D03*
%TD*%
D11*
%TO.C,REF\u002A\u002A*%
X95677056Y-150702944D03*
X93980000Y-150000000D03*
X92282944Y-150702944D03*
X91580000Y-152400000D03*
X92282944Y-154097056D03*
X93980000Y-154800000D03*
X95677056Y-154097056D03*
X96380000Y-152400000D03*
D12*
X93980000Y-152400000D03*
%TD*%
%TO.C,REF\u002A\u002A*%
X95250000Y-31750000D03*
D11*
X97650000Y-31750000D03*
X96947056Y-33447056D03*
X95250000Y-34150000D03*
X93552944Y-33447056D03*
X92850000Y-31750000D03*
X93552944Y-30052944D03*
X95250000Y-29350000D03*
X96947056Y-30052944D03*
%TD*%
%TO.C,REF\u002A\u002A*%
X184577056Y-30052944D03*
X182880000Y-29350000D03*
X181182944Y-30052944D03*
X180480000Y-31750000D03*
X181182944Y-33447056D03*
X182880000Y-34150000D03*
X184577056Y-33447056D03*
X185280000Y-31750000D03*
D12*
X182880000Y-31750000D03*
%TD*%
%TO.C,C1*%
G36*
G01*
X122486000Y-138426000D02*
X122486000Y-137926000D01*
G75*
G02*
X122711000Y-137701000I225000J0D01*
G01*
X123161000Y-137701000D01*
G75*
G02*
X123386000Y-137926000I0J-225000D01*
G01*
X123386000Y-138426000D01*
G75*
G02*
X123161000Y-138651000I-225000J0D01*
G01*
X122711000Y-138651000D01*
G75*
G02*
X122486000Y-138426000I0J225000D01*
G01*
G37*
G36*
G01*
X120936000Y-138426000D02*
X120936000Y-137926000D01*
G75*
G02*
X121161000Y-137701000I225000J0D01*
G01*
X121611000Y-137701000D01*
G75*
G02*
X121836000Y-137926000I0J-225000D01*
G01*
X121836000Y-138426000D01*
G75*
G02*
X121611000Y-138651000I-225000J0D01*
G01*
X121161000Y-138651000D01*
G75*
G02*
X120936000Y-138426000I0J225000D01*
G01*
G37*
%TD*%
%TO.C,C2*%
G36*
G01*
X121662000Y-143706000D02*
X121162000Y-143706000D01*
G75*
G02*
X120937000Y-143481000I0J225000D01*
G01*
X120937000Y-143031000D01*
G75*
G02*
X121162000Y-142806000I225000J0D01*
G01*
X121662000Y-142806000D01*
G75*
G02*
X121887000Y-143031000I0J-225000D01*
G01*
X121887000Y-143481000D01*
G75*
G02*
X121662000Y-143706000I-225000J0D01*
G01*
G37*
G36*
G01*
X121662000Y-145256000D02*
X121162000Y-145256000D01*
G75*
G02*
X120937000Y-145031000I0J225000D01*
G01*
X120937000Y-144581000D01*
G75*
G02*
X121162000Y-144356000I225000J0D01*
G01*
X121662000Y-144356000D01*
G75*
G02*
X121887000Y-144581000I0J-225000D01*
G01*
X121887000Y-145031000D01*
G75*
G02*
X121662000Y-145256000I-225000J0D01*
G01*
G37*
%TD*%
%TO.C,C3*%
G36*
G01*
X112772000Y-154107000D02*
X112272000Y-154107000D01*
G75*
G02*
X112047000Y-153882000I0J225000D01*
G01*
X112047000Y-153432000D01*
G75*
G02*
X112272000Y-153207000I225000J0D01*
G01*
X112772000Y-153207000D01*
G75*
G02*
X112997000Y-153432000I0J-225000D01*
G01*
X112997000Y-153882000D01*
G75*
G02*
X112772000Y-154107000I-225000J0D01*
G01*
G37*
G36*
G01*
X112772000Y-155657000D02*
X112272000Y-155657000D01*
G75*
G02*
X112047000Y-155432000I0J225000D01*
G01*
X112047000Y-154982000D01*
G75*
G02*
X112272000Y-154757000I225000J0D01*
G01*
X112772000Y-154757000D01*
G75*
G02*
X112997000Y-154982000I0J-225000D01*
G01*
X112997000Y-155432000D01*
G75*
G02*
X112772000Y-155657000I-225000J0D01*
G01*
G37*
%TD*%
%TO.C,C4*%
G36*
G01*
X127142001Y-143274000D02*
X125841999Y-143274000D01*
G75*
G02*
X125592000Y-143024001I0J249999D01*
G01*
X125592000Y-142373999D01*
G75*
G02*
X125841999Y-142124000I249999J0D01*
G01*
X127142001Y-142124000D01*
G75*
G02*
X127392000Y-142373999I0J-249999D01*
G01*
X127392000Y-143024001D01*
G75*
G02*
X127142001Y-143274000I-249999J0D01*
G01*
G37*
G36*
G01*
X127142001Y-140324000D02*
X125841999Y-140324000D01*
G75*
G02*
X125592000Y-140074001I0J249999D01*
G01*
X125592000Y-139423999D01*
G75*
G02*
X125841999Y-139174000I249999J0D01*
G01*
X127142001Y-139174000D01*
G75*
G02*
X127392000Y-139423999I0J-249999D01*
G01*
X127392000Y-140074001D01*
G75*
G02*
X127142001Y-140324000I-249999J0D01*
G01*
G37*
%TD*%
%TO.C,C5*%
G36*
G01*
X130614000Y-140966000D02*
X130614000Y-140466000D01*
G75*
G02*
X130839000Y-140241000I225000J0D01*
G01*
X131289000Y-140241000D01*
G75*
G02*
X131514000Y-140466000I0J-225000D01*
G01*
X131514000Y-140966000D01*
G75*
G02*
X131289000Y-141191000I-225000J0D01*
G01*
X130839000Y-141191000D01*
G75*
G02*
X130614000Y-140966000I0J225000D01*
G01*
G37*
G36*
G01*
X132164000Y-140966000D02*
X132164000Y-140466000D01*
G75*
G02*
X132389000Y-140241000I225000J0D01*
G01*
X132839000Y-140241000D01*
G75*
G02*
X133064000Y-140466000I0J-225000D01*
G01*
X133064000Y-140966000D01*
G75*
G02*
X132839000Y-141191000I-225000J0D01*
G01*
X132389000Y-141191000D01*
G75*
G02*
X132164000Y-140966000I0J225000D01*
G01*
G37*
%TD*%
%TO.C,C6*%
G36*
G01*
X139958000Y-141523000D02*
X140458000Y-141523000D01*
G75*
G02*
X140683000Y-141748000I0J-225000D01*
G01*
X140683000Y-142198000D01*
G75*
G02*
X140458000Y-142423000I-225000J0D01*
G01*
X139958000Y-142423000D01*
G75*
G02*
X139733000Y-142198000I0J225000D01*
G01*
X139733000Y-141748000D01*
G75*
G02*
X139958000Y-141523000I225000J0D01*
G01*
G37*
G36*
G01*
X139958000Y-143073000D02*
X140458000Y-143073000D01*
G75*
G02*
X140683000Y-143298000I0J-225000D01*
G01*
X140683000Y-143748000D01*
G75*
G02*
X140458000Y-143973000I-225000J0D01*
G01*
X139958000Y-143973000D01*
G75*
G02*
X139733000Y-143748000I0J225000D01*
G01*
X139733000Y-143298000D01*
G75*
G02*
X139958000Y-143073000I225000J0D01*
G01*
G37*
%TD*%
%TO.C,C7*%
G36*
G01*
X138880000Y-149610000D02*
X138880000Y-150110000D01*
G75*
G02*
X138655000Y-150335000I-225000J0D01*
G01*
X138205000Y-150335000D01*
G75*
G02*
X137980000Y-150110000I0J225000D01*
G01*
X137980000Y-149610000D01*
G75*
G02*
X138205000Y-149385000I225000J0D01*
G01*
X138655000Y-149385000D01*
G75*
G02*
X138880000Y-149610000I0J-225000D01*
G01*
G37*
G36*
G01*
X140430000Y-149610000D02*
X140430000Y-150110000D01*
G75*
G02*
X140205000Y-150335000I-225000J0D01*
G01*
X139755000Y-150335000D01*
G75*
G02*
X139530000Y-150110000I0J225000D01*
G01*
X139530000Y-149610000D01*
G75*
G02*
X139755000Y-149385000I225000J0D01*
G01*
X140205000Y-149385000D01*
G75*
G02*
X140430000Y-149610000I0J-225000D01*
G01*
G37*
%TD*%
%TO.C,C8*%
G36*
G01*
X149864000Y-144558000D02*
X150364000Y-144558000D01*
G75*
G02*
X150589000Y-144783000I0J-225000D01*
G01*
X150589000Y-145233000D01*
G75*
G02*
X150364000Y-145458000I-225000J0D01*
G01*
X149864000Y-145458000D01*
G75*
G02*
X149639000Y-145233000I0J225000D01*
G01*
X149639000Y-144783000D01*
G75*
G02*
X149864000Y-144558000I225000J0D01*
G01*
G37*
G36*
G01*
X149864000Y-146108000D02*
X150364000Y-146108000D01*
G75*
G02*
X150589000Y-146333000I0J-225000D01*
G01*
X150589000Y-146783000D01*
G75*
G02*
X150364000Y-147008000I-225000J0D01*
G01*
X149864000Y-147008000D01*
G75*
G02*
X149639000Y-146783000I0J225000D01*
G01*
X149639000Y-146333000D01*
G75*
G02*
X149864000Y-146108000I225000J0D01*
G01*
G37*
%TD*%
%TO.C,C9*%
G36*
G01*
X130044000Y-146246000D02*
X129544000Y-146246000D01*
G75*
G02*
X129319000Y-146021000I0J225000D01*
G01*
X129319000Y-145571000D01*
G75*
G02*
X129544000Y-145346000I225000J0D01*
G01*
X130044000Y-145346000D01*
G75*
G02*
X130269000Y-145571000I0J-225000D01*
G01*
X130269000Y-146021000D01*
G75*
G02*
X130044000Y-146246000I-225000J0D01*
G01*
G37*
G36*
G01*
X130044000Y-144696000D02*
X129544000Y-144696000D01*
G75*
G02*
X129319000Y-144471000I0J225000D01*
G01*
X129319000Y-144021000D01*
G75*
G02*
X129544000Y-143796000I225000J0D01*
G01*
X130044000Y-143796000D01*
G75*
G02*
X130269000Y-144021000I0J-225000D01*
G01*
X130269000Y-144471000D01*
G75*
G02*
X130044000Y-144696000I-225000J0D01*
G01*
G37*
%TD*%
%TO.C,C10*%
G36*
G01*
X127579000Y-148078000D02*
X127579000Y-147578000D01*
G75*
G02*
X127804000Y-147353000I225000J0D01*
G01*
X128254000Y-147353000D01*
G75*
G02*
X128479000Y-147578000I0J-225000D01*
G01*
X128479000Y-148078000D01*
G75*
G02*
X128254000Y-148303000I-225000J0D01*
G01*
X127804000Y-148303000D01*
G75*
G02*
X127579000Y-148078000I0J225000D01*
G01*
G37*
G36*
G01*
X126029000Y-148078000D02*
X126029000Y-147578000D01*
G75*
G02*
X126254000Y-147353000I225000J0D01*
G01*
X126704000Y-147353000D01*
G75*
G02*
X126929000Y-147578000I0J-225000D01*
G01*
X126929000Y-148078000D01*
G75*
G02*
X126704000Y-148303000I-225000J0D01*
G01*
X126254000Y-148303000D01*
G75*
G02*
X126029000Y-148078000I0J225000D01*
G01*
G37*
%TD*%
%TO.C,C11*%
G36*
G01*
X126029000Y-146554000D02*
X126029000Y-146054000D01*
G75*
G02*
X126254000Y-145829000I225000J0D01*
G01*
X126704000Y-145829000D01*
G75*
G02*
X126929000Y-146054000I0J-225000D01*
G01*
X126929000Y-146554000D01*
G75*
G02*
X126704000Y-146779000I-225000J0D01*
G01*
X126254000Y-146779000D01*
G75*
G02*
X126029000Y-146554000I0J225000D01*
G01*
G37*
G36*
G01*
X127579000Y-146554000D02*
X127579000Y-146054000D01*
G75*
G02*
X127804000Y-145829000I225000J0D01*
G01*
X128254000Y-145829000D01*
G75*
G02*
X128479000Y-146054000I0J-225000D01*
G01*
X128479000Y-146554000D01*
G75*
G02*
X128254000Y-146779000I-225000J0D01*
G01*
X127804000Y-146779000D01*
G75*
G02*
X127579000Y-146554000I0J225000D01*
G01*
G37*
%TD*%
%TO.C,C12*%
G36*
G01*
X134362000Y-152075000D02*
X133862000Y-152075000D01*
G75*
G02*
X133637000Y-151850000I0J225000D01*
G01*
X133637000Y-151400000D01*
G75*
G02*
X133862000Y-151175000I225000J0D01*
G01*
X134362000Y-151175000D01*
G75*
G02*
X134587000Y-151400000I0J-225000D01*
G01*
X134587000Y-151850000D01*
G75*
G02*
X134362000Y-152075000I-225000J0D01*
G01*
G37*
G36*
G01*
X134362000Y-153625000D02*
X133862000Y-153625000D01*
G75*
G02*
X133637000Y-153400000I0J225000D01*
G01*
X133637000Y-152950000D01*
G75*
G02*
X133862000Y-152725000I225000J0D01*
G01*
X134362000Y-152725000D01*
G75*
G02*
X134587000Y-152950000I0J-225000D01*
G01*
X134587000Y-153400000D01*
G75*
G02*
X134362000Y-153625000I-225000J0D01*
G01*
G37*
%TD*%
%TO.C,C13*%
G36*
G01*
X132838000Y-153625000D02*
X132338000Y-153625000D01*
G75*
G02*
X132113000Y-153400000I0J225000D01*
G01*
X132113000Y-152950000D01*
G75*
G02*
X132338000Y-152725000I225000J0D01*
G01*
X132838000Y-152725000D01*
G75*
G02*
X133063000Y-152950000I0J-225000D01*
G01*
X133063000Y-153400000D01*
G75*
G02*
X132838000Y-153625000I-225000J0D01*
G01*
G37*
G36*
G01*
X132838000Y-152075000D02*
X132338000Y-152075000D01*
G75*
G02*
X132113000Y-151850000I0J225000D01*
G01*
X132113000Y-151400000D01*
G75*
G02*
X132338000Y-151175000I225000J0D01*
G01*
X132838000Y-151175000D01*
G75*
G02*
X133063000Y-151400000I0J-225000D01*
G01*
X133063000Y-151850000D01*
G75*
G02*
X132838000Y-152075000I-225000J0D01*
G01*
G37*
%TD*%
%TO.C,C14*%
G36*
G01*
X144014000Y-140938000D02*
X143514000Y-140938000D01*
G75*
G02*
X143289000Y-140713000I0J225000D01*
G01*
X143289000Y-140263000D01*
G75*
G02*
X143514000Y-140038000I225000J0D01*
G01*
X144014000Y-140038000D01*
G75*
G02*
X144239000Y-140263000I0J-225000D01*
G01*
X144239000Y-140713000D01*
G75*
G02*
X144014000Y-140938000I-225000J0D01*
G01*
G37*
G36*
G01*
X144014000Y-139388000D02*
X143514000Y-139388000D01*
G75*
G02*
X143289000Y-139163000I0J225000D01*
G01*
X143289000Y-138713000D01*
G75*
G02*
X143514000Y-138488000I225000J0D01*
G01*
X144014000Y-138488000D01*
G75*
G02*
X144239000Y-138713000I0J-225000D01*
G01*
X144239000Y-139163000D01*
G75*
G02*
X144014000Y-139388000I-225000J0D01*
G01*
G37*
%TD*%
%TO.C,C15*%
G36*
G01*
X164307400Y-133498400D02*
X164307400Y-132998400D01*
G75*
G02*
X164532400Y-132773400I225000J0D01*
G01*
X164982400Y-132773400D01*
G75*
G02*
X165207400Y-132998400I0J-225000D01*
G01*
X165207400Y-133498400D01*
G75*
G02*
X164982400Y-133723400I-225000J0D01*
G01*
X164532400Y-133723400D01*
G75*
G02*
X164307400Y-133498400I0J225000D01*
G01*
G37*
G36*
G01*
X162757400Y-133498400D02*
X162757400Y-132998400D01*
G75*
G02*
X162982400Y-132773400I225000J0D01*
G01*
X163432400Y-132773400D01*
G75*
G02*
X163657400Y-132998400I0J-225000D01*
G01*
X163657400Y-133498400D01*
G75*
G02*
X163432400Y-133723400I-225000J0D01*
G01*
X162982400Y-133723400D01*
G75*
G02*
X162757400Y-133498400I0J225000D01*
G01*
G37*
%TD*%
%TO.C,C16*%
G36*
G01*
X183892000Y-139896000D02*
X183392000Y-139896000D01*
G75*
G02*
X183167000Y-139671000I0J225000D01*
G01*
X183167000Y-139221000D01*
G75*
G02*
X183392000Y-138996000I225000J0D01*
G01*
X183892000Y-138996000D01*
G75*
G02*
X184117000Y-139221000I0J-225000D01*
G01*
X184117000Y-139671000D01*
G75*
G02*
X183892000Y-139896000I-225000J0D01*
G01*
G37*
G36*
G01*
X183892000Y-141446000D02*
X183392000Y-141446000D01*
G75*
G02*
X183167000Y-141221000I0J225000D01*
G01*
X183167000Y-140771000D01*
G75*
G02*
X183392000Y-140546000I225000J0D01*
G01*
X183892000Y-140546000D01*
G75*
G02*
X184117000Y-140771000I0J-225000D01*
G01*
X184117000Y-141221000D01*
G75*
G02*
X183892000Y-141446000I-225000J0D01*
G01*
G37*
%TD*%
%TO.C,C17*%
G36*
G01*
X122424000Y-153599000D02*
X121924000Y-153599000D01*
G75*
G02*
X121699000Y-153374000I0J225000D01*
G01*
X121699000Y-152924000D01*
G75*
G02*
X121924000Y-152699000I225000J0D01*
G01*
X122424000Y-152699000D01*
G75*
G02*
X122649000Y-152924000I0J-225000D01*
G01*
X122649000Y-153374000D01*
G75*
G02*
X122424000Y-153599000I-225000J0D01*
G01*
G37*
G36*
G01*
X122424000Y-155149000D02*
X121924000Y-155149000D01*
G75*
G02*
X121699000Y-154924000I0J225000D01*
G01*
X121699000Y-154474000D01*
G75*
G02*
X121924000Y-154249000I225000J0D01*
G01*
X122424000Y-154249000D01*
G75*
G02*
X122649000Y-154474000I0J-225000D01*
G01*
X122649000Y-154924000D01*
G75*
G02*
X122424000Y-155149000I-225000J0D01*
G01*
G37*
%TD*%
%TO.C,C18*%
G36*
G01*
X162310000Y-138475000D02*
X162810000Y-138475000D01*
G75*
G02*
X163035000Y-138700000I0J-225000D01*
G01*
X163035000Y-139150000D01*
G75*
G02*
X162810000Y-139375000I-225000J0D01*
G01*
X162310000Y-139375000D01*
G75*
G02*
X162085000Y-139150000I0J225000D01*
G01*
X162085000Y-138700000D01*
G75*
G02*
X162310000Y-138475000I225000J0D01*
G01*
G37*
G36*
G01*
X162310000Y-140025000D02*
X162810000Y-140025000D01*
G75*
G02*
X163035000Y-140250000I0J-225000D01*
G01*
X163035000Y-140700000D01*
G75*
G02*
X162810000Y-140925000I-225000J0D01*
G01*
X162310000Y-140925000D01*
G75*
G02*
X162085000Y-140700000I0J225000D01*
G01*
X162085000Y-140250000D01*
G75*
G02*
X162310000Y-140025000I225000J0D01*
G01*
G37*
%TD*%
%TO.C,C19*%
G36*
G01*
X116664020Y-131595940D02*
X116664020Y-131095940D01*
G75*
G02*
X116889020Y-130870940I225000J0D01*
G01*
X117339020Y-130870940D01*
G75*
G02*
X117564020Y-131095940I0J-225000D01*
G01*
X117564020Y-131595940D01*
G75*
G02*
X117339020Y-131820940I-225000J0D01*
G01*
X116889020Y-131820940D01*
G75*
G02*
X116664020Y-131595940I0J225000D01*
G01*
G37*
G36*
G01*
X118214020Y-131595940D02*
X118214020Y-131095940D01*
G75*
G02*
X118439020Y-130870940I225000J0D01*
G01*
X118889020Y-130870940D01*
G75*
G02*
X119114020Y-131095940I0J-225000D01*
G01*
X119114020Y-131595940D01*
G75*
G02*
X118889020Y-131820940I-225000J0D01*
G01*
X118439020Y-131820940D01*
G75*
G02*
X118214020Y-131595940I0J225000D01*
G01*
G37*
%TD*%
D13*
%TO.C,D1*%
X101600000Y-140970000D03*
X101600000Y-143870000D03*
%TD*%
D14*
%TO.C,D2*%
X116460000Y-146812000D03*
X119760000Y-146812000D03*
%TD*%
%TO.C,D3*%
G36*
G01*
X147830250Y-152837500D02*
X147317750Y-152837500D01*
G75*
G02*
X147099000Y-152618750I0J218750D01*
G01*
X147099000Y-152181250D01*
G75*
G02*
X147317750Y-151962500I218750J0D01*
G01*
X147830250Y-151962500D01*
G75*
G02*
X148049000Y-152181250I0J-218750D01*
G01*
X148049000Y-152618750D01*
G75*
G02*
X147830250Y-152837500I-218750J0D01*
G01*
G37*
G36*
G01*
X147830250Y-151262500D02*
X147317750Y-151262500D01*
G75*
G02*
X147099000Y-151043750I0J218750D01*
G01*
X147099000Y-150606250D01*
G75*
G02*
X147317750Y-150387500I218750J0D01*
G01*
X147830250Y-150387500D01*
G75*
G02*
X148049000Y-150606250I0J-218750D01*
G01*
X148049000Y-151043750D01*
G75*
G02*
X147830250Y-151262500I-218750J0D01*
G01*
G37*
%TD*%
%TO.C,D4*%
G36*
G01*
X145798250Y-151288000D02*
X145285750Y-151288000D01*
G75*
G02*
X145067000Y-151069250I0J218750D01*
G01*
X145067000Y-150631750D01*
G75*
G02*
X145285750Y-150413000I218750J0D01*
G01*
X145798250Y-150413000D01*
G75*
G02*
X146017000Y-150631750I0J-218750D01*
G01*
X146017000Y-151069250D01*
G75*
G02*
X145798250Y-151288000I-218750J0D01*
G01*
G37*
G36*
G01*
X145798250Y-152863000D02*
X145285750Y-152863000D01*
G75*
G02*
X145067000Y-152644250I0J218750D01*
G01*
X145067000Y-152206750D01*
G75*
G02*
X145285750Y-151988000I218750J0D01*
G01*
X145798250Y-151988000D01*
G75*
G02*
X146017000Y-152206750I0J-218750D01*
G01*
X146017000Y-152644250D01*
G75*
G02*
X145798250Y-152863000I-218750J0D01*
G01*
G37*
%TD*%
D15*
%TO.C,D5*%
X133964000Y-136652000D03*
X131064000Y-136652000D03*
%TD*%
D13*
%TO.C,D6*%
X167894000Y-132842000D03*
X167894000Y-129942000D03*
%TD*%
%TO.C,F1*%
G36*
G01*
X105412250Y-142957000D02*
X104899750Y-142957000D01*
G75*
G02*
X104681000Y-142738250I0J218750D01*
G01*
X104681000Y-142300750D01*
G75*
G02*
X104899750Y-142082000I218750J0D01*
G01*
X105412250Y-142082000D01*
G75*
G02*
X105631000Y-142300750I0J-218750D01*
G01*
X105631000Y-142738250D01*
G75*
G02*
X105412250Y-142957000I-218750J0D01*
G01*
G37*
G36*
G01*
X105412250Y-141382000D02*
X104899750Y-141382000D01*
G75*
G02*
X104681000Y-141163250I0J218750D01*
G01*
X104681000Y-140725750D01*
G75*
G02*
X104899750Y-140507000I218750J0D01*
G01*
X105412250Y-140507000D01*
G75*
G02*
X105631000Y-140725750I0J-218750D01*
G01*
X105631000Y-141163250D01*
G75*
G02*
X105412250Y-141382000I-218750J0D01*
G01*
G37*
%TD*%
%TO.C,FB1*%
G36*
G01*
X129077000Y-142750250D02*
X129077000Y-142237750D01*
G75*
G02*
X129295750Y-142019000I218750J0D01*
G01*
X129733250Y-142019000D01*
G75*
G02*
X129952000Y-142237750I0J-218750D01*
G01*
X129952000Y-142750250D01*
G75*
G02*
X129733250Y-142969000I-218750J0D01*
G01*
X129295750Y-142969000D01*
G75*
G02*
X129077000Y-142750250I0J218750D01*
G01*
G37*
G36*
G01*
X130652000Y-142750250D02*
X130652000Y-142237750D01*
G75*
G02*
X130870750Y-142019000I218750J0D01*
G01*
X131308250Y-142019000D01*
G75*
G02*
X131527000Y-142237750I0J-218750D01*
G01*
X131527000Y-142750250D01*
G75*
G02*
X131308250Y-142969000I-218750J0D01*
G01*
X130870750Y-142969000D01*
G75*
G02*
X130652000Y-142750250I0J218750D01*
G01*
G37*
%TD*%
D16*
%TO.C,POWER (12V)*%
X103625520Y-152234360D03*
G36*
G01*
X105875520Y-147154360D02*
X105875520Y-148674360D01*
G75*
G02*
X105625520Y-148924360I-250000J0D01*
G01*
X104625520Y-148924360D01*
G75*
G02*
X104375520Y-148674360I0J250000D01*
G01*
X104375520Y-147154360D01*
G75*
G02*
X104625520Y-146904360I250000J0D01*
G01*
X105625520Y-146904360D01*
G75*
G02*
X105875520Y-147154360I0J-250000D01*
G01*
G37*
D17*
X102125520Y-147914360D03*
%TD*%
%TO.C,CAN CONN*%
X167652440Y-147868640D03*
G36*
G01*
X171402440Y-147108640D02*
X171402440Y-148628640D01*
G75*
G02*
X171152440Y-148878640I-250000J0D01*
G01*
X170152440Y-148878640D01*
G75*
G02*
X169902440Y-148628640I0J250000D01*
G01*
X169902440Y-147108640D01*
G75*
G02*
X170152440Y-146858640I250000J0D01*
G01*
X171152440Y-146858640D01*
G75*
G02*
X171402440Y-147108640I0J-250000D01*
G01*
G37*
D16*
X169152440Y-152188640D03*
%TD*%
D18*
%TO.C,SWD*%
X137922000Y-138430000D03*
D19*
X139192000Y-138430000D03*
X137922000Y-137160000D03*
X139192000Y-137160000D03*
X137922000Y-135890000D03*
X139192000Y-135890000D03*
%TD*%
D16*
%TO.C,THERMISTOR*%
X94343760Y-134486520D03*
G36*
G01*
X99423760Y-136736520D02*
X97903760Y-136736520D01*
G75*
G02*
X97653760Y-136486520I0J250000D01*
G01*
X97653760Y-135486520D01*
G75*
G02*
X97903760Y-135236520I250000J0D01*
G01*
X99423760Y-135236520D01*
G75*
G02*
X99673760Y-135486520I0J-250000D01*
G01*
X99673760Y-136486520D01*
G75*
G02*
X99423760Y-136736520I-250000J0D01*
G01*
G37*
D20*
X98663760Y-132986520D03*
%TD*%
D21*
%TO.C,L1*%
X171426000Y-136144000D03*
X181126000Y-136144000D03*
%TD*%
D22*
%TO.C,Q1*%
X117271701Y-138217021D03*
X117271701Y-138867007D03*
X117271701Y-139516993D03*
X117271701Y-140166979D03*
D23*
X114388999Y-140166979D03*
X114388999Y-139516993D03*
X114388999Y-138867007D03*
X114388999Y-138217021D03*
%TD*%
D24*
%TO.C,Q4*%
X164633021Y-134696299D03*
X165283007Y-134696299D03*
X165932993Y-134696299D03*
X166582979Y-134696299D03*
D25*
X166582979Y-137579001D03*
X165932993Y-137579001D03*
X165283007Y-137579001D03*
X164633021Y-137579001D03*
%TD*%
%TO.C,R1*%
G36*
G01*
X134387000Y-139529000D02*
X133837000Y-139529000D01*
G75*
G02*
X133637000Y-139329000I0J200000D01*
G01*
X133637000Y-138929000D01*
G75*
G02*
X133837000Y-138729000I200000J0D01*
G01*
X134387000Y-138729000D01*
G75*
G02*
X134587000Y-138929000I0J-200000D01*
G01*
X134587000Y-139329000D01*
G75*
G02*
X134387000Y-139529000I-200000J0D01*
G01*
G37*
G36*
G01*
X134387000Y-141179000D02*
X133837000Y-141179000D01*
G75*
G02*
X133637000Y-140979000I0J200000D01*
G01*
X133637000Y-140579000D01*
G75*
G02*
X133837000Y-140379000I200000J0D01*
G01*
X134387000Y-140379000D01*
G75*
G02*
X134587000Y-140579000I0J-200000D01*
G01*
X134587000Y-140979000D01*
G75*
G02*
X134387000Y-141179000I-200000J0D01*
G01*
G37*
%TD*%
%TO.C,R2*%
G36*
G01*
X114725000Y-143531000D02*
X114725000Y-142981000D01*
G75*
G02*
X114925000Y-142781000I200000J0D01*
G01*
X115325000Y-142781000D01*
G75*
G02*
X115525000Y-142981000I0J-200000D01*
G01*
X115525000Y-143531000D01*
G75*
G02*
X115325000Y-143731000I-200000J0D01*
G01*
X114925000Y-143731000D01*
G75*
G02*
X114725000Y-143531000I0J200000D01*
G01*
G37*
G36*
G01*
X113075000Y-143531000D02*
X113075000Y-142981000D01*
G75*
G02*
X113275000Y-142781000I200000J0D01*
G01*
X113675000Y-142781000D01*
G75*
G02*
X113875000Y-142981000I0J-200000D01*
G01*
X113875000Y-143531000D01*
G75*
G02*
X113675000Y-143731000I-200000J0D01*
G01*
X113275000Y-143731000D01*
G75*
G02*
X113075000Y-143531000I0J200000D01*
G01*
G37*
%TD*%
%TO.C,R3*%
G36*
G01*
X116631000Y-143531000D02*
X116631000Y-142981000D01*
G75*
G02*
X116831000Y-142781000I200000J0D01*
G01*
X117231000Y-142781000D01*
G75*
G02*
X117431000Y-142981000I0J-200000D01*
G01*
X117431000Y-143531000D01*
G75*
G02*
X117231000Y-143731000I-200000J0D01*
G01*
X116831000Y-143731000D01*
G75*
G02*
X116631000Y-143531000I0J200000D01*
G01*
G37*
G36*
G01*
X118281000Y-143531000D02*
X118281000Y-142981000D01*
G75*
G02*
X118481000Y-142781000I200000J0D01*
G01*
X118881000Y-142781000D01*
G75*
G02*
X119081000Y-142981000I0J-200000D01*
G01*
X119081000Y-143531000D01*
G75*
G02*
X118881000Y-143731000I-200000J0D01*
G01*
X118481000Y-143731000D01*
G75*
G02*
X118281000Y-143531000I0J200000D01*
G01*
G37*
%TD*%
%TO.C,R4*%
G36*
G01*
X112313000Y-147087000D02*
X112313000Y-146537000D01*
G75*
G02*
X112513000Y-146337000I200000J0D01*
G01*
X112913000Y-146337000D01*
G75*
G02*
X113113000Y-146537000I0J-200000D01*
G01*
X113113000Y-147087000D01*
G75*
G02*
X112913000Y-147287000I-200000J0D01*
G01*
X112513000Y-147287000D01*
G75*
G02*
X112313000Y-147087000I0J200000D01*
G01*
G37*
G36*
G01*
X113963000Y-147087000D02*
X113963000Y-146537000D01*
G75*
G02*
X114163000Y-146337000I200000J0D01*
G01*
X114563000Y-146337000D01*
G75*
G02*
X114763000Y-146537000I0J-200000D01*
G01*
X114763000Y-147087000D01*
G75*
G02*
X114563000Y-147287000I-200000J0D01*
G01*
X114163000Y-147287000D01*
G75*
G02*
X113963000Y-147087000I0J200000D01*
G01*
G37*
%TD*%
%TO.C,R5*%
G36*
G01*
X113963000Y-150643000D02*
X113963000Y-150093000D01*
G75*
G02*
X114163000Y-149893000I200000J0D01*
G01*
X114563000Y-149893000D01*
G75*
G02*
X114763000Y-150093000I0J-200000D01*
G01*
X114763000Y-150643000D01*
G75*
G02*
X114563000Y-150843000I-200000J0D01*
G01*
X114163000Y-150843000D01*
G75*
G02*
X113963000Y-150643000I0J200000D01*
G01*
G37*
G36*
G01*
X112313000Y-150643000D02*
X112313000Y-150093000D01*
G75*
G02*
X112513000Y-149893000I200000J0D01*
G01*
X112913000Y-149893000D01*
G75*
G02*
X113113000Y-150093000I0J-200000D01*
G01*
X113113000Y-150643000D01*
G75*
G02*
X112913000Y-150843000I-200000J0D01*
G01*
X112513000Y-150843000D01*
G75*
G02*
X112313000Y-150643000I0J200000D01*
G01*
G37*
%TD*%
%TO.C,R6*%
G36*
G01*
X115869000Y-150643000D02*
X115869000Y-150093000D01*
G75*
G02*
X116069000Y-149893000I200000J0D01*
G01*
X116469000Y-149893000D01*
G75*
G02*
X116669000Y-150093000I0J-200000D01*
G01*
X116669000Y-150643000D01*
G75*
G02*
X116469000Y-150843000I-200000J0D01*
G01*
X116069000Y-150843000D01*
G75*
G02*
X115869000Y-150643000I0J200000D01*
G01*
G37*
G36*
G01*
X117519000Y-150643000D02*
X117519000Y-150093000D01*
G75*
G02*
X117719000Y-149893000I200000J0D01*
G01*
X118119000Y-149893000D01*
G75*
G02*
X118319000Y-150093000I0J-200000D01*
G01*
X118319000Y-150643000D01*
G75*
G02*
X118119000Y-150843000I-200000J0D01*
G01*
X117719000Y-150843000D01*
G75*
G02*
X117519000Y-150643000I0J200000D01*
G01*
G37*
%TD*%
%TO.C,R7*%
G36*
G01*
X110765000Y-153434000D02*
X110215000Y-153434000D01*
G75*
G02*
X110015000Y-153234000I0J200000D01*
G01*
X110015000Y-152834000D01*
G75*
G02*
X110215000Y-152634000I200000J0D01*
G01*
X110765000Y-152634000D01*
G75*
G02*
X110965000Y-152834000I0J-200000D01*
G01*
X110965000Y-153234000D01*
G75*
G02*
X110765000Y-153434000I-200000J0D01*
G01*
G37*
G36*
G01*
X110765000Y-151784000D02*
X110215000Y-151784000D01*
G75*
G02*
X110015000Y-151584000I0J200000D01*
G01*
X110015000Y-151184000D01*
G75*
G02*
X110215000Y-150984000I200000J0D01*
G01*
X110765000Y-150984000D01*
G75*
G02*
X110965000Y-151184000I0J-200000D01*
G01*
X110965000Y-151584000D01*
G75*
G02*
X110765000Y-151784000I-200000J0D01*
G01*
G37*
%TD*%
%TO.C,R10*%
G36*
G01*
X110215000Y-147619000D02*
X110765000Y-147619000D01*
G75*
G02*
X110965000Y-147819000I0J-200000D01*
G01*
X110965000Y-148219000D01*
G75*
G02*
X110765000Y-148419000I-200000J0D01*
G01*
X110215000Y-148419000D01*
G75*
G02*
X110015000Y-148219000I0J200000D01*
G01*
X110015000Y-147819000D01*
G75*
G02*
X110215000Y-147619000I200000J0D01*
G01*
G37*
G36*
G01*
X110215000Y-149269000D02*
X110765000Y-149269000D01*
G75*
G02*
X110965000Y-149469000I0J-200000D01*
G01*
X110965000Y-149869000D01*
G75*
G02*
X110765000Y-150069000I-200000J0D01*
G01*
X110215000Y-150069000D01*
G75*
G02*
X110015000Y-149869000I0J200000D01*
G01*
X110015000Y-149469000D01*
G75*
G02*
X110215000Y-149269000I200000J0D01*
G01*
G37*
%TD*%
%TO.C,R11*%
G36*
G01*
X143489000Y-137045601D02*
X144039000Y-137045601D01*
G75*
G02*
X144239000Y-137245601I0J-200000D01*
G01*
X144239000Y-137645601D01*
G75*
G02*
X144039000Y-137845601I-200000J0D01*
G01*
X143489000Y-137845601D01*
G75*
G02*
X143289000Y-137645601I0J200000D01*
G01*
X143289000Y-137245601D01*
G75*
G02*
X143489000Y-137045601I200000J0D01*
G01*
G37*
G36*
G01*
X143489000Y-135395601D02*
X144039000Y-135395601D01*
G75*
G02*
X144239000Y-135595601I0J-200000D01*
G01*
X144239000Y-135995601D01*
G75*
G02*
X144039000Y-136195601I-200000J0D01*
G01*
X143489000Y-136195601D01*
G75*
G02*
X143289000Y-135995601I0J200000D01*
G01*
X143289000Y-135595601D01*
G75*
G02*
X143489000Y-135395601I200000J0D01*
G01*
G37*
%TD*%
%TO.C,R12*%
G36*
G01*
X131339000Y-151975000D02*
X130789000Y-151975000D01*
G75*
G02*
X130589000Y-151775000I0J200000D01*
G01*
X130589000Y-151375000D01*
G75*
G02*
X130789000Y-151175000I200000J0D01*
G01*
X131339000Y-151175000D01*
G75*
G02*
X131539000Y-151375000I0J-200000D01*
G01*
X131539000Y-151775000D01*
G75*
G02*
X131339000Y-151975000I-200000J0D01*
G01*
G37*
G36*
G01*
X131339000Y-153625000D02*
X130789000Y-153625000D01*
G75*
G02*
X130589000Y-153425000I0J200000D01*
G01*
X130589000Y-153025000D01*
G75*
G02*
X130789000Y-152825000I200000J0D01*
G01*
X131339000Y-152825000D01*
G75*
G02*
X131539000Y-153025000I0J-200000D01*
G01*
X131539000Y-153425000D01*
G75*
G02*
X131339000Y-153625000I-200000J0D01*
G01*
G37*
%TD*%
%TO.C,R13*%
G36*
G01*
X159787000Y-147021000D02*
X159237000Y-147021000D01*
G75*
G02*
X159037000Y-146821000I0J200000D01*
G01*
X159037000Y-146421000D01*
G75*
G02*
X159237000Y-146221000I200000J0D01*
G01*
X159787000Y-146221000D01*
G75*
G02*
X159987000Y-146421000I0J-200000D01*
G01*
X159987000Y-146821000D01*
G75*
G02*
X159787000Y-147021000I-200000J0D01*
G01*
G37*
G36*
G01*
X159787000Y-145371000D02*
X159237000Y-145371000D01*
G75*
G02*
X159037000Y-145171000I0J200000D01*
G01*
X159037000Y-144771000D01*
G75*
G02*
X159237000Y-144571000I200000J0D01*
G01*
X159787000Y-144571000D01*
G75*
G02*
X159987000Y-144771000I0J-200000D01*
G01*
X159987000Y-145171000D01*
G75*
G02*
X159787000Y-145371000I-200000J0D01*
G01*
G37*
%TD*%
%TO.C,R14*%
G36*
G01*
X135911000Y-153625000D02*
X135361000Y-153625000D01*
G75*
G02*
X135161000Y-153425000I0J200000D01*
G01*
X135161000Y-153025000D01*
G75*
G02*
X135361000Y-152825000I200000J0D01*
G01*
X135911000Y-152825000D01*
G75*
G02*
X136111000Y-153025000I0J-200000D01*
G01*
X136111000Y-153425000D01*
G75*
G02*
X135911000Y-153625000I-200000J0D01*
G01*
G37*
G36*
G01*
X135911000Y-151975000D02*
X135361000Y-151975000D01*
G75*
G02*
X135161000Y-151775000I0J200000D01*
G01*
X135161000Y-151375000D01*
G75*
G02*
X135361000Y-151175000I200000J0D01*
G01*
X135911000Y-151175000D01*
G75*
G02*
X136111000Y-151375000I0J-200000D01*
G01*
X136111000Y-151775000D01*
G75*
G02*
X135911000Y-151975000I-200000J0D01*
G01*
G37*
%TD*%
%TO.C,R15*%
G36*
G01*
X127679000Y-145055000D02*
X127679000Y-144505000D01*
G75*
G02*
X127879000Y-144305000I200000J0D01*
G01*
X128279000Y-144305000D01*
G75*
G02*
X128479000Y-144505000I0J-200000D01*
G01*
X128479000Y-145055000D01*
G75*
G02*
X128279000Y-145255000I-200000J0D01*
G01*
X127879000Y-145255000D01*
G75*
G02*
X127679000Y-145055000I0J200000D01*
G01*
G37*
G36*
G01*
X126029000Y-145055000D02*
X126029000Y-144505000D01*
G75*
G02*
X126229000Y-144305000I200000J0D01*
G01*
X126629000Y-144305000D01*
G75*
G02*
X126829000Y-144505000I0J-200000D01*
G01*
X126829000Y-145055000D01*
G75*
G02*
X126629000Y-145255000I-200000J0D01*
G01*
X126229000Y-145255000D01*
G75*
G02*
X126029000Y-145055000I0J200000D01*
G01*
G37*
%TD*%
%TO.C,R16*%
G36*
G01*
X127679000Y-149627000D02*
X127679000Y-149077000D01*
G75*
G02*
X127879000Y-148877000I200000J0D01*
G01*
X128279000Y-148877000D01*
G75*
G02*
X128479000Y-149077000I0J-200000D01*
G01*
X128479000Y-149627000D01*
G75*
G02*
X128279000Y-149827000I-200000J0D01*
G01*
X127879000Y-149827000D01*
G75*
G02*
X127679000Y-149627000I0J200000D01*
G01*
G37*
G36*
G01*
X126029000Y-149627000D02*
X126029000Y-149077000D01*
G75*
G02*
X126229000Y-148877000I200000J0D01*
G01*
X126629000Y-148877000D01*
G75*
G02*
X126829000Y-149077000I0J-200000D01*
G01*
X126829000Y-149627000D01*
G75*
G02*
X126629000Y-149827000I-200000J0D01*
G01*
X126229000Y-149827000D01*
G75*
G02*
X126029000Y-149627000I0J200000D01*
G01*
G37*
%TD*%
%TO.C,R17*%
G36*
G01*
X121899000Y-151238000D02*
X122449000Y-151238000D01*
G75*
G02*
X122649000Y-151438000I0J-200000D01*
G01*
X122649000Y-151838000D01*
G75*
G02*
X122449000Y-152038000I-200000J0D01*
G01*
X121899000Y-152038000D01*
G75*
G02*
X121699000Y-151838000I0J200000D01*
G01*
X121699000Y-151438000D01*
G75*
G02*
X121899000Y-151238000I200000J0D01*
G01*
G37*
G36*
G01*
X121899000Y-149588000D02*
X122449000Y-149588000D01*
G75*
G02*
X122649000Y-149788000I0J-200000D01*
G01*
X122649000Y-150188000D01*
G75*
G02*
X122449000Y-150388000I-200000J0D01*
G01*
X121899000Y-150388000D01*
G75*
G02*
X121699000Y-150188000I0J200000D01*
G01*
X121699000Y-149788000D01*
G75*
G02*
X121899000Y-149588000I200000J0D01*
G01*
G37*
%TD*%
%TO.C,R18*%
G36*
G01*
X142007000Y-147720000D02*
X141457000Y-147720000D01*
G75*
G02*
X141257000Y-147520000I0J200000D01*
G01*
X141257000Y-147120000D01*
G75*
G02*
X141457000Y-146920000I200000J0D01*
G01*
X142007000Y-146920000D01*
G75*
G02*
X142207000Y-147120000I0J-200000D01*
G01*
X142207000Y-147520000D01*
G75*
G02*
X142007000Y-147720000I-200000J0D01*
G01*
G37*
G36*
G01*
X142007000Y-149370000D02*
X141457000Y-149370000D01*
G75*
G02*
X141257000Y-149170000I0J200000D01*
G01*
X141257000Y-148770000D01*
G75*
G02*
X141457000Y-148570000I200000J0D01*
G01*
X142007000Y-148570000D01*
G75*
G02*
X142207000Y-148770000I0J-200000D01*
G01*
X142207000Y-149170000D01*
G75*
G02*
X142007000Y-149370000I-200000J0D01*
G01*
G37*
%TD*%
%TO.C,R19*%
G36*
G01*
X103399000Y-136735000D02*
X102849000Y-136735000D01*
G75*
G02*
X102649000Y-136535000I0J200000D01*
G01*
X102649000Y-136135000D01*
G75*
G02*
X102849000Y-135935000I200000J0D01*
G01*
X103399000Y-135935000D01*
G75*
G02*
X103599000Y-136135000I0J-200000D01*
G01*
X103599000Y-136535000D01*
G75*
G02*
X103399000Y-136735000I-200000J0D01*
G01*
G37*
G36*
G01*
X103399000Y-138385000D02*
X102849000Y-138385000D01*
G75*
G02*
X102649000Y-138185000I0J200000D01*
G01*
X102649000Y-137785000D01*
G75*
G02*
X102849000Y-137585000I200000J0D01*
G01*
X103399000Y-137585000D01*
G75*
G02*
X103599000Y-137785000I0J-200000D01*
G01*
X103599000Y-138185000D01*
G75*
G02*
X103399000Y-138385000I-200000J0D01*
G01*
G37*
%TD*%
%TO.C,R20*%
G36*
G01*
X168931000Y-142766000D02*
X168381000Y-142766000D01*
G75*
G02*
X168181000Y-142566000I0J200000D01*
G01*
X168181000Y-142166000D01*
G75*
G02*
X168381000Y-141966000I200000J0D01*
G01*
X168931000Y-141966000D01*
G75*
G02*
X169131000Y-142166000I0J-200000D01*
G01*
X169131000Y-142566000D01*
G75*
G02*
X168931000Y-142766000I-200000J0D01*
G01*
G37*
G36*
G01*
X168931000Y-141116000D02*
X168381000Y-141116000D01*
G75*
G02*
X168181000Y-140916000I0J200000D01*
G01*
X168181000Y-140516000D01*
G75*
G02*
X168381000Y-140316000I200000J0D01*
G01*
X168931000Y-140316000D01*
G75*
G02*
X169131000Y-140516000I0J-200000D01*
G01*
X169131000Y-140916000D01*
G75*
G02*
X168931000Y-141116000I-200000J0D01*
G01*
G37*
%TD*%
%TO.C,R21*%
G36*
G01*
X102849000Y-132570000D02*
X103399000Y-132570000D01*
G75*
G02*
X103599000Y-132770000I0J-200000D01*
G01*
X103599000Y-133170000D01*
G75*
G02*
X103399000Y-133370000I-200000J0D01*
G01*
X102849000Y-133370000D01*
G75*
G02*
X102649000Y-133170000I0J200000D01*
G01*
X102649000Y-132770000D01*
G75*
G02*
X102849000Y-132570000I200000J0D01*
G01*
G37*
G36*
G01*
X102849000Y-134220000D02*
X103399000Y-134220000D01*
G75*
G02*
X103599000Y-134420000I0J-200000D01*
G01*
X103599000Y-134820000D01*
G75*
G02*
X103399000Y-135020000I-200000J0D01*
G01*
X102849000Y-135020000D01*
G75*
G02*
X102649000Y-134820000I0J200000D01*
G01*
X102649000Y-134420000D01*
G75*
G02*
X102849000Y-134220000I200000J0D01*
G01*
G37*
%TD*%
%TO.C,R22*%
G36*
G01*
X105239000Y-136377000D02*
X105239000Y-136927000D01*
G75*
G02*
X105039000Y-137127000I-200000J0D01*
G01*
X104639000Y-137127000D01*
G75*
G02*
X104439000Y-136927000I0J200000D01*
G01*
X104439000Y-136377000D01*
G75*
G02*
X104639000Y-136177000I200000J0D01*
G01*
X105039000Y-136177000D01*
G75*
G02*
X105239000Y-136377000I0J-200000D01*
G01*
G37*
G36*
G01*
X106889000Y-136377000D02*
X106889000Y-136927000D01*
G75*
G02*
X106689000Y-137127000I-200000J0D01*
G01*
X106289000Y-137127000D01*
G75*
G02*
X106089000Y-136927000I0J200000D01*
G01*
X106089000Y-136377000D01*
G75*
G02*
X106289000Y-136177000I200000J0D01*
G01*
X106689000Y-136177000D01*
G75*
G02*
X106889000Y-136377000I0J-200000D01*
G01*
G37*
%TD*%
%TO.C,R23*%
G36*
G01*
X106889000Y-134345000D02*
X106889000Y-134895000D01*
G75*
G02*
X106689000Y-135095000I-200000J0D01*
G01*
X106289000Y-135095000D01*
G75*
G02*
X106089000Y-134895000I0J200000D01*
G01*
X106089000Y-134345000D01*
G75*
G02*
X106289000Y-134145000I200000J0D01*
G01*
X106689000Y-134145000D01*
G75*
G02*
X106889000Y-134345000I0J-200000D01*
G01*
G37*
G36*
G01*
X105239000Y-134345000D02*
X105239000Y-134895000D01*
G75*
G02*
X105039000Y-135095000I-200000J0D01*
G01*
X104639000Y-135095000D01*
G75*
G02*
X104439000Y-134895000I0J200000D01*
G01*
X104439000Y-134345000D01*
G75*
G02*
X104639000Y-134145000I200000J0D01*
G01*
X105039000Y-134145000D01*
G75*
G02*
X105239000Y-134345000I0J-200000D01*
G01*
G37*
%TD*%
%TO.C,R24*%
G36*
G01*
X105581000Y-131593000D02*
X105581000Y-131043000D01*
G75*
G02*
X105781000Y-130843000I200000J0D01*
G01*
X106181000Y-130843000D01*
G75*
G02*
X106381000Y-131043000I0J-200000D01*
G01*
X106381000Y-131593000D01*
G75*
G02*
X106181000Y-131793000I-200000J0D01*
G01*
X105781000Y-131793000D01*
G75*
G02*
X105581000Y-131593000I0J200000D01*
G01*
G37*
G36*
G01*
X103931000Y-131593000D02*
X103931000Y-131043000D01*
G75*
G02*
X104131000Y-130843000I200000J0D01*
G01*
X104531000Y-130843000D01*
G75*
G02*
X104731000Y-131043000I0J-200000D01*
G01*
X104731000Y-131593000D01*
G75*
G02*
X104531000Y-131793000I-200000J0D01*
G01*
X104131000Y-131793000D01*
G75*
G02*
X103931000Y-131593000I0J200000D01*
G01*
G37*
%TD*%
%TO.C,R25*%
G36*
G01*
X168931000Y-139592000D02*
X168381000Y-139592000D01*
G75*
G02*
X168181000Y-139392000I0J200000D01*
G01*
X168181000Y-138992000D01*
G75*
G02*
X168381000Y-138792000I200000J0D01*
G01*
X168931000Y-138792000D01*
G75*
G02*
X169131000Y-138992000I0J-200000D01*
G01*
X169131000Y-139392000D01*
G75*
G02*
X168931000Y-139592000I-200000J0D01*
G01*
G37*
G36*
G01*
X168931000Y-137942000D02*
X168381000Y-137942000D01*
G75*
G02*
X168181000Y-137742000I0J200000D01*
G01*
X168181000Y-137342000D01*
G75*
G02*
X168381000Y-137142000I200000J0D01*
G01*
X168931000Y-137142000D01*
G75*
G02*
X169131000Y-137342000I0J-200000D01*
G01*
X169131000Y-137742000D01*
G75*
G02*
X168931000Y-137942000I-200000J0D01*
G01*
G37*
%TD*%
%TO.C,R26*%
G36*
G01*
X107421000Y-129331000D02*
X107971000Y-129331000D01*
G75*
G02*
X108171000Y-129531000I0J-200000D01*
G01*
X108171000Y-129931000D01*
G75*
G02*
X107971000Y-130131000I-200000J0D01*
G01*
X107421000Y-130131000D01*
G75*
G02*
X107221000Y-129931000I0J200000D01*
G01*
X107221000Y-129531000D01*
G75*
G02*
X107421000Y-129331000I200000J0D01*
G01*
G37*
G36*
G01*
X107421000Y-130981000D02*
X107971000Y-130981000D01*
G75*
G02*
X108171000Y-131181000I0J-200000D01*
G01*
X108171000Y-131581000D01*
G75*
G02*
X107971000Y-131781000I-200000J0D01*
G01*
X107421000Y-131781000D01*
G75*
G02*
X107221000Y-131581000I0J200000D01*
G01*
X107221000Y-131181000D01*
G75*
G02*
X107421000Y-130981000I200000J0D01*
G01*
G37*
%TD*%
%TO.C,R28*%
G36*
G01*
X186415000Y-138983000D02*
X186965000Y-138983000D01*
G75*
G02*
X187165000Y-139183000I0J-200000D01*
G01*
X187165000Y-139583000D01*
G75*
G02*
X186965000Y-139783000I-200000J0D01*
G01*
X186415000Y-139783000D01*
G75*
G02*
X186215000Y-139583000I0J200000D01*
G01*
X186215000Y-139183000D01*
G75*
G02*
X186415000Y-138983000I200000J0D01*
G01*
G37*
G36*
G01*
X186415000Y-140633000D02*
X186965000Y-140633000D01*
G75*
G02*
X187165000Y-140833000I0J-200000D01*
G01*
X187165000Y-141233000D01*
G75*
G02*
X186965000Y-141433000I-200000J0D01*
G01*
X186415000Y-141433000D01*
G75*
G02*
X186215000Y-141233000I0J200000D01*
G01*
X186215000Y-140833000D01*
G75*
G02*
X186415000Y-140633000I200000J0D01*
G01*
G37*
%TD*%
%TO.C,R29*%
G36*
G01*
X186415000Y-142539000D02*
X186965000Y-142539000D01*
G75*
G02*
X187165000Y-142739000I0J-200000D01*
G01*
X187165000Y-143139000D01*
G75*
G02*
X186965000Y-143339000I-200000J0D01*
G01*
X186415000Y-143339000D01*
G75*
G02*
X186215000Y-143139000I0J200000D01*
G01*
X186215000Y-142739000D01*
G75*
G02*
X186415000Y-142539000I200000J0D01*
G01*
G37*
G36*
G01*
X186415000Y-144189000D02*
X186965000Y-144189000D01*
G75*
G02*
X187165000Y-144389000I0J-200000D01*
G01*
X187165000Y-144789000D01*
G75*
G02*
X186965000Y-144989000I-200000J0D01*
G01*
X186415000Y-144989000D01*
G75*
G02*
X186215000Y-144789000I0J200000D01*
G01*
X186215000Y-144389000D01*
G75*
G02*
X186415000Y-144189000I200000J0D01*
G01*
G37*
%TD*%
D26*
%TO.C,R30*%
X178220000Y-100584000D03*
X167220000Y-100584000D03*
%TD*%
%TO.C,R31*%
X135216000Y-100584000D03*
X146216000Y-100584000D03*
%TD*%
%TO.C,R32*%
X112180000Y-50800000D03*
X101180000Y-50800000D03*
%TD*%
%TO.C,R33*%
X112180000Y-100584000D03*
X101180000Y-100584000D03*
%TD*%
%TO.C,R34*%
X145708000Y-50800000D03*
X134708000Y-50800000D03*
%TD*%
%TO.C,R35*%
X166712000Y-50800000D03*
X177712000Y-50800000D03*
%TD*%
D27*
%TO.C,RESET*%
X146304000Y-137492000D03*
X146304000Y-140892000D03*
%TD*%
%TO.C,USER*%
X124714000Y-155116000D03*
X124714000Y-151716000D03*
%TD*%
D28*
%TO.C,TP1*%
X129032000Y-152908000D03*
%TD*%
%TO.C,TP2*%
X137922000Y-152908000D03*
%TD*%
%TO.C,TP3*%
X140462000Y-152908000D03*
%TD*%
%TO.C,TP4*%
X143002000Y-152908000D03*
%TD*%
%TO.C,U1*%
G36*
G01*
X132261000Y-143350500D02*
X132261000Y-143225500D01*
G75*
G02*
X132323500Y-143163000I62500J0D01*
G01*
X133273500Y-143163000D01*
G75*
G02*
X133336000Y-143225500I0J-62500D01*
G01*
X133336000Y-143350500D01*
G75*
G02*
X133273500Y-143413000I-62500J0D01*
G01*
X132323500Y-143413000D01*
G75*
G02*
X132261000Y-143350500I0J62500D01*
G01*
G37*
G36*
G01*
X132261000Y-143850500D02*
X132261000Y-143725500D01*
G75*
G02*
X132323500Y-143663000I62500J0D01*
G01*
X133273500Y-143663000D01*
G75*
G02*
X133336000Y-143725500I0J-62500D01*
G01*
X133336000Y-143850500D01*
G75*
G02*
X133273500Y-143913000I-62500J0D01*
G01*
X132323500Y-143913000D01*
G75*
G02*
X132261000Y-143850500I0J62500D01*
G01*
G37*
G36*
G01*
X132261000Y-144350500D02*
X132261000Y-144225500D01*
G75*
G02*
X132323500Y-144163000I62500J0D01*
G01*
X133273500Y-144163000D01*
G75*
G02*
X133336000Y-144225500I0J-62500D01*
G01*
X133336000Y-144350500D01*
G75*
G02*
X133273500Y-144413000I-62500J0D01*
G01*
X132323500Y-144413000D01*
G75*
G02*
X132261000Y-144350500I0J62500D01*
G01*
G37*
G36*
G01*
X132261000Y-144850500D02*
X132261000Y-144725500D01*
G75*
G02*
X132323500Y-144663000I62500J0D01*
G01*
X133273500Y-144663000D01*
G75*
G02*
X133336000Y-144725500I0J-62500D01*
G01*
X133336000Y-144850500D01*
G75*
G02*
X133273500Y-144913000I-62500J0D01*
G01*
X132323500Y-144913000D01*
G75*
G02*
X132261000Y-144850500I0J62500D01*
G01*
G37*
G36*
G01*
X132261000Y-145350500D02*
X132261000Y-145225500D01*
G75*
G02*
X132323500Y-145163000I62500J0D01*
G01*
X133273500Y-145163000D01*
G75*
G02*
X133336000Y-145225500I0J-62500D01*
G01*
X133336000Y-145350500D01*
G75*
G02*
X133273500Y-145413000I-62500J0D01*
G01*
X132323500Y-145413000D01*
G75*
G02*
X132261000Y-145350500I0J62500D01*
G01*
G37*
G36*
G01*
X132261000Y-145850500D02*
X132261000Y-145725500D01*
G75*
G02*
X132323500Y-145663000I62500J0D01*
G01*
X133273500Y-145663000D01*
G75*
G02*
X133336000Y-145725500I0J-62500D01*
G01*
X133336000Y-145850500D01*
G75*
G02*
X133273500Y-145913000I-62500J0D01*
G01*
X132323500Y-145913000D01*
G75*
G02*
X132261000Y-145850500I0J62500D01*
G01*
G37*
G36*
G01*
X132261000Y-146350500D02*
X132261000Y-146225500D01*
G75*
G02*
X132323500Y-146163000I62500J0D01*
G01*
X133273500Y-146163000D01*
G75*
G02*
X133336000Y-146225500I0J-62500D01*
G01*
X133336000Y-146350500D01*
G75*
G02*
X133273500Y-146413000I-62500J0D01*
G01*
X132323500Y-146413000D01*
G75*
G02*
X132261000Y-146350500I0J62500D01*
G01*
G37*
G36*
G01*
X132261000Y-146850500D02*
X132261000Y-146725500D01*
G75*
G02*
X132323500Y-146663000I62500J0D01*
G01*
X133273500Y-146663000D01*
G75*
G02*
X133336000Y-146725500I0J-62500D01*
G01*
X133336000Y-146850500D01*
G75*
G02*
X133273500Y-146913000I-62500J0D01*
G01*
X132323500Y-146913000D01*
G75*
G02*
X132261000Y-146850500I0J62500D01*
G01*
G37*
G36*
G01*
X132261000Y-147350500D02*
X132261000Y-147225500D01*
G75*
G02*
X132323500Y-147163000I62500J0D01*
G01*
X133273500Y-147163000D01*
G75*
G02*
X133336000Y-147225500I0J-62500D01*
G01*
X133336000Y-147350500D01*
G75*
G02*
X133273500Y-147413000I-62500J0D01*
G01*
X132323500Y-147413000D01*
G75*
G02*
X132261000Y-147350500I0J62500D01*
G01*
G37*
G36*
G01*
X133511000Y-148600500D02*
X133511000Y-147650500D01*
G75*
G02*
X133573500Y-147588000I62500J0D01*
G01*
X133698500Y-147588000D01*
G75*
G02*
X133761000Y-147650500I0J-62500D01*
G01*
X133761000Y-148600500D01*
G75*
G02*
X133698500Y-148663000I-62500J0D01*
G01*
X133573500Y-148663000D01*
G75*
G02*
X133511000Y-148600500I0J62500D01*
G01*
G37*
G36*
G01*
X134011000Y-148600500D02*
X134011000Y-147650500D01*
G75*
G02*
X134073500Y-147588000I62500J0D01*
G01*
X134198500Y-147588000D01*
G75*
G02*
X134261000Y-147650500I0J-62500D01*
G01*
X134261000Y-148600500D01*
G75*
G02*
X134198500Y-148663000I-62500J0D01*
G01*
X134073500Y-148663000D01*
G75*
G02*
X134011000Y-148600500I0J62500D01*
G01*
G37*
G36*
G01*
X134511000Y-148600500D02*
X134511000Y-147650500D01*
G75*
G02*
X134573500Y-147588000I62500J0D01*
G01*
X134698500Y-147588000D01*
G75*
G02*
X134761000Y-147650500I0J-62500D01*
G01*
X134761000Y-148600500D01*
G75*
G02*
X134698500Y-148663000I-62500J0D01*
G01*
X134573500Y-148663000D01*
G75*
G02*
X134511000Y-148600500I0J62500D01*
G01*
G37*
G36*
G01*
X135011000Y-148600500D02*
X135011000Y-147650500D01*
G75*
G02*
X135073500Y-147588000I62500J0D01*
G01*
X135198500Y-147588000D01*
G75*
G02*
X135261000Y-147650500I0J-62500D01*
G01*
X135261000Y-148600500D01*
G75*
G02*
X135198500Y-148663000I-62500J0D01*
G01*
X135073500Y-148663000D01*
G75*
G02*
X135011000Y-148600500I0J62500D01*
G01*
G37*
G36*
G01*
X135511000Y-148600500D02*
X135511000Y-147650500D01*
G75*
G02*
X135573500Y-147588000I62500J0D01*
G01*
X135698500Y-147588000D01*
G75*
G02*
X135761000Y-147650500I0J-62500D01*
G01*
X135761000Y-148600500D01*
G75*
G02*
X135698500Y-148663000I-62500J0D01*
G01*
X135573500Y-148663000D01*
G75*
G02*
X135511000Y-148600500I0J62500D01*
G01*
G37*
G36*
G01*
X136011000Y-148600500D02*
X136011000Y-147650500D01*
G75*
G02*
X136073500Y-147588000I62500J0D01*
G01*
X136198500Y-147588000D01*
G75*
G02*
X136261000Y-147650500I0J-62500D01*
G01*
X136261000Y-148600500D01*
G75*
G02*
X136198500Y-148663000I-62500J0D01*
G01*
X136073500Y-148663000D01*
G75*
G02*
X136011000Y-148600500I0J62500D01*
G01*
G37*
G36*
G01*
X136511000Y-148600500D02*
X136511000Y-147650500D01*
G75*
G02*
X136573500Y-147588000I62500J0D01*
G01*
X136698500Y-147588000D01*
G75*
G02*
X136761000Y-147650500I0J-62500D01*
G01*
X136761000Y-148600500D01*
G75*
G02*
X136698500Y-148663000I-62500J0D01*
G01*
X136573500Y-148663000D01*
G75*
G02*
X136511000Y-148600500I0J62500D01*
G01*
G37*
G36*
G01*
X137011000Y-148600500D02*
X137011000Y-147650500D01*
G75*
G02*
X137073500Y-147588000I62500J0D01*
G01*
X137198500Y-147588000D01*
G75*
G02*
X137261000Y-147650500I0J-62500D01*
G01*
X137261000Y-148600500D01*
G75*
G02*
X137198500Y-148663000I-62500J0D01*
G01*
X137073500Y-148663000D01*
G75*
G02*
X137011000Y-148600500I0J62500D01*
G01*
G37*
G36*
G01*
X137511000Y-148600500D02*
X137511000Y-147650500D01*
G75*
G02*
X137573500Y-147588000I62500J0D01*
G01*
X137698500Y-147588000D01*
G75*
G02*
X137761000Y-147650500I0J-62500D01*
G01*
X137761000Y-148600500D01*
G75*
G02*
X137698500Y-148663000I-62500J0D01*
G01*
X137573500Y-148663000D01*
G75*
G02*
X137511000Y-148600500I0J62500D01*
G01*
G37*
G36*
G01*
X137936000Y-147350500D02*
X137936000Y-147225500D01*
G75*
G02*
X137998500Y-147163000I62500J0D01*
G01*
X138948500Y-147163000D01*
G75*
G02*
X139011000Y-147225500I0J-62500D01*
G01*
X139011000Y-147350500D01*
G75*
G02*
X138948500Y-147413000I-62500J0D01*
G01*
X137998500Y-147413000D01*
G75*
G02*
X137936000Y-147350500I0J62500D01*
G01*
G37*
G36*
G01*
X137936000Y-146850500D02*
X137936000Y-146725500D01*
G75*
G02*
X137998500Y-146663000I62500J0D01*
G01*
X138948500Y-146663000D01*
G75*
G02*
X139011000Y-146725500I0J-62500D01*
G01*
X139011000Y-146850500D01*
G75*
G02*
X138948500Y-146913000I-62500J0D01*
G01*
X137998500Y-146913000D01*
G75*
G02*
X137936000Y-146850500I0J62500D01*
G01*
G37*
G36*
G01*
X137936000Y-146350500D02*
X137936000Y-146225500D01*
G75*
G02*
X137998500Y-146163000I62500J0D01*
G01*
X138948500Y-146163000D01*
G75*
G02*
X139011000Y-146225500I0J-62500D01*
G01*
X139011000Y-146350500D01*
G75*
G02*
X138948500Y-146413000I-62500J0D01*
G01*
X137998500Y-146413000D01*
G75*
G02*
X137936000Y-146350500I0J62500D01*
G01*
G37*
G36*
G01*
X137936000Y-145850500D02*
X137936000Y-145725500D01*
G75*
G02*
X137998500Y-145663000I62500J0D01*
G01*
X138948500Y-145663000D01*
G75*
G02*
X139011000Y-145725500I0J-62500D01*
G01*
X139011000Y-145850500D01*
G75*
G02*
X138948500Y-145913000I-62500J0D01*
G01*
X137998500Y-145913000D01*
G75*
G02*
X137936000Y-145850500I0J62500D01*
G01*
G37*
G36*
G01*
X137936000Y-145350500D02*
X137936000Y-145225500D01*
G75*
G02*
X137998500Y-145163000I62500J0D01*
G01*
X138948500Y-145163000D01*
G75*
G02*
X139011000Y-145225500I0J-62500D01*
G01*
X139011000Y-145350500D01*
G75*
G02*
X138948500Y-145413000I-62500J0D01*
G01*
X137998500Y-145413000D01*
G75*
G02*
X137936000Y-145350500I0J62500D01*
G01*
G37*
G36*
G01*
X137936000Y-144850500D02*
X137936000Y-144725500D01*
G75*
G02*
X137998500Y-144663000I62500J0D01*
G01*
X138948500Y-144663000D01*
G75*
G02*
X139011000Y-144725500I0J-62500D01*
G01*
X139011000Y-144850500D01*
G75*
G02*
X138948500Y-144913000I-62500J0D01*
G01*
X137998500Y-144913000D01*
G75*
G02*
X137936000Y-144850500I0J62500D01*
G01*
G37*
G36*
G01*
X137936000Y-144350500D02*
X137936000Y-144225500D01*
G75*
G02*
X137998500Y-144163000I62500J0D01*
G01*
X138948500Y-144163000D01*
G75*
G02*
X139011000Y-144225500I0J-62500D01*
G01*
X139011000Y-144350500D01*
G75*
G02*
X138948500Y-144413000I-62500J0D01*
G01*
X137998500Y-144413000D01*
G75*
G02*
X137936000Y-144350500I0J62500D01*
G01*
G37*
G36*
G01*
X137936000Y-143850500D02*
X137936000Y-143725500D01*
G75*
G02*
X137998500Y-143663000I62500J0D01*
G01*
X138948500Y-143663000D01*
G75*
G02*
X139011000Y-143725500I0J-62500D01*
G01*
X139011000Y-143850500D01*
G75*
G02*
X138948500Y-143913000I-62500J0D01*
G01*
X137998500Y-143913000D01*
G75*
G02*
X137936000Y-143850500I0J62500D01*
G01*
G37*
G36*
G01*
X137936000Y-143350500D02*
X137936000Y-143225500D01*
G75*
G02*
X137998500Y-143163000I62500J0D01*
G01*
X138948500Y-143163000D01*
G75*
G02*
X139011000Y-143225500I0J-62500D01*
G01*
X139011000Y-143350500D01*
G75*
G02*
X138948500Y-143413000I-62500J0D01*
G01*
X137998500Y-143413000D01*
G75*
G02*
X137936000Y-143350500I0J62500D01*
G01*
G37*
G36*
G01*
X137511000Y-142925500D02*
X137511000Y-141975500D01*
G75*
G02*
X137573500Y-141913000I62500J0D01*
G01*
X137698500Y-141913000D01*
G75*
G02*
X137761000Y-141975500I0J-62500D01*
G01*
X137761000Y-142925500D01*
G75*
G02*
X137698500Y-142988000I-62500J0D01*
G01*
X137573500Y-142988000D01*
G75*
G02*
X137511000Y-142925500I0J62500D01*
G01*
G37*
G36*
G01*
X137011000Y-142925500D02*
X137011000Y-141975500D01*
G75*
G02*
X137073500Y-141913000I62500J0D01*
G01*
X137198500Y-141913000D01*
G75*
G02*
X137261000Y-141975500I0J-62500D01*
G01*
X137261000Y-142925500D01*
G75*
G02*
X137198500Y-142988000I-62500J0D01*
G01*
X137073500Y-142988000D01*
G75*
G02*
X137011000Y-142925500I0J62500D01*
G01*
G37*
G36*
G01*
X136511000Y-142925500D02*
X136511000Y-141975500D01*
G75*
G02*
X136573500Y-141913000I62500J0D01*
G01*
X136698500Y-141913000D01*
G75*
G02*
X136761000Y-141975500I0J-62500D01*
G01*
X136761000Y-142925500D01*
G75*
G02*
X136698500Y-142988000I-62500J0D01*
G01*
X136573500Y-142988000D01*
G75*
G02*
X136511000Y-142925500I0J62500D01*
G01*
G37*
G36*
G01*
X136011000Y-142925500D02*
X136011000Y-141975500D01*
G75*
G02*
X136073500Y-141913000I62500J0D01*
G01*
X136198500Y-141913000D01*
G75*
G02*
X136261000Y-141975500I0J-62500D01*
G01*
X136261000Y-142925500D01*
G75*
G02*
X136198500Y-142988000I-62500J0D01*
G01*
X136073500Y-142988000D01*
G75*
G02*
X136011000Y-142925500I0J62500D01*
G01*
G37*
G36*
G01*
X135511000Y-142925500D02*
X135511000Y-141975500D01*
G75*
G02*
X135573500Y-141913000I62500J0D01*
G01*
X135698500Y-141913000D01*
G75*
G02*
X135761000Y-141975500I0J-62500D01*
G01*
X135761000Y-142925500D01*
G75*
G02*
X135698500Y-142988000I-62500J0D01*
G01*
X135573500Y-142988000D01*
G75*
G02*
X135511000Y-142925500I0J62500D01*
G01*
G37*
G36*
G01*
X135011000Y-142925500D02*
X135011000Y-141975500D01*
G75*
G02*
X135073500Y-141913000I62500J0D01*
G01*
X135198500Y-141913000D01*
G75*
G02*
X135261000Y-141975500I0J-62500D01*
G01*
X135261000Y-142925500D01*
G75*
G02*
X135198500Y-142988000I-62500J0D01*
G01*
X135073500Y-142988000D01*
G75*
G02*
X135011000Y-142925500I0J62500D01*
G01*
G37*
G36*
G01*
X134511000Y-142925500D02*
X134511000Y-141975500D01*
G75*
G02*
X134573500Y-141913000I62500J0D01*
G01*
X134698500Y-141913000D01*
G75*
G02*
X134761000Y-141975500I0J-62500D01*
G01*
X134761000Y-142925500D01*
G75*
G02*
X134698500Y-142988000I-62500J0D01*
G01*
X134573500Y-142988000D01*
G75*
G02*
X134511000Y-142925500I0J62500D01*
G01*
G37*
G36*
G01*
X134011000Y-142925500D02*
X134011000Y-141975500D01*
G75*
G02*
X134073500Y-141913000I62500J0D01*
G01*
X134198500Y-141913000D01*
G75*
G02*
X134261000Y-141975500I0J-62500D01*
G01*
X134261000Y-142925500D01*
G75*
G02*
X134198500Y-142988000I-62500J0D01*
G01*
X134073500Y-142988000D01*
G75*
G02*
X134011000Y-142925500I0J62500D01*
G01*
G37*
G36*
G01*
X133511000Y-142925500D02*
X133511000Y-141975500D01*
G75*
G02*
X133573500Y-141913000I62500J0D01*
G01*
X133698500Y-141913000D01*
G75*
G02*
X133761000Y-141975500I0J-62500D01*
G01*
X133761000Y-142925500D01*
G75*
G02*
X133698500Y-142988000I-62500J0D01*
G01*
X133573500Y-142988000D01*
G75*
G02*
X133511000Y-142925500I0J62500D01*
G01*
G37*
D29*
X135636000Y-145288000D03*
%TD*%
D30*
%TO.C,U2*%
X121386000Y-139741000D03*
X121386000Y-140391000D03*
X121386000Y-141041000D03*
X121386000Y-141691000D03*
X124486000Y-141691000D03*
X124486000Y-141041000D03*
X124486000Y-140391000D03*
X124486000Y-139741000D03*
D31*
X122936000Y-140716000D03*
%TD*%
D32*
%TO.C,U4*%
X114686000Y-155108000D03*
X115636000Y-155108000D03*
X116586000Y-155108000D03*
X116586000Y-152908000D03*
X114686000Y-152908000D03*
%TD*%
%TO.C,U5*%
G36*
G01*
X151236000Y-144041000D02*
X151236000Y-143741000D01*
G75*
G02*
X151386000Y-143591000I150000J0D01*
G01*
X153036000Y-143591000D01*
G75*
G02*
X153186000Y-143741000I0J-150000D01*
G01*
X153186000Y-144041000D01*
G75*
G02*
X153036000Y-144191000I-150000J0D01*
G01*
X151386000Y-144191000D01*
G75*
G02*
X151236000Y-144041000I0J150000D01*
G01*
G37*
G36*
G01*
X151236000Y-145311000D02*
X151236000Y-145011000D01*
G75*
G02*
X151386000Y-144861000I150000J0D01*
G01*
X153036000Y-144861000D01*
G75*
G02*
X153186000Y-145011000I0J-150000D01*
G01*
X153186000Y-145311000D01*
G75*
G02*
X153036000Y-145461000I-150000J0D01*
G01*
X151386000Y-145461000D01*
G75*
G02*
X151236000Y-145311000I0J150000D01*
G01*
G37*
G36*
G01*
X151236000Y-146581000D02*
X151236000Y-146281000D01*
G75*
G02*
X151386000Y-146131000I150000J0D01*
G01*
X153036000Y-146131000D01*
G75*
G02*
X153186000Y-146281000I0J-150000D01*
G01*
X153186000Y-146581000D01*
G75*
G02*
X153036000Y-146731000I-150000J0D01*
G01*
X151386000Y-146731000D01*
G75*
G02*
X151236000Y-146581000I0J150000D01*
G01*
G37*
G36*
G01*
X151236000Y-147851000D02*
X151236000Y-147551000D01*
G75*
G02*
X151386000Y-147401000I150000J0D01*
G01*
X153036000Y-147401000D01*
G75*
G02*
X153186000Y-147551000I0J-150000D01*
G01*
X153186000Y-147851000D01*
G75*
G02*
X153036000Y-148001000I-150000J0D01*
G01*
X151386000Y-148001000D01*
G75*
G02*
X151236000Y-147851000I0J150000D01*
G01*
G37*
G36*
G01*
X156186000Y-147851000D02*
X156186000Y-147551000D01*
G75*
G02*
X156336000Y-147401000I150000J0D01*
G01*
X157986000Y-147401000D01*
G75*
G02*
X158136000Y-147551000I0J-150000D01*
G01*
X158136000Y-147851000D01*
G75*
G02*
X157986000Y-148001000I-150000J0D01*
G01*
X156336000Y-148001000D01*
G75*
G02*
X156186000Y-147851000I0J150000D01*
G01*
G37*
G36*
G01*
X156186000Y-146581000D02*
X156186000Y-146281000D01*
G75*
G02*
X156336000Y-146131000I150000J0D01*
G01*
X157986000Y-146131000D01*
G75*
G02*
X158136000Y-146281000I0J-150000D01*
G01*
X158136000Y-146581000D01*
G75*
G02*
X157986000Y-146731000I-150000J0D01*
G01*
X156336000Y-146731000D01*
G75*
G02*
X156186000Y-146581000I0J150000D01*
G01*
G37*
G36*
G01*
X156186000Y-145311000D02*
X156186000Y-145011000D01*
G75*
G02*
X156336000Y-144861000I150000J0D01*
G01*
X157986000Y-144861000D01*
G75*
G02*
X158136000Y-145011000I0J-150000D01*
G01*
X158136000Y-145311000D01*
G75*
G02*
X157986000Y-145461000I-150000J0D01*
G01*
X156336000Y-145461000D01*
G75*
G02*
X156186000Y-145311000I0J150000D01*
G01*
G37*
G36*
G01*
X156186000Y-144041000D02*
X156186000Y-143741000D01*
G75*
G02*
X156336000Y-143591000I150000J0D01*
G01*
X157986000Y-143591000D01*
G75*
G02*
X158136000Y-143741000I0J-150000D01*
G01*
X158136000Y-144041000D01*
G75*
G02*
X157986000Y-144191000I-150000J0D01*
G01*
X156336000Y-144191000D01*
G75*
G02*
X156186000Y-144041000I0J150000D01*
G01*
G37*
%TD*%
D33*
%TO.C,U6*%
X164508000Y-139512000D03*
X164508000Y-140462000D03*
X164508000Y-141412000D03*
X166708000Y-141412000D03*
X166708000Y-139512000D03*
%TD*%
%TO.C,C21*%
G36*
G01*
X162757400Y-131923600D02*
X162757400Y-131423600D01*
G75*
G02*
X162982400Y-131198600I225000J0D01*
G01*
X163432400Y-131198600D01*
G75*
G02*
X163657400Y-131423600I0J-225000D01*
G01*
X163657400Y-131923600D01*
G75*
G02*
X163432400Y-132148600I-225000J0D01*
G01*
X162982400Y-132148600D01*
G75*
G02*
X162757400Y-131923600I0J225000D01*
G01*
G37*
G36*
G01*
X164307400Y-131923600D02*
X164307400Y-131423600D01*
G75*
G02*
X164532400Y-131198600I225000J0D01*
G01*
X164982400Y-131198600D01*
G75*
G02*
X165207400Y-131423600I0J-225000D01*
G01*
X165207400Y-131923600D01*
G75*
G02*
X164982400Y-132148600I-225000J0D01*
G01*
X164532400Y-132148600D01*
G75*
G02*
X164307400Y-131923600I0J225000D01*
G01*
G37*
%TD*%
%TO.C,C22*%
G36*
G01*
X183205000Y-128926400D02*
X183205000Y-128426400D01*
G75*
G02*
X183430000Y-128201400I225000J0D01*
G01*
X183880000Y-128201400D01*
G75*
G02*
X184105000Y-128426400I0J-225000D01*
G01*
X184105000Y-128926400D01*
G75*
G02*
X183880000Y-129151400I-225000J0D01*
G01*
X183430000Y-129151400D01*
G75*
G02*
X183205000Y-128926400I0J225000D01*
G01*
G37*
G36*
G01*
X181655000Y-128926400D02*
X181655000Y-128426400D01*
G75*
G02*
X181880000Y-128201400I225000J0D01*
G01*
X182330000Y-128201400D01*
G75*
G02*
X182555000Y-128426400I0J-225000D01*
G01*
X182555000Y-128926400D01*
G75*
G02*
X182330000Y-129151400I-225000J0D01*
G01*
X181880000Y-129151400D01*
G75*
G02*
X181655000Y-128926400I0J225000D01*
G01*
G37*
%TD*%
%TO.C,C23*%
G36*
G01*
X185416000Y-141433000D02*
X184916000Y-141433000D01*
G75*
G02*
X184691000Y-141208000I0J225000D01*
G01*
X184691000Y-140758000D01*
G75*
G02*
X184916000Y-140533000I225000J0D01*
G01*
X185416000Y-140533000D01*
G75*
G02*
X185641000Y-140758000I0J-225000D01*
G01*
X185641000Y-141208000D01*
G75*
G02*
X185416000Y-141433000I-225000J0D01*
G01*
G37*
G36*
G01*
X185416000Y-139883000D02*
X184916000Y-139883000D01*
G75*
G02*
X184691000Y-139658000I0J225000D01*
G01*
X184691000Y-139208000D01*
G75*
G02*
X184916000Y-138983000I225000J0D01*
G01*
X185416000Y-138983000D01*
G75*
G02*
X185641000Y-139208000I0J-225000D01*
G01*
X185641000Y-139658000D01*
G75*
G02*
X185416000Y-139883000I-225000J0D01*
G01*
G37*
%TD*%
M02*
