M48
; DRILL file {KiCad (5.1.8)-1} date 01/18/22 09:11:44
; FORMAT={-:-/ absolute / inch / decimal}
; #@! TF.CreationDate,2022-01-18T09:11:44-03:30
; #@! TF.GenerationSoftware,Kicad,Pcbnew,(5.1.8)-1
; #@! TF.FileFunction,Plated,1,4,PTH
FMAT,2
INCH
T1C0.0157
T2C0.0197
T3C0.0276
T4C0.0402
T5C0.1260
%
G90
G05
T1
X3.82Y-5.69
X3.82Y-5.74
X3.82Y-5.79
X3.87Y-5.69
X3.87Y-5.74
X3.87Y-5.79
X3.98Y-5.16
X4.02Y-5.16
X4.06Y-5.16
X4.1197Y-5.4364
X4.226Y-5.38
X4.3107Y-5.3229
X4.35Y-5.73
X4.38Y-6.11
X4.5Y-5.58
X4.55Y-6.15
X4.5896Y-5.2268
X4.6129Y-5.1247
X4.65Y-5.97
X4.6713Y-5.2211
X4.78Y-5.73
X4.78Y-5.77
X4.8Y-6.14
X4.81Y-5.85
X4.82Y-5.73
X4.82Y-5.77
X4.84Y-6.14
X4.86Y-5.73
X4.86Y-5.77
X4.91Y-5.37
X4.91Y-5.41
X4.93Y-5.7
X4.95Y-5.37
X4.95Y-5.41
X4.99Y-5.37
X4.99Y-5.41
X5.0588Y-5.481
X5.11Y-5.66
X5.1396Y-5.7766
X5.16Y-5.7079
X5.16Y-5.66
X5.1821Y-5.8567
X5.22Y-5.46
X5.22Y-6.09
X5.27Y-6.09
X5.29Y-5.46
X5.312Y-5.908
X5.5197Y-5.5897
X5.58Y-5.35
X5.6196Y-5.9056
X5.64Y-5.8
X5.66Y-5.59
X5.7Y-5.59
X5.7087Y-5.3642
X5.72Y-6.05
X5.74Y-5.59
X5.76Y-6.05
X5.8Y-6.05
X5.85Y-5.6
X5.91Y-5.709
X5.91Y-5.77
X6.4Y-5.28
X6.4Y-5.33
X6.4Y-5.38
X6.4003Y-5.4697
X6.52Y-5.11
X6.52Y-5.15
X6.54Y-5.64
X6.58Y-5.64
X6.62Y-5.64
X7.08Y-1.9
X7.08Y-2.0
X7.08Y-2.1
X7.128Y-5.066
X7.14Y-1.9
X7.14Y-2.0
X7.14Y-2.1
X7.2Y-1.9
X7.2Y-2.0
X7.2Y-2.1
X7.229Y-5.597
X7.2501Y-5.6302
X7.29Y-5.597
X7.3Y-5.69
T2
X3.6555Y-1.25
X3.6832Y-1.1832
X3.6832Y-1.3168
X3.75Y-1.1555
X3.75Y-1.3445
X3.8168Y-1.1832
X3.8168Y-1.3168
X3.8445Y-1.25
X3.6055Y-6.0
X3.6332Y-5.9332
X3.6332Y-6.0668
X3.7Y-5.9055
X3.7Y-6.0945
X3.7668Y-5.9332
X3.7668Y-6.0668
X3.7945Y-6.0
X7.1555Y-6.0
X7.1832Y-5.9332
X7.1832Y-6.0668
X7.25Y-5.9055
X7.25Y-6.0945
X7.3168Y-5.9332
X7.3168Y-6.0668
X7.3445Y-6.0
X7.1055Y-1.25
X7.1332Y-1.1832
X7.1332Y-1.3168
X7.2Y-1.1555
X7.2Y-1.3445
X7.2668Y-1.1832
X7.2668Y-1.3168
X7.2945Y-1.25
T3
X5.43Y-5.35
X5.43Y-5.4
X5.43Y-5.45
X5.48Y-5.35
X5.48Y-5.4
X5.48Y-5.45
T4
X4.0207Y-5.8234
X4.1388Y-5.8234
X3.8844Y-5.2357
X3.8844Y-5.3538
X6.6005Y-5.8216
X6.7186Y-5.8216
T5
X7.2Y-1.25
X3.75Y-1.25
X3.7Y-6.0
X7.25Y-6.0
T0
M30
