%TF.GenerationSoftware,KiCad,Pcbnew,(5.1.9)-1*%
%TF.CreationDate,2021-05-10T20:34:24-02:30*%
%TF.ProjectId,beverageWarmer1,62657665-7261-4676-9557-61726d657231,rev?*%
%TF.SameCoordinates,Original*%
%TF.FileFunction,Copper,L1,Top*%
%TF.FilePolarity,Positive*%
%FSLAX46Y46*%
G04 Gerber Fmt 4.6, Leading zero omitted, Abs format (unit mm)*
G04 Created by KiCad (PCBNEW (5.1.9)-1) date 2021-05-10 20:34:24*
%MOMM*%
%LPD*%
G01*
G04 APERTURE LIST*
%TA.AperFunction,ComponentPad*%
%ADD10C,0.800000*%
%TD*%
%TA.AperFunction,ComponentPad*%
%ADD11C,6.400000*%
%TD*%
%TA.AperFunction,SMDPad,CuDef*%
%ADD12C,2.500000*%
%TD*%
%TA.AperFunction,SMDPad,CuDef*%
%ADD13R,1.000000X2.510000*%
%TD*%
%TA.AperFunction,SMDPad,CuDef*%
%ADD14R,2.510000X1.000000*%
%TD*%
%TA.AperFunction,ComponentPad*%
%ADD15O,1.400000X1.400000*%
%TD*%
%TA.AperFunction,ComponentPad*%
%ADD16C,1.400000*%
%TD*%
%TA.AperFunction,SMDPad,CuDef*%
%ADD17R,3.900000X5.500000*%
%TD*%
%TA.AperFunction,SMDPad,CuDef*%
%ADD18R,3.100000X5.000000*%
%TD*%
%TA.AperFunction,SMDPad,CuDef*%
%ADD19R,3.300000X2.500000*%
%TD*%
%TA.AperFunction,SMDPad,CuDef*%
%ADD20R,2.500000X3.300000*%
%TD*%
%TA.AperFunction,ViaPad*%
%ADD21C,0.800000*%
%TD*%
%TA.AperFunction,Conductor*%
%ADD22C,0.250000*%
%TD*%
%TA.AperFunction,Conductor*%
%ADD23C,1.500000*%
%TD*%
%TA.AperFunction,Conductor*%
%ADD24C,0.500000*%
%TD*%
%TA.AperFunction,Conductor*%
%ADD25C,0.254000*%
%TD*%
%TA.AperFunction,Conductor*%
%ADD26C,0.100000*%
%TD*%
G04 APERTURE END LIST*
D10*
%TO.P,REF\u002A\u002A,1*%
%TO.N,N/C*%
X185847056Y-150702944D03*
X184150000Y-150000000D03*
X182452944Y-150702944D03*
X181750000Y-152400000D03*
X182452944Y-154097056D03*
X184150000Y-154800000D03*
X185847056Y-154097056D03*
X186550000Y-152400000D03*
D11*
X184150000Y-152400000D03*
%TD*%
D10*
%TO.P,REF\u002A\u002A,1*%
%TO.N,N/C*%
X95677056Y-150702944D03*
X93980000Y-150000000D03*
X92282944Y-150702944D03*
X91580000Y-152400000D03*
X92282944Y-154097056D03*
X93980000Y-154800000D03*
X95677056Y-154097056D03*
X96380000Y-152400000D03*
D11*
X93980000Y-152400000D03*
%TD*%
%TO.P,REF\u002A\u002A,1*%
%TO.N,N/C*%
X95250000Y-31750000D03*
D10*
X97650000Y-31750000D03*
X96947056Y-33447056D03*
X95250000Y-34150000D03*
X93552944Y-33447056D03*
X92850000Y-31750000D03*
X93552944Y-30052944D03*
X95250000Y-29350000D03*
X96947056Y-30052944D03*
%TD*%
%TO.P,REF\u002A\u002A,1*%
%TO.N,N/C*%
X184577056Y-30052944D03*
X182880000Y-29350000D03*
X181182944Y-30052944D03*
X180480000Y-31750000D03*
X181182944Y-33447056D03*
X182880000Y-34150000D03*
X184577056Y-33447056D03*
X185280000Y-31750000D03*
D11*
X182880000Y-31750000D03*
%TD*%
D12*
%TO.P,TP402,1*%
%TO.N,Net-(D400-Pad1)*%
X105664000Y-135128000D03*
%TD*%
D13*
%TO.P,J1,1*%
%TO.N,/PWM_OUT*%
X162306000Y-150237000D03*
%TO.P,J1,2*%
%TO.N,GND*%
X164846000Y-153547000D03*
%TD*%
D14*
%TO.P,J0,1*%
%TO.N,+12V*%
X94619000Y-137922000D03*
%TO.P,J0,2*%
%TO.N,GND*%
X91309000Y-140462000D03*
%TD*%
%TO.P,C7,2*%
%TO.N,GND*%
%TA.AperFunction,SMDPad,CuDef*%
G36*
G01*
X167369500Y-43871000D02*
X166894500Y-43871000D01*
G75*
G02*
X166657000Y-43633500I0J237500D01*
G01*
X166657000Y-43033500D01*
G75*
G02*
X166894500Y-42796000I237500J0D01*
G01*
X167369500Y-42796000D01*
G75*
G02*
X167607000Y-43033500I0J-237500D01*
G01*
X167607000Y-43633500D01*
G75*
G02*
X167369500Y-43871000I-237500J0D01*
G01*
G37*
%TD.AperFunction*%
%TO.P,C7,1*%
%TO.N,Net-(C7-Pad1)*%
%TA.AperFunction,SMDPad,CuDef*%
G36*
G01*
X167369500Y-45596000D02*
X166894500Y-45596000D01*
G75*
G02*
X166657000Y-45358500I0J237500D01*
G01*
X166657000Y-44758500D01*
G75*
G02*
X166894500Y-44521000I237500J0D01*
G01*
X167369500Y-44521000D01*
G75*
G02*
X167607000Y-44758500I0J-237500D01*
G01*
X167607000Y-45358500D01*
G75*
G02*
X167369500Y-45596000I-237500J0D01*
G01*
G37*
%TD.AperFunction*%
%TD*%
%TO.P,C6,2*%
%TO.N,GND*%
%TA.AperFunction,SMDPad,CuDef*%
G36*
G01*
X134857500Y-43871000D02*
X134382500Y-43871000D01*
G75*
G02*
X134145000Y-43633500I0J237500D01*
G01*
X134145000Y-43033500D01*
G75*
G02*
X134382500Y-42796000I237500J0D01*
G01*
X134857500Y-42796000D01*
G75*
G02*
X135095000Y-43033500I0J-237500D01*
G01*
X135095000Y-43633500D01*
G75*
G02*
X134857500Y-43871000I-237500J0D01*
G01*
G37*
%TD.AperFunction*%
%TO.P,C6,1*%
%TO.N,Net-(C6-Pad1)*%
%TA.AperFunction,SMDPad,CuDef*%
G36*
G01*
X134857500Y-45596000D02*
X134382500Y-45596000D01*
G75*
G02*
X134145000Y-45358500I0J237500D01*
G01*
X134145000Y-44758500D01*
G75*
G02*
X134382500Y-44521000I237500J0D01*
G01*
X134857500Y-44521000D01*
G75*
G02*
X135095000Y-44758500I0J-237500D01*
G01*
X135095000Y-45358500D01*
G75*
G02*
X134857500Y-45596000I-237500J0D01*
G01*
G37*
%TD.AperFunction*%
%TD*%
%TO.P,C5,2*%
%TO.N,GND*%
%TA.AperFunction,SMDPad,CuDef*%
G36*
G01*
X101329500Y-43871000D02*
X100854500Y-43871000D01*
G75*
G02*
X100617000Y-43633500I0J237500D01*
G01*
X100617000Y-43033500D01*
G75*
G02*
X100854500Y-42796000I237500J0D01*
G01*
X101329500Y-42796000D01*
G75*
G02*
X101567000Y-43033500I0J-237500D01*
G01*
X101567000Y-43633500D01*
G75*
G02*
X101329500Y-43871000I-237500J0D01*
G01*
G37*
%TD.AperFunction*%
%TO.P,C5,1*%
%TO.N,Net-(C5-Pad1)*%
%TA.AperFunction,SMDPad,CuDef*%
G36*
G01*
X101329500Y-45596000D02*
X100854500Y-45596000D01*
G75*
G02*
X100617000Y-45358500I0J237500D01*
G01*
X100617000Y-44758500D01*
G75*
G02*
X100854500Y-44521000I237500J0D01*
G01*
X101329500Y-44521000D01*
G75*
G02*
X101567000Y-44758500I0J-237500D01*
G01*
X101567000Y-45358500D01*
G75*
G02*
X101329500Y-45596000I-237500J0D01*
G01*
G37*
%TD.AperFunction*%
%TD*%
%TO.P,C4,2*%
%TO.N,GND*%
%TA.AperFunction,SMDPad,CuDef*%
G36*
G01*
X112505500Y-93655000D02*
X112030500Y-93655000D01*
G75*
G02*
X111793000Y-93417500I0J237500D01*
G01*
X111793000Y-92817500D01*
G75*
G02*
X112030500Y-92580000I237500J0D01*
G01*
X112505500Y-92580000D01*
G75*
G02*
X112743000Y-92817500I0J-237500D01*
G01*
X112743000Y-93417500D01*
G75*
G02*
X112505500Y-93655000I-237500J0D01*
G01*
G37*
%TD.AperFunction*%
%TO.P,C4,1*%
%TO.N,Net-(C4-Pad1)*%
%TA.AperFunction,SMDPad,CuDef*%
G36*
G01*
X112505500Y-95380000D02*
X112030500Y-95380000D01*
G75*
G02*
X111793000Y-95142500I0J237500D01*
G01*
X111793000Y-94542500D01*
G75*
G02*
X112030500Y-94305000I237500J0D01*
G01*
X112505500Y-94305000D01*
G75*
G02*
X112743000Y-94542500I0J-237500D01*
G01*
X112743000Y-95142500D01*
G75*
G02*
X112505500Y-95380000I-237500J0D01*
G01*
G37*
%TD.AperFunction*%
%TD*%
%TO.P,C3,2*%
%TO.N,GND*%
%TA.AperFunction,SMDPad,CuDef*%
G36*
G01*
X146033500Y-93655000D02*
X145558500Y-93655000D01*
G75*
G02*
X145321000Y-93417500I0J237500D01*
G01*
X145321000Y-92817500D01*
G75*
G02*
X145558500Y-92580000I237500J0D01*
G01*
X146033500Y-92580000D01*
G75*
G02*
X146271000Y-92817500I0J-237500D01*
G01*
X146271000Y-93417500D01*
G75*
G02*
X146033500Y-93655000I-237500J0D01*
G01*
G37*
%TD.AperFunction*%
%TO.P,C3,1*%
%TO.N,Net-(C3-Pad1)*%
%TA.AperFunction,SMDPad,CuDef*%
G36*
G01*
X146033500Y-95380000D02*
X145558500Y-95380000D01*
G75*
G02*
X145321000Y-95142500I0J237500D01*
G01*
X145321000Y-94542500D01*
G75*
G02*
X145558500Y-94305000I237500J0D01*
G01*
X146033500Y-94305000D01*
G75*
G02*
X146271000Y-94542500I0J-237500D01*
G01*
X146271000Y-95142500D01*
G75*
G02*
X146033500Y-95380000I-237500J0D01*
G01*
G37*
%TD.AperFunction*%
%TD*%
%TO.P,C2,2*%
%TO.N,GND*%
%TA.AperFunction,SMDPad,CuDef*%
G36*
G01*
X178545500Y-93655000D02*
X178070500Y-93655000D01*
G75*
G02*
X177833000Y-93417500I0J237500D01*
G01*
X177833000Y-92817500D01*
G75*
G02*
X178070500Y-92580000I237500J0D01*
G01*
X178545500Y-92580000D01*
G75*
G02*
X178783000Y-92817500I0J-237500D01*
G01*
X178783000Y-93417500D01*
G75*
G02*
X178545500Y-93655000I-237500J0D01*
G01*
G37*
%TD.AperFunction*%
%TO.P,C2,1*%
%TO.N,/powerResistors/IN*%
%TA.AperFunction,SMDPad,CuDef*%
G36*
G01*
X178545500Y-95380000D02*
X178070500Y-95380000D01*
G75*
G02*
X177833000Y-95142500I0J237500D01*
G01*
X177833000Y-94542500D01*
G75*
G02*
X178070500Y-94305000I237500J0D01*
G01*
X178545500Y-94305000D01*
G75*
G02*
X178783000Y-94542500I0J-237500D01*
G01*
X178783000Y-95142500D01*
G75*
G02*
X178545500Y-95380000I-237500J0D01*
G01*
G37*
%TD.AperFunction*%
%TD*%
%TO.P,U6,8*%
%TO.N,+12V*%
%TA.AperFunction,SMDPad,CuDef*%
G36*
G01*
X101831000Y-148312000D02*
X102131000Y-148312000D01*
G75*
G02*
X102281000Y-148462000I0J-150000D01*
G01*
X102281000Y-150112000D01*
G75*
G02*
X102131000Y-150262000I-150000J0D01*
G01*
X101831000Y-150262000D01*
G75*
G02*
X101681000Y-150112000I0J150000D01*
G01*
X101681000Y-148462000D01*
G75*
G02*
X101831000Y-148312000I150000J0D01*
G01*
G37*
%TD.AperFunction*%
%TO.P,U6,7*%
%TO.N,GND*%
%TA.AperFunction,SMDPad,CuDef*%
G36*
G01*
X100561000Y-148312000D02*
X100861000Y-148312000D01*
G75*
G02*
X101011000Y-148462000I0J-150000D01*
G01*
X101011000Y-150112000D01*
G75*
G02*
X100861000Y-150262000I-150000J0D01*
G01*
X100561000Y-150262000D01*
G75*
G02*
X100411000Y-150112000I0J150000D01*
G01*
X100411000Y-148462000D01*
G75*
G02*
X100561000Y-148312000I150000J0D01*
G01*
G37*
%TD.AperFunction*%
%TO.P,U6,6*%
%TA.AperFunction,SMDPad,CuDef*%
G36*
G01*
X99291000Y-148312000D02*
X99591000Y-148312000D01*
G75*
G02*
X99741000Y-148462000I0J-150000D01*
G01*
X99741000Y-150112000D01*
G75*
G02*
X99591000Y-150262000I-150000J0D01*
G01*
X99291000Y-150262000D01*
G75*
G02*
X99141000Y-150112000I0J150000D01*
G01*
X99141000Y-148462000D01*
G75*
G02*
X99291000Y-148312000I150000J0D01*
G01*
G37*
%TD.AperFunction*%
%TO.P,U6,5*%
%TO.N,Net-(U6-Pad5)*%
%TA.AperFunction,SMDPad,CuDef*%
G36*
G01*
X98021000Y-148312000D02*
X98321000Y-148312000D01*
G75*
G02*
X98471000Y-148462000I0J-150000D01*
G01*
X98471000Y-150112000D01*
G75*
G02*
X98321000Y-150262000I-150000J0D01*
G01*
X98021000Y-150262000D01*
G75*
G02*
X97871000Y-150112000I0J150000D01*
G01*
X97871000Y-148462000D01*
G75*
G02*
X98021000Y-148312000I150000J0D01*
G01*
G37*
%TD.AperFunction*%
%TO.P,U6,4*%
%TO.N,Net-(U6-Pad4)*%
%TA.AperFunction,SMDPad,CuDef*%
G36*
G01*
X98021000Y-143362000D02*
X98321000Y-143362000D01*
G75*
G02*
X98471000Y-143512000I0J-150000D01*
G01*
X98471000Y-145162000D01*
G75*
G02*
X98321000Y-145312000I-150000J0D01*
G01*
X98021000Y-145312000D01*
G75*
G02*
X97871000Y-145162000I0J150000D01*
G01*
X97871000Y-143512000D01*
G75*
G02*
X98021000Y-143362000I150000J0D01*
G01*
G37*
%TD.AperFunction*%
%TO.P,U6,3*%
%TO.N,GND*%
%TA.AperFunction,SMDPad,CuDef*%
G36*
G01*
X99291000Y-143362000D02*
X99591000Y-143362000D01*
G75*
G02*
X99741000Y-143512000I0J-150000D01*
G01*
X99741000Y-145162000D01*
G75*
G02*
X99591000Y-145312000I-150000J0D01*
G01*
X99291000Y-145312000D01*
G75*
G02*
X99141000Y-145162000I0J150000D01*
G01*
X99141000Y-143512000D01*
G75*
G02*
X99291000Y-143362000I150000J0D01*
G01*
G37*
%TD.AperFunction*%
%TO.P,U6,2*%
%TA.AperFunction,SMDPad,CuDef*%
G36*
G01*
X100561000Y-143362000D02*
X100861000Y-143362000D01*
G75*
G02*
X101011000Y-143512000I0J-150000D01*
G01*
X101011000Y-145162000D01*
G75*
G02*
X100861000Y-145312000I-150000J0D01*
G01*
X100561000Y-145312000D01*
G75*
G02*
X100411000Y-145162000I0J150000D01*
G01*
X100411000Y-143512000D01*
G75*
G02*
X100561000Y-143362000I150000J0D01*
G01*
G37*
%TD.AperFunction*%
%TO.P,U6,1*%
%TO.N,+10V*%
%TA.AperFunction,SMDPad,CuDef*%
G36*
G01*
X101831000Y-143362000D02*
X102131000Y-143362000D01*
G75*
G02*
X102281000Y-143512000I0J-150000D01*
G01*
X102281000Y-145162000D01*
G75*
G02*
X102131000Y-145312000I-150000J0D01*
G01*
X101831000Y-145312000D01*
G75*
G02*
X101681000Y-145162000I0J150000D01*
G01*
X101681000Y-143512000D01*
G75*
G02*
X101831000Y-143362000I150000J0D01*
G01*
G37*
%TD.AperFunction*%
%TD*%
%TO.P,U5,8*%
%TO.N,GND*%
%TA.AperFunction,SMDPad,CuDef*%
G36*
G01*
X98693000Y-129764000D02*
X98493000Y-129764000D01*
G75*
G02*
X98393000Y-129664000I0J100000D01*
G01*
X98393000Y-128239000D01*
G75*
G02*
X98493000Y-128139000I100000J0D01*
G01*
X98693000Y-128139000D01*
G75*
G02*
X98793000Y-128239000I0J-100000D01*
G01*
X98793000Y-129664000D01*
G75*
G02*
X98693000Y-129764000I-100000J0D01*
G01*
G37*
%TD.AperFunction*%
%TO.P,U5,7*%
%TA.AperFunction,SMDPad,CuDef*%
G36*
G01*
X99343000Y-129764000D02*
X99143000Y-129764000D01*
G75*
G02*
X99043000Y-129664000I0J100000D01*
G01*
X99043000Y-128239000D01*
G75*
G02*
X99143000Y-128139000I100000J0D01*
G01*
X99343000Y-128139000D01*
G75*
G02*
X99443000Y-128239000I0J-100000D01*
G01*
X99443000Y-129664000D01*
G75*
G02*
X99343000Y-129764000I-100000J0D01*
G01*
G37*
%TD.AperFunction*%
%TO.P,U5,6*%
%TA.AperFunction,SMDPad,CuDef*%
G36*
G01*
X99993000Y-129764000D02*
X99793000Y-129764000D01*
G75*
G02*
X99693000Y-129664000I0J100000D01*
G01*
X99693000Y-128239000D01*
G75*
G02*
X99793000Y-128139000I100000J0D01*
G01*
X99993000Y-128139000D01*
G75*
G02*
X100093000Y-128239000I0J-100000D01*
G01*
X100093000Y-129664000D01*
G75*
G02*
X99993000Y-129764000I-100000J0D01*
G01*
G37*
%TD.AperFunction*%
%TO.P,U5,5*%
%TA.AperFunction,SMDPad,CuDef*%
G36*
G01*
X100643000Y-129764000D02*
X100443000Y-129764000D01*
G75*
G02*
X100343000Y-129664000I0J100000D01*
G01*
X100343000Y-128239000D01*
G75*
G02*
X100443000Y-128139000I100000J0D01*
G01*
X100643000Y-128139000D01*
G75*
G02*
X100743000Y-128239000I0J-100000D01*
G01*
X100743000Y-129664000D01*
G75*
G02*
X100643000Y-129764000I-100000J0D01*
G01*
G37*
%TD.AperFunction*%
%TO.P,U5,4*%
%TO.N,+12V*%
%TA.AperFunction,SMDPad,CuDef*%
G36*
G01*
X100643000Y-133989000D02*
X100443000Y-133989000D01*
G75*
G02*
X100343000Y-133889000I0J100000D01*
G01*
X100343000Y-132464000D01*
G75*
G02*
X100443000Y-132364000I100000J0D01*
G01*
X100643000Y-132364000D01*
G75*
G02*
X100743000Y-132464000I0J-100000D01*
G01*
X100743000Y-133889000D01*
G75*
G02*
X100643000Y-133989000I-100000J0D01*
G01*
G37*
%TD.AperFunction*%
%TO.P,U5,3*%
%TO.N,+5V*%
%TA.AperFunction,SMDPad,CuDef*%
G36*
G01*
X99993000Y-133989000D02*
X99793000Y-133989000D01*
G75*
G02*
X99693000Y-133889000I0J100000D01*
G01*
X99693000Y-132464000D01*
G75*
G02*
X99793000Y-132364000I100000J0D01*
G01*
X99993000Y-132364000D01*
G75*
G02*
X100093000Y-132464000I0J-100000D01*
G01*
X100093000Y-133889000D01*
G75*
G02*
X99993000Y-133989000I-100000J0D01*
G01*
G37*
%TD.AperFunction*%
%TO.P,U5,2*%
%TO.N,+12V*%
%TA.AperFunction,SMDPad,CuDef*%
G36*
G01*
X99343000Y-133989000D02*
X99143000Y-133989000D01*
G75*
G02*
X99043000Y-133889000I0J100000D01*
G01*
X99043000Y-132464000D01*
G75*
G02*
X99143000Y-132364000I100000J0D01*
G01*
X99343000Y-132364000D01*
G75*
G02*
X99443000Y-132464000I0J-100000D01*
G01*
X99443000Y-133889000D01*
G75*
G02*
X99343000Y-133989000I-100000J0D01*
G01*
G37*
%TD.AperFunction*%
%TO.P,U5,1*%
%TO.N,GND*%
%TA.AperFunction,SMDPad,CuDef*%
G36*
G01*
X98693000Y-133989000D02*
X98493000Y-133989000D01*
G75*
G02*
X98393000Y-133889000I0J100000D01*
G01*
X98393000Y-132464000D01*
G75*
G02*
X98493000Y-132364000I100000J0D01*
G01*
X98693000Y-132364000D01*
G75*
G02*
X98793000Y-132464000I0J-100000D01*
G01*
X98793000Y-133889000D01*
G75*
G02*
X98693000Y-133989000I-100000J0D01*
G01*
G37*
%TD.AperFunction*%
%TD*%
%TO.P,U4,8*%
%TO.N,N/C*%
%TA.AperFunction,SMDPad,CuDef*%
G36*
G01*
X130024000Y-133373000D02*
X130024000Y-133073000D01*
G75*
G02*
X130174000Y-132923000I150000J0D01*
G01*
X131824000Y-132923000D01*
G75*
G02*
X131974000Y-133073000I0J-150000D01*
G01*
X131974000Y-133373000D01*
G75*
G02*
X131824000Y-133523000I-150000J0D01*
G01*
X130174000Y-133523000D01*
G75*
G02*
X130024000Y-133373000I0J150000D01*
G01*
G37*
%TD.AperFunction*%
%TO.P,U4,7*%
%TO.N,+5V*%
%TA.AperFunction,SMDPad,CuDef*%
G36*
G01*
X130024000Y-134643000D02*
X130024000Y-134343000D01*
G75*
G02*
X130174000Y-134193000I150000J0D01*
G01*
X131824000Y-134193000D01*
G75*
G02*
X131974000Y-134343000I0J-150000D01*
G01*
X131974000Y-134643000D01*
G75*
G02*
X131824000Y-134793000I-150000J0D01*
G01*
X130174000Y-134793000D01*
G75*
G02*
X130024000Y-134643000I0J150000D01*
G01*
G37*
%TD.AperFunction*%
%TO.P,U4,6*%
%TO.N,Net-(R302-Pad1)*%
%TA.AperFunction,SMDPad,CuDef*%
G36*
G01*
X130024000Y-135913000D02*
X130024000Y-135613000D01*
G75*
G02*
X130174000Y-135463000I150000J0D01*
G01*
X131824000Y-135463000D01*
G75*
G02*
X131974000Y-135613000I0J-150000D01*
G01*
X131974000Y-135913000D01*
G75*
G02*
X131824000Y-136063000I-150000J0D01*
G01*
X130174000Y-136063000D01*
G75*
G02*
X130024000Y-135913000I0J150000D01*
G01*
G37*
%TD.AperFunction*%
%TO.P,U4,5*%
%TO.N,N/C*%
%TA.AperFunction,SMDPad,CuDef*%
G36*
G01*
X130024000Y-137183000D02*
X130024000Y-136883000D01*
G75*
G02*
X130174000Y-136733000I150000J0D01*
G01*
X131824000Y-136733000D01*
G75*
G02*
X131974000Y-136883000I0J-150000D01*
G01*
X131974000Y-137183000D01*
G75*
G02*
X131824000Y-137333000I-150000J0D01*
G01*
X130174000Y-137333000D01*
G75*
G02*
X130024000Y-137183000I0J150000D01*
G01*
G37*
%TD.AperFunction*%
%TO.P,U4,4*%
%TO.N,GND*%
%TA.AperFunction,SMDPad,CuDef*%
G36*
G01*
X125074000Y-137183000D02*
X125074000Y-136883000D01*
G75*
G02*
X125224000Y-136733000I150000J0D01*
G01*
X126874000Y-136733000D01*
G75*
G02*
X127024000Y-136883000I0J-150000D01*
G01*
X127024000Y-137183000D01*
G75*
G02*
X126874000Y-137333000I-150000J0D01*
G01*
X125224000Y-137333000D01*
G75*
G02*
X125074000Y-137183000I0J150000D01*
G01*
G37*
%TD.AperFunction*%
%TO.P,U4,3*%
%TO.N,Net-(R402-Pad1)*%
%TA.AperFunction,SMDPad,CuDef*%
G36*
G01*
X125074000Y-135913000D02*
X125074000Y-135613000D01*
G75*
G02*
X125224000Y-135463000I150000J0D01*
G01*
X126874000Y-135463000D01*
G75*
G02*
X127024000Y-135613000I0J-150000D01*
G01*
X127024000Y-135913000D01*
G75*
G02*
X126874000Y-136063000I-150000J0D01*
G01*
X125224000Y-136063000D01*
G75*
G02*
X125074000Y-135913000I0J150000D01*
G01*
G37*
%TD.AperFunction*%
%TO.P,U4,2*%
%TO.N,Net-(R400-Pad1)*%
%TA.AperFunction,SMDPad,CuDef*%
G36*
G01*
X125074000Y-134643000D02*
X125074000Y-134343000D01*
G75*
G02*
X125224000Y-134193000I150000J0D01*
G01*
X126874000Y-134193000D01*
G75*
G02*
X127024000Y-134343000I0J-150000D01*
G01*
X127024000Y-134643000D01*
G75*
G02*
X126874000Y-134793000I-150000J0D01*
G01*
X125224000Y-134793000D01*
G75*
G02*
X125074000Y-134643000I0J150000D01*
G01*
G37*
%TD.AperFunction*%
%TO.P,U4,1*%
%TO.N,N/C*%
%TA.AperFunction,SMDPad,CuDef*%
G36*
G01*
X125074000Y-133373000D02*
X125074000Y-133073000D01*
G75*
G02*
X125224000Y-132923000I150000J0D01*
G01*
X126874000Y-132923000D01*
G75*
G02*
X127024000Y-133073000I0J-150000D01*
G01*
X127024000Y-133373000D01*
G75*
G02*
X126874000Y-133523000I-150000J0D01*
G01*
X125224000Y-133523000D01*
G75*
G02*
X125074000Y-133373000I0J150000D01*
G01*
G37*
%TD.AperFunction*%
%TD*%
%TO.P,U3,8*%
%TO.N,N/C*%
%TA.AperFunction,SMDPad,CuDef*%
G36*
G01*
X144756000Y-133373000D02*
X144756000Y-133073000D01*
G75*
G02*
X144906000Y-132923000I150000J0D01*
G01*
X146556000Y-132923000D01*
G75*
G02*
X146706000Y-133073000I0J-150000D01*
G01*
X146706000Y-133373000D01*
G75*
G02*
X146556000Y-133523000I-150000J0D01*
G01*
X144906000Y-133523000D01*
G75*
G02*
X144756000Y-133373000I0J150000D01*
G01*
G37*
%TD.AperFunction*%
%TO.P,U3,7*%
%TO.N,+5V*%
%TA.AperFunction,SMDPad,CuDef*%
G36*
G01*
X144756000Y-134643000D02*
X144756000Y-134343000D01*
G75*
G02*
X144906000Y-134193000I150000J0D01*
G01*
X146556000Y-134193000D01*
G75*
G02*
X146706000Y-134343000I0J-150000D01*
G01*
X146706000Y-134643000D01*
G75*
G02*
X146556000Y-134793000I-150000J0D01*
G01*
X144906000Y-134793000D01*
G75*
G02*
X144756000Y-134643000I0J150000D01*
G01*
G37*
%TD.AperFunction*%
%TO.P,U3,6*%
%TO.N,Net-(R200-Pad1)*%
%TA.AperFunction,SMDPad,CuDef*%
G36*
G01*
X144756000Y-135913000D02*
X144756000Y-135613000D01*
G75*
G02*
X144906000Y-135463000I150000J0D01*
G01*
X146556000Y-135463000D01*
G75*
G02*
X146706000Y-135613000I0J-150000D01*
G01*
X146706000Y-135913000D01*
G75*
G02*
X146556000Y-136063000I-150000J0D01*
G01*
X144906000Y-136063000D01*
G75*
G02*
X144756000Y-135913000I0J150000D01*
G01*
G37*
%TD.AperFunction*%
%TO.P,U3,5*%
%TO.N,N/C*%
%TA.AperFunction,SMDPad,CuDef*%
G36*
G01*
X144756000Y-137183000D02*
X144756000Y-136883000D01*
G75*
G02*
X144906000Y-136733000I150000J0D01*
G01*
X146556000Y-136733000D01*
G75*
G02*
X146706000Y-136883000I0J-150000D01*
G01*
X146706000Y-137183000D01*
G75*
G02*
X146556000Y-137333000I-150000J0D01*
G01*
X144906000Y-137333000D01*
G75*
G02*
X144756000Y-137183000I0J150000D01*
G01*
G37*
%TD.AperFunction*%
%TO.P,U3,4*%
%TO.N,GND*%
%TA.AperFunction,SMDPad,CuDef*%
G36*
G01*
X139806000Y-137183000D02*
X139806000Y-136883000D01*
G75*
G02*
X139956000Y-136733000I150000J0D01*
G01*
X141606000Y-136733000D01*
G75*
G02*
X141756000Y-136883000I0J-150000D01*
G01*
X141756000Y-137183000D01*
G75*
G02*
X141606000Y-137333000I-150000J0D01*
G01*
X139956000Y-137333000D01*
G75*
G02*
X139806000Y-137183000I0J150000D01*
G01*
G37*
%TD.AperFunction*%
%TO.P,U3,3*%
%TO.N,Net-(R302-Pad2)*%
%TA.AperFunction,SMDPad,CuDef*%
G36*
G01*
X139806000Y-135913000D02*
X139806000Y-135613000D01*
G75*
G02*
X139956000Y-135463000I150000J0D01*
G01*
X141606000Y-135463000D01*
G75*
G02*
X141756000Y-135613000I0J-150000D01*
G01*
X141756000Y-135913000D01*
G75*
G02*
X141606000Y-136063000I-150000J0D01*
G01*
X139956000Y-136063000D01*
G75*
G02*
X139806000Y-135913000I0J150000D01*
G01*
G37*
%TD.AperFunction*%
%TO.P,U3,2*%
%TO.N,Net-(R300-Pad1)*%
%TA.AperFunction,SMDPad,CuDef*%
G36*
G01*
X139806000Y-134643000D02*
X139806000Y-134343000D01*
G75*
G02*
X139956000Y-134193000I150000J0D01*
G01*
X141606000Y-134193000D01*
G75*
G02*
X141756000Y-134343000I0J-150000D01*
G01*
X141756000Y-134643000D01*
G75*
G02*
X141606000Y-134793000I-150000J0D01*
G01*
X139956000Y-134793000D01*
G75*
G02*
X139806000Y-134643000I0J150000D01*
G01*
G37*
%TD.AperFunction*%
%TO.P,U3,1*%
%TO.N,N/C*%
%TA.AperFunction,SMDPad,CuDef*%
G36*
G01*
X139806000Y-133373000D02*
X139806000Y-133073000D01*
G75*
G02*
X139956000Y-132923000I150000J0D01*
G01*
X141606000Y-132923000D01*
G75*
G02*
X141756000Y-133073000I0J-150000D01*
G01*
X141756000Y-133373000D01*
G75*
G02*
X141606000Y-133523000I-150000J0D01*
G01*
X139956000Y-133523000D01*
G75*
G02*
X139806000Y-133373000I0J150000D01*
G01*
G37*
%TD.AperFunction*%
%TD*%
%TO.P,U2,8*%
%TO.N,N/C*%
%TA.AperFunction,SMDPad,CuDef*%
G36*
G01*
X156748000Y-135269000D02*
X156748000Y-135069000D01*
G75*
G02*
X156848000Y-134969000I100000J0D01*
G01*
X158273000Y-134969000D01*
G75*
G02*
X158373000Y-135069000I0J-100000D01*
G01*
X158373000Y-135269000D01*
G75*
G02*
X158273000Y-135369000I-100000J0D01*
G01*
X156848000Y-135369000D01*
G75*
G02*
X156748000Y-135269000I0J100000D01*
G01*
G37*
%TD.AperFunction*%
%TO.P,U2,7*%
%TO.N,+12V*%
%TA.AperFunction,SMDPad,CuDef*%
G36*
G01*
X156748000Y-135919000D02*
X156748000Y-135719000D01*
G75*
G02*
X156848000Y-135619000I100000J0D01*
G01*
X158273000Y-135619000D01*
G75*
G02*
X158373000Y-135719000I0J-100000D01*
G01*
X158373000Y-135919000D01*
G75*
G02*
X158273000Y-136019000I-100000J0D01*
G01*
X156848000Y-136019000D01*
G75*
G02*
X156748000Y-135919000I0J100000D01*
G01*
G37*
%TD.AperFunction*%
%TO.P,U2,6*%
%TO.N,/PWM_OUT*%
%TA.AperFunction,SMDPad,CuDef*%
G36*
G01*
X156748000Y-136569000D02*
X156748000Y-136369000D01*
G75*
G02*
X156848000Y-136269000I100000J0D01*
G01*
X158273000Y-136269000D01*
G75*
G02*
X158373000Y-136369000I0J-100000D01*
G01*
X158373000Y-136569000D01*
G75*
G02*
X158273000Y-136669000I-100000J0D01*
G01*
X156848000Y-136669000D01*
G75*
G02*
X156748000Y-136569000I0J100000D01*
G01*
G37*
%TD.AperFunction*%
%TO.P,U2,5*%
%TO.N,N/C*%
%TA.AperFunction,SMDPad,CuDef*%
G36*
G01*
X156748000Y-137219000D02*
X156748000Y-137019000D01*
G75*
G02*
X156848000Y-136919000I100000J0D01*
G01*
X158273000Y-136919000D01*
G75*
G02*
X158373000Y-137019000I0J-100000D01*
G01*
X158373000Y-137219000D01*
G75*
G02*
X158273000Y-137319000I-100000J0D01*
G01*
X156848000Y-137319000D01*
G75*
G02*
X156748000Y-137219000I0J100000D01*
G01*
G37*
%TD.AperFunction*%
%TO.P,U2,4*%
%TO.N,GND*%
%TA.AperFunction,SMDPad,CuDef*%
G36*
G01*
X152523000Y-137219000D02*
X152523000Y-137019000D01*
G75*
G02*
X152623000Y-136919000I100000J0D01*
G01*
X154048000Y-136919000D01*
G75*
G02*
X154148000Y-137019000I0J-100000D01*
G01*
X154148000Y-137219000D01*
G75*
G02*
X154048000Y-137319000I-100000J0D01*
G01*
X152623000Y-137319000D01*
G75*
G02*
X152523000Y-137219000I0J100000D01*
G01*
G37*
%TD.AperFunction*%
%TO.P,U2,3*%
%TO.N,Net-(C100-Pad1)*%
%TA.AperFunction,SMDPad,CuDef*%
G36*
G01*
X152523000Y-136569000D02*
X152523000Y-136369000D01*
G75*
G02*
X152623000Y-136269000I100000J0D01*
G01*
X154048000Y-136269000D01*
G75*
G02*
X154148000Y-136369000I0J-100000D01*
G01*
X154148000Y-136569000D01*
G75*
G02*
X154048000Y-136669000I-100000J0D01*
G01*
X152623000Y-136669000D01*
G75*
G02*
X152523000Y-136569000I0J100000D01*
G01*
G37*
%TD.AperFunction*%
%TO.P,U2,2*%
%TO.N,Net-(R200-Pad1)*%
%TA.AperFunction,SMDPad,CuDef*%
G36*
G01*
X152523000Y-135919000D02*
X152523000Y-135719000D01*
G75*
G02*
X152623000Y-135619000I100000J0D01*
G01*
X154048000Y-135619000D01*
G75*
G02*
X154148000Y-135719000I0J-100000D01*
G01*
X154148000Y-135919000D01*
G75*
G02*
X154048000Y-136019000I-100000J0D01*
G01*
X152623000Y-136019000D01*
G75*
G02*
X152523000Y-135919000I0J100000D01*
G01*
G37*
%TD.AperFunction*%
%TO.P,U2,1*%
%TO.N,N/C*%
%TA.AperFunction,SMDPad,CuDef*%
G36*
G01*
X152523000Y-135269000D02*
X152523000Y-135069000D01*
G75*
G02*
X152623000Y-134969000I100000J0D01*
G01*
X154048000Y-134969000D01*
G75*
G02*
X154148000Y-135069000I0J-100000D01*
G01*
X154148000Y-135269000D01*
G75*
G02*
X154048000Y-135369000I-100000J0D01*
G01*
X152623000Y-135369000D01*
G75*
G02*
X152523000Y-135269000I0J100000D01*
G01*
G37*
%TD.AperFunction*%
%TD*%
%TO.P,U1,8*%
%TO.N,N/C*%
%TA.AperFunction,SMDPad,CuDef*%
G36*
G01*
X156748000Y-145937000D02*
X156748000Y-145737000D01*
G75*
G02*
X156848000Y-145637000I100000J0D01*
G01*
X158273000Y-145637000D01*
G75*
G02*
X158373000Y-145737000I0J-100000D01*
G01*
X158373000Y-145937000D01*
G75*
G02*
X158273000Y-146037000I-100000J0D01*
G01*
X156848000Y-146037000D01*
G75*
G02*
X156748000Y-145937000I0J100000D01*
G01*
G37*
%TD.AperFunction*%
%TO.P,U1,7*%
%TO.N,+5V*%
%TA.AperFunction,SMDPad,CuDef*%
G36*
G01*
X156748000Y-146587000D02*
X156748000Y-146387000D01*
G75*
G02*
X156848000Y-146287000I100000J0D01*
G01*
X158273000Y-146287000D01*
G75*
G02*
X158373000Y-146387000I0J-100000D01*
G01*
X158373000Y-146587000D01*
G75*
G02*
X158273000Y-146687000I-100000J0D01*
G01*
X156848000Y-146687000D01*
G75*
G02*
X156748000Y-146587000I0J100000D01*
G01*
G37*
%TD.AperFunction*%
%TO.P,U1,6*%
%TO.N,Net-(R100-Pad2)*%
%TA.AperFunction,SMDPad,CuDef*%
G36*
G01*
X156748000Y-147237000D02*
X156748000Y-147037000D01*
G75*
G02*
X156848000Y-146937000I100000J0D01*
G01*
X158273000Y-146937000D01*
G75*
G02*
X158373000Y-147037000I0J-100000D01*
G01*
X158373000Y-147237000D01*
G75*
G02*
X158273000Y-147337000I-100000J0D01*
G01*
X156848000Y-147337000D01*
G75*
G02*
X156748000Y-147237000I0J100000D01*
G01*
G37*
%TD.AperFunction*%
%TO.P,U1,5*%
%TO.N,N/C*%
%TA.AperFunction,SMDPad,CuDef*%
G36*
G01*
X156748000Y-147887000D02*
X156748000Y-147687000D01*
G75*
G02*
X156848000Y-147587000I100000J0D01*
G01*
X158273000Y-147587000D01*
G75*
G02*
X158373000Y-147687000I0J-100000D01*
G01*
X158373000Y-147887000D01*
G75*
G02*
X158273000Y-147987000I-100000J0D01*
G01*
X156848000Y-147987000D01*
G75*
G02*
X156748000Y-147887000I0J100000D01*
G01*
G37*
%TD.AperFunction*%
%TO.P,U1,4*%
%TO.N,GND*%
%TA.AperFunction,SMDPad,CuDef*%
G36*
G01*
X152523000Y-147887000D02*
X152523000Y-147687000D01*
G75*
G02*
X152623000Y-147587000I100000J0D01*
G01*
X154048000Y-147587000D01*
G75*
G02*
X154148000Y-147687000I0J-100000D01*
G01*
X154148000Y-147887000D01*
G75*
G02*
X154048000Y-147987000I-100000J0D01*
G01*
X152623000Y-147987000D01*
G75*
G02*
X152523000Y-147887000I0J100000D01*
G01*
G37*
%TD.AperFunction*%
%TO.P,U1,3*%
%TO.N,Net-(R101-Pad2)*%
%TA.AperFunction,SMDPad,CuDef*%
G36*
G01*
X152523000Y-147237000D02*
X152523000Y-147037000D01*
G75*
G02*
X152623000Y-146937000I100000J0D01*
G01*
X154048000Y-146937000D01*
G75*
G02*
X154148000Y-147037000I0J-100000D01*
G01*
X154148000Y-147237000D01*
G75*
G02*
X154048000Y-147337000I-100000J0D01*
G01*
X152623000Y-147337000D01*
G75*
G02*
X152523000Y-147237000I0J100000D01*
G01*
G37*
%TD.AperFunction*%
%TO.P,U1,2*%
%TO.N,Net-(C100-Pad1)*%
%TA.AperFunction,SMDPad,CuDef*%
G36*
G01*
X152523000Y-146587000D02*
X152523000Y-146387000D01*
G75*
G02*
X152623000Y-146287000I100000J0D01*
G01*
X154048000Y-146287000D01*
G75*
G02*
X154148000Y-146387000I0J-100000D01*
G01*
X154148000Y-146587000D01*
G75*
G02*
X154048000Y-146687000I-100000J0D01*
G01*
X152623000Y-146687000D01*
G75*
G02*
X152523000Y-146587000I0J100000D01*
G01*
G37*
%TD.AperFunction*%
%TO.P,U1,1*%
%TO.N,N/C*%
%TA.AperFunction,SMDPad,CuDef*%
G36*
G01*
X152523000Y-145937000D02*
X152523000Y-145737000D01*
G75*
G02*
X152623000Y-145637000I100000J0D01*
G01*
X154048000Y-145637000D01*
G75*
G02*
X154148000Y-145737000I0J-100000D01*
G01*
X154148000Y-145937000D01*
G75*
G02*
X154048000Y-146037000I-100000J0D01*
G01*
X152623000Y-146037000D01*
G75*
G02*
X152523000Y-145937000I0J100000D01*
G01*
G37*
%TD.AperFunction*%
%TD*%
%TO.P,U0,8*%
%TO.N,Net-(D0-Pad1)*%
%TA.AperFunction,SMDPad,CuDef*%
G36*
G01*
X166855000Y-139676000D02*
X167155000Y-139676000D01*
G75*
G02*
X167305000Y-139826000I0J-150000D01*
G01*
X167305000Y-141476000D01*
G75*
G02*
X167155000Y-141626000I-150000J0D01*
G01*
X166855000Y-141626000D01*
G75*
G02*
X166705000Y-141476000I0J150000D01*
G01*
X166705000Y-139826000D01*
G75*
G02*
X166855000Y-139676000I150000J0D01*
G01*
G37*
%TD.AperFunction*%
%TO.P,U0,7*%
%TA.AperFunction,SMDPad,CuDef*%
G36*
G01*
X165585000Y-139676000D02*
X165885000Y-139676000D01*
G75*
G02*
X166035000Y-139826000I0J-150000D01*
G01*
X166035000Y-141476000D01*
G75*
G02*
X165885000Y-141626000I-150000J0D01*
G01*
X165585000Y-141626000D01*
G75*
G02*
X165435000Y-141476000I0J150000D01*
G01*
X165435000Y-139826000D01*
G75*
G02*
X165585000Y-139676000I150000J0D01*
G01*
G37*
%TD.AperFunction*%
%TO.P,U0,6*%
%TA.AperFunction,SMDPad,CuDef*%
G36*
G01*
X164315000Y-139676000D02*
X164615000Y-139676000D01*
G75*
G02*
X164765000Y-139826000I0J-150000D01*
G01*
X164765000Y-141476000D01*
G75*
G02*
X164615000Y-141626000I-150000J0D01*
G01*
X164315000Y-141626000D01*
G75*
G02*
X164165000Y-141476000I0J150000D01*
G01*
X164165000Y-139826000D01*
G75*
G02*
X164315000Y-139676000I150000J0D01*
G01*
G37*
%TD.AperFunction*%
%TO.P,U0,5*%
%TA.AperFunction,SMDPad,CuDef*%
G36*
G01*
X163045000Y-139676000D02*
X163345000Y-139676000D01*
G75*
G02*
X163495000Y-139826000I0J-150000D01*
G01*
X163495000Y-141476000D01*
G75*
G02*
X163345000Y-141626000I-150000J0D01*
G01*
X163045000Y-141626000D01*
G75*
G02*
X162895000Y-141476000I0J150000D01*
G01*
X162895000Y-139826000D01*
G75*
G02*
X163045000Y-139676000I150000J0D01*
G01*
G37*
%TD.AperFunction*%
%TO.P,U0,4*%
%TO.N,/PWM_OUT*%
%TA.AperFunction,SMDPad,CuDef*%
G36*
G01*
X163045000Y-134726000D02*
X163345000Y-134726000D01*
G75*
G02*
X163495000Y-134876000I0J-150000D01*
G01*
X163495000Y-136526000D01*
G75*
G02*
X163345000Y-136676000I-150000J0D01*
G01*
X163045000Y-136676000D01*
G75*
G02*
X162895000Y-136526000I0J150000D01*
G01*
X162895000Y-134876000D01*
G75*
G02*
X163045000Y-134726000I150000J0D01*
G01*
G37*
%TD.AperFunction*%
%TO.P,U0,3*%
%TO.N,+12V*%
%TA.AperFunction,SMDPad,CuDef*%
G36*
G01*
X164315000Y-134726000D02*
X164615000Y-134726000D01*
G75*
G02*
X164765000Y-134876000I0J-150000D01*
G01*
X164765000Y-136526000D01*
G75*
G02*
X164615000Y-136676000I-150000J0D01*
G01*
X164315000Y-136676000D01*
G75*
G02*
X164165000Y-136526000I0J150000D01*
G01*
X164165000Y-134876000D01*
G75*
G02*
X164315000Y-134726000I150000J0D01*
G01*
G37*
%TD.AperFunction*%
%TO.P,U0,2*%
%TA.AperFunction,SMDPad,CuDef*%
G36*
G01*
X165585000Y-134726000D02*
X165885000Y-134726000D01*
G75*
G02*
X166035000Y-134876000I0J-150000D01*
G01*
X166035000Y-136526000D01*
G75*
G02*
X165885000Y-136676000I-150000J0D01*
G01*
X165585000Y-136676000D01*
G75*
G02*
X165435000Y-136526000I0J150000D01*
G01*
X165435000Y-134876000D01*
G75*
G02*
X165585000Y-134726000I150000J0D01*
G01*
G37*
%TD.AperFunction*%
%TO.P,U0,1*%
%TA.AperFunction,SMDPad,CuDef*%
G36*
G01*
X166855000Y-134726000D02*
X167155000Y-134726000D01*
G75*
G02*
X167305000Y-134876000I0J-150000D01*
G01*
X167305000Y-136526000D01*
G75*
G02*
X167155000Y-136676000I-150000J0D01*
G01*
X166855000Y-136676000D01*
G75*
G02*
X166705000Y-136526000I0J150000D01*
G01*
X166705000Y-134876000D01*
G75*
G02*
X166855000Y-134726000I150000J0D01*
G01*
G37*
%TD.AperFunction*%
%TD*%
D12*
%TO.P,TP401,1*%
%TO.N,Net-(R402-Pad1)*%
X124968000Y-143256000D03*
%TD*%
%TO.P,TP400,1*%
%TO.N,Net-(R302-Pad1)*%
X133096000Y-129032000D03*
%TD*%
%TO.P,TP300,1*%
%TO.N,Net-(R200-Pad1)*%
X149352000Y-131064000D03*
%TD*%
%TO.P,TP100,1*%
%TO.N,Net-(C100-Pad1)*%
X148844000Y-143256000D03*
%TD*%
%TO.P,TP2,1*%
%TO.N,Net-(D0-Pad1)*%
X165608000Y-131064000D03*
%TD*%
%TO.P,TP1,1*%
%TO.N,/powerResistors/IN*%
X183388000Y-131064000D03*
%TD*%
%TO.P,TP0,1*%
%TO.N,/PWM_OUT*%
X160020000Y-131064000D03*
%TD*%
D15*
%TO.P,TH401,2*%
%TO.N,Net-(R402-Pad1)*%
X119888000Y-143256000D03*
D16*
%TO.P,TH401,1*%
%TO.N,GND*%
X119888000Y-145796000D03*
%TD*%
D15*
%TO.P,TH400,2*%
%TO.N,Net-(R402-Pad1)*%
X139192000Y-75692000D03*
D16*
%TO.P,TH400,1*%
%TO.N,GND*%
X141732000Y-75692000D03*
%TD*%
%TO.P,R405,2*%
%TO.N,+10V*%
%TA.AperFunction,SMDPad,CuDef*%
G36*
G01*
X105426500Y-140125000D02*
X105901500Y-140125000D01*
G75*
G02*
X106139000Y-140362500I0J-237500D01*
G01*
X106139000Y-140862500D01*
G75*
G02*
X105901500Y-141100000I-237500J0D01*
G01*
X105426500Y-141100000D01*
G75*
G02*
X105189000Y-140862500I0J237500D01*
G01*
X105189000Y-140362500D01*
G75*
G02*
X105426500Y-140125000I237500J0D01*
G01*
G37*
%TD.AperFunction*%
%TO.P,R405,1*%
%TO.N,Net-(D400-Pad1)*%
%TA.AperFunction,SMDPad,CuDef*%
G36*
G01*
X105426500Y-138300000D02*
X105901500Y-138300000D01*
G75*
G02*
X106139000Y-138537500I0J-237500D01*
G01*
X106139000Y-139037500D01*
G75*
G02*
X105901500Y-139275000I-237500J0D01*
G01*
X105426500Y-139275000D01*
G75*
G02*
X105189000Y-139037500I0J237500D01*
G01*
X105189000Y-138537500D01*
G75*
G02*
X105426500Y-138300000I237500J0D01*
G01*
G37*
%TD.AperFunction*%
%TD*%
%TO.P,R404,2*%
%TO.N,+12V*%
%TA.AperFunction,SMDPad,CuDef*%
G36*
G01*
X118093500Y-134091500D02*
X117618500Y-134091500D01*
G75*
G02*
X117381000Y-133854000I0J237500D01*
G01*
X117381000Y-133354000D01*
G75*
G02*
X117618500Y-133116500I237500J0D01*
G01*
X118093500Y-133116500D01*
G75*
G02*
X118331000Y-133354000I0J-237500D01*
G01*
X118331000Y-133854000D01*
G75*
G02*
X118093500Y-134091500I-237500J0D01*
G01*
G37*
%TD.AperFunction*%
%TO.P,R404,1*%
%TO.N,Net-(D400-Pad1)*%
%TA.AperFunction,SMDPad,CuDef*%
G36*
G01*
X118093500Y-135916500D02*
X117618500Y-135916500D01*
G75*
G02*
X117381000Y-135679000I0J237500D01*
G01*
X117381000Y-135179000D01*
G75*
G02*
X117618500Y-134941500I237500J0D01*
G01*
X118093500Y-134941500D01*
G75*
G02*
X118331000Y-135179000I0J-237500D01*
G01*
X118331000Y-135679000D01*
G75*
G02*
X118093500Y-135916500I-237500J0D01*
G01*
G37*
%TD.AperFunction*%
%TD*%
%TO.P,R402,2*%
%TO.N,Net-(D400-Pad1)*%
%TA.AperFunction,SMDPad,CuDef*%
G36*
G01*
X118343500Y-138446500D02*
X118343500Y-138921500D01*
G75*
G02*
X118106000Y-139159000I-237500J0D01*
G01*
X117606000Y-139159000D01*
G75*
G02*
X117368500Y-138921500I0J237500D01*
G01*
X117368500Y-138446500D01*
G75*
G02*
X117606000Y-138209000I237500J0D01*
G01*
X118106000Y-138209000D01*
G75*
G02*
X118343500Y-138446500I0J-237500D01*
G01*
G37*
%TD.AperFunction*%
%TO.P,R402,1*%
%TO.N,Net-(R402-Pad1)*%
%TA.AperFunction,SMDPad,CuDef*%
G36*
G01*
X120168500Y-138446500D02*
X120168500Y-138921500D01*
G75*
G02*
X119931000Y-139159000I-237500J0D01*
G01*
X119431000Y-139159000D01*
G75*
G02*
X119193500Y-138921500I0J237500D01*
G01*
X119193500Y-138446500D01*
G75*
G02*
X119431000Y-138209000I237500J0D01*
G01*
X119931000Y-138209000D01*
G75*
G02*
X120168500Y-138446500I0J-237500D01*
G01*
G37*
%TD.AperFunction*%
%TD*%
%TO.P,R401,2*%
%TO.N,Net-(R302-Pad1)*%
%TA.AperFunction,SMDPad,CuDef*%
G36*
G01*
X128949000Y-129269500D02*
X128949000Y-128794500D01*
G75*
G02*
X129186500Y-128557000I237500J0D01*
G01*
X129686500Y-128557000D01*
G75*
G02*
X129924000Y-128794500I0J-237500D01*
G01*
X129924000Y-129269500D01*
G75*
G02*
X129686500Y-129507000I-237500J0D01*
G01*
X129186500Y-129507000D01*
G75*
G02*
X128949000Y-129269500I0J237500D01*
G01*
G37*
%TD.AperFunction*%
%TO.P,R401,1*%
%TO.N,Net-(R400-Pad1)*%
%TA.AperFunction,SMDPad,CuDef*%
G36*
G01*
X127124000Y-129269500D02*
X127124000Y-128794500D01*
G75*
G02*
X127361500Y-128557000I237500J0D01*
G01*
X127861500Y-128557000D01*
G75*
G02*
X128099000Y-128794500I0J-237500D01*
G01*
X128099000Y-129269500D01*
G75*
G02*
X127861500Y-129507000I-237500J0D01*
G01*
X127361500Y-129507000D01*
G75*
G02*
X127124000Y-129269500I0J237500D01*
G01*
G37*
%TD.AperFunction*%
%TD*%
%TO.P,R400,2*%
%TO.N,GND*%
%TA.AperFunction,SMDPad,CuDef*%
G36*
G01*
X120987000Y-133366500D02*
X120987000Y-133841500D01*
G75*
G02*
X120749500Y-134079000I-237500J0D01*
G01*
X120249500Y-134079000D01*
G75*
G02*
X120012000Y-133841500I0J237500D01*
G01*
X120012000Y-133366500D01*
G75*
G02*
X120249500Y-133129000I237500J0D01*
G01*
X120749500Y-133129000D01*
G75*
G02*
X120987000Y-133366500I0J-237500D01*
G01*
G37*
%TD.AperFunction*%
%TO.P,R400,1*%
%TO.N,Net-(R400-Pad1)*%
%TA.AperFunction,SMDPad,CuDef*%
G36*
G01*
X122812000Y-133366500D02*
X122812000Y-133841500D01*
G75*
G02*
X122574500Y-134079000I-237500J0D01*
G01*
X122074500Y-134079000D01*
G75*
G02*
X121837000Y-133841500I0J237500D01*
G01*
X121837000Y-133366500D01*
G75*
G02*
X122074500Y-133129000I237500J0D01*
G01*
X122574500Y-133129000D01*
G75*
G02*
X122812000Y-133366500I0J-237500D01*
G01*
G37*
%TD.AperFunction*%
%TD*%
%TO.P,R305,2*%
%TO.N,Net-(R303-Pad1)*%
%TA.AperFunction,SMDPad,CuDef*%
G36*
G01*
X131809500Y-144863000D02*
X131334500Y-144863000D01*
G75*
G02*
X131097000Y-144625500I0J237500D01*
G01*
X131097000Y-144125500D01*
G75*
G02*
X131334500Y-143888000I237500J0D01*
G01*
X131809500Y-143888000D01*
G75*
G02*
X132047000Y-144125500I0J-237500D01*
G01*
X132047000Y-144625500D01*
G75*
G02*
X131809500Y-144863000I-237500J0D01*
G01*
G37*
%TD.AperFunction*%
%TO.P,R305,1*%
%TO.N,GND*%
%TA.AperFunction,SMDPad,CuDef*%
G36*
G01*
X131809500Y-146688000D02*
X131334500Y-146688000D01*
G75*
G02*
X131097000Y-146450500I0J237500D01*
G01*
X131097000Y-145950500D01*
G75*
G02*
X131334500Y-145713000I237500J0D01*
G01*
X131809500Y-145713000D01*
G75*
G02*
X132047000Y-145950500I0J-237500D01*
G01*
X132047000Y-146450500D01*
G75*
G02*
X131809500Y-146688000I-237500J0D01*
G01*
G37*
%TD.AperFunction*%
%TD*%
%TO.P,R304,2*%
%TO.N,+5V*%
%TA.AperFunction,SMDPad,CuDef*%
G36*
G01*
X131809500Y-140902500D02*
X131334500Y-140902500D01*
G75*
G02*
X131097000Y-140665000I0J237500D01*
G01*
X131097000Y-140165000D01*
G75*
G02*
X131334500Y-139927500I237500J0D01*
G01*
X131809500Y-139927500D01*
G75*
G02*
X132047000Y-140165000I0J-237500D01*
G01*
X132047000Y-140665000D01*
G75*
G02*
X131809500Y-140902500I-237500J0D01*
G01*
G37*
%TD.AperFunction*%
%TO.P,R304,1*%
%TO.N,Net-(R303-Pad1)*%
%TA.AperFunction,SMDPad,CuDef*%
G36*
G01*
X131809500Y-142727500D02*
X131334500Y-142727500D01*
G75*
G02*
X131097000Y-142490000I0J237500D01*
G01*
X131097000Y-141990000D01*
G75*
G02*
X131334500Y-141752500I237500J0D01*
G01*
X131809500Y-141752500D01*
G75*
G02*
X132047000Y-141990000I0J-237500D01*
G01*
X132047000Y-142490000D01*
G75*
G02*
X131809500Y-142727500I-237500J0D01*
G01*
G37*
%TD.AperFunction*%
%TD*%
%TO.P,R303,2*%
%TO.N,Net-(R302-Pad2)*%
%TA.AperFunction,SMDPad,CuDef*%
G36*
G01*
X136061000Y-142477500D02*
X136061000Y-142002500D01*
G75*
G02*
X136298500Y-141765000I237500J0D01*
G01*
X136798500Y-141765000D01*
G75*
G02*
X137036000Y-142002500I0J-237500D01*
G01*
X137036000Y-142477500D01*
G75*
G02*
X136798500Y-142715000I-237500J0D01*
G01*
X136298500Y-142715000D01*
G75*
G02*
X136061000Y-142477500I0J237500D01*
G01*
G37*
%TD.AperFunction*%
%TO.P,R303,1*%
%TO.N,Net-(R303-Pad1)*%
%TA.AperFunction,SMDPad,CuDef*%
G36*
G01*
X134236000Y-142477500D02*
X134236000Y-142002500D01*
G75*
G02*
X134473500Y-141765000I237500J0D01*
G01*
X134973500Y-141765000D01*
G75*
G02*
X135211000Y-142002500I0J-237500D01*
G01*
X135211000Y-142477500D01*
G75*
G02*
X134973500Y-142715000I-237500J0D01*
G01*
X134473500Y-142715000D01*
G75*
G02*
X134236000Y-142477500I0J237500D01*
G01*
G37*
%TD.AperFunction*%
%TD*%
%TO.P,R302,2*%
%TO.N,Net-(R302-Pad2)*%
%TA.AperFunction,SMDPad,CuDef*%
G36*
G01*
X136061000Y-138413500D02*
X136061000Y-137938500D01*
G75*
G02*
X136298500Y-137701000I237500J0D01*
G01*
X136798500Y-137701000D01*
G75*
G02*
X137036000Y-137938500I0J-237500D01*
G01*
X137036000Y-138413500D01*
G75*
G02*
X136798500Y-138651000I-237500J0D01*
G01*
X136298500Y-138651000D01*
G75*
G02*
X136061000Y-138413500I0J237500D01*
G01*
G37*
%TD.AperFunction*%
%TO.P,R302,1*%
%TO.N,Net-(R302-Pad1)*%
%TA.AperFunction,SMDPad,CuDef*%
G36*
G01*
X134236000Y-138413500D02*
X134236000Y-137938500D01*
G75*
G02*
X134473500Y-137701000I237500J0D01*
G01*
X134973500Y-137701000D01*
G75*
G02*
X135211000Y-137938500I0J-237500D01*
G01*
X135211000Y-138413500D01*
G75*
G02*
X134973500Y-138651000I-237500J0D01*
G01*
X134473500Y-138651000D01*
G75*
G02*
X134236000Y-138413500I0J237500D01*
G01*
G37*
%TD.AperFunction*%
%TD*%
%TO.P,R301,2*%
%TO.N,Net-(R200-Pad1)*%
%TA.AperFunction,SMDPad,CuDef*%
G36*
G01*
X143681000Y-129269500D02*
X143681000Y-128794500D01*
G75*
G02*
X143918500Y-128557000I237500J0D01*
G01*
X144418500Y-128557000D01*
G75*
G02*
X144656000Y-128794500I0J-237500D01*
G01*
X144656000Y-129269500D01*
G75*
G02*
X144418500Y-129507000I-237500J0D01*
G01*
X143918500Y-129507000D01*
G75*
G02*
X143681000Y-129269500I0J237500D01*
G01*
G37*
%TD.AperFunction*%
%TO.P,R301,1*%
%TO.N,Net-(R300-Pad1)*%
%TA.AperFunction,SMDPad,CuDef*%
G36*
G01*
X141856000Y-129269500D02*
X141856000Y-128794500D01*
G75*
G02*
X142093500Y-128557000I237500J0D01*
G01*
X142593500Y-128557000D01*
G75*
G02*
X142831000Y-128794500I0J-237500D01*
G01*
X142831000Y-129269500D01*
G75*
G02*
X142593500Y-129507000I-237500J0D01*
G01*
X142093500Y-129507000D01*
G75*
G02*
X141856000Y-129269500I0J237500D01*
G01*
G37*
%TD.AperFunction*%
%TD*%
%TO.P,R300,2*%
%TO.N,GND*%
%TA.AperFunction,SMDPad,CuDef*%
G36*
G01*
X136889500Y-133179000D02*
X136414500Y-133179000D01*
G75*
G02*
X136177000Y-132941500I0J237500D01*
G01*
X136177000Y-132441500D01*
G75*
G02*
X136414500Y-132204000I237500J0D01*
G01*
X136889500Y-132204000D01*
G75*
G02*
X137127000Y-132441500I0J-237500D01*
G01*
X137127000Y-132941500D01*
G75*
G02*
X136889500Y-133179000I-237500J0D01*
G01*
G37*
%TD.AperFunction*%
%TO.P,R300,1*%
%TO.N,Net-(R300-Pad1)*%
%TA.AperFunction,SMDPad,CuDef*%
G36*
G01*
X136889500Y-135004000D02*
X136414500Y-135004000D01*
G75*
G02*
X136177000Y-134766500I0J237500D01*
G01*
X136177000Y-134266500D01*
G75*
G02*
X136414500Y-134029000I237500J0D01*
G01*
X136889500Y-134029000D01*
G75*
G02*
X137127000Y-134266500I0J-237500D01*
G01*
X137127000Y-134766500D01*
G75*
G02*
X136889500Y-135004000I-237500J0D01*
G01*
G37*
%TD.AperFunction*%
%TD*%
%TO.P,R201,2*%
%TO.N,/PWM_OUT*%
%TA.AperFunction,SMDPad,CuDef*%
G36*
G01*
X155873000Y-131301500D02*
X155873000Y-130826500D01*
G75*
G02*
X156110500Y-130589000I237500J0D01*
G01*
X156610500Y-130589000D01*
G75*
G02*
X156848000Y-130826500I0J-237500D01*
G01*
X156848000Y-131301500D01*
G75*
G02*
X156610500Y-131539000I-237500J0D01*
G01*
X156110500Y-131539000D01*
G75*
G02*
X155873000Y-131301500I0J237500D01*
G01*
G37*
%TD.AperFunction*%
%TO.P,R201,1*%
%TO.N,Net-(R200-Pad1)*%
%TA.AperFunction,SMDPad,CuDef*%
G36*
G01*
X154048000Y-131301500D02*
X154048000Y-130826500D01*
G75*
G02*
X154285500Y-130589000I237500J0D01*
G01*
X154785500Y-130589000D01*
G75*
G02*
X155023000Y-130826500I0J-237500D01*
G01*
X155023000Y-131301500D01*
G75*
G02*
X154785500Y-131539000I-237500J0D01*
G01*
X154285500Y-131539000D01*
G75*
G02*
X154048000Y-131301500I0J237500D01*
G01*
G37*
%TD.AperFunction*%
%TD*%
%TO.P,R200,2*%
%TO.N,GND*%
%TA.AperFunction,SMDPad,CuDef*%
G36*
G01*
X149114500Y-137077000D02*
X149589500Y-137077000D01*
G75*
G02*
X149827000Y-137314500I0J-237500D01*
G01*
X149827000Y-137814500D01*
G75*
G02*
X149589500Y-138052000I-237500J0D01*
G01*
X149114500Y-138052000D01*
G75*
G02*
X148877000Y-137814500I0J237500D01*
G01*
X148877000Y-137314500D01*
G75*
G02*
X149114500Y-137077000I237500J0D01*
G01*
G37*
%TD.AperFunction*%
%TO.P,R200,1*%
%TO.N,Net-(R200-Pad1)*%
%TA.AperFunction,SMDPad,CuDef*%
G36*
G01*
X149114500Y-135252000D02*
X149589500Y-135252000D01*
G75*
G02*
X149827000Y-135489500I0J-237500D01*
G01*
X149827000Y-135989500D01*
G75*
G02*
X149589500Y-136227000I-237500J0D01*
G01*
X149114500Y-136227000D01*
G75*
G02*
X148877000Y-135989500I0J237500D01*
G01*
X148877000Y-135489500D01*
G75*
G02*
X149114500Y-135252000I237500J0D01*
G01*
G37*
%TD.AperFunction*%
%TD*%
%TO.P,R103,2*%
%TO.N,Net-(R101-Pad2)*%
%TA.AperFunction,SMDPad,CuDef*%
G36*
G01*
X145017500Y-152991000D02*
X144542500Y-152991000D01*
G75*
G02*
X144305000Y-152753500I0J237500D01*
G01*
X144305000Y-152253500D01*
G75*
G02*
X144542500Y-152016000I237500J0D01*
G01*
X145017500Y-152016000D01*
G75*
G02*
X145255000Y-152253500I0J-237500D01*
G01*
X145255000Y-152753500D01*
G75*
G02*
X145017500Y-152991000I-237500J0D01*
G01*
G37*
%TD.AperFunction*%
%TO.P,R103,1*%
%TO.N,GND*%
%TA.AperFunction,SMDPad,CuDef*%
G36*
G01*
X145017500Y-154816000D02*
X144542500Y-154816000D01*
G75*
G02*
X144305000Y-154578500I0J237500D01*
G01*
X144305000Y-154078500D01*
G75*
G02*
X144542500Y-153841000I237500J0D01*
G01*
X145017500Y-153841000D01*
G75*
G02*
X145255000Y-154078500I0J-237500D01*
G01*
X145255000Y-154578500D01*
G75*
G02*
X145017500Y-154816000I-237500J0D01*
G01*
G37*
%TD.AperFunction*%
%TD*%
%TO.P,R102,2*%
%TO.N,+5V*%
%TA.AperFunction,SMDPad,CuDef*%
G36*
G01*
X145017500Y-148927000D02*
X144542500Y-148927000D01*
G75*
G02*
X144305000Y-148689500I0J237500D01*
G01*
X144305000Y-148189500D01*
G75*
G02*
X144542500Y-147952000I237500J0D01*
G01*
X145017500Y-147952000D01*
G75*
G02*
X145255000Y-148189500I0J-237500D01*
G01*
X145255000Y-148689500D01*
G75*
G02*
X145017500Y-148927000I-237500J0D01*
G01*
G37*
%TD.AperFunction*%
%TO.P,R102,1*%
%TO.N,Net-(R101-Pad2)*%
%TA.AperFunction,SMDPad,CuDef*%
G36*
G01*
X145017500Y-150752000D02*
X144542500Y-150752000D01*
G75*
G02*
X144305000Y-150514500I0J237500D01*
G01*
X144305000Y-150014500D01*
G75*
G02*
X144542500Y-149777000I237500J0D01*
G01*
X145017500Y-149777000D01*
G75*
G02*
X145255000Y-150014500I0J-237500D01*
G01*
X145255000Y-150514500D01*
G75*
G02*
X145017500Y-150752000I-237500J0D01*
G01*
G37*
%TD.AperFunction*%
%TD*%
%TO.P,R101,2*%
%TO.N,Net-(R101-Pad2)*%
%TA.AperFunction,SMDPad,CuDef*%
G36*
G01*
X155023000Y-151654500D02*
X155023000Y-152129500D01*
G75*
G02*
X154785500Y-152367000I-237500J0D01*
G01*
X154285500Y-152367000D01*
G75*
G02*
X154048000Y-152129500I0J237500D01*
G01*
X154048000Y-151654500D01*
G75*
G02*
X154285500Y-151417000I237500J0D01*
G01*
X154785500Y-151417000D01*
G75*
G02*
X155023000Y-151654500I0J-237500D01*
G01*
G37*
%TD.AperFunction*%
%TO.P,R101,1*%
%TO.N,Net-(R100-Pad2)*%
%TA.AperFunction,SMDPad,CuDef*%
G36*
G01*
X156848000Y-151654500D02*
X156848000Y-152129500D01*
G75*
G02*
X156610500Y-152367000I-237500J0D01*
G01*
X156110500Y-152367000D01*
G75*
G02*
X155873000Y-152129500I0J237500D01*
G01*
X155873000Y-151654500D01*
G75*
G02*
X156110500Y-151417000I237500J0D01*
G01*
X156610500Y-151417000D01*
G75*
G02*
X156848000Y-151654500I0J-237500D01*
G01*
G37*
%TD.AperFunction*%
%TD*%
%TO.P,R100,2*%
%TO.N,Net-(R100-Pad2)*%
%TA.AperFunction,SMDPad,CuDef*%
G36*
G01*
X155873000Y-141969500D02*
X155873000Y-141494500D01*
G75*
G02*
X156110500Y-141257000I237500J0D01*
G01*
X156610500Y-141257000D01*
G75*
G02*
X156848000Y-141494500I0J-237500D01*
G01*
X156848000Y-141969500D01*
G75*
G02*
X156610500Y-142207000I-237500J0D01*
G01*
X156110500Y-142207000D01*
G75*
G02*
X155873000Y-141969500I0J237500D01*
G01*
G37*
%TD.AperFunction*%
%TO.P,R100,1*%
%TO.N,Net-(C100-Pad1)*%
%TA.AperFunction,SMDPad,CuDef*%
G36*
G01*
X154048000Y-141969500D02*
X154048000Y-141494500D01*
G75*
G02*
X154285500Y-141257000I237500J0D01*
G01*
X154785500Y-141257000D01*
G75*
G02*
X155023000Y-141494500I0J-237500D01*
G01*
X155023000Y-141969500D01*
G75*
G02*
X154785500Y-142207000I-237500J0D01*
G01*
X154285500Y-142207000D01*
G75*
G02*
X154048000Y-141969500I0J237500D01*
G01*
G37*
%TD.AperFunction*%
%TD*%
D17*
%TO.P,R5,2*%
%TO.N,GND*%
X178220000Y-50800000D03*
%TO.P,R5,1*%
%TO.N,Net-(C7-Pad1)*%
X167220000Y-50800000D03*
%TD*%
%TO.P,R4,2*%
%TO.N,Net-(C7-Pad1)*%
X145708000Y-50800000D03*
%TO.P,R4,1*%
%TO.N,Net-(C6-Pad1)*%
X134708000Y-50800000D03*
%TD*%
%TO.P,R3,2*%
%TO.N,Net-(C6-Pad1)*%
X112180000Y-50800000D03*
%TO.P,R3,1*%
%TO.N,Net-(C5-Pad1)*%
X101180000Y-50800000D03*
%TD*%
%TO.P,R2,2*%
%TO.N,Net-(C5-Pad1)*%
X101180000Y-100584000D03*
%TO.P,R2,1*%
%TO.N,Net-(C4-Pad1)*%
X112180000Y-100584000D03*
%TD*%
%TO.P,R1,2*%
%TO.N,Net-(C4-Pad1)*%
X134708000Y-100584000D03*
%TO.P,R1,1*%
%TO.N,Net-(C3-Pad1)*%
X145708000Y-100584000D03*
%TD*%
%TO.P,R0,2*%
%TO.N,Net-(C3-Pad1)*%
X167220000Y-100584000D03*
%TO.P,R0,1*%
%TO.N,/powerResistors/IN*%
X178220000Y-100584000D03*
%TD*%
D18*
%TO.P,L0,2*%
%TO.N,/powerResistors/IN*%
X179192000Y-145796000D03*
%TO.P,L0,1*%
%TO.N,Net-(D0-Pad1)*%
X170302000Y-145796000D03*
%TD*%
D19*
%TO.P,D400,2*%
%TO.N,GND*%
X112268000Y-145484000D03*
%TO.P,D400,1*%
%TO.N,Net-(D400-Pad1)*%
X112268000Y-138684000D03*
%TD*%
D20*
%TO.P,D0,2*%
%TO.N,GND*%
X178152000Y-135636000D03*
%TO.P,D0,1*%
%TO.N,Net-(D0-Pad1)*%
X171352000Y-135636000D03*
%TD*%
%TO.P,C601,2*%
%TO.N,GND*%
%TA.AperFunction,SMDPad,CuDef*%
G36*
G01*
X100767000Y-140478500D02*
X100767000Y-140953500D01*
G75*
G02*
X100529500Y-141191000I-237500J0D01*
G01*
X99929500Y-141191000D01*
G75*
G02*
X99692000Y-140953500I0J237500D01*
G01*
X99692000Y-140478500D01*
G75*
G02*
X99929500Y-140241000I237500J0D01*
G01*
X100529500Y-140241000D01*
G75*
G02*
X100767000Y-140478500I0J-237500D01*
G01*
G37*
%TD.AperFunction*%
%TO.P,C601,1*%
%TO.N,+10V*%
%TA.AperFunction,SMDPad,CuDef*%
G36*
G01*
X102492000Y-140478500D02*
X102492000Y-140953500D01*
G75*
G02*
X102254500Y-141191000I-237500J0D01*
G01*
X101654500Y-141191000D01*
G75*
G02*
X101417000Y-140953500I0J237500D01*
G01*
X101417000Y-140478500D01*
G75*
G02*
X101654500Y-140241000I237500J0D01*
G01*
X102254500Y-140241000D01*
G75*
G02*
X102492000Y-140478500I0J-237500D01*
G01*
G37*
%TD.AperFunction*%
%TD*%
%TO.P,C600,2*%
%TO.N,GND*%
%TA.AperFunction,SMDPad,CuDef*%
G36*
G01*
X100767000Y-152670500D02*
X100767000Y-153145500D01*
G75*
G02*
X100529500Y-153383000I-237500J0D01*
G01*
X99929500Y-153383000D01*
G75*
G02*
X99692000Y-153145500I0J237500D01*
G01*
X99692000Y-152670500D01*
G75*
G02*
X99929500Y-152433000I237500J0D01*
G01*
X100529500Y-152433000D01*
G75*
G02*
X100767000Y-152670500I0J-237500D01*
G01*
G37*
%TD.AperFunction*%
%TO.P,C600,1*%
%TO.N,+12V*%
%TA.AperFunction,SMDPad,CuDef*%
G36*
G01*
X102492000Y-152670500D02*
X102492000Y-153145500D01*
G75*
G02*
X102254500Y-153383000I-237500J0D01*
G01*
X101654500Y-153383000D01*
G75*
G02*
X101417000Y-153145500I0J237500D01*
G01*
X101417000Y-152670500D01*
G75*
G02*
X101654500Y-152433000I237500J0D01*
G01*
X102254500Y-152433000D01*
G75*
G02*
X102492000Y-152670500I0J-237500D01*
G01*
G37*
%TD.AperFunction*%
%TD*%
%TO.P,C501,2*%
%TO.N,GND*%
%TA.AperFunction,SMDPad,CuDef*%
G36*
G01*
X101417000Y-136889500D02*
X101417000Y-136414500D01*
G75*
G02*
X101654500Y-136177000I237500J0D01*
G01*
X102254500Y-136177000D01*
G75*
G02*
X102492000Y-136414500I0J-237500D01*
G01*
X102492000Y-136889500D01*
G75*
G02*
X102254500Y-137127000I-237500J0D01*
G01*
X101654500Y-137127000D01*
G75*
G02*
X101417000Y-136889500I0J237500D01*
G01*
G37*
%TD.AperFunction*%
%TO.P,C501,1*%
%TO.N,+5V*%
%TA.AperFunction,SMDPad,CuDef*%
G36*
G01*
X99692000Y-136889500D02*
X99692000Y-136414500D01*
G75*
G02*
X99929500Y-136177000I237500J0D01*
G01*
X100529500Y-136177000D01*
G75*
G02*
X100767000Y-136414500I0J-237500D01*
G01*
X100767000Y-136889500D01*
G75*
G02*
X100529500Y-137127000I-237500J0D01*
G01*
X99929500Y-137127000D01*
G75*
G02*
X99692000Y-136889500I0J237500D01*
G01*
G37*
%TD.AperFunction*%
%TD*%
%TO.P,C500,2*%
%TO.N,GND*%
%TA.AperFunction,SMDPad,CuDef*%
G36*
G01*
X94725500Y-130739000D02*
X94250500Y-130739000D01*
G75*
G02*
X94013000Y-130501500I0J237500D01*
G01*
X94013000Y-129901500D01*
G75*
G02*
X94250500Y-129664000I237500J0D01*
G01*
X94725500Y-129664000D01*
G75*
G02*
X94963000Y-129901500I0J-237500D01*
G01*
X94963000Y-130501500D01*
G75*
G02*
X94725500Y-130739000I-237500J0D01*
G01*
G37*
%TD.AperFunction*%
%TO.P,C500,1*%
%TO.N,+12V*%
%TA.AperFunction,SMDPad,CuDef*%
G36*
G01*
X94725500Y-132464000D02*
X94250500Y-132464000D01*
G75*
G02*
X94013000Y-132226500I0J237500D01*
G01*
X94013000Y-131626500D01*
G75*
G02*
X94250500Y-131389000I237500J0D01*
G01*
X94725500Y-131389000D01*
G75*
G02*
X94963000Y-131626500I0J-237500D01*
G01*
X94963000Y-132226500D01*
G75*
G02*
X94725500Y-132464000I-237500J0D01*
G01*
G37*
%TD.AperFunction*%
%TD*%
%TO.P,C100,2*%
%TO.N,GND*%
%TA.AperFunction,SMDPad,CuDef*%
G36*
G01*
X148606500Y-147645000D02*
X149081500Y-147645000D01*
G75*
G02*
X149319000Y-147882500I0J-237500D01*
G01*
X149319000Y-148482500D01*
G75*
G02*
X149081500Y-148720000I-237500J0D01*
G01*
X148606500Y-148720000D01*
G75*
G02*
X148369000Y-148482500I0J237500D01*
G01*
X148369000Y-147882500D01*
G75*
G02*
X148606500Y-147645000I237500J0D01*
G01*
G37*
%TD.AperFunction*%
%TO.P,C100,1*%
%TO.N,Net-(C100-Pad1)*%
%TA.AperFunction,SMDPad,CuDef*%
G36*
G01*
X148606500Y-145920000D02*
X149081500Y-145920000D01*
G75*
G02*
X149319000Y-146157500I0J-237500D01*
G01*
X149319000Y-146757500D01*
G75*
G02*
X149081500Y-146995000I-237500J0D01*
G01*
X148606500Y-146995000D01*
G75*
G02*
X148369000Y-146757500I0J237500D01*
G01*
X148369000Y-146157500D01*
G75*
G02*
X148606500Y-145920000I237500J0D01*
G01*
G37*
%TD.AperFunction*%
%TD*%
%TO.P,C1,2*%
%TO.N,GND*%
%TA.AperFunction,SMDPad,CuDef*%
G36*
G01*
X185812000Y-146896002D02*
X185812000Y-144695998D01*
G75*
G02*
X186061998Y-144446000I249998J0D01*
G01*
X186887002Y-144446000D01*
G75*
G02*
X187137000Y-144695998I0J-249998D01*
G01*
X187137000Y-146896002D01*
G75*
G02*
X186887002Y-147146000I-249998J0D01*
G01*
X186061998Y-147146000D01*
G75*
G02*
X185812000Y-146896002I0J249998D01*
G01*
G37*
%TD.AperFunction*%
%TO.P,C1,1*%
%TO.N,/powerResistors/IN*%
%TA.AperFunction,SMDPad,CuDef*%
G36*
G01*
X182687000Y-146896002D02*
X182687000Y-144695998D01*
G75*
G02*
X182936998Y-144446000I249998J0D01*
G01*
X183762002Y-144446000D01*
G75*
G02*
X184012000Y-144695998I0J-249998D01*
G01*
X184012000Y-146896002D01*
G75*
G02*
X183762002Y-147146000I-249998J0D01*
G01*
X182936998Y-147146000D01*
G75*
G02*
X182687000Y-146896002I0J249998D01*
G01*
G37*
%TD.AperFunction*%
%TD*%
%TO.P,C0,2*%
%TO.N,GND*%
%TA.AperFunction,SMDPad,CuDef*%
G36*
G01*
X185812000Y-140800002D02*
X185812000Y-138599998D01*
G75*
G02*
X186061998Y-138350000I249998J0D01*
G01*
X186887002Y-138350000D01*
G75*
G02*
X187137000Y-138599998I0J-249998D01*
G01*
X187137000Y-140800002D01*
G75*
G02*
X186887002Y-141050000I-249998J0D01*
G01*
X186061998Y-141050000D01*
G75*
G02*
X185812000Y-140800002I0J249998D01*
G01*
G37*
%TD.AperFunction*%
%TO.P,C0,1*%
%TO.N,/powerResistors/IN*%
%TA.AperFunction,SMDPad,CuDef*%
G36*
G01*
X182687000Y-140800002D02*
X182687000Y-138599998D01*
G75*
G02*
X182936998Y-138350000I249998J0D01*
G01*
X183762002Y-138350000D01*
G75*
G02*
X184012000Y-138599998I0J-249998D01*
G01*
X184012000Y-140800002D01*
G75*
G02*
X183762002Y-141050000I-249998J0D01*
G01*
X182936998Y-141050000D01*
G75*
G02*
X182687000Y-140800002I0J249998D01*
G01*
G37*
%TD.AperFunction*%
%TD*%
D21*
%TO.N,GND*%
X99568000Y-150876000D03*
X100584000Y-150876000D03*
X100584000Y-142748000D03*
X99568000Y-142748000D03*
X102108000Y-138176000D03*
X100076000Y-139192000D03*
X141732000Y-77724000D03*
X113792000Y-93472000D03*
X147320000Y-93472000D03*
X179832000Y-93472000D03*
X102616000Y-43688000D03*
X136144000Y-43688000D03*
X168656000Y-43688000D03*
X121920000Y-145796000D03*
X180340000Y-134620000D03*
X180340000Y-136652000D03*
X180340000Y-135636000D03*
X187960000Y-138684000D03*
X187960000Y-140716000D03*
X187960000Y-139700000D03*
X187960000Y-144780000D03*
X187960000Y-145796000D03*
X187960000Y-146812000D03*
X98552000Y-127508000D03*
X99568000Y-127508000D03*
X100584000Y-127508000D03*
X90424000Y-142748000D03*
X91440000Y-142748000D03*
X92456000Y-142748000D03*
X97536000Y-135128000D03*
X181356000Y-48260000D03*
X181356000Y-53340000D03*
X181356000Y-50800000D03*
X120396000Y-132080000D03*
X123952000Y-137160000D03*
X133096000Y-146304000D03*
X112268000Y-147828000D03*
X137959000Y-132588000D03*
X138176000Y-137160000D03*
X147828000Y-137668000D03*
X151892000Y-137668000D03*
X166624000Y-153924000D03*
X151601000Y-148336000D03*
X147320000Y-148336000D03*
X146304000Y-154432000D03*
%TO.N,+12V*%
X99060000Y-135128000D03*
X100742990Y-135128000D03*
X93472000Y-135636000D03*
X95504000Y-135636000D03*
X94488000Y-135636000D03*
X167132000Y-133604000D03*
X165608000Y-133604000D03*
X164084000Y-133604000D03*
X159004000Y-134620000D03*
X116332000Y-133096000D03*
X102108000Y-150876000D03*
X102108000Y-151892000D03*
%TO.N,+5V*%
X147828000Y-135014500D03*
X132600819Y-135098665D03*
X100076000Y-138176000D03*
X133096000Y-140208000D03*
X159512000Y-146304000D03*
X146304000Y-148336000D03*
%TO.N,Net-(R402-Pad1)*%
X127508000Y-143256000D03*
%TD*%
D22*
%TO.N,GND*%
X101954500Y-138022500D02*
X102108000Y-138176000D01*
X101954500Y-136652000D02*
X101954500Y-138022500D01*
X100229500Y-139345500D02*
X100076000Y-139192000D01*
X100229500Y-140716000D02*
X100229500Y-139345500D01*
X141732000Y-75692000D02*
X141732000Y-77724000D01*
X113437500Y-93117500D02*
X113792000Y-93472000D01*
X112268000Y-93117500D02*
X113437500Y-93117500D01*
X146965500Y-93117500D02*
X147320000Y-93472000D01*
X145796000Y-93117500D02*
X146965500Y-93117500D01*
X179477500Y-93117500D02*
X179832000Y-93472000D01*
X178308000Y-93117500D02*
X179477500Y-93117500D01*
X102261500Y-43333500D02*
X102616000Y-43688000D01*
X101092000Y-43333500D02*
X102261500Y-43333500D01*
X135789500Y-43333500D02*
X136144000Y-43688000D01*
X134620000Y-43333500D02*
X135789500Y-43333500D01*
X168301500Y-43333500D02*
X168656000Y-43688000D01*
X167132000Y-43333500D02*
X168301500Y-43333500D01*
X119888000Y-145796000D02*
X121920000Y-145796000D01*
X98593000Y-134071000D02*
X97536000Y-135128000D01*
X98593000Y-133176500D02*
X98593000Y-134071000D01*
X120499500Y-132183500D02*
X120396000Y-132080000D01*
X120499500Y-133604000D02*
X120499500Y-132183500D01*
X124079000Y-137033000D02*
X123952000Y-137160000D01*
X126049000Y-137033000D02*
X124079000Y-137033000D01*
X132992500Y-146200500D02*
X133096000Y-146304000D01*
X131572000Y-146200500D02*
X132992500Y-146200500D01*
X112268000Y-145484000D02*
X112268000Y-147828000D01*
X137855500Y-132691500D02*
X137959000Y-132588000D01*
X136652000Y-132691500D02*
X137855500Y-132691500D01*
X138303000Y-137033000D02*
X138176000Y-137160000D01*
X140781000Y-137033000D02*
X138303000Y-137033000D01*
X147931500Y-137564500D02*
X147828000Y-137668000D01*
X149352000Y-137564500D02*
X147931500Y-137564500D01*
X152441000Y-137119000D02*
X151892000Y-137668000D01*
X153335500Y-137119000D02*
X152441000Y-137119000D01*
X166247000Y-153547000D02*
X166624000Y-153924000D01*
X164846000Y-153547000D02*
X166247000Y-153547000D01*
X152150000Y-147787000D02*
X151601000Y-148336000D01*
X153335500Y-147787000D02*
X152150000Y-147787000D01*
X147473500Y-148182500D02*
X147320000Y-148336000D01*
X148844000Y-148182500D02*
X147473500Y-148182500D01*
X146200500Y-154328500D02*
X146304000Y-154432000D01*
X144780000Y-154328500D02*
X146200500Y-154328500D01*
%TO.N,Net-(C100-Pad1)*%
X148844000Y-146457500D02*
X148844000Y-143256000D01*
X151567000Y-136469000D02*
X153335500Y-136469000D01*
X150876000Y-137160000D02*
X151567000Y-136469000D01*
X150876000Y-138684000D02*
X150876000Y-137160000D01*
X148844000Y-140716000D02*
X150876000Y-138684000D01*
X148844000Y-143256000D02*
X148844000Y-140716000D01*
X154535500Y-141732000D02*
X154432000Y-141732000D01*
X152908000Y-143256000D02*
X148844000Y-143256000D01*
X154432000Y-141732000D02*
X152908000Y-143256000D01*
X153306000Y-146457500D02*
X153335500Y-146487000D01*
X148844000Y-146457500D02*
X153306000Y-146457500D01*
%TO.N,+12V*%
X101981000Y-152881500D02*
X101954500Y-152908000D01*
X99243000Y-134945000D02*
X99060000Y-135128000D01*
X99243000Y-133176500D02*
X99243000Y-134945000D01*
X100543000Y-134928010D02*
X100742990Y-135128000D01*
X100543000Y-133176500D02*
X100543000Y-134928010D01*
X159004000Y-135188000D02*
X159004000Y-134620000D01*
X158373000Y-135819000D02*
X159004000Y-135188000D01*
X157560500Y-135819000D02*
X158373000Y-135819000D01*
X116840000Y-133604000D02*
X116332000Y-133096000D01*
X117856000Y-133604000D02*
X116840000Y-133604000D01*
%TO.N,+5V*%
X100017990Y-133198990D02*
X100017990Y-136440490D01*
X99995500Y-133176500D02*
X100017990Y-133198990D01*
X100017990Y-136440490D02*
X100229500Y-136652000D01*
X99893000Y-133176500D02*
X99995500Y-133176500D01*
X147306500Y-134493000D02*
X147828000Y-135014500D01*
X145731000Y-134493000D02*
X147306500Y-134493000D01*
X131995154Y-134493000D02*
X132600819Y-135098665D01*
X130999000Y-134493000D02*
X131995154Y-134493000D01*
X100229500Y-138022500D02*
X100076000Y-138176000D01*
X100229500Y-136652000D02*
X100229500Y-138022500D01*
X132889000Y-140415000D02*
X133096000Y-140208000D01*
X131572000Y-140415000D02*
X132889000Y-140415000D01*
X159329000Y-146487000D02*
X159512000Y-146304000D01*
X157560500Y-146487000D02*
X159329000Y-146487000D01*
X146200500Y-148439500D02*
X146304000Y-148336000D01*
X144780000Y-148439500D02*
X146200500Y-148439500D01*
%TO.N,+10V*%
X101981000Y-140742500D02*
X101954500Y-140716000D01*
X101981000Y-144337000D02*
X101981000Y-140742500D01*
X105560500Y-140716000D02*
X105664000Y-140612500D01*
X101954500Y-140716000D02*
X105560500Y-140716000D01*
%TO.N,Net-(D400-Pad1)*%
X112164500Y-138787500D02*
X112268000Y-138684000D01*
X105664000Y-138787500D02*
X112164500Y-138787500D01*
X117856000Y-138684000D02*
X117856000Y-135429000D01*
X112268000Y-138684000D02*
X117856000Y-138684000D01*
X105664000Y-138787500D02*
X105664000Y-135128000D01*
D23*
%TO.N,/powerResistors/IN*%
X183388000Y-131064000D02*
X183388000Y-102108000D01*
X181864000Y-100584000D02*
X178220000Y-100584000D01*
X183388000Y-102108000D02*
X181864000Y-100584000D01*
D24*
X178220000Y-94930500D02*
X178308000Y-94842500D01*
X178220000Y-100584000D02*
X178220000Y-94930500D01*
D22*
%TO.N,Net-(R100-Pad2)*%
X157560500Y-147137000D02*
X157560500Y-147239500D01*
X157582990Y-147261990D02*
X158945990Y-147261990D01*
X157560500Y-147239500D02*
X157582990Y-147261990D01*
X158945990Y-147261990D02*
X159512000Y-147828000D01*
X159512000Y-147828000D02*
X159512000Y-151384000D01*
X159004000Y-151892000D02*
X156360500Y-151892000D01*
X159512000Y-151384000D02*
X159004000Y-151892000D01*
X157480000Y-143256000D02*
X158496000Y-143256000D01*
X156360500Y-142136500D02*
X157480000Y-143256000D01*
X156360500Y-141732000D02*
X156360500Y-142136500D01*
X158496000Y-143256000D02*
X160528000Y-145288000D01*
X159627012Y-147261990D02*
X158945990Y-147261990D01*
X160528000Y-146361002D02*
X159627012Y-147261990D01*
X160528000Y-145288000D02*
X160528000Y-146361002D01*
%TO.N,Net-(R101-Pad2)*%
X144780000Y-152503500D02*
X144780000Y-150264500D01*
X144780000Y-150264500D02*
X149455500Y-150264500D01*
X149455500Y-150264500D02*
X150876000Y-148844000D01*
X151567000Y-147137000D02*
X153335500Y-147137000D01*
X150876000Y-147828000D02*
X151567000Y-147137000D01*
X150876000Y-148844000D02*
X150876000Y-147828000D01*
X149455500Y-150264500D02*
X150772500Y-150264500D01*
X152400000Y-151892000D02*
X154535500Y-151892000D01*
X150772500Y-150264500D02*
X152400000Y-151892000D01*
%TO.N,Net-(R200-Pad1)*%
X147320000Y-129032000D02*
X149352000Y-131064000D01*
X144168500Y-129032000D02*
X147320000Y-129032000D01*
X149352000Y-131064000D02*
X149352000Y-135739500D01*
X145754500Y-135739500D02*
X145731000Y-135763000D01*
X149352000Y-135739500D02*
X145754500Y-135739500D01*
X153256000Y-135739500D02*
X153335500Y-135819000D01*
X149352000Y-135739500D02*
X153256000Y-135739500D01*
X154535500Y-131064000D02*
X149352000Y-131064000D01*
%TO.N,/PWM_OUT*%
X157805000Y-136469000D02*
X157929990Y-136593990D01*
X157929990Y-136593990D02*
X159062010Y-136593990D01*
X157560500Y-136469000D02*
X157805000Y-136469000D01*
X160020000Y-135636000D02*
X160020000Y-131064000D01*
X159062010Y-136593990D02*
X160020000Y-135636000D01*
X156360500Y-131064000D02*
X160020000Y-131064000D01*
X163130000Y-135636000D02*
X163195000Y-135701000D01*
X160020000Y-135636000D02*
X163130000Y-135636000D01*
X159062010Y-136593990D02*
X159062010Y-142806010D01*
X162306000Y-146050000D02*
X162306000Y-150237000D01*
X159062010Y-142806010D02*
X162306000Y-146050000D01*
%TO.N,Net-(R300-Pad1)*%
X140757500Y-134516500D02*
X140781000Y-134493000D01*
X136652000Y-134516500D02*
X140757500Y-134516500D01*
X136652000Y-134516500D02*
X137771500Y-134516500D01*
X137771500Y-134516500D02*
X138684000Y-133604000D01*
X138684000Y-133604000D02*
X138684000Y-130048000D01*
X139700000Y-129032000D02*
X142343500Y-129032000D01*
X138684000Y-130048000D02*
X139700000Y-129032000D01*
%TO.N,Net-(R302-Pad2)*%
X136548500Y-138176000D02*
X136548500Y-142240000D01*
X136548500Y-138176000D02*
X136548500Y-136755500D01*
X137541000Y-135763000D02*
X140781000Y-135763000D01*
X136548500Y-136755500D02*
X137541000Y-135763000D01*
%TO.N,Net-(R302-Pad1)*%
X129436500Y-129032000D02*
X133096000Y-129032000D01*
X131059666Y-135823666D02*
X130999000Y-135763000D01*
X132948820Y-135823666D02*
X131059666Y-135823666D01*
X133604000Y-135168486D02*
X132948820Y-135823666D01*
X133604000Y-129540000D02*
X133604000Y-135168486D01*
X133096000Y-129032000D02*
X133604000Y-129540000D01*
X133604000Y-137056500D02*
X134723500Y-138176000D01*
X133604000Y-135168486D02*
X133604000Y-137056500D01*
%TO.N,Net-(R303-Pad1)*%
X134723500Y-142240000D02*
X131572000Y-142240000D01*
X131572000Y-144375500D02*
X131572000Y-142240000D01*
%TO.N,Net-(R400-Pad1)*%
X123213500Y-134493000D02*
X126049000Y-134493000D01*
X122324500Y-133604000D02*
X123213500Y-134493000D01*
X127611500Y-129032000D02*
X124460000Y-129032000D01*
X122324500Y-131167500D02*
X122324500Y-133604000D01*
X124460000Y-129032000D02*
X122324500Y-131167500D01*
%TO.N,Net-(R402-Pad1)*%
X119681000Y-143049000D02*
X119888000Y-143256000D01*
X119681000Y-138684000D02*
X119681000Y-143049000D01*
X124968000Y-143256000D02*
X119888000Y-143256000D01*
X122602000Y-135763000D02*
X126049000Y-135763000D01*
X119681000Y-138684000D02*
X122602000Y-135763000D01*
X124968000Y-143256000D02*
X127508000Y-143256000D01*
D23*
%TO.N,Net-(C3-Pad1)*%
X167220000Y-100584000D02*
X145708000Y-100584000D01*
D24*
X145796000Y-100496000D02*
X145708000Y-100584000D01*
X145796000Y-94842500D02*
X145796000Y-100496000D01*
D23*
%TO.N,Net-(C4-Pad1)*%
X134708000Y-100584000D02*
X112180000Y-100584000D01*
D24*
X112268000Y-100496000D02*
X112180000Y-100584000D01*
X112268000Y-94842500D02*
X112268000Y-100496000D01*
D23*
%TO.N,Net-(C5-Pad1)*%
X101180000Y-100584000D02*
X101180000Y-50800000D01*
D24*
X101180000Y-45146500D02*
X101092000Y-45058500D01*
X101180000Y-50800000D02*
X101180000Y-45146500D01*
D23*
%TO.N,Net-(C6-Pad1)*%
X112180000Y-50800000D02*
X134708000Y-50800000D01*
D24*
X134708000Y-45146500D02*
X134620000Y-45058500D01*
X134708000Y-50800000D02*
X134708000Y-45146500D01*
D23*
%TO.N,Net-(C7-Pad1)*%
X145708000Y-50800000D02*
X167220000Y-50800000D01*
D24*
X167220000Y-45146500D02*
X167132000Y-45058500D01*
X167220000Y-50800000D02*
X167220000Y-45146500D01*
D23*
%TO.N,Net-(D0-Pad1)*%
X171287000Y-135701000D02*
X171352000Y-135636000D01*
X165608000Y-131064000D02*
X168656000Y-131064000D01*
X168656000Y-131064000D02*
X170688000Y-133096000D01*
%TD*%
D25*
%TO.N,/powerResistors/IN*%
X184785000Y-148616177D02*
X184527715Y-148565000D01*
X183772285Y-148565000D01*
X183031372Y-148712377D01*
X183020211Y-148717000D01*
X176403000Y-148717000D01*
X176403000Y-142367000D01*
X181864000Y-142367000D01*
X181888776Y-142364560D01*
X181912601Y-142357333D01*
X181934557Y-142345597D01*
X181953803Y-142329803D01*
X181969597Y-142310557D01*
X181981333Y-142288601D01*
X181988560Y-142264776D01*
X181991000Y-142240000D01*
X181991000Y-129667000D01*
X184785000Y-129667000D01*
X184785000Y-148616177D01*
%TA.AperFunction,Conductor*%
D26*
G36*
X184785000Y-148616177D02*
G01*
X184527715Y-148565000D01*
X183772285Y-148565000D01*
X183031372Y-148712377D01*
X183020211Y-148717000D01*
X176403000Y-148717000D01*
X176403000Y-142367000D01*
X181864000Y-142367000D01*
X181888776Y-142364560D01*
X181912601Y-142357333D01*
X181934557Y-142345597D01*
X181953803Y-142329803D01*
X181969597Y-142310557D01*
X181981333Y-142288601D01*
X181988560Y-142264776D01*
X181991000Y-142240000D01*
X181991000Y-129667000D01*
X184785000Y-129667000D01*
X184785000Y-148616177D01*
G37*
%TD.AperFunction*%
%TD*%
D25*
%TO.N,GND*%
X100965000Y-151257000D02*
X100584000Y-151257000D01*
X100559224Y-151259440D01*
X100535399Y-151266667D01*
X100513443Y-151278403D01*
X100494197Y-151294197D01*
X100478403Y-151313443D01*
X100466667Y-151335399D01*
X100459440Y-151359224D01*
X100457000Y-151384000D01*
X100457000Y-153289000D01*
X99187000Y-153289000D01*
X99187000Y-148463000D01*
X100965000Y-148463000D01*
X100965000Y-151257000D01*
%TA.AperFunction,Conductor*%
D26*
G36*
X100965000Y-151257000D02*
G01*
X100584000Y-151257000D01*
X100559224Y-151259440D01*
X100535399Y-151266667D01*
X100513443Y-151278403D01*
X100494197Y-151294197D01*
X100478403Y-151313443D01*
X100466667Y-151335399D01*
X100459440Y-151359224D01*
X100457000Y-151384000D01*
X100457000Y-153289000D01*
X99187000Y-153289000D01*
X99187000Y-148463000D01*
X100965000Y-148463000D01*
X100965000Y-151257000D01*
G37*
%TD.AperFunction*%
%TD*%
D25*
%TO.N,GND*%
X100965000Y-145161000D02*
X99187000Y-145161000D01*
X99187000Y-142367000D01*
X100965000Y-142367000D01*
X100965000Y-145161000D01*
%TA.AperFunction,Conductor*%
D26*
G36*
X100965000Y-145161000D02*
G01*
X99187000Y-145161000D01*
X99187000Y-142367000D01*
X100965000Y-142367000D01*
X100965000Y-145161000D01*
G37*
%TD.AperFunction*%
%TD*%
D25*
%TO.N,GND*%
X100965000Y-130429000D02*
X93599000Y-130429000D01*
X93599000Y-127127000D01*
X100965000Y-127127000D01*
X100965000Y-130429000D01*
%TA.AperFunction,Conductor*%
D26*
G36*
X100965000Y-130429000D02*
G01*
X93599000Y-130429000D01*
X93599000Y-127127000D01*
X100965000Y-127127000D01*
X100965000Y-130429000D01*
G37*
%TD.AperFunction*%
%TD*%
D25*
%TO.N,GND*%
X180721000Y-137541000D02*
X176403000Y-137541000D01*
X176403000Y-133731000D01*
X180721000Y-133731000D01*
X180721000Y-137541000D01*
%TA.AperFunction,Conductor*%
D26*
G36*
X180721000Y-137541000D02*
G01*
X176403000Y-137541000D01*
X176403000Y-133731000D01*
X180721000Y-133731000D01*
X180721000Y-137541000D01*
G37*
%TD.AperFunction*%
%TD*%
D25*
%TO.N,GND*%
X188316001Y-141097000D02*
X185547000Y-141097000D01*
X185547000Y-138303000D01*
X188316000Y-138303000D01*
X188316001Y-141097000D01*
%TA.AperFunction,Conductor*%
D26*
G36*
X188316001Y-141097000D02*
G01*
X185547000Y-141097000D01*
X185547000Y-138303000D01*
X188316000Y-138303000D01*
X188316001Y-141097000D01*
G37*
%TD.AperFunction*%
%TD*%
D25*
%TO.N,GND*%
X188316001Y-147193000D02*
X185547000Y-147193000D01*
X185547000Y-144399000D01*
X188316001Y-144399000D01*
X188316001Y-147193000D01*
%TA.AperFunction,Conductor*%
D26*
G36*
X188316001Y-147193000D02*
G01*
X185547000Y-147193000D01*
X185547000Y-144399000D01*
X188316001Y-144399000D01*
X188316001Y-147193000D01*
G37*
%TD.AperFunction*%
%TD*%
D25*
%TO.N,+12V*%
X95885000Y-138557000D02*
X93091000Y-138557000D01*
X93091000Y-131699000D01*
X95885000Y-131699000D01*
X95885000Y-138557000D01*
%TA.AperFunction,Conductor*%
D26*
G36*
X95885000Y-138557000D02*
G01*
X93091000Y-138557000D01*
X93091000Y-131699000D01*
X95885000Y-131699000D01*
X95885000Y-138557000D01*
G37*
%TD.AperFunction*%
%TD*%
D25*
%TO.N,GND*%
X92837000Y-143129000D02*
X90068000Y-143129000D01*
X90068000Y-139827000D01*
X92837000Y-139827000D01*
X92837000Y-143129000D01*
%TA.AperFunction,Conductor*%
D26*
G36*
X92837000Y-143129000D02*
G01*
X90068000Y-143129000D01*
X90068000Y-139827000D01*
X92837000Y-139827000D01*
X92837000Y-143129000D01*
G37*
%TD.AperFunction*%
%TD*%
D25*
%TO.N,+12V*%
X167513000Y-136525000D02*
X164133072Y-136525000D01*
X164133072Y-134876000D01*
X164117929Y-134722255D01*
X164073084Y-134574418D01*
X164000258Y-134438171D01*
X163902251Y-134318749D01*
X163782829Y-134220742D01*
X163703000Y-134178072D01*
X163703000Y-133223000D01*
X167513000Y-133223000D01*
X167513000Y-136525000D01*
%TA.AperFunction,Conductor*%
D26*
G36*
X167513000Y-136525000D02*
G01*
X164133072Y-136525000D01*
X164133072Y-134876000D01*
X164117929Y-134722255D01*
X164073084Y-134574418D01*
X164000258Y-134438171D01*
X163902251Y-134318749D01*
X163782829Y-134220742D01*
X163703000Y-134178072D01*
X163703000Y-133223000D01*
X167513000Y-133223000D01*
X167513000Y-136525000D01*
G37*
%TD.AperFunction*%
%TD*%
D25*
%TO.N,GND*%
X182245000Y-53721000D02*
X175895000Y-53721000D01*
X175895000Y-47879000D01*
X182245000Y-47879000D01*
X182245000Y-53721000D01*
%TA.AperFunction,Conductor*%
D26*
G36*
X182245000Y-53721000D02*
G01*
X175895000Y-53721000D01*
X175895000Y-47879000D01*
X182245000Y-47879000D01*
X182245000Y-53721000D01*
G37*
%TD.AperFunction*%
%TD*%
D25*
%TO.N,+12V*%
X102489000Y-153289000D02*
X101727000Y-153289000D01*
X101727000Y-148463000D01*
X102489000Y-148463000D01*
X102489000Y-153289000D01*
%TA.AperFunction,Conductor*%
D26*
G36*
X102489000Y-153289000D02*
G01*
X101727000Y-153289000D01*
X101727000Y-148463000D01*
X102489000Y-148463000D01*
X102489000Y-153289000D01*
G37*
%TD.AperFunction*%
%TD*%
D25*
%TO.N,Net-(D0-Pad1)*%
X173101000Y-150241000D02*
X167767000Y-150241000D01*
X167767000Y-143764000D01*
X167764560Y-143739224D01*
X167757333Y-143715399D01*
X167745597Y-143693443D01*
X167729803Y-143674197D01*
X167710557Y-143658403D01*
X167688601Y-143646667D01*
X167664776Y-143639440D01*
X167640000Y-143637000D01*
X162687000Y-143637000D01*
X162687000Y-139319000D01*
X168148000Y-139319000D01*
X168172776Y-139316560D01*
X168196601Y-139309333D01*
X168218557Y-139297597D01*
X168237803Y-139281803D01*
X168253597Y-139262557D01*
X168265333Y-139240601D01*
X168272560Y-139216776D01*
X168275000Y-139192000D01*
X168275000Y-132715000D01*
X173101000Y-132715000D01*
X173101000Y-150241000D01*
%TA.AperFunction,Conductor*%
D26*
G36*
X173101000Y-150241000D02*
G01*
X167767000Y-150241000D01*
X167767000Y-143764000D01*
X167764560Y-143739224D01*
X167757333Y-143715399D01*
X167745597Y-143693443D01*
X167729803Y-143674197D01*
X167710557Y-143658403D01*
X167688601Y-143646667D01*
X167664776Y-143639440D01*
X167640000Y-143637000D01*
X162687000Y-143637000D01*
X162687000Y-139319000D01*
X168148000Y-139319000D01*
X168172776Y-139316560D01*
X168196601Y-139309333D01*
X168218557Y-139297597D01*
X168237803Y-139281803D01*
X168253597Y-139262557D01*
X168265333Y-139240601D01*
X168272560Y-139216776D01*
X168275000Y-139192000D01*
X168275000Y-132715000D01*
X173101000Y-132715000D01*
X173101000Y-150241000D01*
G37*
%TD.AperFunction*%
%TD*%
M02*
