M48
; DRILL file {KiCad (5.1.9)-1} date 05/10/21 20:34:29
; FORMAT={-:-/ absolute / inch / decimal}
; #@! TF.CreationDate,2021-05-10T20:34:29-02:30
; #@! TF.GenerationSoftware,Kicad,Pcbnew,(5.1.9)-1
FMAT,2
INCH
T1C0.0157
T2C0.0197
T3C0.0276
T4C0.1260
%
G90
G05
T1
X3.56Y-5.62
X3.6Y-5.62
X3.64Y-5.62
X3.68Y-5.34
X3.72Y-5.34
X3.76Y-5.34
X3.84Y-5.32
X3.88Y-5.02
X3.9Y-5.32
X3.92Y-5.02
X3.92Y-5.62
X3.92Y-5.94
X3.94Y-5.44
X3.94Y-5.48
X3.96Y-5.02
X3.96Y-5.62
X3.96Y-5.94
X3.9663Y-5.32
X4.02Y-5.44
X4.02Y-5.94
X4.02Y-5.98
X4.04Y-1.72
X4.42Y-5.82
X4.48Y-3.68
X4.58Y-5.24
X4.74Y-5.2
X4.8Y-5.74
X4.88Y-5.4
X5.02Y-5.64
X5.2205Y-5.3188
X5.24Y-5.52
X5.24Y-5.76
X5.36Y-1.72
X5.4315Y-5.22
X5.44Y-5.4
X5.58Y-3.06
X5.76Y-5.84
X5.76Y-6.08
X5.8Y-3.68
X5.8Y-5.84
X5.82Y-5.3155
X5.82Y-5.42
X5.9685Y-5.84
X5.98Y-5.42
X6.26Y-5.3
X6.28Y-5.76
X6.46Y-5.26
X6.52Y-5.26
X6.56Y-6.06
X6.58Y-5.26
X6.64Y-1.72
X7.08Y-3.68
X7.1Y-5.3
X7.1Y-5.34
X7.1Y-5.38
X7.14Y-1.9
X7.14Y-2.0
X7.14Y-2.1
X7.4Y-5.46
X7.4Y-5.5
X7.4Y-5.54
X7.4Y-5.7
X7.4Y-5.74
X7.4Y-5.78
T2
X3.6055Y-6.0
X3.6332Y-5.9332
X3.6332Y-6.0668
X3.6555Y-1.25
X3.6832Y-1.1832
X3.6832Y-1.3168
X3.7Y-5.9055
X3.7Y-6.0945
X3.75Y-1.1555
X3.75Y-1.3445
X3.7668Y-5.9332
X3.7668Y-6.0668
X3.7945Y-6.0
X3.8168Y-1.1832
X3.8168Y-1.3168
X3.8445Y-1.25
X7.1055Y-1.25
X7.1332Y-1.1832
X7.1332Y-1.3168
X7.1555Y-6.0
X7.1832Y-5.9332
X7.1832Y-6.0668
X7.2Y-1.1555
X7.2Y-1.3445
X7.25Y-5.9055
X7.25Y-6.0945
X7.2668Y-1.1832
X7.2668Y-1.3168
X7.2945Y-1.25
X7.3168Y-5.9332
X7.3168Y-6.0668
X7.3445Y-6.0
T3
X4.72Y-5.64
X4.72Y-5.74
X5.48Y-2.98
X5.58Y-2.98
T4
X3.7Y-6.0
X3.75Y-1.25
X7.2Y-1.25
X7.25Y-6.0
T0
M30
