%TF.GenerationSoftware,KiCad,Pcbnew,(5.1.8)-1*%
%TF.CreationDate,2022-01-18T09:11:41-03:30*%
%TF.ProjectId,beverageWarmer1,62657665-7261-4676-9557-61726d657231,rev?*%
%TF.SameCoordinates,Original*%
%TF.FileFunction,Legend,Bot*%
%TF.FilePolarity,Positive*%
%FSLAX46Y46*%
G04 Gerber Fmt 4.6, Leading zero omitted, Abs format (unit mm)*
G04 Created by KiCad (PCBNEW (5.1.8)-1) date 2022-01-18 09:11:41*
%MOMM*%
%LPD*%
G01*
G04 APERTURE LIST*
%ADD10C,0.120000*%
%ADD11C,0.150000*%
G04 APERTURE END LIST*
D10*
%TO.C,C20*%
X128500600Y-141185020D02*
X128500600Y-141466180D01*
X127480600Y-141185020D02*
X127480600Y-141466180D01*
%TO.C,R27*%
X129042900Y-141578098D02*
X129042900Y-141103582D01*
X130087900Y-141578098D02*
X130087900Y-141103582D01*
%TD*%
%TO.C,C20*%
D11*
X126823742Y-140695742D02*
X126871361Y-140648123D01*
X126918980Y-140505266D01*
X126918980Y-140410028D01*
X126871361Y-140267171D01*
X126776123Y-140171933D01*
X126680885Y-140124314D01*
X126490409Y-140076695D01*
X126347552Y-140076695D01*
X126157076Y-140124314D01*
X126061838Y-140171933D01*
X125966600Y-140267171D01*
X125918980Y-140410028D01*
X125918980Y-140505266D01*
X125966600Y-140648123D01*
X126014219Y-140695742D01*
X126014219Y-141076695D02*
X125966600Y-141124314D01*
X125918980Y-141219552D01*
X125918980Y-141457647D01*
X125966600Y-141552885D01*
X126014219Y-141600504D01*
X126109457Y-141648123D01*
X126204695Y-141648123D01*
X126347552Y-141600504D01*
X126918980Y-141029076D01*
X126918980Y-141648123D01*
X125918980Y-142267171D02*
X125918980Y-142362409D01*
X125966600Y-142457647D01*
X126014219Y-142505266D01*
X126109457Y-142552885D01*
X126299933Y-142600504D01*
X126538028Y-142600504D01*
X126728504Y-142552885D01*
X126823742Y-142505266D01*
X126871361Y-142457647D01*
X126918980Y-142362409D01*
X126918980Y-142267171D01*
X126871361Y-142171933D01*
X126823742Y-142124314D01*
X126728504Y-142076695D01*
X126538028Y-142029076D01*
X126299933Y-142029076D01*
X126109457Y-142076695D01*
X126014219Y-142124314D01*
X125966600Y-142171933D01*
X125918980Y-142267171D01*
%TO.C,R27*%
X131541780Y-140697982D02*
X131065590Y-140364649D01*
X131541780Y-140126554D02*
X130541780Y-140126554D01*
X130541780Y-140507506D01*
X130589400Y-140602744D01*
X130637019Y-140650363D01*
X130732257Y-140697982D01*
X130875114Y-140697982D01*
X130970352Y-140650363D01*
X131017971Y-140602744D01*
X131065590Y-140507506D01*
X131065590Y-140126554D01*
X130637019Y-141078935D02*
X130589400Y-141126554D01*
X130541780Y-141221792D01*
X130541780Y-141459887D01*
X130589400Y-141555125D01*
X130637019Y-141602744D01*
X130732257Y-141650363D01*
X130827495Y-141650363D01*
X130970352Y-141602744D01*
X131541780Y-141031316D01*
X131541780Y-141650363D01*
X130541780Y-141983697D02*
X130541780Y-142650363D01*
X131541780Y-142221792D01*
%TD*%
M02*
